<?xml version="1.0" encoding="utf-8"?>
<!-- Generator: Adobe Illustrator 25.2.0, SVG Export Plug-In . SVG Version: 6.00 Build 0)  -->
<svg version="1.1" id="_Слой_1" xmlns="http://www.w3.org/2000/svg" xmlns:xlink="http://www.w3.org/1999/xlink" x="0px"
	 y="0px" viewBox="0 0 213.4 214.1" style="enable-background:new 0 0 213.4 214.1;" xml:space="preserve">
<style type="text/css">
	.st0{fill:none;stroke:url(#SVGID_1_);stroke-width:2;stroke-linejoin:round;}
	.st1{fill:url(#SVGID_2_);}
</style>
<g>
	<linearGradient id="SVGID_1_" gradientUnits="userSpaceOnUse" x1="1.9" y1="107.905" x2="210.41" y2="107.905">
		<stop  offset="0" style="stop-color:#FFFFFF"/>
		<stop  offset="0.4843" style="stop-color:#FFFFFF"/>
		<stop  offset="1" style="stop-color:#000000"/>
	</linearGradient>
	<path class="st0" d="M128.6,2.2c14.1,0,25,4.5,32.7,13.5C171.1,8.6,180.7,5,190,5s15.6,4.6,19.4,13.8l-0.2,0.4
		c-3.6-8.9-9.8-13.4-18.7-13.4c-9.4,0-19,3.5-28.6,10.6c4.7,5.8,7.8,12.8,9.5,21c1.7,8.2,1.9,16.5,0.6,24.8
		c-1.8,11.9-6.3,23.8-13.5,35.7c-7.2,12-16.5,21.9-27.9,30c-1,10.6-3.5,21-7.6,31.2c-4.1,10.2-9.4,19.3-15.8,27.4
		s-14.2,14.6-23.3,19.6s-18.8,7.4-28.9,7.4c-7,0-13.5-1.3-19.3-3.9c-5.9-2.6-10.8-6.1-14.7-10.7c-4-4.5-7.3-9.8-10-15.9
		c-2.7-6.1-4.7-12.5-6-19.3c-1.3-6.8-1.9-13.8-1.9-21.2c0-11.8,2.2-24.2,6.5-37.4s10.5-25.8,18.5-37.9c8-12.1,17.1-23,27.3-32.8
		S77,16.9,89.9,11S115.6,2.2,128.6,2.2L128.6,2.2z M128.5,3.1c-9.7,0-19.5,2.2-29.6,6.7c-10.1,4.5-19.5,10.4-28.2,17.9
		s-17,16.2-24.8,26.2c-7.8,10-14.5,20.5-20,31.5c-5.6,10.9-10,22.3-13.2,34s-4.8,22.9-4.8,33.4c0,19.4,4.3,34.2,13,44.5
		s20.1,15.4,34.2,15.4c10,0,19.5-2.4,28.5-7.3c9-4.9,16.7-11.3,23-19.3c6.3-8,11.6-16.9,15.7-26.9s6.7-20.2,7.7-30.6
		c-14.2,9.8-30.1,15.1-47.8,16c-7.1,0-16.3-2.2-27.4-6.5c-0.4,0-1,0-1.8,0.1s-1.4,0.1-1.8,0.1h-3.1c-0.2,1-0.3,2.4-0.5,4.4
		c-0.2,1.5-0.2,3.6-0.2,6.3c0,8.4,1.3,15.2,4,20.2c2.7,5.1,6.7,7.6,12.1,7.6v0.9c-5.7,0-9.9-2.6-12.7-7.7c-2.8-5.1-4.2-12-4.2-20.6
		c0-2.8,0.1-5.1,0.2-6.6c0.2-2,0.3-3.4,0.5-4.4H36.9c-1.7-0.4-2.8-1.3-3.1-2.7c-0.3-1.4,0-2.8,0.9-4c0.9-1.2,2.2-1.8,3.6-1.8
		c1.4,0,4.5,1.5,9.5,4.4c1.4-6.4,3.7-12.7,6.9-19.1s7-12.3,11.5-17.7c4.5-5.4,9.7-9.8,15.6-13.2c5.9-3.4,12-5.1,18.1-5.1
		c2.9,0,5.8,0.4,8.7,1.2c4.9-7.4,8.9-13.5,12.1-18.1c3.2-4.6,7-10,11.7-16.2c4.6-6.2,9.1-11.7,13.6-16.4s8.8-8.8,13.3-12.2
		C153.3,7.9,143,3.1,128.5,3.1L128.5,3.1z M55.7,137c2.6-0.1,5.3-0.8,8-2.1s5.6-3.4,8.8-6.5s5.9-5.9,8.2-8.4s5.4-6.5,9.2-12
		c3.8-5.5,6.8-9.7,8.7-12.6c2-2.9,5.2-7.7,9.6-14.5c-3-0.7-5.8-1-8.2-1c-6.1,0-12,1.7-17.9,5c-5.9,3.3-11,7.7-15.4,13.1
		s-8.2,11.2-11.3,17.6c-3.2,6.3-5.4,12.6-6.8,18.9C51.1,136.1,53.5,136.9,55.7,137L55.7,137z M81.9,143.8c7.9-0.1,16.1-2.3,24.4-6.6
		c8.3-4.3,16.3-10.2,24-17.8v-0.6c0-14.8-4.1-25.7-12.3-32.6c-3.6,7.3-7.4,13.9-11.3,19.6c-6,8.8-13.5,16.2-22.7,22.3
		c-9.1,6-18.4,9.4-27.7,10.1C66.5,141.9,75,143.8,81.9,143.8L81.9,143.8z M154.6,22.4c-4.5,4-8.6,8.8-12.3,14.2s-6.5,10.3-8.5,14.5
		s-4.6,10-7.7,17.3c-3.1,7.2-5.7,12.9-7.7,17c8.3,7,12.5,18,12.6,33.2c8.6-8.8,15.9-18.8,21.9-30.1c6-11.2,9.9-22.5,11.6-33.7
		c2.3-15.1,0.6-27.3-4.9-36.8c-0.2,0.2-1,0.8-2.2,1.8C156.2,21,155.3,21.8,154.6,22.4L154.6,22.4z"/>
	<linearGradient id="SVGID_2_" gradientUnits="userSpaceOnUse" x1="107.0972" y1="35.9974" x2="105.0102" y2="134.0844">
		<stop  offset="0.1098" style="stop-color:#3B1501"/>
		<stop  offset="0.4843" style="stop-color:#914900"/>
		<stop  offset="0.966" style="stop-color:#000000"/>
	</linearGradient>
	<path class="st1" d="M128.6,2.2c14.1,0,25,4.5,32.7,13.5C171.1,8.6,180.7,5,190,5s15.6,4.6,19.4,13.8l-0.2,0.4
		c-3.6-8.9-9.8-13.4-18.7-13.4c-9.4,0-19,3.5-28.6,10.6c4.7,5.8,7.8,12.8,9.5,21c1.7,8.2,1.9,16.5,0.6,24.8
		c-1.8,11.9-6.3,23.8-13.5,35.7c-7.2,12-16.5,21.9-27.9,30c-1,10.6-3.5,21-7.6,31.2c-4.1,10.2-9.4,19.3-15.8,27.4
		s-14.2,14.6-23.3,19.6s-18.8,7.4-28.9,7.4c-7,0-13.5-1.3-19.3-3.9c-5.9-2.6-10.8-6.1-14.7-10.7c-4-4.5-7.3-9.8-10-15.9
		c-2.7-6.1-4.7-12.5-6-19.3c-1.3-6.8-1.9-13.8-1.9-21.2c0-11.8,2.2-24.2,6.5-37.4s10.5-25.8,18.5-37.9c8-12.1,17.1-23,27.3-32.8
		S77,16.9,89.9,11S115.6,2.2,128.6,2.2L128.6,2.2z M128.5,3.1c-9.7,0-19.5,2.2-29.6,6.7c-10.1,4.5-19.5,10.4-28.2,17.9
		s-17,16.2-24.8,26.2c-7.8,10-14.5,20.5-20,31.5c-5.6,10.9-10,22.3-13.2,34s-4.8,22.9-4.8,33.4c0,19.4,4.3,34.2,13,44.5
		s20.1,15.4,34.2,15.4c10,0,19.5-2.4,28.5-7.3c9-4.9,16.7-11.3,23-19.3c6.3-8,11.6-16.9,15.7-26.9s6.7-20.2,7.7-30.6
		c-14.2,9.8-30.1,15.1-47.8,16c-7.1,0-16.3-2.2-27.4-6.5c-0.4,0-1,0-1.8,0.1s-1.4,0.1-1.8,0.1h-3.1c-0.2,1-0.3,2.4-0.5,4.4
		c-0.2,1.5-0.2,3.6-0.2,6.3c0,8.4,1.3,15.2,4,20.2c2.7,5.1,6.7,7.6,12.1,7.6v0.9c-5.7,0-9.9-2.6-12.7-7.7c-2.8-5.1-4.2-12-4.2-20.6
		c0-2.8,0.1-5.1,0.2-6.6c0.2-2,0.3-3.4,0.5-4.4H36.9c-1.7-0.4-2.8-1.3-3.1-2.7c-0.3-1.4,0-2.8,0.9-4c0.9-1.2,2.2-1.8,3.6-1.8
		c1.4,0,4.5,1.5,9.5,4.4c1.4-6.4,3.7-12.7,6.9-19.1s7-12.3,11.5-17.7c4.5-5.4,9.7-9.8,15.6-13.2c5.9-3.4,12-5.1,18.1-5.1
		c2.9,0,5.8,0.4,8.7,1.2c4.9-7.4,8.9-13.5,12.1-18.1c3.2-4.6,7-10,11.7-16.2c4.6-6.2,9.1-11.7,13.6-16.4s8.8-8.8,13.3-12.2
		C153.3,7.9,143,3.1,128.5,3.1L128.5,3.1z M55.7,137c2.6-0.1,5.3-0.8,8-2.1s5.6-3.4,8.8-6.5s5.9-5.9,8.2-8.4s5.4-6.5,9.2-12
		c3.8-5.5,6.8-9.7,8.7-12.6c2-2.9,5.2-7.7,9.6-14.5c-3-0.7-5.8-1-8.2-1c-6.1,0-12,1.7-17.9,5c-5.9,3.3-11,7.7-15.4,13.1
		s-8.2,11.2-11.3,17.6c-3.2,6.3-5.4,12.6-6.8,18.9C51.1,136.1,53.5,136.9,55.7,137L55.7,137z M81.9,143.8c7.9-0.1,16.1-2.3,24.4-6.6
		c8.3-4.3,16.3-10.2,24-17.8v-0.6c0-14.8-4.1-25.7-12.3-32.6c-3.6,7.3-7.4,13.9-11.3,19.6c-6,8.8-13.5,16.2-22.7,22.3
		c-9.1,6-18.4,9.4-27.7,10.1C66.5,141.9,75,143.8,81.9,143.8L81.9,143.8z M154.6,22.4c-4.5,4-8.6,8.8-12.3,14.2s-6.5,10.3-8.5,14.5
		s-4.6,10-7.7,17.3c-3.1,7.2-5.7,12.9-7.7,17c8.3,7,12.5,18,12.6,33.2c8.6-8.8,15.9-18.8,21.9-30.1c6-11.2,9.9-22.5,11.6-33.7
		c2.3-15.1,0.6-27.3-4.9-36.8c-0.2,0.2-1,0.8-2.2,1.8C156.2,21,155.3,21.8,154.6,22.4L154.6,22.4z"/>
</g>
</svg>
