<svg xmlns="http://www.w3.org/2000/svg" xmlns:xlink="http://www.w3.org/1999/xlink" viewBox="0 0 144.76 122.04">
  <defs>
    <linearGradient id="a" data-name="Безымянный градиент 2" x1="4.44" y1="62.7" x2="149.2" y2="62.7" gradientUnits="userSpaceOnUse">
      <stop offset="0.01" stop-color="#fffeee"/>
      <stop offset="0.28" stop-color="#f3f4e9"/>
      <stop offset="0.75" stop-color="#d7dade"/>
      <stop offset="0.88" stop-color="#dcd8d4"/>
    </linearGradient>
    <radialGradient id="b" data-name="Pearl" cx="76.82" cy="62.7" r="66.94" xlink:href="#a"/>
    <linearGradient id="c" data-name="letter" x1="76.82" y1="123.22" x2="76.82" y2="2.17" gradientUnits="userSpaceOnUse">
      <stop offset="0" stop-color="#2a1400"/>
      <stop offset="0.1" stop-color="#2d1501"/>
      <stop offset="0.17" stop-color="#361902"/>
      <stop offset="0.23" stop-color="#462006"/>
      <stop offset="0.29" stop-color="#5d2a0a"/>
      <stop offset="0.34" stop-color="#7a3610"/>
      <stop offset="0.4" stop-color="#9d4517"/>
      <stop offset="0.45" stop-color="#c7571f"/>
      <stop offset="0.49" stop-color="#f76c28"/>
      <stop offset="0.5" stop-color="#ff6f2a"/>
      <stop offset="0.5" stop-color="#fc6e29"/>
      <stop offset="0.53" stop-color="#d05b21"/>
      <stop offset="0.56" stop-color="#a94a19"/>
      <stop offset="0.59" stop-color="#873c12"/>
      <stop offset="0.63" stop-color="#6a2f0d"/>
      <stop offset="0.67" stop-color="#522508"/>
      <stop offset="0.72" stop-color="#401d04"/>
      <stop offset="0.77" stop-color="#331802"/>
      <stop offset="0.84" stop-color="#2c1500"/>
      <stop offset="1" stop-color="#2a1400"/>
    </linearGradient>
  </defs>
  <g>
    <path d="M68.65,46.87c3-4.64,6-9.06,8.95-13.27a151.21,151.21,0,0,1,9.77-12.53,55,55,0,0,1,9.15-8.53,14.78,14.78,0,0,1,8.54-3.16c1.63,0,2.55.94,2.55,2.94s-.82,4.43-2.34,7.48a48.88,48.88,0,0,1-7,9.9,85.41,85.41,0,0,1-11.6,10.64A81.31,81.31,0,0,1,71.6,49.29c-2.34,4.21-4.88,8.21-7.53,12.22-2.44,4-5,7.79-7.52,11.47-.61,1.06-1.22,2.22-1.94,3.27h-.3a10.51,10.51,0,0,1-.61,1c-3.46,5-6.72,9.69-10,14s-6.21,8.21-8.85,11.37a88.3,88.3,0,0,1-6.81,7.58c-1.84,1.79-3.16,2.74-3.87,2.74-1.53,0-2.24-.84-2.24-2.42,0-2,1.12-5,3.46-9.27a147.94,147.94,0,0,1,9.46-14.53c4-5.48,8.65-11.48,14.14-18C53.49,63.4,58.27,58,63.26,52.55a111,111,0,0,1-12.72,3.27,78.25,78.25,0,0,1-17.39,1.79c-10.27,0-16.14-1.81-21-5.18-4.34-5.66-6.35-5.56-7-13.56C3.45,20.09,15.73,13,27.61,8.43c17.48-5.91,46.94,10.38,75.93,8,5.49-.42,10.68-1,15.46-1.79s9.15-1.79,12.92-2.84a43,43,0,0,0,9.76-4,18.39,18.39,0,0,0,6-5.48c.1-.11.31-.11.51-.11s.51.21.51.74c0,1.26-1,3.06-3,5.27a39.42,39.42,0,0,1-8.55,6.53,60.46,60.46,0,0,1-13.22,5.47,59.43,59.43,0,0,1-17.29,2.32,76.81,76.81,0,0,1-8.44-.42c-2.85-.21-5.73,0-8.75-.42C78.92,20.2,74.31,18.37,66,15.8,55.5,12.55,40.12,6.14,28,11.06c-6.18,2.51-7.83,6.32-10.68,10.85s-4.37,9-4.37,13.27A18.47,18.47,0,0,0,14.64,43c1.12,2.42,2.3,5.15,4.53,6.94a16.72,16.72,0,0,0,6.76,3.59,40,40,0,0,0,11.9,1.58,68.62,68.62,0,0,0,15.66-1.79,86.15,86.15,0,0,0,13-4.21m-6,10.32.1-.32q-7.62,8.53-14,16.43c-4.38,5.27-8,10.11-11.29,14.43a108.49,108.49,0,0,0-7.43,11.16c-1.83,3.06-2.64,5.27-2.64,6.53,0,.84.4,1.16,1.22,1.16.51,0,1.93-1.37,4.17-4.11s5-6.42,8.24-11,6.71-9.79,10.47-15.8M86.76,61.61A19.89,19.89,0,0,1,95.91,69a24.2,24.2,0,0,1,4.17,10.32,20.66,20.66,0,0,1,.1,6.64,31.66,31.66,0,0,1-1.32,6c3-.74,3.56-1,6.81-1.68s6.72-1.27,10.38-2c.92,0,1.42.32,1.42,1.06,0,.52-.3.84-.91,1-4,.63-7.73,1.26-11.19,1.89a69.79,69.79,0,0,0-7,1.37,46,46,0,0,1-12.61,13.06c-4.58,3-9.46,5.9-14,8.42A85,85,0,0,1,58,121a39.24,39.24,0,0,1-11.7,2.21,11.18,11.18,0,0,1-5.39-1.06A3.71,3.71,0,0,1,39,118.58c0-1.26.81-2.84,2.54-4.74a36,36,0,0,1,8.34-6,116,116,0,0,1,15.46-6.74,210.16,210.16,0,0,1,23.81-7,30.21,30.21,0,0,0,3.25-6.85,26.09,26.09,0,0,0,1.12-7.48,18.78,18.78,0,0,0-2.75-10.11A16,16,0,0,0,83,63.08a45.55,45.55,0,0,1-6,1.37A32.64,32.64,0,0,1,71.7,65a6.4,6.4,0,0,1-2.54-.53,2.41,2.41,0,0,1-1.32-1.68c0-.84.91-1.48,2.64-2a21.88,21.88,0,0,1,6.1-.84,30.62,30.62,0,0,1,3.26.21,31.33,31.33,0,0,1,3.15.52Zm.81,34.12a187,187,0,0,0-19.43,5.79,121,121,0,0,0-14.44,6.11,42.69,42.69,0,0,0-9,5.79c-2,1.79-3,3.48-3,5,0,.95,1,1.48,3.15,1.48a31.38,31.38,0,0,0,8.75-1.69,68.22,68.22,0,0,0,11.8-4.74,83.23,83.23,0,0,0,12.2-7.58A48.7,48.7,0,0,0,87.57,95.73ZM75,61.29c-.72,0-1.53.11-2.65.22s-1.52.42-1.52.84.3.42,1,.42a26.06,26.06,0,0,0,7.12-1.05Zm30.21-48.65c0-.63-.21-.84-.61-.84A13,13,0,0,0,97,14.43,44.09,44.09,0,0,0,89.2,21.7a111.19,111.19,0,0,0-8,10.84c-2.75,4.11-5.49,8.53-8.24,13.17a77.51,77.51,0,0,0,13.63-9.37,104.59,104.59,0,0,0,10.07-9.9A63.85,63.85,0,0,0,103,17.91C104.35,15.59,105.17,13.8,105.17,12.64Z" transform="translate(-4.44 -1.67)" style="fill: none;stroke-miterlimit: 10;stroke: url(#a)"/>
    <path d="M68.65,46.87c3-4.64,6-9.06,8.95-13.27a151.21,151.21,0,0,1,9.77-12.53,55,55,0,0,1,9.15-8.53,14.78,14.78,0,0,1,8.54-3.16c1.63,0,2.55.94,2.55,2.94s-.82,4.43-2.34,7.48a48.88,48.88,0,0,1-7,9.9,85.41,85.41,0,0,1-11.6,10.64A81.31,81.31,0,0,1,71.6,49.29c-2.34,4.21-4.88,8.21-7.53,12.22-2.44,4-5,7.79-7.52,11.47-.61,1.06-1.22,2.22-1.94,3.27h-.3a10.51,10.51,0,0,1-.61,1c-3.46,5-6.72,9.69-10,14s-6.21,8.21-8.85,11.37a88.3,88.3,0,0,1-6.81,7.58c-1.84,1.79-3.16,2.74-3.87,2.74-1.53,0-2.24-.84-2.24-2.42,0-2,1.12-5,3.46-9.27a147.94,147.94,0,0,1,9.46-14.53c4-5.48,8.65-11.48,14.14-18C53.49,63.4,58.27,58,63.26,52.55a111,111,0,0,1-12.72,3.27,78.25,78.25,0,0,1-17.39,1.79c-10.27,0-16.14-1.81-21-5.18-4.34-5.66-6.35-5.56-7-13.56C3.45,20.09,15.73,13,27.61,8.43c17.48-5.91,46.94,10.38,75.93,8,5.49-.42,10.68-1,15.46-1.79s9.15-1.79,12.92-2.84a43,43,0,0,0,9.76-4,18.39,18.39,0,0,0,6-5.48c.1-.11.31-.11.51-.11s.51.21.51.74c0,1.26-1,3.06-3,5.27a39.42,39.42,0,0,1-8.55,6.53,60.46,60.46,0,0,1-13.22,5.47,59.43,59.43,0,0,1-17.29,2.32,76.81,76.81,0,0,1-8.44-.42c-2.85-.21-5.73,0-8.75-.42C78.92,20.2,74.31,18.37,66,15.8,55.5,12.55,40.12,6.14,28,11.06c-6.18,2.51-7.83,6.32-10.68,10.85s-4.37,9-4.37,13.27A18.47,18.47,0,0,0,14.64,43c1.12,2.42,2.3,5.15,4.53,6.94a16.72,16.72,0,0,0,6.76,3.59,40,40,0,0,0,11.9,1.58,68.62,68.62,0,0,0,15.66-1.79,86.15,86.15,0,0,0,13-4.21m-6,10.32.1-.32q-7.62,8.53-14,16.43c-4.38,5.27-8,10.11-11.29,14.43a108.49,108.49,0,0,0-7.43,11.16c-1.83,3.06-2.64,5.27-2.64,6.53,0,.84.4,1.16,1.22,1.16.51,0,1.93-1.37,4.17-4.11s5-6.42,8.24-11,6.71-9.79,10.47-15.8M86.76,61.61A19.89,19.89,0,0,1,95.91,69a24.2,24.2,0,0,1,4.17,10.32,20.66,20.66,0,0,1,.1,6.64,31.66,31.66,0,0,1-1.32,6c3-.74,3.56-1,6.81-1.68s6.72-1.27,10.38-2c.92,0,1.42.32,1.42,1.06,0,.52-.3.84-.91,1-4,.63-7.73,1.26-11.19,1.89a69.79,69.79,0,0,0-7,1.37,46,46,0,0,1-12.61,13.06c-4.58,3-9.46,5.9-14,8.42A85,85,0,0,1,58,121a39.24,39.24,0,0,1-11.7,2.21,11.18,11.18,0,0,1-5.39-1.06A3.71,3.71,0,0,1,39,118.58c0-1.26.81-2.84,2.54-4.74a36,36,0,0,1,8.34-6,116,116,0,0,1,15.46-6.74,210.16,210.16,0,0,1,23.81-7,30.21,30.21,0,0,0,3.25-6.85,26.09,26.09,0,0,0,1.12-7.48,18.78,18.78,0,0,0-2.75-10.11A16,16,0,0,0,83,63.08a45.55,45.55,0,0,1-6,1.37A32.64,32.64,0,0,1,71.7,65a6.4,6.4,0,0,1-2.54-.53,2.41,2.41,0,0,1-1.32-1.68c0-.84.91-1.48,2.64-2a21.88,21.88,0,0,1,6.1-.84,30.62,30.62,0,0,1,3.26.21,31.33,31.33,0,0,1,3.15.52Zm.81,34.12a187,187,0,0,0-19.43,5.79,121,121,0,0,0-14.44,6.11,42.69,42.69,0,0,0-9,5.79c-2,1.79-3,3.48-3,5,0,.95,1,1.48,3.15,1.48a31.38,31.38,0,0,0,8.75-1.69,68.22,68.22,0,0,0,11.8-4.74,83.23,83.23,0,0,0,12.2-7.58A48.7,48.7,0,0,0,87.57,95.73ZM75,61.29c-.72,0-1.53.11-2.65.22s-1.52.42-1.52.84.3.42,1,.42a26.06,26.06,0,0,0,7.12-1.05Zm30.21-48.65c0-.63-.21-.84-.61-.84A13,13,0,0,0,97,14.43,44.09,44.09,0,0,0,89.2,21.7a111.19,111.19,0,0,0-8,10.84c-2.75,4.11-5.49,8.53-8.24,13.17a77.51,77.51,0,0,0,13.63-9.37,104.59,104.59,0,0,0,10.07-9.9A63.85,63.85,0,0,0,103,17.91C104.35,15.59,105.17,13.8,105.17,12.64Z" transform="translate(-4.44 -1.67)" style="fill: none;stroke-miterlimit: 10;stroke: url(#b)"/>
    <path d="M68.65,46.87c3-4.64,6-9.06,8.95-13.27a151.21,151.21,0,0,1,9.77-12.53,55,55,0,0,1,9.15-8.53,14.78,14.78,0,0,1,8.54-3.16c1.63,0,2.55.94,2.55,2.94s-.82,4.43-2.34,7.48a48.88,48.88,0,0,1-7,9.9,85.41,85.41,0,0,1-11.6,10.64A81.31,81.31,0,0,1,71.6,49.29c-2.34,4.21-4.88,8.21-7.53,12.22-2.44,4-5,7.79-7.52,11.47-.61,1.06-1.22,2.22-1.94,3.27h-.3a10.51,10.51,0,0,1-.61,1c-3.46,5-6.72,9.69-10,14s-6.21,8.21-8.85,11.37a88.3,88.3,0,0,1-6.81,7.58c-1.84,1.79-3.16,2.74-3.87,2.74-1.53,0-2.24-.84-2.24-2.42,0-2,1.12-5,3.46-9.27a147.94,147.94,0,0,1,9.46-14.53c4-5.48,8.65-11.48,14.14-18C53.49,63.4,58.27,58,63.26,52.55a111,111,0,0,1-12.72,3.27,78.25,78.25,0,0,1-17.39,1.79c-10.27,0-16.14-1.81-21-5.18-4.34-5.66-6.35-5.56-7-13.56C3.45,20.09,15.73,13,27.61,8.43c17.48-5.91,46.94,10.38,75.93,8,5.49-.42,10.68-1,15.46-1.79s9.15-1.79,12.92-2.84a43,43,0,0,0,9.76-4,18.39,18.39,0,0,0,6-5.48c.1-.11.31-.11.51-.11s.51.21.51.74c0,1.26-1,3.06-3,5.27a39.42,39.42,0,0,1-8.55,6.53,60.46,60.46,0,0,1-13.22,5.47,59.43,59.43,0,0,1-17.29,2.32,76.81,76.81,0,0,1-8.44-.42c-2.85-.21-5.73,0-8.75-.42C78.92,20.2,74.31,18.37,66,15.8,55.5,12.55,40.12,6.14,28,11.06c-6.18,2.51-7.83,6.32-10.68,10.85s-4.37,9-4.37,13.27A18.47,18.47,0,0,0,14.64,43c1.12,2.42,2.3,5.15,4.53,6.94a16.72,16.72,0,0,0,6.76,3.59,40,40,0,0,0,11.9,1.58,68.62,68.62,0,0,0,15.66-1.79,86.15,86.15,0,0,0,13-4.21m-6,10.32.1-.32q-7.62,8.53-14,16.43c-4.38,5.27-8,10.11-11.29,14.43a108.49,108.49,0,0,0-7.43,11.16c-1.83,3.06-2.64,5.27-2.64,6.53,0,.84.4,1.16,1.22,1.16.51,0,1.93-1.37,4.17-4.11s5-6.42,8.24-11,6.71-9.79,10.47-15.8M86.76,61.61A19.89,19.89,0,0,1,95.91,69a24.2,24.2,0,0,1,4.17,10.32,20.66,20.66,0,0,1,.1,6.64,31.66,31.66,0,0,1-1.32,6c3-.74,3.56-1,6.81-1.68s6.72-1.27,10.38-2c.92,0,1.42.32,1.42,1.06,0,.52-.3.84-.91,1-4,.63-7.73,1.26-11.19,1.89a69.79,69.79,0,0,0-7,1.37,46,46,0,0,1-12.61,13.06c-4.58,3-9.46,5.9-14,8.42A85,85,0,0,1,58,121a39.24,39.24,0,0,1-11.7,2.21,11.18,11.18,0,0,1-5.39-1.06A3.71,3.71,0,0,1,39,118.58c0-1.26.81-2.84,2.54-4.74a36,36,0,0,1,8.34-6,116,116,0,0,1,15.46-6.74,210.16,210.16,0,0,1,23.81-7,30.21,30.21,0,0,0,3.25-6.85,26.09,26.09,0,0,0,1.12-7.48,18.78,18.78,0,0,0-2.75-10.11A16,16,0,0,0,83,63.08a45.55,45.55,0,0,1-6,1.37A32.64,32.64,0,0,1,71.7,65a6.4,6.4,0,0,1-2.54-.53,2.41,2.41,0,0,1-1.32-1.68c0-.84.91-1.48,2.64-2a21.88,21.88,0,0,1,6.1-.84,30.62,30.62,0,0,1,3.26.21,31.33,31.33,0,0,1,3.15.52Zm.81,34.12a187,187,0,0,0-19.43,5.79,121,121,0,0,0-14.44,6.11,42.69,42.69,0,0,0-9,5.79c-2,1.79-3,3.48-3,5,0,.95,1,1.48,3.15,1.48a31.38,31.38,0,0,0,8.75-1.69,68.22,68.22,0,0,0,11.8-4.74,83.23,83.23,0,0,0,12.2-7.58A48.7,48.7,0,0,0,87.57,95.73ZM75,61.29c-.72,0-1.53.11-2.65.22s-1.52.42-1.52.84.3.42,1,.42a26.06,26.06,0,0,0,7.12-1.05Zm30.21-48.65c0-.63-.21-.84-.61-.84A13,13,0,0,0,97,14.43,44.09,44.09,0,0,0,89.2,21.7a111.19,111.19,0,0,0-8,10.84c-2.75,4.11-5.49,8.53-8.24,13.17a77.51,77.51,0,0,0,13.63-9.37,104.59,104.59,0,0,0,10.07-9.9A63.85,63.85,0,0,0,103,17.91C104.35,15.59,105.17,13.8,105.17,12.64Z" transform="translate(-4.44 -1.67)" style="fill: url(#c)"/>
  </g>
</svg>
