<svg xmlns="http://www.w3.org/2000/svg" xmlns:xlink="http://www.w3.org/1999/xlink" viewBox="0 0 170.92 134.8">
  <defs>
    <linearGradient id="a" data-name="Безымянный градиент 122" x1="105.96" y1="134.1" x2="105.96" y2="0.3" gradientUnits="userSpaceOnUse">
      <stop offset="0" stop-color="#3a1500"/>
      <stop offset="0.25" stop-color="#3b1501"/>
      <stop offset="0.37" stop-color="#3d1601"/>
      <stop offset="0.42" stop-color="#441a01"/>
      <stop offset="0.45" stop-color="#4f2101"/>
      <stop offset="0.47" stop-color="#602b01"/>
      <stop offset="0.5" stop-color="#763901"/>
      <stop offset="0.52" stop-color="#924900"/>
      <stop offset="0.53" stop-color="#b15c00"/>
      <stop offset="0.54" stop-color="#c76900"/>
      <stop offset="0.56" stop-color="#b05b00"/>
      <stop offset="0.59" stop-color="#914900"/>
      <stop offset="0.62" stop-color="#753800"/>
      <stop offset="0.65" stop-color="#5f2b00"/>
      <stop offset="0.69" stop-color="#4e2100"/>
      <stop offset="0.74" stop-color="#431a00"/>
      <stop offset="0.81" stop-color="#3c1600"/>
      <stop offset="1" stop-color="#3a1500"/>
    </linearGradient>
  </defs>
  <path d="M171,28a49.51,49.51,0,0,1,4.3,3.7,31.39,31.39,0,0,1,7.4,20.4A32.2,32.2,0,0,1,178.2,69a37.49,37.49,0,0,1-13.8,13.6A34,34,0,0,1,147,87.8a25.17,25.17,0,0,1-6.7-.9c-1.9-.5-2.8-1.2-2.8-2.1a1.4,1.4,0,0,1,.3-.9q.9-1.2,3,0a21.1,21.1,0,0,0,3.4,1.6c10.7,1.3,20.4-5.2,29-19.6,3.8-6.3,5.7-12.3,5.7-18.2A20.5,20.5,0,0,0,174,34.3a43.26,43.26,0,0,0-5-4.6,80.11,80.11,0,0,0-7.8,7.6,363.17,363.17,0,0,0-24,28.6q-28,37.35-50.4,53.2C73,129.2,59,134.2,45.1,134.1,29,134,21,125.7,21,109c0-9.9,3-19.7,8.9-29.6A81.27,81.27,0,0,1,49.7,57.1,118,118,0,0,1,68.4,46c-1.6-1.7-2.5-4.6-2.5-8.5,0-11.7,6.7-21.2,20-28.5a69.78,69.78,0,0,1,33-8.7c17.1,0,35.9,3.7,56.6,11,6.9,2.5,11.7,4.7,14.4,6.7.8.6,1.1,1.2,1,1.7-.1.3-.6.2-1.6-.3a6.6,6.6,0,0,0-2.7-.6C182.8,19,177.6,22,171,28ZM99,41.8q-10.5,0-22.2,5.4A110.42,110.42,0,0,0,54.7,61C34,77.3,23.6,93.4,23.7,109.4c0,14.5,7,21.7,20.9,21.7,14.9,0,34.9-12.9,60.3-38.6-6.3,0-11.4-1.7-15.4-5.2-4.3-3.7-6.2-8.7-5.8-15A49,49,0,0,1,94.6,47,35.67,35.67,0,0,1,99,41.8Zm1.7-1.7a73.56,73.56,0,0,1,11.9-9.6A62.58,62.58,0,0,1,145,20.3c9.9-.4,17.8,1.7,23.7,6,6.2-5.2,11.4-8.2,15.7-9a198.23,198.23,0,0,0-65.1-11c-13.2,0-24.5,2.6-33.8,7.6-10,5.2-15.8,12.5-17.3,21.7-.8,4.4-.2,7.7,1.8,10,8.8-4,19-5.8,30.7-5.5Zm8.8,2.2c4.5,2.5,6.7,6,6.7,10.6a17.37,17.37,0,0,1-.5,3.9,10.38,10.38,0,0,1-1.7,3.7c-.8,1.1-1.4,1.4-1.7,1.1.2.3.6-1.4,1.4-5a12.57,12.57,0,0,0,.5-3.3c0-4.6-2.2-7.7-6.5-9.6-8,9.4-13,17.7-15,24.8a24.64,24.64,0,0,0-1.2,7.6c0,8.5,5.6,12.8,16.9,12.9,5.4-5.6,11.9-12.8,19.5-21.5q24.45-28.2,38.7-39.4c-4.9-3.4-11-5.2-18.4-5.2a41.86,41.86,0,0,0-22,6.5A73.94,73.94,0,0,0,109.5,42.3Z" transform="translate(-20.5 0.2)" style="stroke: #fff;stroke-linecap: square;stroke-linejoin: bevel;fill: url(#a)"/>
</svg>
