<svg xmlns="http://www.w3.org/2000/svg" viewBox="0 0 478.46 177.42"><defs><style>.a{isolation:isolate;}.b{fill:#930904;}</style></defs><g class="a"><path class="b" d="M152.15,199.77l-2.76,35.43H103.6v-4.5a15.92,15.92,0,0,0-4-11,12.59,12.59,0,0,0-9.76-4.5q-10.52,0-13.27,11.53-3.25-11-13-11a12.62,12.62,0,0,0-9.88,4.36,16.05,16.05,0,0,0-3.88,11.1l.5,3.94h-46L2.5,199.77H17.77l58.55-142,58.56,142ZM90.09,166.31a15.9,15.9,0,0,0-4-11,12.58,12.58,0,0,0-9.76-4.5,12.19,12.19,0,0,0-9.63,4.5,16.18,16.18,0,0,0-3.88,11,16.42,16.42,0,0,0,3.75,11.11,12.28,12.28,0,0,0,9.76,4.36,12.64,12.64,0,0,0,9.89-4.36A16.11,16.11,0,0,0,90.09,166.31Z" transform="translate(-2.5 -57.78)"/><path class="b" d="M354.84,220.58H164.66v-160h55.05v117q-8.51,3.38-8.51,13.5a17,17,0,0,0,4.13,11q4.13,5.07,9.39,5.06,5.49,0,9.76-5.06a17.07,17.07,0,0,0,4.25-11.24q0-10.12-8.76-13.22v-117h57.31V177q-8.52,3.38-8.51,13.5a16.18,16.18,0,0,0,3.88,11,12.19,12.19,0,0,0,9.63,4.5q5.5,0,9.76-4.78a16,16,0,0,0,4.25-11q0-10.11-8.75-13.21V60.59h57.3Z" transform="translate(-2.5 -57.78)"/><path class="b" d="M481,220.58H466.45V189.65l-94.09,33.74V60.59h16V90.4L481,57.78ZM466.45,166a16.31,16.31,0,0,0-3.85-11,12,12,0,0,0-9.54-4.5,12.47,12.47,0,0,0-9.8,4.36,16.17,16.17,0,0,0-3.84,11.1,16.73,16.73,0,0,0,3.84,11.25,12.32,12.32,0,0,0,9.8,4.5,12,12,0,0,0,9.67-4.5A17.07,17.07,0,0,0,466.45,166Z" transform="translate(-2.5 -57.78)"/></g></svg>