<svg xmlns="http://www.w3.org/2000/svg" viewBox="0 0 916.31 392.59"><defs><style>.a{isolation:isolate;}.b{fill:#aa1e22;}.c{fill:#030201;}</style></defs><g class="a"><path class="b" d="M182.05,472.55a140.68,140.68,0,0,1-52.39-9.88,119.11,119.11,0,0,1-43.58-29.95q-18.72-20.07-29.82-50.8T45.15,309.18a219.52,219.52,0,0,1,3.5-38.89,267.74,267.74,0,0,1,9.66-37.78,253.21,253.21,0,0,1,14.85-35.28,265,265,0,0,1,19.07-31.67A220.51,220.51,0,0,1,123.62,130a211.5,211.5,0,0,1,36.7-27,180,180,0,0,1,40-17.08,147.15,147.15,0,0,1,40.93-6,152.39,152.39,0,0,1,40.44,5.33A140.11,140.11,0,0,1,318,101a136.57,136.57,0,0,1,30.42,25.4,133.32,133.32,0,0,1,22.21,34.17q5.56-5.64,11.84-11A106.86,106.86,0,0,1,395.61,140a77.25,77.25,0,0,1,14.25-6.9A44,44,0,0,1,425,130.44q11.6,0,17.14,6.59c.32.42.64.89,1,1.41s.4.89.24,1.1L441.13,138a20.11,20.11,0,0,0-6.4-3.45,31.69,31.69,0,0,0-9.78-1.26q-14.49,0-27.65,8.94a144.35,144.35,0,0,0-25,21.79,149.82,149.82,0,0,1,9.18,29.95,173.41,173.41,0,0,1,3.14,33.71,123.09,123.09,0,0,1-2.78,26.65,139.94,139.94,0,0,1-18.47,45,161.46,161.46,0,0,1-13.52,18.34A98.8,98.8,0,0,1,333,333a116.8,116.8,0,0,1-22.09,12.54,150.62,150.62,0,0,1-26.32,8.62,127.53,127.53,0,0,1-29.1,3.3,68.37,68.37,0,0,1-16.78-2q-8.08-2-16-4.55a143.08,143.08,0,0,1-25.72,8.31,127.89,127.89,0,0,1-27.89,3q-6.27,0-11.95-.47a40.53,40.53,0,0,1-9.78-1.88,18.56,18.56,0,0,1-6.52-3.61,7.26,7.26,0,0,1-2.41-5.64,7,7,0,0,1,3.14-5.8,24.51,24.51,0,0,1,8.45-3.77,74.29,74.29,0,0,1,12.31-2q7-.63,14.73-.63A93.62,93.62,0,0,1,200.16,341q10.38,2.67,20.52,5.8a109.62,109.62,0,0,0,20.65-14.73,222,222,0,0,0,19.19-19.6,295,295,0,0,0,18.59-23.83q9.18-13,18.6-28.07,17.13-27,35-53a371.12,371.12,0,0,1,36-45.15,108.12,108.12,0,0,0-18-29.48,115.92,115.92,0,0,0-27.76-23.52,140.93,140.93,0,0,0-37.06-15.68,173.89,173.89,0,0,0-45.64-5.64,159.14,159.14,0,0,0-40.56,5.33,186.59,186.59,0,0,0-75.33,40.14,198.88,198.88,0,0,0-30.67,33.86,195.56,195.56,0,0,0-17.87,30.73,259,259,0,0,0-13.52,35.28,267.48,267.48,0,0,0-8.45,37.47A253.22,253.22,0,0,0,51,308.86q.22,39.21,10.74,69t28.37,49.86A116.77,116.77,0,0,0,131.83,458a128.47,128.47,0,0,0,50.95,10.2q28,0,51.3-8.47a131.12,131.12,0,0,0,41.17-23.83A112.68,112.68,0,0,0,294.45,415a92.83,92.83,0,0,0,11.71-21.48,13.93,13.93,0,0,0,.84-2.82c.08-.63.28-.95.61-.95,1,0,.88,1.68-.25,5a65.05,65.05,0,0,1-4.34,9.88A116.43,116.43,0,0,1,296.14,416a128.7,128.7,0,0,1-9.06,11.6,110.91,110.91,0,0,1-10.86,10.82A142.75,142.75,0,0,1,234,463.45q-23.65,9.09-51.67,9.1ZM171.43,359a100.86,100.86,0,0,0,44.91-10q-9.18-3.13-18.71-5.49a84.94,84.94,0,0,0-20.41-2.35q-12.56,0-19.55,2.82t-7,7.22q0,4.38,5.56,6.11t15,1.72Zm84.75-5.95a165.82,165.82,0,0,0,27.64-2,79.73,79.73,0,0,0,21.85-6.9A74.41,74.41,0,0,0,324.27,331a149.33,149.33,0,0,0,17.86-21.17A154.28,154.28,0,0,0,353.72,291a198.34,198.34,0,0,0,11.11-25.09,218,218,0,0,0,8.45-29.63,155.17,155.17,0,0,0,3.38-32.45,107.18,107.18,0,0,0-6.52-37.63,145.14,145.14,0,0,0-14.49,19.75q-6.75,11-13.88,23.83t-15,27.29q-7.85,14.41-17.5,30.41A288.43,288.43,0,0,1,272,315.92a158.89,158.89,0,0,1-44.55,32.77q7,1.88,13.89,3.13a81,81,0,0,0,14.61,1.26Z" transform="translate(-45.15 -79.96)"/></g><g class="a"><path class="c" d="M386.46,354.43a39.18,39.18,0,0,1,.19,4.15q0,13.23-12.18,33.46a186.25,186.25,0,0,1-20.17,27.75q-34,38.65-51.33,38.65-8.39,0-8.39-9.07,0-17.39,34.75-50.07,8.19-7.51,50.33-42a21.39,21.39,0,0,0,.2-2.85q0-8.56-5.59-8.56-4.39,0-8.79,4.15-3.59,3.63-7.39,7.26c-.8-1.56-1.19-2.16-1.19-1.82a9.21,9.21,0,0,1,1.19-3.11,54.23,54.23,0,0,1,8.39-7.78q9-6,18.18-11.67,10.38-7.53,16-15.57a3,3,0,0,0,.8-2.33l-.4-.52-9.19,4.67a20.92,20.92,0,0,1-9.59,2.85q-7.59,0-9.59-4.67-12.78,17.13-14,17.12a1.32,1.32,0,0,1-.6-.25v-1.3q6.8-9.86,13.59-17.9v-1q0-11.15,8.58-11.15c2.27,0,3.4.87,3.4,2.59q-3.41,3.12-3.4,6,0,3.38,5.8,3.37a33.18,33.18,0,0,0,11.38-2.59c4.53-1.73,6.92-2.6,7.19-2.6,1.33,0,2,.61,2,1.82A10.34,10.34,0,0,1,405,316q-5.19,9.07-15.58,16.6l-18.37,11.41v.26a13.82,13.82,0,0,1,3.79-1q8.38,0,11,8.82,6-5.18,18-16.08,1.8-2.34,6-6.74c1.2-1,2.07-1.56,2.6-1.56h.2l.2.26Q412.82,331.08,386.46,354.43Zm-7.4,5.7q-10.38,8.53-30.95,25.87-48.74,40.35-48.74,63.9,0,5.43,4.6,5.43,14.77,0,43.14-38.28Q374.06,381.08,379.06,360.13Z" transform="translate(-45.15 -79.96)"/><path class="c" d="M455.16,328c0,.52-.6,1.56-1.8,3.11A81.68,81.68,0,0,1,437,347.68q-10.58,8-19.57,8-11,0-11-9.59,0-7,4.79-15.31H411c-2,2.6-3.41,3.89-4.14,3.89a.57.57,0,0,1-.43-.26v-.52l.2-1.05q5.64-8.13,16.53-16,11.7-8.13,19.16-8.13,5.85,0,5.85,6.79,0,11.74-30.16,24.27a39.17,39.17,0,0,0-1.2,7.05q0,4.69,4.6,4.69,6.18,0,14.58-6.22a104.26,104.26,0,0,0,12.58-11.67q5.79-6.48,6-6.49Q455.16,327.19,455.16,328Zm-14-13.7a2.11,2.11,0,0,0-2.4-2.38q-4,0-11,10.06A84.66,84.66,0,0,0,419.21,337v.27Q441.17,328,441.18,314.27Z" transform="translate(-45.15 -79.96)"/><path class="c" d="M520.07,327.71q-.41,3.93-13.78,17-10.59,10.49-18,10.48-6.58,0-6.59-6,0-6.81,9.09-19.69t9.09-14.71c0-.88-.54-1.32-1.6-1.32q-10.38,0-40.35,48.34Q446,381,419.81,428.3l-7.59,14.55q-5.4,9.61-8.19,12.61c-1.87,2-3.46,3-4.8,3q-4.59,0-4.59-6.47t6.59-19.16q39.56-74.83,71.1-124l-.19-.25q-21.18,25.68-23,25.68,1-3.12,34.55-42.54,4.39-5.19,7.79-5.19c2,0,3,.35,3,1q0,.53-3.19,5.45-11,16.6-36.75,60.7Q431,393.6,415.61,422.91q-12.78,24.12-12.78,27v.78a.55.55,0,0,0,.4.26q2.19,0,22.17-36.9,25.17-46.51,39.94-68.34,24.57-36.9,37.75-36.91c4.13,0,6.2,1.76,6.2,5.26s-2.77,9.24-8.29,17.21-8.29,13.18-8.29,15.64c0,1.57.66,2.36,2,2.36q4.38,0,14.38-10.63T520.07,327.71Z" transform="translate(-45.15 -79.96)"/><path class="c" d="M611.94,327.45q0,1.31-6.19,7.78a79.35,79.35,0,0,1-7.59,7.53q-13.38,11.42-24.56,11.41t-11.19-9.6v-2.33q-18.45,10.63-21.2,10.63c-1.18,0-1.77-.34-1.77-1q0-1.8,12-18,11.39-15.45,14.38-18.29-6.79,7-14.58,8.56-3.4,10.11-13.59,20.1t-18,10q-8.79,0-8.79-9.34a15.94,15.94,0,0,1,2.5-8.82q2.49-3.88,6.09-3.89c3.06,0,4.59,1.61,4.59,4.81a9.08,9.08,0,0,1-2.39,5.61q-2.4,3-2.4,5.35c0,1.24.8,1.87,2.4,1.87q5,0,13.88-13.12t8.89-20q0-4-5-4-4.79,0-11.48,6.48t-6.89,6.49a.52.52,0,0,1-.4-.27v-.52l.2-1.06a35.16,35.16,0,0,1,10.48-10.54q6.69-4.47,12.49-4.48c5.45,0,8.19,3.18,8.19,9.52v4.23q1.17-.78,12-7.78,9.81-6.48,10.4-6.48c.4,0,.59.26.59.77q-5.38,7.79-12.78,19.2-5.6,8.31-10.78,17.38,4.38-3.17,13.18-9.74,3.79-9.47,14.38-18.28t18.37-8.82q8.79,0,8.79,8.31a10.35,10.35,0,0,1-2.19,6.48,6.27,6.27,0,0,1-5,2.85c-2,0-3-1.16-3-3.5a12.21,12.21,0,0,1,1.69-4.76,12.1,12.1,0,0,0,1.7-5l-3-1a67.7,67.7,0,0,0-14.79,13.75q-8.39,10.64-8.38,19.19c0,3.11,1.59,4.67,4.79,4.67q8.79,0,33.55-22.83h.2A.83.83,0,0,1,611.94,327.45Z" transform="translate(-45.15 -79.96)"/><path class="c" d="M674.06,328q0,3.15-13.58,16.76-10.59,10.49-17.18,10.48-6.19,0-6.19-6.29,0-7.85,11-22.24l-.39-.53q-26.78,29.06-35.56,29.06-6.58,0-6.59-6.27,0-10.19,18-32.64V316q-3.19,2.85-9.59,9.34-2.4,2.85-7.19,8a3.4,3.4,0,0,1-2,1l-.2-.53q3.41-7.23,13-15.78,10.38-9.36,16.37-9.37c1.33,0,2.13.27,2.4.8q-.19.54-11,18.91-9,15.16-9,18.9a8.43,8.43,0,0,1,.6,1.06,1.41,1.41,0,0,0,1.39.8q4.8,0,39.75-37.57a7.67,7.67,0,0,1,5.79-2.9q4.2,0,4.2,1.32T658,327.17q-10.08,15.76-10.09,19.71a3.26,3.26,0,0,0,.4,1.7,1.32,1.32,0,0,0,1.2.66q6.79,0,22-19.95l2.6-1.58Z" transform="translate(-45.15 -79.96)"/><path class="c" d="M736.37,329.53a42.53,42.53,0,0,1-13.58,18.93q-8,6.75-13.18,6.75-6.79,0-6.79-7.53,0-5.7,4-12.71-6.19,5.71-13.18,5.71a7.63,7.63,0,0,1-7.39-4.41q-2.79,5.72-9.19,16.08a13.69,13.69,0,0,1-6.79,2.08c-2.92,0-4.39-.7-4.39-2.08q0-3.63,9-17.9a180.84,180.84,0,0,1,12-17.89v-.26q-13.19,14-14.78,14c-.27,0-.4-.17-.4-.51q1.8-5.19,10.79-12.33t13.38-7.13c2.53,0,3.79.44,3.79,1.3q0,1-9.38,16.86a4.16,4.16,0,0,1,1.59,3.37,5.15,5.15,0,0,1-.89,2.72,5,5,0,0,0-.9,1.95c0,1.56.86,2.33,2.59,2.33q7.8,0,14.58-7.26.4-.25,10.39-13.75,5.6-7.52,10-7.52c2.79,0,4.19.52,4.19,1.56q0,.53-9.09,15.17t-9.09,18.55a5,5,0,0,0,.6,2.72,1.69,1.69,0,0,0,1.4.91q3.6,0,19.58-20h.59A.71.71,0,0,1,736.37,329.53Z" transform="translate(-45.15 -79.96)"/><path class="c" d="M778.51,329.53q0,3.38-12.78,14.78t-23.57,11.41q-10.59,0-10.58-9.33,0-8,5.79-17.38h-.19a23.69,23.69,0,0,1-5.6,5.44v-.52a3,3,0,0,1,.2-1.05q4.56-7.33,16.3-15.72t18.28-8.39q7,0,7,7.27a15.52,15.52,0,0,1-2.1,7.65c-1.39,2.51-3,3.76-4.89,3.76s-2.8-1.21-2.8-3.63a15.34,15.34,0,0,1,1.6-5.19,15.18,15.18,0,0,0,1.6-5.45c0-1.2-.67-1.81-2-1.81q-5,0-14,14t-9,21.27q0,5,4.6,5,8.19,0,31.95-22.3h.2Z" transform="translate(-45.15 -79.96)"/><path class="c" d="M833.44,316q0,7.79-6.19,7.78-4.61,0-4.6-2.65a10.88,10.88,0,0,1,.7-2.52,9.93,9.93,0,0,0,.7-3q0-3.71-3-3.71-7.39,0-25.07,21.66t-21.87,21.66c-1.6,0-2.66-.27-3.2-.8v-1.06q0-6.92,14.18-30.3v-.27q-7.38,9.6-9,9.6c-.27,0-.4-.09-.4-.26q.4-2.6,10.08-13t12.09-10.38q3.79,0,3.79,3.12v.52q-5.19,9.6-16,28.53l.4.26q13.18-15.42,18-20.14,12.58-12.29,21.17-12.29Q833.44,308.77,833.44,316ZM841.83,328q0,1.32-6.19,8.64-5,5.77-7.59,8.38-10.39,10.22-17.18,10.22a5.93,5.93,0,0,1-6-4.15c-.54-1.73-.8-4.76-.8-9.08q0-9.6-3.2-8,2-2.34,6-2.34,5.39,0,6.69,8.69t3.69,8.69q4.4,0,13.88-10.5t10.69-10.77Z" transform="translate(-45.15 -79.96)"/><path class="c" d="M885.77,344.73q-10,10.49-17.18,10.48-5.79,0-5.79-6.34a14.75,14.75,0,0,1,2.8-8.71h-.2q-12.58,15-22.57,15-7.59,0-7.59-8.65,0-7.6,5.59-16h-.2c-2,2.77-3.26,4.15-3.8,4.15a.68.68,0,0,1-.59-.26v-.51l.19-1q5-7.78,16.68-15.95t18.68-8.18q7,0,7,6.75a16.13,16.13,0,0,1-.4,3.37h.2q6.78-10.11,12.38-10.12c1.73,0,2.6.27,2.6.79s-3.4,6.13-10.19,16.84-10.18,17.79-10.18,21.28l.39,1.3a3.57,3.57,0,0,0,1.4.26q4.2,0,13.88-10.76t10.49-11l.2.26Q899.55,330.34,885.77,344.73ZM877,316.56c0-3.12-1.27-4.67-3.79-4.67q-5.21,0-17.28,15T843.83,348.2c0,2.08.86,3.11,2.59,3.11q5.79,0,18.18-14T877,316.56Z" transform="translate(-45.15 -79.96)"/><path class="c" d="M961.46,327.71q0,1.56-13.58,15.3-12,12.19-20,12.2-6.58,0-6.59-6.84a28,28,0,0,1,3.19-12.1q-6,6.14-12.18,12-7.79,6.94-13.78,6.94-7,0-7-7.79,0-11.15,9-11.15,4.19,0,4.19,3.18a14.44,14.44,0,0,1-.6,3.31,14.53,14.53,0,0,0-.6,3.31c0,1.77.6,2.65,1.8,2.65q5.4,0,17.78-14.52a9.42,9.42,0,0,1-2.8.51c-2.4,0-4.43-1.33-6.09-4a16.11,16.11,0,0,1-2.5-8.69q0-7.26,6.79-12.71c4-3.28,7.92-4.92,11.79-4.92q9.59,0,11.38,7.26,3.6-3.63,9.79-3.63a2.67,2.67,0,0,1,1.8.52l.2.25q0,1.31-10.09,17.13T933.3,346.39c0,1.55.6,2.33,1.8,2.33q4.8,0,13.38-9.6,9.59-10.62,12.79-11.93A.88.88,0,0,1,961.46,327.71Zm-26-16.08q0-3.63-3-3.63-4.59,0-10.18,6.48t-5.59,12.71c0,3.46,1,5.19,3,5.19,2.8,0,6.12-2.59,10-7.78S935.5,315.09,935.5,311.63Z" transform="translate(-45.15 -79.96)"/></g></svg>