<svg xmlns="http://www.w3.org/2000/svg" viewBox="0 0 12 12">
  <path d="M9.24,11.81a1.84,1.84,0,0,1-.33,0A11.38,11.38,0,0,1,3.37,8.86a11,11,0,0,1-3-5.42A1.51,1.51,0,0,1,.82,2L2.15.73A.71.71,0,0,1,2.67.55a.68.68,0,0,1,.48.29L4.82,3.31a.54.54,0,0,1,0,.63l-.84,1a6.47,6.47,0,0,0,1.39,2,6.38,6.38,0,0,0,2,1.37l1-.83A.56.56,0,0,1,9,7.4L11.53,9a.66.66,0,0,1,.23.91l-.09.13-1.3,1.28A1.56,1.56,0,0,1,9.24,11.81ZM2.61,1.21,1.28,2.5A.84.84,0,0,0,1,3.3a10.23,10.23,0,0,0,2.8,5.08,10.71,10.71,0,0,0,5.22,2.75.91.91,0,0,0,.83-.25l1.3-1.29L8.75,8l-1.11.89A.35.35,0,0,1,7.33,9,6.61,6.61,0,0,1,4.88,7.38,6.4,6.4,0,0,1,3.25,5a.32.32,0,0,1,.08-.31l.9-1.08Z" style="fill: #fff"/>
  <path d="M0,0H12V12H0Z" style="fill: none"/>
</svg>
