<?xml version="1.0" encoding="utf-8"?>
<!-- Generator: Adobe Illustrator 25.2.0, SVG Export Plug-In . SVG Version: 6.00 Build 0)  -->
<svg version="1.1" id="Слой_1" xmlns="http://www.w3.org/2000/svg" xmlns:xlink="http://www.w3.org/1999/xlink" x="0px" y="0px"
	 viewBox="0 0 150.8 167" style="enable-background:new 0 0 150.8 167;" xml:space="preserve">
<style type="text/css">
	.st0{fill:none;stroke:#FFFFFF;stroke-width:1.043;stroke-miterlimit:10;}
	.st1{fill:url(#SVGID_1_);}
</style>
<g>
	<path class="st0" d="M17,125.6c-1.8-0.1-3.5-0.9-4.8-2.3c-1.3-1.4-1.9-3.8-1.7-7.1c0.1-3.1,0.7-6,1.9-8.7c1.2-3,2.7-5.7,4.5-8.3
		c1.9-2.7,3.8-5.1,6.1-7.4c2.1-2.2,4.4-4.3,6.8-6.3c2.7-2.3,5.4-4.5,8.2-6.5c2.7-2,5.4-3.9,8.3-5.7c2.8-1.9,5.6-3.8,8.5-5.6
		c2.9-1.8,6-3.9,9-5.9c1.1-3,2.3-6.2,3.7-9.8s2.6-7.3,3.8-11c1.2-3.8,2.2-7.5,3.2-11.3c0.9-3.4,1.4-7,1.5-10.6
		c0.2-4.8-0.4-8.4-1.9-10.7c-1.4-2.3-3.6-3.5-6.4-3.5c-1.7,0.1-3.4,0.4-5,1.1c-2,0.8-3.8,1.8-5.6,3c-2,1.3-3.9,2.9-5.6,4.6
		c-1.9,1.8-3.6,3.8-5.1,5.8c-1.4,1.9-2.6,3.9-3.8,6c-1.4,2.3-2.5,4.8-3.5,7.3s-1.9,5.2-2.6,7.9c-0.7,2.6-1,5.3-1.1,8
		c-0.2,7.3,1.8,10.9,5.8,10.9c2.9,0,5.7-1.3,7.7-3.6c2.2-2.2,4.2-4.7,5.9-7.4c0.4-0.7,0.9-1.4,1.2-2.2c0.2-0.5,0.3-0.6,0.4-0.4
		c0.1,0.2,0,0.7-0.3,1.5c-0.3,0.7-0.7,1.4-1,2.2c-0.8,1.3-1.5,2.5-2.6,3.9c-0.9,1.3-2,2.6-3.3,3.7c-1.2,1.1-2.6,2-3.9,2.7
		c-1.4,0.7-2.8,1.1-4.3,1.1c-1.1,0-2.1-0.3-3.1-0.8c-1-0.6-1.9-1.4-2.6-2.5c-0.8-1.3-1.4-2.6-1.7-4.1c-0.4-1.9-0.6-3.9-0.5-5.7
		c0.1-2.7,0.4-5.5,1.1-8.1c0.7-2.6,1.5-5.1,2.6-7.5c1.1-2.4,2.3-4.8,3.7-7c1.4-2.2,2.9-4.4,4.4-6.6c1.7-2.2,3.6-4.2,5.6-6.1
		c2-1.8,4-3.4,6.1-4.8c1.9-1.3,3.9-2.3,6-3.1c1.6-0.7,3.4-1.1,5.1-1.2c1.8,0,3.6,0.4,5.2,1.1c1.6,0.7,3,1.9,4,3.4
		c1.2,1.8,2,3.8,2.5,5.9c0.6,2.9,0.8,5.8,0.6,8.7c-0.1,1.9-0.3,3.7-0.5,5.6c-0.3,2.1-0.6,3.8-0.9,5.2c1.6-3.4,3.5-7,5.7-10.8
		c2-3.6,4.3-7.1,6.9-10.3c2.1-2.9,4.6-5.4,7.3-7.6c2.5-2.1,4.9-3.1,7.2-3.1c0.9,0,1.7,0.2,2.6,0.5c0.8,0.4,1.4,0.9,2,1.5
		c0.7,0.9,1.1,2,1.4,3.1c0.3,1.6,0.5,3.3,0.4,4.9c-0.1,3-0.8,5.8-1.9,8.5c-1.1,2.7-2.6,5.3-4.2,7.6c-1.7,2.5-3.7,4.8-5.7,6.9
		c-2.1,2.2-4.2,4.2-6.2,6.1c-2.1,2-4.3,3.8-6.2,5.4c-2,1.6-3.9,3.1-5.8,4.6c-1.9,1.4-3.8,2.9-5.8,4.2c-2,1.3-4.1,2.9-6.3,4.4
		c-1.5,4.3-3.1,8.4-4.4,12.3c-1.4,3.9-2.6,7.8-3.7,11.6s-2,7.5-2.6,11.4c-0.7,3.9-1.1,7.8-1.3,11.8c-0.2,4.9,0.3,8.6,1.5,10.9
		c1.2,2.3,3.2,3.4,6.2,3.2c1.7-0.2,3.4-0.7,4.9-1.6c1.9-1.1,3.7-2.4,5.3-3.9c1.9-1.8,3.6-3.7,5.2-5.7c1.7-2.2,3.2-4.3,4.8-6.6
		c2-3.1,3.9-6.5,5.5-9.9c1.4-3,2.6-6,3.6-9.1c0.9-2.6,1.5-5.2,2.1-7.8c0.4-2,0.8-3.9,1-6c0.3-2.5,0.1-5-0.6-7.4
		c-0.7-2.2-1.9-3.3-3.6-3.3c-2.2,0.1-4.3,1.1-6,2.7c-2.2,2.2-4.2,4.7-5.8,7.4c-0.9,1.3-1.6,2.7-2.3,4.1c-0.8,1.5-1.4,3.1-2,4.6
		c-0.6,1.5-1.2,2.9-1.7,4.2s-0.9,2.4-1.1,3.3c-0.3,1.3-0.7,2.6-0.9,3.9c-0.1,0.7-0.2,1.2-0.3,1.2s-0.2-0.4-0.1-1.3
		c0.2-1.3,0.3-2.7,0.6-3.9c0.7-2.8,1.5-5.4,2.6-8.1c2.4-6.4,6-12.1,10.6-16.8c1.7-1.8,3.9-2.9,6.3-2.9c2,0,3.7,1.3,4.7,4
		c1.1,3,1.5,6.1,1.3,9.3c-0.3,4.2-1.4,9.1-3.5,14.6c-2,5.6-5.4,11.8-10,18.8c-1.5,2.3-3.2,4.5-4.9,6.6c-1.6,2-3.4,3.9-5.4,5.6
		c-1.7,1.5-3.5,2.9-5.4,3.9c-1.6,0.9-3.4,1.5-5.3,1.6c-3.4,0.4-6.6-1.2-8.8-4.1c-2.3-3-3.2-7.9-3.1-14.7c0.3-5.4,1-10.8,2.3-16
		c-2.6,4.3-5.3,8.4-8.2,12.5s-6,7.8-9.2,11.5c-4.6,5.2-8.6,8.9-11.9,11.2C23,124.6,19.9,125.7,17,125.6z M17.2,123.8
		c2.6,0.2,5.6-0.8,9-3s7.3-5.9,12-11.2c3.4-3.8,6.5-7.8,9.5-12c3.7-5.5,7.1-11.3,9.9-17.4c0.8-2.6,1.6-5.3,2.6-8
		c0.9-2.7,1.9-5.5,3-8.3c-6,3.9-11.8,7.7-17.3,11.4c-5.6,3.7-11.1,7.8-16.2,12.4c-4.5,3.9-8.5,8.4-11.7,13.6
		c-3,4.7-4.5,10.2-4.5,15.9c0,2.3,0.4,3.9,1.3,5C15.1,122.9,16.1,123.5,17.2,123.8z M70.6,57c2.1-1.4,4.2-2.8,6-4.1s3.7-2.7,5.5-4
		s3.7-2.9,5.5-4.4c1.9-1.5,3.9-3.3,6-5.2c2-1.8,3.8-3.7,5.8-5.7c1.9-2.1,3.6-4.3,5.2-6.6c1.5-2.3,2.8-4.9,3.8-7.6
		c1-2.9,1.6-5.8,1.7-8.9c0.1-2.6-0.3-4.6-1.2-5.7c-0.9-1.2-2.2-1.8-3.6-1.7c-1.8,0.1-3.6,0.7-5,1.9c-1.9,1.3-3.6,3-5.1,4.7
		c-1.8,2-3.3,4-4.8,6.3c-1.5,2.3-2.9,4.6-4.2,6.7c-1.6,3-3.2,5.7-4.5,8.3c-1.4,2.6-2.6,5.2-3.9,8c-1.3,2.8-2.5,5.6-3.7,8.5
		C73.1,50.4,71.8,53.3,70.6,57z"/>
	<linearGradient id="SVGID_1_" gradientUnits="userSpaceOnUse" x1="60.7642" y1="6.4337" x2="62.1729" y2="143.0811">
		<stop  offset="0" style="stop-color:#3B1501"/>
		<stop  offset="9.709865e-02" style="stop-color:#3D1601"/>
		<stop  offset="0.1432" style="stop-color:#451B01"/>
		<stop  offset="0.1786" style="stop-color:#522301"/>
		<stop  offset="0.2085" style="stop-color:#642E01"/>
		<stop  offset="0.235" style="stop-color:#7C3C00"/>
		<stop  offset="0.2586" style="stop-color:#994D00"/>
		<stop  offset="0.2738" style="stop-color:#B05B00"/>
		<stop  offset="0.3094" style="stop-color:#924900"/>
		<stop  offset="0.3502" style="stop-color:#773900"/>
		<stop  offset="0.3971" style="stop-color:#612C01"/>
		<stop  offset="0.4517" style="stop-color:#502101"/>
		<stop  offset="0.519" style="stop-color:#441A01"/>
		<stop  offset="0.6127" style="stop-color:#3D1601"/>
		<stop  offset="0.8659" style="stop-color:#3B1501"/>
	</linearGradient>
	<path class="st1" d="M17,125.6c-1.8-0.1-3.5-0.9-4.8-2.3c-1.3-1.4-1.9-3.8-1.7-7.1c0.1-3.1,0.7-6,1.9-8.7c1.2-3,2.7-5.7,4.5-8.3
		c1.9-2.7,3.8-5.1,6.1-7.4c2.1-2.2,4.4-4.3,6.8-6.3c2.7-2.3,5.4-4.5,8.2-6.5c2.7-2,5.4-3.9,8.3-5.7c2.8-1.9,5.6-3.8,8.5-5.6
		c2.9-1.8,6-3.9,9-5.9c1.1-3,2.3-6.2,3.7-9.8s2.6-7.3,3.8-11c1.2-3.8,2.2-7.5,3.2-11.3c0.9-3.4,1.4-7,1.5-10.6
		c0.2-4.8-0.4-8.4-1.9-10.7c-1.4-2.3-3.6-3.5-6.4-3.5c-1.7,0.1-3.4,0.4-5,1.1c-2,0.8-3.8,1.8-5.6,3c-2,1.3-3.9,2.9-5.6,4.6
		c-1.9,1.8-3.6,3.8-5.1,5.8c-1.4,1.9-2.6,3.9-3.8,6c-1.4,2.3-2.5,4.8-3.5,7.3s-1.9,5.2-2.6,7.9c-0.7,2.6-1,5.3-1.1,8
		c-0.2,7.3,1.8,10.9,5.8,10.9c2.9,0,5.7-1.3,7.7-3.6c2.2-2.2,4.2-4.7,5.9-7.4c0.4-0.7,0.9-1.4,1.2-2.2c0.2-0.5,0.3-0.6,0.4-0.4
		c0.1,0.2,0,0.7-0.3,1.5c-0.3,0.7-0.7,1.4-1,2.2c-0.8,1.3-1.5,2.5-2.6,3.9c-0.9,1.3-2,2.6-3.3,3.7c-1.2,1.1-2.6,2-3.9,2.7
		c-1.4,0.7-2.8,1.1-4.3,1.1c-1.1,0-2.1-0.3-3.1-0.8c-1-0.6-1.9-1.4-2.6-2.5c-0.8-1.3-1.4-2.6-1.7-4.1c-0.4-1.9-0.6-3.9-0.5-5.7
		c0.1-2.7,0.4-5.5,1.1-8.1c0.7-2.6,1.5-5.1,2.6-7.5c1.1-2.4,2.3-4.8,3.7-7c1.4-2.2,2.9-4.4,4.4-6.6c1.7-2.2,3.6-4.2,5.6-6.1
		c2-1.8,4-3.4,6.1-4.8c1.9-1.3,3.9-2.3,6-3.1c1.6-0.7,3.4-1.1,5.1-1.2c1.8,0,3.6,0.4,5.2,1.1c1.6,0.7,3,1.9,4,3.4
		c1.2,1.8,2,3.8,2.5,5.9c0.6,2.9,0.8,5.8,0.6,8.7c-0.1,1.9-0.3,3.7-0.5,5.6c-0.3,2.1-0.6,3.8-0.9,5.2c1.6-3.4,3.5-7,5.7-10.8
		c2-3.6,4.3-7.1,6.9-10.3c2.1-2.9,4.6-5.4,7.3-7.6c2.5-2.1,4.9-3.1,7.2-3.1c0.9,0,1.7,0.2,2.6,0.5c0.8,0.4,1.4,0.9,2,1.5
		c0.7,0.9,1.1,2,1.4,3.1c0.3,1.6,0.5,3.3,0.4,4.9c-0.1,3-0.8,5.8-1.9,8.5c-1.1,2.7-2.6,5.3-4.2,7.6c-1.7,2.5-3.7,4.8-5.7,6.9
		c-2.1,2.2-4.2,4.2-6.2,6.1c-2.1,2-4.3,3.8-6.2,5.4c-2,1.6-3.9,3.1-5.8,4.6c-1.9,1.4-3.8,2.9-5.8,4.2c-2,1.3-4.1,2.9-6.3,4.4
		c-1.5,4.3-3.1,8.4-4.4,12.3c-1.4,3.9-2.6,7.8-3.7,11.6s-2,7.5-2.6,11.4c-0.7,3.9-1.1,7.8-1.3,11.8c-0.2,4.9,0.3,8.6,1.5,10.9
		c1.2,2.3,3.2,3.4,6.2,3.2c1.7-0.2,3.4-0.7,4.9-1.6c1.9-1.1,3.7-2.4,5.3-3.9c1.9-1.8,3.6-3.7,5.2-5.7c1.7-2.2,3.2-4.3,4.8-6.6
		c2-3.1,3.9-6.5,5.5-9.9c1.4-3,2.6-6,3.6-9.1c0.9-2.6,1.5-5.2,2.1-7.8c0.4-2,0.8-3.9,1-6c0.3-2.5,0.1-5-0.6-7.4
		c-0.7-2.2-1.9-3.3-3.6-3.3c-2.2,0.1-4.3,1.1-6,2.7c-2.2,2.2-4.2,4.7-5.8,7.4c-0.9,1.3-1.6,2.7-2.3,4.1c-0.8,1.5-1.4,3.1-2,4.6
		c-0.6,1.5-1.2,2.9-1.7,4.2s-0.9,2.4-1.1,3.3c-0.3,1.3-0.7,2.6-0.9,3.9c-0.1,0.7-0.2,1.2-0.3,1.2s-0.2-0.4-0.1-1.3
		c0.2-1.3,0.3-2.7,0.6-3.9c0.7-2.8,1.5-5.4,2.6-8.1c2.4-6.4,6-12.1,10.6-16.8c1.7-1.8,3.9-2.9,6.3-2.9c2,0,3.7,1.3,4.7,4
		c1.1,3,1.5,6.1,1.3,9.3c-0.3,4.2-1.4,9.1-3.5,14.6c-2,5.6-5.4,11.8-10,18.8c-1.5,2.3-3.2,4.5-4.9,6.6c-1.6,2-3.4,3.9-5.4,5.6
		c-1.7,1.5-3.5,2.9-5.4,3.9c-1.6,0.9-3.4,1.5-5.3,1.6c-3.4,0.4-6.6-1.2-8.8-4.1c-2.3-3-3.2-7.9-3.1-14.7c0.3-5.4,1-10.8,2.3-16
		c-2.6,4.3-5.3,8.4-8.2,12.5s-6,7.8-9.2,11.5c-4.6,5.2-8.6,8.9-11.9,11.2C23,124.6,19.9,125.7,17,125.6z M17.2,123.8
		c2.6,0.2,5.6-0.8,9-3s7.3-5.9,12-11.2c3.4-3.8,6.5-7.8,9.5-12c3.7-5.5,7.1-11.3,9.9-17.4c0.8-2.6,1.6-5.3,2.6-8
		c0.9-2.7,1.9-5.5,3-8.3c-6,3.9-11.8,7.7-17.3,11.4c-5.6,3.7-11.1,7.8-16.2,12.4c-4.5,3.9-8.5,8.4-11.7,13.6
		c-3,4.7-4.5,10.2-4.5,15.9c0,2.3,0.4,3.9,1.3,5C15.1,122.9,16.1,123.5,17.2,123.8z M70.6,57c2.1-1.4,4.2-2.8,6-4.1s3.7-2.7,5.5-4
		s3.7-2.9,5.5-4.4c1.9-1.5,3.9-3.3,6-5.2c2-1.8,3.8-3.7,5.8-5.7c1.9-2.1,3.6-4.3,5.2-6.6c1.5-2.3,2.8-4.9,3.8-7.6
		c1-2.9,1.6-5.8,1.7-8.9c0.1-2.6-0.3-4.6-1.2-5.7c-0.9-1.2-2.2-1.8-3.6-1.7c-1.8,0.1-3.6,0.7-5,1.9c-1.9,1.3-3.6,3-5.1,4.7
		c-1.8,2-3.3,4-4.8,6.3c-1.5,2.3-2.9,4.6-4.2,6.7c-1.6,3-3.2,5.7-4.5,8.3c-1.4,2.6-2.6,5.2-3.9,8c-1.3,2.8-2.5,5.6-3.7,8.5
		C73.1,50.4,71.8,53.3,70.6,57z"/>
</g>
</svg>
