<svg xmlns="http://www.w3.org/2000/svg" viewBox="0 0 85.53 60.27">
  <path d="M34.12,46.76c.48-5.18,2.72-10.62,7.22-13.58,1.61-1.1,7.27-4.35,6.62-.08-.79,2.65-2.68,4.54-4.23,6.71C37.39,48.1,30.48,56.05,22.1,62.36c-3.12,2.29-6.46,5.09-10.55,5.19-4.68-.23-5.51-6-5-9.72a35.53,35.53,0,0,1,11-20.54c3.88-3.4,9.64-6.23,14.71-4.23,5.45,3.84-3.86,13.54-6.78,16.71-2.28,2.31-4.4,4.79-7.23,6.51a1.82,1.82,0,0,1-1,.27c-1.32-.28-.51-2-.2-2.78a45.36,45.36,0,0,1,12.17-15,82.38,82.38,0,0,1,7.91-5.54,15.25,15.25,0,0,1,6-2.62c1.17-.17,2.46-.36,3.48.52,4.51,5-19.48,26.7-24.54,28.57-1.08.46-4.42,2.23-4.56,0,.58-2.36,2.57-4,4.08-5.78,8.18-7.6,16.51-15.42,25.67-21.83,7-4.88,14.22-9.53,21.62-13.83S83.76,9.75,92,7.28c-8,3-15.3,7.53-22.66,11.81C62,23.52,54.78,28.07,47.79,33S34.43,43.53,28.1,49.22c-3.39,3.3-7.43,6.16-9.6,10.32-.09.2-.05.39-.07.31,3.05-.25,5.94-2.61,8.44-4.42,6.52-5.33,12.86-11.29,17.55-18.32.91-1.49,3.45-5.48.32-5.65a12.13,12.13,0,0,0-5.8,1.73c-.82.55-3.15,2.05-4,2.61A50.39,50.39,0,0,0,21.1,48.73c-1.38,2.17-3.28,4.47-3.7,7l-.08-.06a9.12,9.12,0,0,0,3-2c4.51-4.33,9.34-8.87,12.08-14.57.7-1.64,1.32-4.15-.45-5.25-2.24-1-5-.65-7.34.16C17.23,36.63,12.36,43.56,9.35,50.5,7.62,55,5.8,60.75,8.55,65.19,12.87,71,23.86,59.78,27.7,56.87A123,123,0,0,0,43.14,39.36c3.34-4.15,7.84-11.07-1.36-5.5-4.32,2.85-6.52,8-7.66,12.9Z" transform="translate(-6.43 -7.28)" style="fill: #660074"/>
</svg>
