<svg xmlns="http://www.w3.org/2000/svg" viewBox="0 0 78.29 47.95">
  <g>
    <path d="M56.72,40.28l.63-.21c-1.09,0-1.77-2.66-.51-3.63,1.44-1.11,5-2,7.57-2.94s5.18-1.55,7.77-2.31c0,0,.2-.08.09-.29s-.28,0-.34,0a118.81,118.81,0,0,0-14.36,4.34,3.35,3.35,0,0,0-2.19,3.93C56.32,40.49,56.52,40.28,56.72,40.28Z" transform="translate(-12.65 -26.38)" style="fill: #660074"/>
    <path d="M90.75,28.6c-.43-1.68-1.77-2.41-3.22-1.46a8.35,8.35,0,0,0-2.41,2.4c-1,1.59-1.79,3.34-2.69,5-2.15,4-4.15,7.91-6.43,11.92-1,2-4.46,5.49-4.77,4.08.28-.55.76-1.59,1-1.92a37.42,37.42,0,0,0,2-3.49,20.83,20.83,0,0,0,1.47-2.77c.07-.34-.18-.44-.49-.23a6.39,6.39,0,0,0-1.09,1.46c-1.07,2.11-2.25,3.63-3.26,5.46-1.48,2.86-4,4.93-6.64,6.89-.42.27.31-1.67.7-2.28,1.4-2.24,2.11-4.62,3.55-6.84.59-.91,2.72-3.48,1.5-3.07a3.75,3.75,0,0,0-1.06,1,17.09,17.09,0,0,0-1,1.5c-1,1.53-1.44,2.74-2.38,4.3-.36.59-.44.93-1.55,2.64a18.18,18.18,0,0,1-5.88,6,1.12,1.12,0,0,1-.85.19c-.18-.1-.44-.21-.25-.8A5.77,5.77,0,0,1,58.79,55c1.08-1.11,2.55-2.85,3.48-3.89a20.52,20.52,0,0,0,3.55-5.82,3.06,3.06,0,0,0,.51-2.12,1.36,1.36,0,0,0-.4-.46,2.12,2.12,0,0,0-1.43.76c-1.74,2.3-2.4,3.19-4,5.58-.57.84-1.92,3.31-2.45,4.18A23.15,23.15,0,0,1,56.13,56a26.23,26.23,0,0,1-2.38,2.06c-.58.41-1.11.89-1.71,1.25a12.19,12.19,0,0,1-1.82,1c-.14.06-.27,0-.52-.26-.53-.61,1.18-4.64,3.16-6.81S57,48,58.76,45.81h0a9.75,9.75,0,0,0,1.57-3.94.65.65,0,0,0-.58-.67h0a1.2,1.2,0,0,0-.61.15,2.51,2.51,0,0,0-.92.91c-.92,1.24-1.85,2.48-2.7,3.78-1.22,1.85-2.45,3.71-3.55,5.63A75.4,75.4,0,0,1,46,60c-.58.71-1.22,1.49-2.21,2.62h0c-1.28,1.12-3.26,3.1-3.57,3-.55.11-.07-1,0-1.22a29.78,29.78,0,0,1,4.61-9.2c1.8-2.33,4-4.37,5.87-6.63a31.84,31.84,0,0,0,3.5-4.84,3.5,3.5,0,0,0,.57-2.34c0-.4-.59-.28-.85-.24l-.39.27c-.46.36-.54.47-1,.9a5.7,5.7,0,0,0-.42.43c-3.69,3.79-6.36,8.27-8.9,12.84a14.18,14.18,0,0,1-2.28,2.87c-1.63,1.67-3.34,3.26-5,4.9-1.27.91-3,2.85-3.72,3.46-.34.15-.5.2-.51-.07a4.9,4.9,0,0,1,.71-2c1.07-2.29,3-6.09,4.75-9.53,1.28-2.46,2.79-4.79,4.18-7.2a2.81,2.81,0,0,0,.14-.94,3,3,0,0,0-.94.31,3.66,3.66,0,0,0-.65,1c-.58,1.08-1.14,2.17-1.7,3.26-2.29,4.41-4.51,8.87-6.77,13.3a5.15,5.15,0,0,0-.59,1.66c-.14,1,.46,1.52,1.43,1.14a58,58,0,0,0,4.17-4.16l5.11-5a6.91,6.91,0,0,1-.52,1.3c-.6,1.71-1.2,3.41-1.71,5.14a1.22,1.22,0,0,0,.32,1.13A1.4,1.4,0,0,0,40.93,66a38.77,38.77,0,0,0,2.86-2.73h0l.07-.07.09-.09h0c1.26-1.33,3.9-4.34,5.18-5.66a9.43,9.43,0,0,0-.53,2.37c0,1.18.45,1.34,1.27,1.35a4.73,4.73,0,0,0,2.32-1.08c0,.06-.06.11,0,.12a46.18,46.18,0,0,0,4.68-3.75A8.07,8.07,0,0,0,56.14,59a1.27,1.27,0,0,0,.43,1.2,2.05,2.05,0,0,0,1.76-.06,16.15,16.15,0,0,0,2.55-2,28.4,28.4,0,0,0,2.7-3.2c-.42,1.32-.16,2.15.24,2.09l.38-.08A8,8,0,0,0,65.56,56c1.68-1.47,3.41-3.33,5.15-4.85-.15,1,2.46-.27,4-1.59-.25.56-.78,1.44-.94,1.79-1.52,3.27-3.12,6.51-4.54,9.83-1.16,2.72-1.57,3.46-2.6,6.23-.07.18-.89,2.75-.93,2.94a6.13,6.13,0,0,0-.11,1.92c.41,1.57.21,1,.24,1.34.5.53,1.58,1.57.8-.71-.87-2.54,1.18-6,2.19-8.49,2-4.82,4.3-9,6.47-13.78a7.74,7.74,0,0,1,1.58-2.53c2.59-2.56,5.43-5.28,8.09-7.77A17.92,17.92,0,0,0,86.8,38.3a19.62,19.62,0,0,0,3.36-5.07A6.69,6.69,0,0,0,90.75,28.6ZM58.52,53.94c.16-.27,5.41-8.92,6.74-10.22,1-.93.69.45.46,1.37-.39.57-.43.81-.65,1.12-.65.9-1.16,1.7-1.86,2.57C62,50.32,56,57.52,58.52,53.94ZM53.4,51c1-1.63,1.85-2.92,2.85-4.5.36-.56,1.29-2.15,1.57-2.64a11,11,0,0,1,1.36-2.09l.47-.05h.05c.23.39-.56,1.94-1.16,3.32-.4.63-2,2.66-2.52,3.3-1.28,1.54-2.46,3-3.71,4.51C52.61,52.25,53.1,51.43,53.4,51Zm.53-8.85c.79.31-5.16,7.94-8.37,11.45C47.76,49.34,53.51,41.68,53.93,42.12Zm34.75-7.21a28.56,28.56,0,0,1-1.88,2.53c-.06.08-.38.49-.76.93s-.43.49-.53.62c-.31.32-.61.64-.85.92-2.33,2.17-4.67,4.27-7,6.45a8,8,0,0,1-1.44,1.26c.25-.56,1.36-2.15,1.65-2.69,2.69-5.09,5.38-10.17,8.12-15.24A6.45,6.45,0,0,1,87.44,28a1.63,1.63,0,0,1,2.62.91C90.78,31.17,89.87,33.1,88.68,34.91Z" transform="translate(-12.65 -26.38)" style="fill: #660074"/>
    <path d="M41.85,36.89A7.31,7.31,0,0,1,44,36.25c1.18-.14,2.54-.51,3.34.6-.48-.67.09-1.61-.56-1.53a29.56,29.56,0,0,0-3.74.44c-.56.12-2.87,1.06-3,1.13a27.82,27.82,0,0,0,1.69-3c1.51-2.92,1-2.13,2.55-5,.33-.6.66-1.42.9-1.34.47.19-.72,4.85-.27,4.43a6.74,6.74,0,0,0,.83-4.83c-.17-.77-.44-.92-.95-.35a17.72,17.72,0,0,0-1.15,1.8c-1.54,3-2.66,5.09-4.22,8.07A3.89,3.89,0,0,1,38,38C36.37,39,34.71,40,33.12,41.24,30.79,43,28.59,45,26.34,47c-4.26,3.66-8.25,7.72-11,13.23-1.54,3-3.86,7.24-2,11.45.87,2,4.25,2.2,4.75,1.55a7.84,7.84,0,0,0,3.63-2c2.7-2.5,4.55-6,6.32-9.42C31.71,54.54,35.12,47.16,38.8,40A6,6,0,0,1,41.85,36.89Zm-5.26,5.94c-1.53,3.24-3,6.55-4.6,9.72Q28.1,60.07,24,67.4c-1.57,2.16-3.45,4.15-5.69,5l-.73.21c-1-.14-1.9.11-3.14-1.33a4,4,0,0,1-1-3l.05-1.53a15.73,15.73,0,0,1,2-4.86,38.79,38.79,0,0,1,5.87-9A65.62,65.62,0,0,1,32.68,42.46c1.82-1.29,2.83-1.69,4.64-3s1.64-1.38,1.42-1C38,39.69,37.2,41.54,36.59,42.83Z" transform="translate(-12.65 -26.38)" style="fill: #660074"/>
  </g>
</svg>
