<svg xmlns="http://www.w3.org/2000/svg" viewBox="0 0 640 65">
  <defs>
    <style>
      .a {
        fill: #44beaa;
      }
    </style>
  </defs>
  <path class="a" d="M345,15V57H-295V14a34.35,34.35,0,0,0,3.82-.73C-250,.39-207.73-5.56-164.73-7.12A32.74,32.74,0,0,0-160-8h36a30.81,30.81,0,0,0,4.29.88c8.14.46,16.29.66,24.42,1.25C-52-2.69-9.66,5.36,32.21,16.46A601.39,601.39,0,0,0,152.65,35.69c22.23,1.25,44.61,1.21,66.86.33A449,449,0,0,0,278,30.26C300.54,26.35,322.68,20.19,345,15Z" transform="translate(295 8)"/>
</svg>
