<svg xmlns="http://www.w3.org/2000/svg" viewBox="0 0 446.94 162.27">
  <defs>
    <style>
      .a {
        fill: #2ea4c5;
      }
    </style>
  </defs>
  <g>
    <path class="a" d="M7.3,37.59,5.9,36.32a12.28,12.28,0,0,1-1.26-1.26H7.3Zm2.24-8.76a4.28,4.28,0,0,0-1.4-1.26,16.26,16.26,0,0,1-1.82-1.26H9.54ZM94,51.73a2.68,2.68,0,0,0-1.68.67,3,3,0,0,1-2,.67A1.46,1.46,0,0,1,89,52.23c-.28-.56-.56-1.18-.84-1.85a13.88,13.88,0,0,1-.77,1.85,15.33,15.33,0,0,0-.84,2.1,4.74,4.74,0,0,0-.14,2.28,3.73,3.73,0,0,0,1.47,2.19,18.29,18.29,0,0,0-1.54,5.47q-.42,3.11-.84,6.56t-1.12,6.9A22.61,22.61,0,0,1,82,84.21a8.22,8.22,0,0,1-2.17-2.94c-.7-1.4-1.43-2.72-2.17-4a11.7,11.7,0,0,0-3.37-3.53A14,14,0,0,0,70.35,72c-1.4-.39-2.83-.73-4.27-1a20.28,20.28,0,0,1-4.14-1.26l-.14.16c0,.12.33.17,1,.17.38,0,.56,0,.56-.17V69c0-.17.19-.25.56-.25q1.13,0,1.2.33c0,.23.21.34.49.34l.84-1-1-1.18c-.38-.45-.7-.5-1-.17a1.13,1.13,0,0,1,1-.42,7.67,7.67,0,0,0,1,.09,28.87,28.87,0,0,1,.21-3.2,21.58,21.58,0,0,0,.07-3.87q-.7-1.19-1.26-1.35A4.12,4.12,0,0,1,65.66,56a16.47,16.47,0,0,1,.77-2.44,2.74,2.74,0,0,0-1-.76.76.76,0,0,0-1,.25c0-.33,0-.84-.07-1.51A2.08,2.08,0,0,1,64.75,50l-.85-1q-.84,1-2.1,2.7A11.09,11.09,0,0,1,59,54.42c.56-1.23,1-2.22,1.26-3a5.13,5.13,0,0,1,1.68-2.1,1.14,1.14,0,0,0-.84-.51h-.84c-.09-.11-.09-.27,0-.5a2,2,0,0,1,.56-1,4.93,4.93,0,0,0-1.4-2.1c-.75-.73-1.35-1-1.82-.93A1.46,1.46,0,0,1,58.16,43a19.34,19.34,0,0,0,1.54-1.68l-1-1-3.85.93a14.69,14.69,0,0,1-3.43.42l-.71-1q-.42-.34-.84.42c-.28.5-.46.87-.56,1.09A4.6,4.6,0,0,1,46.11,42a1,1,0,0,0-.49,1c.05.45-.3.68-1,.68a11.61,11.61,0,0,0-2.45.33,10.73,10.73,0,0,1-2.31.34h-.28a.74.74,0,0,0-.56.34,4.77,4.77,0,0,0,2.73,1.09c1,.06,1.89.08,2.73.08A3,3,0,0,0,44.71,47,3.08,3.08,0,0,1,45,48.19c-1.4.34-2.92.79-4.55,1.35a14.18,14.18,0,0,1-4.56.84,7.14,7.14,0,0,1-.7.76,1,1,0,0,0-.28.75c1.12,0,2.41,0,3.86-.08a40.15,40.15,0,0,0,5.11-.59,3.41,3.41,0,0,1-1.54,2.44,8.66,8.66,0,0,1-2.45.84,23.76,23.76,0,0,0-2.67.68,4.38,4.38,0,0,0-2.31,1.93,5.4,5.4,0,0,0,3.5.51,23.85,23.85,0,0,1,4.35-.34v7.91q-3.78,1-7.85,1.69a36.9,36.9,0,0,0-7.84,2.18q.42.51.63.42A6.06,6.06,0,0,1,29,69.4a14.76,14.76,0,0,0,2.1-.34l3.57-.67c1.26-.22,2.43-.45,3.5-.67a12.79,12.79,0,0,1,2.18-.34h4.06a3.66,3.66,0,0,0,.28,1.26A3.76,3.76,0,0,1,45,69.9c-1,.23-2.2.45-3.5.68a24.68,24.68,0,0,0-3.93,1,3.54,3.54,0,0,0-1.26,1.09,1.94,1.94,0,0,1-1.68.76,5.47,5.47,0,0,1-2-.42,2.7,2.7,0,0,0-2.17.08,1,1,0,0,1,.07.59c0,.17-.1.34-.14.51a.6.6,0,0,0,0,.42c0,.11.25.17.63.17a7.74,7.74,0,0,0,2.66-.68,8,8,0,0,1,2.8-.67h2.67a1.35,1.35,0,0,0,1-.42,2.82,2.82,0,0,1,1.19-.67,3.54,3.54,0,0,1,1.89,0,11.19,11.19,0,0,1,3.08,1.43,1.77,1.77,0,0,1-.77-.17A4.07,4.07,0,0,0,44,73.44a1.46,1.46,0,0,0-1.4.76,4.85,4.85,0,0,0-.56,1.6q-2.8.67-6.17,1.26a35.82,35.82,0,0,0-7.14,2.1.94.94,0,0,0,.91.42,11.69,11.69,0,0,1,1.61-.08c.65,0,1.26,0,1.82-.08a10.55,10.55,0,0,0,2.24-.59q2.52,1.52,5.19,3.28c1.77,1.18,3.08,2.1,3.92,2.78a23.57,23.57,0,0,0,5.25,2.27q3,.93,6.1,1.93a6,6,0,0,1-.07,2c-.14.68-.31,1.41-.49,2.19a6.87,6.87,0,0,0,3.64,1,1.56,1.56,0,0,0,1.54-.84,4.91,4.91,0,0,0,.42-2.19c0-.78,0-1.62-.14-2.52a2.25,2.25,0,0,0-1-1.85,27.32,27.32,0,0,0-9.11-3.37,41.64,41.64,0,0,1-9.38-2.86l.7-1.85a14.26,14.26,0,0,1,3.85.67,13.66,13.66,0,0,0,3.29.67,7.38,7.38,0,0,0,2.1-.33A3.41,3.41,0,0,0,53,78.49a3.66,3.66,0,0,1-1.12-1.18,3.83,3.83,0,0,1-.57-2.19A7.7,7.7,0,0,1,52,72a5.36,5.36,0,0,0,.42-3.11,1.94,1.94,0,0,1,2.1.25,17.1,17.1,0,0,1,2.31,1.93c.79.79,1.54,1.6,2.24,2.44a6.17,6.17,0,0,0,2.17,1.77,11.77,11.77,0,0,0,5.26,1.26,12.84,12.84,0,0,1,5.39,1.27,10.37,10.37,0,0,1,3.5,3.11,20.3,20.3,0,0,1,3,4.8,6.88,6.88,0,0,0,1.4,1.77,2.84,2.84,0,0,0,2,.75,7.53,7.53,0,0,0,3.36-1.34A18,18,0,0,1,89,85.05a9,9,0,0,1-3.78,4,9.42,9.42,0,0,1-4.34,1.26,2.62,2.62,0,0,1-1.47-.33,2.9,2.9,0,0,0-1.61-.34,2.55,2.55,0,0,0-1.48.84c-.6.56-1.28,1.21-2,1.94S72.75,93.84,72,94.56a9.76,9.76,0,0,1-2.17,1.6,1.6,1.6,0,0,1,.42,1v.51a5.57,5.57,0,0,0-2-1.43,3.85,3.85,0,0,1-1.82-1.6,2.37,2.37,0,0,1,1.26-.42,2.31,2.31,0,0,0,1.54-.93,5.11,5.11,0,0,0-2.45-3.11c-1.17-.62-2.27-1.26-3.3-1.94A3.82,3.82,0,0,0,63,90q-.06,1.1-.21,2.19a4.94,4.94,0,0,1-.63,1.93,1.7,1.7,0,0,1-1.61.85c-.75,0-1,0-.91-.09s.07-.25-.21-.59a.55.55,0,0,0-.14.34,1.15,1.15,0,0,0-.14.67,2.24,2.24,0,0,0,1.33.51,11.41,11.41,0,0,0,1.47.17l-.77.92a1.44,1.44,0,0,0-.35.93A14.32,14.32,0,0,1,62.5,99a3.11,3.11,0,0,0,2,.67A3.21,3.21,0,0,0,66.36,99a19.24,19.24,0,0,1,1.75-1.18,9.08,9.08,0,0,1-3,2.44,15,15,0,0,1-3.16,1.09,25.22,25.22,0,0,0-2.94.84,5.47,5.47,0,0,0-2.38,1.69c-.38-.9-.77-1.35-1.19-1.35H53.26a13.85,13.85,0,0,1-1.61-.08,1.1,1.1,0,0,0-1.06.42v.84c-.28,0-.58-.23-.91-.67a1.55,1.55,0,0,0-1.33-.68c-.28.68-.51,1.32-.7,1.94a7.81,7.81,0,0,0-.28,2.27,4.05,4.05,0,0,0,.35,1.94,3.93,3.93,0,0,0,.84,1,14,14,0,0,1,1.19,1.17A12.13,12.13,0,0,1,51.29,113q-.13.33-1.47.33H47.37a1,1,0,0,1-1.12-.84,4,4,0,0,0-1-1.85A2.18,2.18,0,0,0,43,111.9a7.55,7.55,0,0,0-.49,2.78,23.78,23.78,0,0,0,.21,3.11,7.92,7.92,0,0,1,.07,2.28c-.75-.11-1.64.45-2.66,1.68a6,6,0,0,0,1.12,1.77,2.07,2.07,0,0,0,1.54.75v33.5H23.13l.56-1V101.55a5.16,5.16,0,0,0-.91-3.11,4.08,4.08,0,0,0-1.89-1.6,2.9,2.9,0,0,1,2.38-1v-4c0-1.69,0-4.18.07-7.49s.17-7.94.35-13.89c-.28-.34-.4-.62-.35-.84a1.06,1.06,0,0,0-.35-.84,14.85,14.85,0,0,1-1.4,3.87,27.22,27.22,0,0,0-1.82,4.54l2.8,3.2a2.81,2.81,0,0,1-.7,1.85,4.19,4.19,0,0,1-1.4,1.18q0,2.86-.21,6.4c-.14,2.35-.28,4.63-.42,6.81s-.28,4.1-.42,5.73-.21,2.66-.21,3.11v30.64a4.3,4.3,0,0,0-1.54.84c-.28.22-.4.45-.35.67s.49.28,1.33.17a6.11,6.11,0,0,1-1.12,1.6,2.57,2.57,0,0,1-2,.92,2.14,2.14,0,0,1-1.61-.5,4.52,4.52,0,0,1-.77-1q-.28-2.19-.57-5.64t-.42-6.82q-.13-3.36-.21-6c0-1.74-.07-2.83-.07-3.28s.1-2.05.28-5.14.4-6.73.63-10.94.45-8.61.64-13.21.28-8.59.28-12c0-2.81,0-5.92-.07-9.35s0-6.81.07-10.18a2.49,2.49,0,0,1-.56-2.36c.18-.33.42-.78.7-1.34a7.22,7.22,0,0,1,.84-1.35l.56-.67a12.61,12.61,0,0,0-1.19-2.86,15.94,15.94,0,0,0-1.62-2.36,2.82,2.82,0,0,0,1.34-2.69,5.69,5.69,0,0,0-1.34-2.87,2.84,2.84,0,0,0,1.13-.33,3.5,3.5,0,0,0,1.12-.84,3,3,0,0,0-.91-.76c-.33-.17-.35-.25-.07-.25a3.23,3.23,0,0,0,.49-2.7,19.94,19.94,0,0,0-1.12-3.28c-.52-1.18-1-2.38-1.55-3.62a9.62,9.62,0,0,1-.77-3.7V20.08a9.17,9.17,0,0,1,3.65,2.69,1.65,1.65,0,0,1,.77-.59A3.64,3.64,0,0,1,16,22.1q.42-.51.21-.84a7.88,7.88,0,0,0-.63-.84c.28.33.46.48.56.42l.84-.59c-.56-.56-1.15-1.1-1.75-1.6a8.27,8.27,0,0,1-1.61-1.77c.46-.56,1-1.15,1.47-1.76a2,2,0,0,1,2.17-.59l1.68-.68a26.57,26.57,0,0,1,4.55,1.6,10.32,10.32,0,0,0,3.58,1.1c.56,0,1.19-.43,1.89-1.27a10.83,10.83,0,0,1,2.31-2.1h1.82l1.12,1.35,1-1.18A8.17,8.17,0,0,0,37,12.59a4.77,4.77,0,0,0,1.4-1.43,4.91,4.91,0,0,0-.7,3,7,7,0,0,0,1.83,1.51,3.94,3.94,0,0,0,2,.68,83.73,83.73,0,0,0,8.61.25,47.35,47.35,0,0,1,9.6.84,36.5,36.5,0,0,1,9.6,3.28,27,27,0,0,1,8.76,7.41l1.12-1.35a2.48,2.48,0,0,1,.63,1.43,4.67,4.67,0,0,1-.07,2.11A31.66,31.66,0,0,1,83.52,39a52.49,52.49,0,0,1,2,10.18c.28,0,.37.09.28.25s.23.26,1,.26c.47,0,1-.37,1.61-1.1s1.1-1.37,1.48-1.93a2,2,0,0,1,1.19,0,2.44,2.44,0,0,0,1.75-.34,3.26,3.26,0,0,0,.42,1.35q.42.84.84.84Zm-70.9,4c0-.9-.11-1.35-.35-1.35s-.35-.22-.35-.67q-1.26,1.68-2.73,3.7A7.5,7.5,0,0,0,18.09,61a4.37,4.37,0,0,0,.84.85,1.09,1.09,0,0,0,.56.16c.84-1.12,1.66-2.21,2.45-3.28A5.06,5.06,0,0,0,23.13,55.77Zm3.65,81.63a1.78,1.78,0,0,1-1.26-.92,6.15,6.15,0,0,1-.57-1.27v2.19Zm.84-15.82a2,2,0,0,0-1.05-.67,4.34,4.34,0,0,0-1.05-.17,2.3,2.3,0,0,0,0,2.69,2.46,2.46,0,0,0,1.26-.67C27.34,122.31,27.62,121.92,27.62,121.58Zm0-46.63V73.78H26.08V75Zm9.52-12.62-3.64-1a9.48,9.48,0,0,1-2.59,1.35c-1,.33-1.89.67-2.73,1a25.87,25.87,0,0,0,4.48-.42C34.25,63,35.74,62.67,37.14,62.33ZM31.54,114a1.92,1.92,0,0,1-1-.34,1.38,1.38,0,0,1-.42-.34,12.17,12.17,0,0,0-.91,1.27,2.44,2.44,0,0,0-.49,1.26,2,2,0,0,0,1.05.67,4.34,4.34,0,0,0,1.05.17,2.74,2.74,0,0,0,.56-1.35A9.07,9.07,0,0,0,31.54,114Zm0,13.63h-2.1l-.7,2.36a2,2,0,0,0,1.05.67,4.34,4.34,0,0,0,1.05.17Zm-.28-70.86-.84-.34-.7,1.68.7.51ZM37.14,46l-.63-.75c-.14-.17-.58-.26-1.33-.26a3.9,3.9,0,0,0-2.38,1,13.24,13.24,0,0,0-1.68,1.52c1.68-.34,3-.59,3.92-.76A5.12,5.12,0,0,0,37.14,46ZM33.92,57.11l-2.24-.84v1l1.82.84Zm1.54,52a2.3,2.3,0,0,0-.84-1.76,2.37,2.37,0,0,0-1.26-.76,3.08,3.08,0,0,1-.28,1.18l-.28.67Zm0,14.14-.56-3.19a2,2,0,0,0-1,.42,2,2,0,0,1-1.05.42l.56,3.2a4.34,4.34,0,0,0,1-.17A2,2,0,0,0,35.46,123.26ZM33.78,137.4a3.94,3.94,0,0,1-.56-1,1.75,1.75,0,0,1-.14-.67c-.28,0-.3.28-.07.84S33.5,137.4,33.78,137.4Zm7.43-97.46c-1.22,0-2.38,0-3.51.09a3.72,3.72,0,0,0-2.24.59,5.68,5.68,0,0,0,3.08.16A10.14,10.14,0,0,0,41.21,39.94ZM40,128.31a5.17,5.17,0,0,0-1.26-1,3,3,0,0,0-1.27-.5,4.72,4.72,0,0,0-.7,1.18,4.44,4.44,0,0,1-.7,1.18,4.84,4.84,0,0,0,1.26,1.76c.56.51,1,.7,1.41.59a5.76,5.76,0,0,0,.84-1.6A5.12,5.12,0,0,0,40,128.31Zm-.56-11.78v-2.36a2,2,0,0,0-1.06-.67,4.34,4.34,0,0,0-1-.17,5.93,5.93,0,0,0,.28,2.7,4.61,4.61,0,0,1,.42,1.34,3.54,3.54,0,0,1,.85-.67A1.07,1.07,0,0,1,39.39,116.53Zm4.2-76.92-.56-1-2,1.68.42.84Zm-.28,69.51a2.3,2.3,0,0,0-.84-1.76,2.37,2.37,0,0,0-1.26-.76,7.09,7.09,0,0,0,.14,1.52,2.82,2.82,0,0,0,.7,1.85,3.08,3.08,0,0,1,.84-.68A.93.93,0,0,1,43.31,109.12Zm5.18-75.91a3.92,3.92,0,0,0-2.87.08,8.06,8.06,0,0,1-2.73.59,9.55,9.55,0,0,0,2.66,0A9.26,9.26,0,0,0,48.49,33.21Zm-3.36-5.05-.28-1-1.4.84v1Zm9,9.09c-.56,0-1.29,0-2.17.08a5.81,5.81,0,0,1-2.6-.42c-.56.34-1.19.71-1.89,1.1a6.19,6.19,0,0,0-1.75,1.43h2.38A5.19,5.19,0,0,0,51,38.68C52.23,38.06,53.26,37.59,54.1,37.25ZM47.65,22.77c-.28,0-.51.34-.7,1a3.46,3.46,0,0,0-.14.85q.42,0,.84-.93T47.65,22.77ZM60.26,35.9c-.56,0-1.21,0-2-.08s-1.54-.14-2.38-.25l-1.26,1.85a13.14,13.14,0,0,1,2.8-.76A13.14,13.14,0,0,0,60.26,35.9Zm-1.68-5-.28-1-3.5,1.52v1Zm-.84,61.78a1.07,1.07,0,0,0,.14-1.18,4.34,4.34,0,0,1-.28-1.68,1.32,1.32,0,0,1,.7,1.43A2.85,2.85,0,0,1,57.74,92.63Zm3.92,16.49h-1v-5.21h1Zm2.53-95.94c-.29,0-.54-.31-.78-.93s-.21-.92.07-.92a1.74,1.74,0,0,1,.28.5c.1.23.19.42.28.59A1.52,1.52,0,0,1,64.19,13.18Zm15,90.73c-.19,0-.38-.17-.56-.51a4.64,4.64,0,0,1-.84-2.19,1.41,1.41,0,0,1,1.54,1.1A1.8,1.8,0,0,1,79.18,103.91Zm5.74-75.08A2.68,2.68,0,0,1,84.57,30a1.23,1.23,0,0,1-1.19.68Zm2.94,51.51a4.24,4.24,0,0,1-1.12.93c-.47.28-.84.25-1.12-.09a2,2,0,0,1,1.12-.67A5.25,5.25,0,0,1,87.86,80.34Zm0-60.43a6.62,6.62,0,0,0-.7.34,4.89,4.89,0,0,1-1,.34L87,17.22a3.26,3.26,0,0,0,.42,1.35A3.27,3.27,0,0,1,87.86,19.91Zm12.33,41.41a1.74,1.74,0,0,1-1,1,4.34,4.34,0,0,1-1,.17A1.64,1.64,0,0,0,98,62a4.32,4.32,0,0,0-.56-1,1.4,1.4,0,0,1,1.4-.59A1.63,1.63,0,0,1,100.19,61.32Z" transform="translate(-4.64 -3.58)"/>
    <path class="a" d="M137.74,140.77a6.66,6.66,0,0,1-2.24.76,13.39,13.39,0,0,0-2.66.76,8.83,8.83,0,0,0-1.12-1.69,13.24,13.24,0,0,0-1.48-1.51c-.51-.45-1-.82-1.33-1.1a2,2,0,0,0-.7-.42,1.45,1.45,0,0,0-1.4.84,4.12,4.12,0,0,0-.42,1.85,2.63,2.63,0,0,0-1.33,0,5.31,5.31,0,0,0-1.75.68v-2.27a2.82,2.82,0,0,0-.42-1.77,2.66,2.66,0,0,0-1,1.18c-.1.33-.28.84-.56,1.51a3.32,3.32,0,0,1-1.89-.76,1.66,1.66,0,0,0-1.9-.25,4,4,0,0,0,1.27,1.26,10.55,10.55,0,0,1,1.19.85,2,2,0,0,1,.63.92,3.21,3.21,0,0,1-.28,1.68,1.48,1.48,0,0,0,1,.34,5.87,5.87,0,0,1,1.05.09,2.37,2.37,0,0,1,1,.42,2.05,2.05,0,0,1,.63,1.51,6.1,6.1,0,0,0,.42-2.36v-2.35a.58.58,0,0,0,.14.34,1.45,1.45,0,0,0,1.12.33,1.67,1.67,0,0,0,1.4-.76,4.85,4.85,0,0,1,1.4-1.26q.42.51,1.26,1.35t1.26.84a2.82,2.82,0,0,1-1.4,1.68,17.5,17.5,0,0,0-2,1.35l.42,3a4.34,4.34,0,0,0,1.05-.17c.42-.11.54-.34.35-.67a27.05,27.05,0,0,1,0,4,20.27,20.27,0,0,1-.7,4.37,11.51,11.51,0,0,0,1,1.1c.42.39.77.42,1.05.08a6.08,6.08,0,0,0-1.26,4.13,7,7,0,0,0,.7,3.11,30,30,0,0,1-2.59-2.36c-.89-.9-1.61-1.68-2.17-2.35a13.81,13.81,0,0,0-3.64,2,6.65,6.65,0,0,1-2.94,1.51c-.75,0-1.06-.14-.92-.42a.81.81,0,0,0-.21-.92l-1.4,1.68a4,4,0,0,1,.7,1.43,5.22,5.22,0,0,1,.28,1.43,2.41,2.41,0,0,1-1.47-.59,2.49,2.49,0,0,1-.49-.92,8.79,8.79,0,0,0-.49-1.27,6,6,0,0,0-1.47-1.76c-.47.33-.63.56-.49.67a5.55,5.55,0,0,1,.63.67c-.19-.33-.44-.31-.77.09a12,12,0,0,1-1.05,1.09c-.65.78-.75,1.4-.28,1.85a2.13,2.13,0,0,0-1.26-.67c-.56-.11-.84,0-.84.34a6,6,0,0,0-.7-2.7,1.93,1.93,0,0,1-.42.34,1.7,1.7,0,0,1-.84.17,17.12,17.12,0,0,1-.84-2.11,1.73,1.73,0,0,1,.7-2.1c.09,0,.14-.06.14-.17h-.28a.57.57,0,0,1-.28-.08.82.82,0,0,0-.42-.09,2.14,2.14,0,0,0-1.62,1,9.51,9.51,0,0,0-1.19,2,17.1,17.1,0,0,1,2.53-4.21c-.28-.33-.35-.59-.21-.75s-.17-.26-.92-.26a5.57,5.57,0,0,0-1.61.17,2.64,2.64,0,0,1-.91.17,1.72,1.72,0,0,0,1-.42,5.43,5.43,0,0,0,1-.93,7.63,7.63,0,0,0-1.12-2.44,26.27,26.27,0,0,0-1.68-2.27,11.34,11.34,0,0,1,2.31-2c1-.67,1.9-1.35,2.74-2-.28-.33-.4-.59-.35-.76s-.31-.25-1.06-.25-1,.23-.84.68.19.67,0,.67L103,145.65h-2a2.29,2.29,0,0,0-.49,1.26c0,.51-.35.76-.91.76,0-.67,0-1.57-.07-2.69s-.07-2.19-.07-3.2a5.94,5.94,0,0,0,2.52-1.35c.37-.44.33-1.57-.14-3.36a7.06,7.06,0,0,1,2.31.25,2.9,2.9,0,0,0,1,.25,2.31,2.31,0,0,0,.14-1.77A16.48,16.48,0,0,1,105,134a4.15,4.15,0,0,0,.35-2.61c-.14-1.07-.25-2.27-.35-3.62a8.07,8.07,0,0,1,1.83-2.86c-.28-.9-.66-1.43-1.13-1.6s-1.07-.36-1.82-.59a2.18,2.18,0,0,0-.49,1.18c0,.45-.35.67-.91.67v-5.89a1.7,1.7,0,0,0,1.54-.67,7.47,7.47,0,0,1,1.82-1.35l1.13-1.18V84a21.27,21.27,0,0,0-5.82.17A35.91,35.91,0,0,0,94,86.06a4,4,0,0,1,.21-1.17,1.59,1.59,0,0,0,.07-1,8.6,8.6,0,0,1,3.5-.68,18.87,18.87,0,0,0,3.64-.33,14.89,14.89,0,0,0,2.66-1.18,27.83,27.83,0,0,1,2.81-1.35l-.42-3a6,6,0,0,1-2.18,1.77,20.42,20.42,0,0,0-3,1.93l-1.26-.33v-3.2a9.17,9.17,0,0,1,3.43-1.18,18.41,18.41,0,0,0,3.3-.67,19.31,19.31,0,0,0-3.3-2.61,5.88,5.88,0,0,0-2.87-1.1,2.77,2.77,0,0,0-1.68.43,6.16,6.16,0,0,0-1,.92,3.1,3.1,0,0,1,.56-2,4.71,4.71,0,0,1,1.54-1.68,5.61,5.61,0,0,1-2.17-3.28,29.77,29.77,0,0,1-1-4.3,1.67,1.67,0,0,0,.91-.33.61.61,0,0,1,.91.17c.28-.23.37-.65.28-1.27a8.14,8.14,0,0,0-.56-1.93,1,1,0,0,0,.42-.17,3.26,3.26,0,0,1,.49-.25,1.54,1.54,0,0,0,.49-.42,36,36,0,0,0,3.36,2.69,37.41,37.41,0,0,1,3.37,2.69,37.87,37.87,0,0,0,.63-4.88c.14-1.91.21-3.31.21-4.21s-.07-2.33-.21-4.29-.35-3.79-.63-5.47a2.16,2.16,0,0,1-.63.59,5.55,5.55,0,0,1-1.34.08,2.18,2.18,0,0,1-1.75-1,2.3,2.3,0,0,0-1.89-1,2.38,2.38,0,0,0-1.4.26,1.05,1.05,0,0,1-.7.25c0,.67,0,1.34.07,2s.07,1.34.07,2a3.8,3.8,0,0,0-.49.67c0,.11-.44.17-1.19.17a2.48,2.48,0,0,1-1.89-1.26A3.87,3.87,0,0,1,94.45,45a3.93,3.93,0,0,1,.56-2.1,2.06,2.06,0,0,0,.28-1.77,5.32,5.32,0,0,1,2.1-1.68l2.8-1.35a12.79,12.79,0,0,0,2.38-1.43,2.17,2.17,0,0,0,.84-2.1l-1-1.18c-.28,0-.65.25-1.12.76s-.84.92-1.12,1.26a1,1,0,0,1,.28-.76,7.14,7.14,0,0,0,.7-.76c-1.21-.56-1.73-1.17-1.54-1.85s.33-1.18.42-1.51a2.24,2.24,0,0,1-.49-.84c0-.23-.44-.34-1.19-.34s-1.05.08-.91.25l.63.76a2,2,0,0,0-1-.67,2.09,2.09,0,0,1-1-.68c.28-.33.56-.7.84-1.09a1.45,1.45,0,0,1,1.26-.59l1.54,2a1.61,1.61,0,0,1,1-.93,9.34,9.34,0,0,0,1.54-.75l-.7-.85c-.19-.22-.42-.16-.7.17a1.17,1.17,0,0,0,.28-1.09c-.09-.39,0-.65.28-.76a3.36,3.36,0,0,1,.77.42c.23.17.07.42-.49.76.47.22.68.79.63,1.68s.21,1.35.77,1.35a10.13,10.13,0,0,1,1.54.08,5.14,5.14,0,0,1,1.27.59,1.8,1.8,0,0,0,.35-.92,6.67,6.67,0,0,1,.35-1.43q.27-1.86.42-4.8a9.43,9.43,0,0,0-1.41-5.47q5.32,0,7.5.17c1.45.11,2.38.19,2.8.25s.63,0,.63-.25.33-.68,1-1.35a8.29,8.29,0,0,0-2-1.68,4.3,4.3,0,0,0-1.33-.17,6.88,6.88,0,0,0-.21-1.43,1.59,1.59,0,0,1,.21-1.43,5.49,5.49,0,0,1-.56-.76c-.09-.17-.51-.25-1.26-.25s-1,.08-.91.25l.63.76a6.18,6.18,0,0,1-1-1.6,1.26,1.26,0,0,1,0-1c.14-.28.54-.42,1.19-.42l1.68,2a3.54,3.54,0,0,1,1-.85q.63-.33,1.47-.84a3.91,3.91,0,0,0-.49-.5,1.18,1.18,0,0,1-.35-.51.94.94,0,0,1-.28-.5,1.55,1.55,0,0,1,.56.84c.09.34.19.67.28,1a4.85,4.85,0,0,0,.35.93.79.79,0,0,0,.77.42,8.62,8.62,0,0,1,1.47.08,1.6,1.6,0,0,1,.78.59c.74,0,1.12-.56,1.12-1.68v1.76c0,.84-.38,1.27-1.12,1.27s-1-.14-.84-.43.14-.42-.15-.42a12.66,12.66,0,0,1-.28,2.44,4.29,4.29,0,0,0,.14,2.45,3.5,3.5,0,0,1,.71-.68c.18-.11.14-.44-.14-1a7.54,7.54,0,0,0,.07.93,1.41,1.41,0,0,1-.35,1.09,2.88,2.88,0,0,0,1.75.51,3.66,3.66,0,0,1,1.89.5,3.23,3.23,0,0,0,.7-.17,5.05,5.05,0,0,1,1.19-.25c.51,0,1.19-.08,2-.08V36.07l-.56-.67-1.82,2a2.68,2.68,0,0,0-.35-1.18c-.24-.45-.49-.51-.77-.17a4.75,4.75,0,0,0,.14-4,1.72,1.72,0,0,0-.56,1.35v1.35c-.1,0-.14-.12-.14-.34a.59.59,0,0,1-.14-.42,1,1,0,0,0-.28-.59,8.17,8.17,0,0,0,.14,5.38,1.78,1.78,0,0,0-2.59.76,4.79,4.79,0,0,0-.78,3.45,3.34,3.34,0,0,0,1.34-1.43,6.13,6.13,0,0,0,.77-1.93,3.91,3.91,0,0,0,1.12,2h.56a3.75,3.75,0,0,0-.07,1.93c.14.73-.35,1.38-1.47,1.94v2.35c.28.23.46.26.56.09a1.22,1.22,0,0,0,.14-.59,1.61,1.61,0,0,1,.14-.67c.09-.23.32-.34.7-.34.74,0,1,.11.77.34s-.21.33.07.33c0-1,0-2,.07-3s.07-2,.07-3l2.24.68c.28-.34.35-.62.21-.85s-.07-.5.21-.84a.62.62,0,0,0-.91-.17,1,1,0,0,0-.49.85A2.69,2.69,0,0,1,125,39q.42-.59.84-.09c.28,0,.47.48.56,1.43s.14,1.88.14,2.78V61.66a4.06,4.06,0,0,1-.14,1.51,1.18,1.18,0,0,0-.14.68,5.25,5.25,0,0,0-.91-2.45,4.59,4.59,0,0,0-1.47-1.17,6.62,6.62,0,0,0-1.68-.59,6.06,6.06,0,0,1-1.54-.51c-.56,1.35-1.12,2.72-1.68,4.13a9.42,9.42,0,0,0-.85,3.28,4.05,4.05,0,0,0,1.13,2.52,4.11,4.11,0,0,1,1.12,2.53,4.91,4.91,0,0,1-.42,2.19,1.58,1.58,0,0,1-1.55.84c-.37,0-1-.45-1.82-1.35s-1.8-1.93-2.87-3.11l-3.36-3.71a44,44,0,0,0-3.29-3.28l-.28.51V75q1.95,1.51,3.15,2.28a3.54,3.54,0,0,0,2.73.42,3.6,3.6,0,0,0-1,.76c-.42.39-.84.75-1.26,1.09a4.28,4.28,0,0,1-1.47.76A2,2,0,0,1,107.2,80a3.5,3.5,0,0,0-.42,1.52,7.56,7.56,0,0,0,.42,2,32.76,32.76,0,0,0,4.27-1.35q2.18-.84,4.27-1.85c-.84.67-1.77,1.38-2.8,2.11s-2,1.43-2.8,2.1a10.1,10.1,0,0,0,1.19,1.26,2.47,2.47,0,0,0,1.61.42,4.79,4.79,0,0,0,2-.42,3.8,3.8,0,0,0,1.33-.92,15.59,15.59,0,0,1-1.61,3.36,5.93,5.93,0,0,0-1,3q0,1.18.63,1.35c.42.11.86.62,1.33,1.51q.42,3.7,1.19,8.67c.52,3.31,1,6.48,1.4,9.51s.8,5.7,1.13,8,.49,3.68.49,4.12a4.06,4.06,0,0,1-.35,1.85,3.56,3.56,0,0,0-.35,1.69,6.69,6.69,0,0,1-2.11.75,6.78,6.78,0,0,0-2.1.76,3,3,0,0,1-.28-2,3,3,0,0,0-.28-2,4.83,4.83,0,0,0-1.33,1.69,1.58,1.58,0,0,1-1.47,1c-.75,0-1.12-.23-1.12-.68s-.28-.5-.84-.17a1.31,1.31,0,0,0,.7,1.1,10.43,10.43,0,0,0,1,.42,1.12,1.12,0,0,1,.7.76,4,4,0,0,1-.21,2.1,1.5,1.5,0,0,0,1,.34,8.44,8.44,0,0,1,1.12.08,1.76,1.76,0,0,1,1,.51,3.48,3.48,0,0,1,.7,1.6,5.34,5.34,0,0,0,.35-2.36c0-.9-.07-1.68-.07-2.36.28,0,.73,0,1.33.09s1.05.08,1.33.08v.51a1.6,1.6,0,0,1-.42,1,2.16,2.16,0,0,0,2.39,1.68,15.43,15.43,0,0,1,1-2.78,5.48,5.48,0,0,0,.49-2.94,45.12,45.12,0,0,1-.14-7.92,58.78,58.78,0,0,1,1-7.23q.69-3.54,1.61-7t1.75-7.32c0,1.35,0,2.89.07,4.63s.16,3.45.35,5.13a4.21,4.21,0,0,0,.84,2.11,2.1,2.1,0,0,1,.42,1.93,6.26,6.26,0,0,0,1.75,1.69,4.06,4.06,0,0,0,2.18.67c.37,0,.56-.06.56-.17a1,1,0,0,0-.14-.42,1,1,0,0,1-.14-.51c0-.16.18-.25.56-.25a1.63,1.63,0,0,1,1.4.93,4.08,4.08,0,0,0,1.4,1.43,2.28,2.28,0,0,0-.49.76c0,.16-.45.25-1.19.25a1.31,1.31,0,0,1-1.33-.76,2.89,2.89,0,0,0-1.2-1.26,3,3,0,0,0-2,3c.19.22.54.25,1,.08a1.9,1.9,0,0,1,1.48.09,7.54,7.54,0,0,0,.84,1.26c.46.62.84,1.09,1.12,1.43a8.28,8.28,0,0,0-1.68.93c-.56.39-1.13.75-1.69,1.09l.42,3a7.83,7.83,0,0,0,1-.08c.37-.06.46-.26.28-.59a5.45,5.45,0,0,0,.14,2.77,13.12,13.12,0,0,1,.56,3,2.29,2.29,0,0,1-.7,1,1.38,1.38,0,0,0-.56,1,2.09,2.09,0,0,0,.49,1.18c.32.45.63.84.91,1.18h.42a6.1,6.1,0,0,0-.49,2.52,4.85,4.85,0,0,1-.77,2.52c.28.34.39.59.35.76s.3.25,1,.25,1.21-.25,1.4-.75a4,4,0,0,1,.7-1.26A2.15,2.15,0,0,1,137,139,2.44,2.44,0,0,1,137.74,140.77Zm-40.35,9.59h-1v-2.52h1Zm1.54,5.73-.56,1c-.09,0-.26-.28-.49-.84a1,1,0,0,0-1.19-.68Zm1.26-28.79h-.84v-2.52h.84Zm1.54,5.73-2.24-.51a1.21,1.21,0,0,1,1.19.84c.24.57.4.85.49.85Zm-1.12,28.78a1.22,1.22,0,0,0-.14-.59,5.51,5.51,0,0,1-.28-.59l-.28-.67c-.28,0-.3.31-.07.92S100.33,161.81,100.61,161.81Zm3.92-114.63a13.62,13.62,0,0,1-1.12,2.11,1.92,1.92,0,0,1-1.54,1.09l-1.26-1.68a2.64,2.64,0,0,0,.56-1.18,5.44,5.44,0,0,0,.14-1.18Zm2.25-13.13v-3.2h-2.67V35.4a1.79,1.79,0,0,0,.35-1.35,1.8,1.8,0,0,1,.35-1.34,6.16,6.16,0,0,0,1,.92A1.77,1.77,0,0,0,106.78,34.05Zm-2,107.56a8.58,8.58,0,0,0-.56,2.27,5.57,5.57,0,0,0,0,1.77,10.22,10.22,0,0,0,.63-2.36C105,142.4,105,141.84,104.81,141.61Zm1.13-.84v-2.36h-1v2.36Zm1.12,2-.7-1.85-.85.34.71,1.51Zm1.54-66.15-.42,1-1.4-.84.28-1Zm.84-22.89a1.44,1.44,0,0,0-.35-.93,2.22,2.22,0,0,1-.35-1.43,1,1,0,0,0,.28.76c.18.16-.1.25-.84.25-.56,0-.84-.22-.84-.67a1.05,1.05,0,0,1,.28-.68,2,2,0,0,0,.7,1.6A9.81,9.81,0,0,1,109.44,53.75Zm0-30.47a2.68,2.68,0,0,0-.35-1.18,2.55,2.55,0,0,1-.35-1.18.8.8,0,0,1-.14.51,1.74,1.74,0,0,0-.28.5,2.27,2.27,0,0,1-.28.51.54.54,0,0,1,.42.17,1.53,1.53,0,0,0,.42.33ZM117,56.1c-.28-.33-.51-.44-.7-.33a2.94,2.94,0,0,0-.7.67,6.22,6.22,0,0,1,.56-2.69,6.15,6.15,0,0,0,.56-2.7l-1.68,2-1.54-1.68a5.39,5.39,0,0,0,.42-2.1v-1.6a1.59,1.59,0,0,0-.28,1.34,1.41,1.41,0,0,1-.42,1.35,2.5,2.5,0,0,1-.56-.84q-.14-.16,0-.51v5.39c-.28-.34-.35-.53-.21-.59s-.16-.08-.91-.08-1.26.58-1.54,1.76a18.78,18.78,0,0,1-.84,2.78,6.16,6.16,0,0,0,2.52-3.2,2.1,2.1,0,0,1,.49,1,2,2,0,0,0,.49,1,.77.77,0,0,1,.56-.33c.09,0,.14,0,.14.16a38.07,38.07,0,0,1-.63,4c-.23,1,.16,1.52,1.19,1.52.37,0,.58-.23.63-.67a8.5,8.5,0,0,0,0-1.6c0-.62-.12-1.27-.21-1.94a4,4,0,0,1,.14-1.85,1.21,1.21,0,0,0,1.26.34A2.09,2.09,0,0,0,117,56.1Zm.56,93.93a1,1,0,0,1-.91.42,5,5,0,0,0-.91-.09,6.18,6.18,0,0,1-.35,2,6.27,6.27,0,0,0-.35,2,3.22,3.22,0,0,0-1.75-1.09,8.06,8.06,0,0,0-1.89-.25v-1.18a1.8,1.8,0,0,1,.42-1.18c-.56-.67-1.08-1.23-1.54-1.68a14.09,14.09,0,0,1-1.12-1.18,2,2,0,0,1,1.12.59,2.73,2.73,0,0,0,1.82.59,1.41,1.41,0,0,0,1.47-.93,4.45,4.45,0,0,0,.35-1.43c0,.34,0,.79.07,1.35a1.76,1.76,0,0,1-.35,1.34l.84,1a2.19,2.19,0,0,1,1.33-.67A2.43,2.43,0,0,1,117.56,150Zm-.7-126.92V20.92a2.55,2.55,0,0,1-.77,1.1,1.77,1.77,0,0,1-1,.59l-1.4-1.69a2.06,2.06,0,0,0,.35-1.51c0-.68-.07-1.18-.07-1.52a23.32,23.32,0,0,0-.63,3,23.32,23.32,0,0,1-.63,3c-.28-.33-.35-.53-.21-.59s-.16-.08-.91-.08-1.22.5-1.4,1.51a14.13,14.13,0,0,0-.28,2.53A7.22,7.22,0,0,0,110.7,26a6.79,6.79,0,0,1,.84-1.34c.19.67.51,1.06,1,1.17a2,2,0,0,1,1.12.68,5.62,5.62,0,0,0-.42,2.19,3.07,3.07,0,0,1-.7,2,5.2,5.2,0,0,0,1.12-1.52c.19-.45.37-1,.56-1.51s.44-1.21.77-1.94A10.63,10.63,0,0,1,116.86,23.11ZM112.1,160.8l-1,2.53-.84-.34,1-2.53ZM113.22,45l-.7,3.2h-.84l.7-3.2ZM117,42.3l-.28-1-1.4.84v1ZM117.14,25l-.84-.33-.7,1.68.84.5Zm1.4,10.77a.77.77,0,0,0-.63.26,10.74,10.74,0,0,0-.63.92,1.81,1.81,0,0,1-.35-.59,1,1,0,0,0-.21-.42.53.53,0,0,1-.14-.33,1.76,1.76,0,0,0,.7,1.51,6,6,0,0,1,1.12,1,5.44,5.44,0,0,0-.14-1.18A1.35,1.35,0,0,1,118.54,35.73Zm.43,16a1.53,1.53,0,0,0-.43-1l-.84-1q0,1,.42,1.26A3.42,3.42,0,0,1,119,51.73Zm1.4,5.72L119,55.77c-.28,0-.38.36-.28,1.09a14.93,14.93,0,0,1,.14,1.6,1.44,1.44,0,0,1,.49-.42,4.59,4.59,0,0,0,.49-.25Zm2,107.56h-1.82v-2a3.62,3.62,0,0,0,.77,1.26C121.7,164.76,122.05,165,122.33,165Zm-.14-135.5h-.84l-.7,3.2h.84Zm58,.67a13.67,13.67,0,0,0-1,1.6A19.27,19.27,0,0,0,178,34.56a1.46,1.46,0,0,1-.91.08,1.13,1.13,0,0,0-1,.42,2.81,2.81,0,0,1,.49,1.6,2.81,2.81,0,0,0,.49,1.6,1.33,1.33,0,0,0,.91-.59.77.77,0,0,0,.07-1.09,6.41,6.41,0,0,1,.77,1.17,2,2,0,0,1-.07,1.69h-2.52a6.06,6.06,0,0,0-1.54-2.7,2.54,2.54,0,0,0-1.4-.67,2.19,2.19,0,0,0-1.47.42,12.72,12.72,0,0,0-1.33,1.43v3.2a4,4,0,0,1,1.19,1.52,1.66,1.66,0,0,0,1.61,1,2.52,2.52,0,0,0,1.89-1.18,9.94,9.94,0,0,0,1.33-2.19,4.75,4.75,0,0,0,.28,4,8.62,8.62,0,0,0,2.1,2.44,7.87,7.87,0,0,1-1,1,1.89,1.89,0,0,1-1.05.5,3.21,3.21,0,0,1-.14-2.1c.19-.73,0-1.1-.56-1.1-.37,0-.56.09-.56.26a1.08,1.08,0,0,0,.14.5,1,1,0,0,1,.14.42c0,.11-.19.17-.56.17s-.59,0-.63-.08-.05-.17,0-.34a2.28,2.28,0,0,1,.14-.42.78.78,0,0,0-.07-.51l-.35.42a4.06,4.06,0,0,1,.07,1.27,5.8,5.8,0,0,0,.63,2.61c.42.84.91,1.88,1.47,3.11a6.11,6.11,0,0,0-1.26-1.68,2.78,2.78,0,0,0-2-1,1.61,1.61,0,0,0-1.54.75,7.3,7.3,0,0,1-1.26,1.6v3.37a10.1,10.1,0,0,0,1.19,1.26,2.45,2.45,0,0,0,1.61.42,2.7,2.7,0,0,0,2-.84,5.75,5.75,0,0,0,1.26-1.85,5.47,5.47,0,0,1-.42,2.52c-.37,1-.7,1.91-1,2.7-.47,1-.47,1.68,0,2a5.12,5.12,0,0,1,1.4,2,20.38,20.38,0,0,1,.21,3.87c-.05,1.35-.07,2.69-.07,4a2.8,2.8,0,0,1-.56,1.35,2.7,2.7,0,0,0-.56,1.34,3.82,3.82,0,0,0,.35,1.35,11.71,11.71,0,0,0,.63,1.34,13.36,13.36,0,0,0,.07,3,22.7,22.7,0,0,1,.21,3.12,13.92,13.92,0,0,1-.35,3.11,8.15,8.15,0,0,1-1.47,3c.28.34.49.45.63.34s.44-.34.91-.67v4a.55.55,0,0,0-.14-.34,1.45,1.45,0,0,0-1.12-.34c-.38,0-.56-.05-.56-.17V91.2c0-.17-.19-.25-.56-.25a1,1,0,0,0-.91.5,5.71,5.71,0,0,0-.63,1.18,6.85,6.85,0,0,1-.63,1.18,1.09,1.09,0,0,1-.91.5l-1.27-.67c0,.34-.09.5-.28.5s-.42.17-.7.51l1.69,1.85V99a8.5,8.5,0,0,1-1.2-.09,1.13,1.13,0,0,0-1.05.42,1.57,1.57,0,0,1,.7,1.18,6.11,6.11,0,0,0,.7,1.85,9.46,9.46,0,0,0,.85-1.26,1,1,0,0,0,0-1.26,3.44,3.44,0,0,0,1.89-.42A3.12,3.12,0,0,1,174,99c.37,0,.58-.06.63-.17a1.27,1.27,0,0,0,.07-.42,1.79,1.79,0,0,1,.07-.51c0-.17.25-.25.63-.25a1.59,1.59,0,0,1,1.54.76,1.36,1.36,0,0,0,1.26.75,4.61,4.61,0,0,0-.21,2.53,22.85,22.85,0,0,1,.21,2.69,1.36,1.36,0,0,1-.84-.33c-.28-.23-.56-.17-.84.16v8.59a1.45,1.45,0,0,0,1.19.5h1.61a4,4,0,0,0,.21,1.18c.14.45,0,.67-.35.67a1.93,1.93,0,0,1-.28.51,3.23,3.23,0,0,0-.28.84.58.58,0,0,0-.14-.34,1.45,1.45,0,0,0-1.12-.33c-.65,0-1.07.17-1.26.5a2.27,2.27,0,0,1-1.4.84l-1.26,1.35a8.09,8.09,0,0,1-.21-1.68c0-.79-.12-1.54-.21-2.27a8,8,0,0,0-.49-1.94,1.15,1.15,0,0,0-1.05-.84c-.38,0-.56,0-.56.08v.51s-.19.08-.56.08a1.35,1.35,0,0,1-1.41-1.18,5.32,5.32,0,0,0-1.12-2.19,8.55,8.55,0,0,0-1.61,1.27,13.07,13.07,0,0,1-1.47,1.26,3.24,3.24,0,0,0,.7,1.68l1.05,1.27a2.9,2.9,0,0,1,.63,1.09c.09.34-.09.73-.56,1.18a3,3,0,0,1,1.26,1.26,15.76,15.76,0,0,0,1.26,1.77v.33a1.48,1.48,0,0,1-.42.85,1,1,0,0,0,.91.42,10.17,10.17,0,0,1,1.62-.09c.74,0,1.12,0,1.12-.08v-.59a11.19,11.19,0,0,1,.63,2,11.19,11.19,0,0,0,.63,2,1.82,1.82,0,0,0,.35-1.35c-.05-.56-.07-1-.07-1.34q.42-.16,1.26.33a1.82,1.82,0,0,1,.84,1.69,8,8,0,0,1-.7,3c-.47,1.12-1.08,1.68-1.82,1.68a6.3,6.3,0,0,1-1.33-.09,2,2,0,0,0-1.19.43l1.68,1.85a1.8,1.8,0,0,1-.63,1.68,11.84,11.84,0,0,1-1.61,1.18,2.27,2.27,0,0,1,.7,1.26,5.71,5.71,0,0,0,.7,1.77,8.59,8.59,0,0,0,.84-1.26,1.06,1.06,0,0,0,0-1.27c.37,0,1,0,2-.08l2.8-.17a23.59,23.59,0,0,1,2.66,0,6.89,6.89,0,0,1,1.68.25l-1.68,6.4c-.75-.11-1.61-.19-2.59-.25l-2.87-.17c-.94-.06-1.8-.09-2.59-.09a2.75,2.75,0,0,1-1.61-.33l.77-.93a1.43,1.43,0,0,0,.35-.92l-.84-1.18c-.28.45-.1,1.26.56,2.44a43.6,43.6,0,0,0,2.31,3.7q1.32,1.94,2.66,3.71c.89,1.17,1.47,2,1.75,2.44-.19-.11-.79-.56-1.82-1.35s-2.15-1.6-3.36-2.44-2.36-1.6-3.44-2.27a11.09,11.09,0,0,0-1.75-1,8.93,8.93,0,0,0,1.12-4,1.75,1.75,0,0,0-.7-.59,1.75,1.75,0,0,1-.7-.59,8.86,8.86,0,0,0-1.54,1.18,8.34,8.34,0,0,1-1.54,1.17c.37.34,1.17,1,2.38,2.11s2.5,2.22,3.86,3.45,2.59,2.41,3.71,3.53a16.35,16.35,0,0,1,2,2.19c-.09.23-.61.2-1.54-.08s-2-.56-3.08-.84a17.47,17.47,0,0,0-3-.51c-.89,0-1.24.14-1.05.59q-.13.17-.42,0c-.19,0-.47-.22-.84-.67a1.89,1.89,0,0,0-.63,1.26c-.05.51-.4.76-1.05.76-.37,0-.61-.06-.7-.17a.64.64,0,0,1-.14-.42,1.09,1.09,0,0,0-.14-.51c-.09-.16-.33-.25-.7-.25s-.56.09-.56.25v.93c0,.11-.19.17-.56.17-.75,0-1-.11-.91-.34s-.07-.34-.63-.34c0,.34-.07.43-.21.26s-.21.19-.21,1.09a1.15,1.15,0,0,0,.42.76c.28.28.37,1,.28,2.27q.27.51.63.51h.77c.09.67-.33,1.4-1.26,2.18a.23.23,0,0,0,0,.34c0,.34.18.51.56.51h-4.21v-9.09c.28,0,.5.19.64.59s.58.58,1.33.58a2.31,2.31,0,0,0,1.4-.33,2,2,0,0,1,1.26-.34,2.58,2.58,0,0,0,.49-.76,4.48,4.48,0,0,1,.49-.92,6.83,6.83,0,0,1-1.4-1.18c-.28-.34-.56-.64-.84-.93a3.34,3.34,0,0,0-1-.67,4.76,4.76,0,0,0-1.82-.25,11.88,11.88,0,0,0-.35-3.62,18.94,18.94,0,0,0-1.2-3.62,24.17,24.17,0,0,0,1-5.22,25.36,25.36,0,0,0,0-5.38,5.39,5.39,0,0,0-.91-2,8.3,8.3,0,0,1-1.05-2.19,4.14,4.14,0,0,0,.42-1.35,4.13,4.13,0,0,1,1-1.85l-.84-1a10,10,0,0,1-2.1,3.28c-.84.84-1.68,1.77-2.52,2.78a3.36,3.36,0,0,1,.14-2.11c.28-.84.56-1.59.84-2.27-.37-.44-.89-.33-1.54.34a16.61,16.61,0,0,1-.63-2.19,11.19,11.19,0,0,0-.63-2,2.32,2.32,0,0,0-1.19.59,5.68,5.68,0,0,0-1.33,1.43,11.61,11.61,0,0,0,.91-1.51q.63-1.19,1.05-2.19a1.08,1.08,0,0,0,.42-.51c.28-.33,0-.5-.7-.5s-1.1.08-1.05.25-.07.25-.35.25c0-.11.32-.39,1-.84a17.61,17.61,0,0,0,1.89-1.51,7.67,7.67,0,0,0,1.33-1.52q.42-.68-.42-.84c.19-.11.56-.31,1.12-.59l1.82-.92c.65-.34,1.26-.68,1.82-1a2.89,2.89,0,0,0,1.12-1l-1.4-1.68a3.39,3.39,0,0,0-.63,1.35,2.13,2.13,0,0,1-1,1.34,8.11,8.11,0,0,1-.35-3,13.07,13.07,0,0,0-.21-3.2.81.81,0,0,1,.63-.34,1.14,1.14,0,0,0,.77-.5c-.09-.34-.7-.68-1.82-1s-2.38-.65-3.78-.93-2.71-.56-3.92-.84a4.53,4.53,0,0,1-2.25-.93H126l.7-3.36c0,.11.09.22.28.33a1,1,0,0,0,.84.34,7.14,7.14,0,0,1,.7-.76c.19-.17.28-.7.28-1.6a6.68,6.68,0,0,0-1-3.11L126,84.89a16.27,16.27,0,0,0,1.82.92,5.29,5.29,0,0,0,2.1.42c1,0,2-.67,2.81-2a3.46,3.46,0,0,0-2.32-1.76,4.57,4.57,0,0,1-2.73-2.61c.65.22,1.47.56,2.45,1s2,.87,3,1.26,1.86.73,2.66,1a6,6,0,0,0,1.75.42c.75,0,2.17.11,4.27.34a55.12,55.12,0,0,0,5.68.33c.18-.89-.52-1.34-2.1-1.34a4.09,4.09,0,0,0-1.2.08c0,.06-.21.25-.49.59a4,4,0,0,1,.14-1.68q.28-1.19.57-2.19a4.05,4.05,0,0,0-.64-2.11,2.47,2.47,0,0,0-2.31-1.6H126a5.14,5.14,0,0,0-.56-2.18,5.88,5.88,0,0,1-.56-2.53,2.33,2.33,0,0,1,.63-1.77,2.06,2.06,0,0,0,.63-1.59.78.78,0,0,0,.14.5,3.27,3.27,0,0,0,.56.84,33.73,33.73,0,0,1,4.2-4.8A48.78,48.78,0,0,1,135.22,61a50.88,50.88,0,0,1,4.27-2.77A40.85,40.85,0,0,0,144,55.09a5.3,5.3,0,0,1-.91,4.46q-1.47,2.12-3.15,4.63a2.43,2.43,0,0,0,1.68.09,6.14,6.14,0,0,0,2-.93c.66-.45,1.29-.93,1.9-1.43s1.14-1,1.61-1.43l1.4,1.68-1.68,3.62a5.65,5.65,0,0,0-.14,4.46,2.46,2.46,0,0,0-1.26-.42,1.74,1.74,0,0,1-1.26-.59,14.11,14.11,0,0,1-3.51,3.12,22.8,22.8,0,0,0-3.5,2.6,4.55,4.55,0,0,0,2.52.43q1.68-.09,3.36-.09c.28,0,.63.23,1.05.67a2.31,2.31,0,0,0,1.76.68A6.56,6.56,0,0,0,149,75.29a6.48,6.48,0,0,1,3.15-1.35c.37,0,.56.09.56.26a1.05,1.05,0,0,1-.14.5,1,1,0,0,0-.14.42c0,.12.19.17.56.17a8.73,8.73,0,0,0,1.82-.17,2.3,2.3,0,0,1,1.68.34A4.22,4.22,0,0,0,157,73.1a13.46,13.46,0,0,1,.07-2.35,9.51,9.51,0,0,0,1.41-1.27,2.76,2.76,0,0,0,.7-1.93,2.21,2.21,0,0,0-.7-1.77,2.37,2.37,0,0,0-1.55-.59V56.44c.47.23,1.06.06,1.76-.51a2.65,2.65,0,0,0,1.05-2.18,2.37,2.37,0,0,0-.91-2c-.61-.45-1.24-1-1.9-1.52V43a3.36,3.36,0,0,0,2.81-3.36,2.58,2.58,0,0,0-1-2,2.94,2.94,0,0,0-1.83-.85V18.06a27,27,0,0,0,3.93-1.26,24.65,24.65,0,0,1,3.92-1.26q-.56,0-1.47-1.86a13.36,13.36,0,0,1-1.19-3.19c.75.78,1.49,1.54,2.24,2.27a3.16,3.16,0,0,0,2.1,1.09c.75,0,1.07,0,1-.08s0-.25.28-.59A22.2,22.2,0,0,1,166,15a22,22,0,0,0-1.82,1.93c.47.57.89.82,1.26.76a3.71,3.71,0,0,0,1.19-.42,8.36,8.36,0,0,0,1.26-.84,2.1,2.1,0,0,1,1.33-.51,3.78,3.78,0,0,1,2,.68,4,4,0,0,0,2.17.67,1.67,1.67,0,0,0,1.54-.67,1.67,1.67,0,0,1,1.54-.68c.37,0,.56.09.56.25a1.09,1.09,0,0,1-.14.51,1,1,0,0,0-.14.42c0,.11.19.17.56.17q1.13,0,.84-.09c-.19-.05-.28-.25-.28-.58a2.9,2.9,0,0,0,.49,1.34,15.93,15.93,0,0,1,.91,1.85,5.93,5.93,0,0,0-2.8,3,6.79,6.79,0,0,0-.21,2.87,17.32,17.32,0,0,1,.21,2.69,4.12,4.12,0,0,1-1.68,2.86l.42,3a1.78,1.78,0,0,0,.35-1.35c0-.56-.07-1-.07-1.34a3.21,3.21,0,0,1,2.1-.42A3.4,3.4,0,0,0,180.19,30.18Zm-51.56,128.6-2.1-.84.28-1,1.82.84Zm-.84-36.86v-3.2h-1v3.2Zm2.66-14.14-3.08-2.19-.28,1,3.08,2.19Zm6.17-73.56c-.28,0-.35.2-.21.59s-.17.59-.91.59-1.08-.11-1.26-.34a1.7,1.7,0,0,0-1.26-.33.77.77,0,0,1-.77-.43,2.74,2.74,0,0,1-.28-.92,4.24,4.24,0,0,0-.28-1,2.14,2.14,0,0,0-.64-.84,1,1,0,0,0,.28.5,1.19,1.19,0,0,0,.36.51,3.91,3.91,0,0,1,.49.5,1.4,1.4,0,0,0-.35,1.1c0,.39-.31.59-1.06.59A2.18,2.18,0,0,1,129,34l-1-1.26A3.25,3.25,0,0,0,127.3,34c-.14.5.16.76.91.76s1.14.08,1.19.25a2.45,2.45,0,0,0,.49.75,1.9,1.9,0,0,0-.14,1.6,5.29,5.29,0,0,1,.28,1.43,6.53,6.53,0,0,1,1.9.34,3.77,3.77,0,0,1,1.75,1.18,3.07,3.07,0,0,1,0-1.35,6.17,6.17,0,0,1,.14-1.34,12.32,12.32,0,0,1,.42-1.52c.28,0,.32.14.14.42s.09.42.84.42a1.14,1.14,0,0,0,1.26-1.09A14.93,14.93,0,0,0,136.62,34.22Zm-5.18,101.5v-1l-2.53-.67v1Zm10.22-56-2-1.18a3.58,3.58,0,0,1-1.54-1.68h-7.71a44.77,44.77,0,0,0,5.33,3q2.81,1.35,5.32,2.86a1.62,1.62,0,0,1-.14-1.52A4.09,4.09,0,0,1,141.66,79.67ZM134.24,146v-1.18h-2V146Zm4.06-98.81-2.8,1h2.1Zm2.24,70.7a5.76,5.76,0,0,1-2.24.67,10.7,10.7,0,0,0-2.66.67,2.65,2.65,0,0,1,1-1.93,22.13,22.13,0,0,0,1.82-1.94c.37-.11.82.12,1.33.68A2.68,2.68,0,0,1,140.54,117.88Zm2.1-2a9.22,9.22,0,0,1-.91-1.43c-.33-.62-.63-.93-.91-.93a2,2,0,0,1,1.12.67A2.23,2.23,0,0,1,142.64,115.86Zm2.67-98.14h-.85l-1.26-2.86.84-.33Zm3.92,83L147,100a1.64,1.64,0,0,1,1.33.58C148.64,101,149,101,149.23,100.71Zm4.62-52.35a1.52,1.52,0,0,1-1-.59c-.37-.39-.7-.76-1-1.09.28-.34.61-.7,1-1.1a1.52,1.52,0,0,1,1-.59,2.67,2.67,0,0,1,.42,1.69A2.65,2.65,0,0,1,153.85,48.36Zm.7,39.39V86.57h-2.1v1.18Zm-.42,31.64-1.68.84v-1l1.4-.84Zm-.84-10.94c0-.33,0-.78-.07-1.35a2.34,2.34,0,0,0-.49-1.34c-.19.22-.07.36.35.42s.91.14,1.47.25a14.64,14.64,0,0,0,2.38.17c0,.23-.21.39-.63.5s-.88.26-1.4.43a11.44,11.44,0,0,0-1.33.5C153.2,108.2,153.1,108.34,153.29,108.45Zm3.5-12a8.28,8.28,0,0,1-.21,1.52,1.2,1.2,0,0,1-1.33,1,1.81,1.81,0,0,1-1.68-1A3.69,3.69,0,0,1,153,96.5Zm-.42,33.67a2.12,2.12,0,0,0-.56-1.77,5.79,5.79,0,0,1-1-.93,1.44,1.44,0,0,0,.35.93c.24.28,0,.42-.77.42-.56,0-.84-.22-.84-.67a1.84,1.84,0,0,1,.14-.68,8.09,8.09,0,0,0,.56,2.95,6.77,6.77,0,0,1,.56,2.44,5.79,5.79,0,0,1,1-.93C156.19,131.65,156.37,131.07,156.37,130.17Zm.56-18.52c-.28,0-.67.25-1.19.76a2.31,2.31,0,0,1-1.61.76c0-.34,0-.9-.14-1.69a2.23,2.23,0,0,1,.28-1.68,2.75,2.75,0,0,1,1.33.67A7.59,7.59,0,0,1,156.93,111.65Zm-.42-6.4-.7,2.7-.84-.51.7-2.19Zm2.67-66.15a2.68,2.68,0,0,1-.35,1.18,2.55,2.55,0,0,0-.35,1.18l-2.67-.68a4.21,4.21,0,0,1,.56-1.59,3.79,3.79,0,0,1,1.41-1.6Zm5,9.76V44.32l-1.05-.84a2.72,2.72,0,0,0-1.75-.51,3.73,3.73,0,0,0-2.1,1,3.3,3.3,0,0,0-1.26,2.7,5.43,5.43,0,0,0,.84,2.18,3,3,0,0,0,4.27,1A6.79,6.79,0,0,0,164.22,48.86Zm-.56,13.47v-3c-.28-.34-.54-.67-.77-1s-.73-.5-1.47-.5-1.24.16-1.47.5-.49.67-.77,1v3a2.91,2.91,0,0,0,.91.76,3,3,0,0,1,.91.76,3.26,3.26,0,0,0,1.33-.51A4.63,4.63,0,0,0,163.66,62.33Zm-.42-28.28c.19-1.79.07-2.89-.35-3.28s-1-.87-1.75-1.43c-.28.34-.66.78-1.12,1.35a2.41,2.41,0,0,0-.7,1.34,5.75,5.75,0,0,1,2.17-.92,2.51,2.51,0,0,1,1.75.08Zm-.84,14.14h-2a1.53,1.53,0,0,0-.14-.5,4.27,4.27,0,0,0-.56-1,12.83,12.83,0,0,1,1-1.1,1.77,1.77,0,0,1,1.05-.59Zm.7,25.25-2.66-.67-.7,3a2,2,0,0,0,1,.67,4.34,4.34,0,0,0,1.05.17,5.92,5.92,0,0,0,.84-1.6A5.12,5.12,0,0,0,163.1,73.44Zm-1.54,45.11h-.84l-.7-1.68.84-.34Zm.84-82.82V34.56h-2v1.17Zm.28,108.07-.7,2.69-.84-.5.7-2.19Zm0-34v-3.87h-1v3.87Zm5.46-68.34c-.28.33-.63.78-1,1.34a2,2,0,0,1-1.75.85,3.05,3.05,0,0,1-2.24-1.35A4.2,4.2,0,0,1,162,39.61a3,3,0,0,1,1.33-2.7,4.39,4.39,0,0,1,2-.84,2.47,2.47,0,0,1,1.75.59c.42.4.77.7,1,.93Zm0,14.14V51.89c-.28-.33-.63-.78-1-1.34a2.06,2.06,0,0,0-1.75-.84,3.07,3.07,0,0,0-2.24,1.34,4.22,4.22,0,0,0-1.12,2.7,6.71,6.71,0,0,0,.77,1.85,2.67,2.67,0,0,0,2.59,1.51,2.85,2.85,0,0,0,1.68-.5A6.32,6.32,0,0,0,168.14,55.6Zm-1.82,47.63a1.72,1.72,0,0,1-1-.42,1.72,1.72,0,0,0-1-.42,3.43,3.43,0,0,1-1.05,1.69,2.25,2.25,0,0,1-1.33.67,12.68,12.68,0,0,1,1.89,1.43,3,3,0,0,0,1.89.92,9.24,9.24,0,0,1,.28-2.18A8.24,8.24,0,0,0,166.32,103.23Zm1.26-34V66.88l-1.26-1.69h-2a5.92,5.92,0,0,0-.84,1.6,5.12,5.12,0,0,0-.42,1.6l1.26,1.51h1.54a2.71,2.71,0,0,0,1.4-.33C167.49,69.46,167.58,69.34,167.58,69.23Zm-.7-28.45H163.8a2.73,2.73,0,0,1,.49-1.68,3.32,3.32,0,0,1,1.33-1.51,5.76,5.76,0,0,1,.84,1.6A5.15,5.15,0,0,1,166.88,40.78ZM167,81l-2.8-.84a5.15,5.15,0,0,0,1,1.6c.37.4.7.76,1,1.1a1.73,1.73,0,0,0,.35-.59,6.22,6.22,0,0,1,.21-.59Zm-1.12,60.77a1.61,1.61,0,0,1-.91-.34,1,1,0,0,1-.49-.84v3.7q.28-.5.63-1.26A5.77,5.77,0,0,1,165.9,141.78Zm3.22,17h-4.2V157.6h4.2Zm-2-3.7h-.84v-1.85h.84Zm4.91-106.22V44.49a9.61,9.61,0,0,1-1.4-1A2.46,2.46,0,0,0,169,43a2.17,2.17,0,0,0-1.61.51,10.86,10.86,0,0,1-.91.84v4.54a6.79,6.79,0,0,0,1,1,3.27,3.27,0,0,0,3.51,0A6.79,6.79,0,0,0,172.07,48.86Zm-3.93,102.35-1.54.84v-1l1.26-.84Zm-.42-117.16V31.53h-.84v2.52Zm3.79,28.28v-3c-.28-.34-.54-.67-.77-1a2.43,2.43,0,0,0-3,0c-.23.34-.49.67-.77,1v3a2.91,2.91,0,0,0,.91.76,2.91,2.91,0,0,1,.91.76,3.29,3.29,0,0,0,1.34-.51A4.78,4.78,0,0,0,171.51,62.33Zm-1.12,45.28a5.6,5.6,0,0,0-1.41-1.09,3.5,3.5,0,0,0-1.82-.59,2.8,2.8,0,0,0,.42,1.26,8.08,8.08,0,0,0,.84,1.26,2.06,2.06,0,0,1,1-.67A3.6,3.6,0,0,1,170.39,107.61Zm1-74.57c0-.45-.47-1.12-1.41-2a2.32,2.32,0,0,0-1.19-.42c-.51-.05-.91-.08-1.19-.08l.56-.34c.47-.22.7-.5.7-.84A2.9,2.9,0,0,0,170,30.6c.38.17.66.31.85.42a1.09,1.09,0,0,1,.42.59A5.21,5.21,0,0,1,171.37,33ZM171,73.44l-2.67-.67-.7,3.19,2.67.68Zm-2,24.07V95.15h-1v2.36Zm.42,6.73-.7-1.85-.7.34.7,1.51Zm1-68.51V34.56h-2.11v1.17Zm0,12.46h-2.11V45a2.8,2.8,0,0,1,1.68,1.6A4.94,4.94,0,0,1,170.39,48.19Zm0,39.73a2.69,2.69,0,0,0-1.06-.76,2.9,2.9,0,0,0-1.05-.25v2.52a4.35,4.35,0,0,0,1.68-1Zm.56,70.19H169.4v-1.18H171Zm.28-26.09h-1v-2.53h1ZM176,13.52A17.54,17.54,0,0,0,174.94,15a2,2,0,0,1-1.75.92c-.66,0-1.24-.61-1.75-1.85a12.22,12.22,0,0,1-.91-2.86h1.82c.37,0,.6.11.7.34a1.79,1.79,0,0,1,.14.67,1.58,1.58,0,0,0,.14.67c.09.23.32.34.7.34a6.13,6.13,0,0,0,1.33-.08Q175.57,13,176,13.52Zm-3.78,102.67-.84-1.17-.56.84.84.84Zm3.22-47V66.88l-1.26-1.69h-2a5.92,5.92,0,0,0-.84,1.6,5.12,5.12,0,0,0-.42,1.6l1.26,1.51h1.54a2.74,2.74,0,0,0,1.4-.33C175.33,69.46,175.43,69.34,175.43,69.23Zm-.56-28.45a5.15,5.15,0,0,0-.42-1.59,5.76,5.76,0,0,0-.84-1.6,3.77,3.77,0,0,0-1.4,1.6,4,4,0,0,0-.56,1.59Zm0,40.07a3,3,0,0,1-.49,1.34,10.06,10.06,0,0,1-.91,1.35c-.28-.34-.63-.81-1.05-1.43a1.94,1.94,0,0,1-.21-1.94Zm5.46,77.59a12.8,12.8,0,0,1-3.22-.67,10.67,10.67,0,0,1-2.24-.84c-.66-.34-1-.67-1-1a3.87,3.87,0,0,0,1.47.59,19,19,0,0,1,2.17.67c.75.28,1.4.53,2,.76S180.33,158.33,180.33,158.44Zm-2.66-40.23V117h-1.54v1.17Zm1.68-29.45A3.17,3.17,0,0,0,179,87.5a3.26,3.26,0,0,1-.35-1.27l-.28,1.35a9.07,9.07,0,0,0-.21,1,1.6,1.6,0,0,1-.35.84,1.92,1.92,0,0,0,1-.34Zm2.1,27.6a2,2,0,0,1-1,.68,4.26,4.26,0,0,1-1.05.16v-2.52a2.66,2.66,0,0,1,1.26.59C181.17,115.66,181.45,116,181.45,116.36Zm.84,32.83-.56,3.19h-.84l.56-3.19ZM184,136.56l-1.41,1.69-1.4-1.69,1.4-1.68Zm-1.55,21.88v-1.85h-1v1.85Z" transform="translate(-4.64 -3.58)"/>
    <path class="a" d="M195,123.1a8.47,8.47,0,0,1-2.17.84,7.8,7.8,0,0,0-2.17.84,3.18,3.18,0,0,1,.42-1.85,2.81,2.81,0,0,1,1.4-1.52Zm1.05-37.29a27.19,27.19,0,0,0-2.73.93,6.18,6.18,0,0,0-.28-1.52,12,12,0,0,1-.28-3c.28,0,.75,0,1.4-.08s1-.25,1-.59A6.51,6.51,0,0,1,197,83.46c.66,1,1.12,1.59,1.4,1.93A9,9,0,0,0,196.09,85.81Zm1.89,5.3-.7.68-.7-1,.56-.68Zm1.55,25.59-1.69.84v-1l1.41-.84ZM293.4,90.61a6.45,6.45,0,0,1-1,1.51,2,2,0,0,1-1.54.85,2.42,2.42,0,0,1-.91-1.35c-.24-.67-.49-1.35-.77-2l-.85,1.18a2.12,2.12,0,0,0,.36,1.09c.23.4.44.59.62.59v10.61l1-1.35h1.82l1.26,1.68v3a4.31,4.31,0,0,1-2.52.25,13.48,13.48,0,0,0-2.53-.25,1.86,1.86,0,0,0,.07,1.52,6.88,6.88,0,0,0,1.62,1.34,16.73,16.73,0,0,1-.28,3.62,7.09,7.09,0,0,0-.28,1.6c-.66-.11-1.59.56-2.81,2L285,123.6l.42.51,1-1.35h1.82l1.27,1.51v3a2.55,2.55,0,0,0-1.13.42,1.81,1.81,0,0,1-3.08-1.59,7.92,7.92,0,0,0-.56-2l-2,5.55a5.83,5.83,0,0,1,1.61,1.52,9,9,0,0,1,1.19,2l-1.26,1.68h-2l-1-1.35-2,3.71q1,1.17,1.68,1.17l-.7,3.2h-2l-1-1.35-3.09,4.38a1.31,1.31,0,0,0,1.05.51h1.2v2.35a2.33,2.33,0,0,1-.56.51,2.06,2.06,0,0,1-1,.33,2.48,2.48,0,0,1-.49-1.43,6.1,6.1,0,0,0-.49-1.93,24.73,24.73,0,0,1-2.1,2.52c-.84.9-1.73,1.8-2.66,2.7s-1.89,1.74-2.87,2.52-1.85,1.52-2.59,2.19c-.84.23-1.83.53-2.95.92s-2.24.82-3.36,1.27-2.12.81-3,1.09a7.44,7.44,0,0,1-1.89.42h-9.39a7,7,0,0,1-2.87-.84,10.8,10.8,0,0,0-2.87-1,18.24,18.24,0,0,1-9.25-4.71,54.41,54.41,0,0,1-8.55-9.6,65.58,65.58,0,0,1-6.65-11.86,49.29,49.29,0,0,1-3.58-11.37.53.53,0,0,1-.14-.33c-.18-.23-.33-.34-.42-.34l-9.24,12.29v-.51a1.77,1.77,0,0,0-.42-1.17c.28.33.49.25.63-.26a9.53,9.53,0,0,1,.35-1.09,107.83,107.83,0,0,0,8.12-12.29c-.19-1-.4-2-.63-3.11a14.12,14.12,0,0,1-.35-3v-2.19c.65.12,1.38-.25,2.17-1.09a14.24,14.24,0,0,0,2.18-3.11,15.2,15.2,0,0,0,1.4-3.71,3.56,3.56,0,0,0-.14-2.69,9.79,9.79,0,0,1,2.1-1.85A3.46,3.46,0,0,0,216.62,93l2.24,1.34.56-.67,6.45,4.21,3.92,18.85h2l1-1.18a6.33,6.33,0,0,0-1.68-4,5,5,0,0,0,1.19-1.09,2.7,2.7,0,0,0,.63-1.77l5.75,3.2,1-1.18A1.74,1.74,0,0,1,241,110a2,2,0,0,1,.49,1.43,4.7,4.7,0,0,1-.35,2.1,7.86,7.86,0,0,0,1.89,1.26c.61.28,1.17.54,1.68.76a4.56,4.56,0,0,1,1.47,1.1,5.4,5.4,0,0,1,1.12,2.27,3.53,3.53,0,0,1-.7,1.6,2.27,2.27,0,0,1-1.12.59,7.07,7.07,0,0,1-1.61.16,11.34,11.34,0,0,0-1.89.17l-1.68.68-6.17-2.87a.58.58,0,0,0-.14.34,1.15,1.15,0,0,0-.14.67l4.77,5.9,2.24-2V132a12.26,12.26,0,0,1-3.44-.34,2.21,2.21,0,0,0-1.89.17,23.49,23.49,0,0,0,3.44,3.7,11.53,11.53,0,0,0,3.08,1.94,9.2,9.2,0,0,0,2.94.67c1,.06,1.94.09,2.87.09,1.22,0,2.39-.06,3.51-.17s2.8-1,5-2.7a3,3,0,0,0,1.26-1.6,9.25,9.25,0,0,0,.56-2.1,14.75,14.75,0,0,1,1.82-1.09,6.54,6.54,0,0,0,2-1.6,2.71,2.71,0,0,0,.14-1.94,9.25,9.25,0,0,0-.7-1.93,5.15,5.15,0,0,1,1.34-1.35,1.54,1.54,0,0,1,1.61-.34c.28-.33.51-.5.7-.5s.28-.45.28-1.35v-3.37l2.8-8.08v-2.52a2,2,0,0,0-1.19-.67,5.21,5.21,0,0,1-1.61-.68,7.63,7.63,0,0,1,.28-2.35,4.75,4.75,0,0,0,.28-1.35,2,2,0,0,1,1.19-.67,6.18,6.18,0,0,1,1.19-.17l1.54-2.53V92.8L269,91.62a2.59,2.59,0,0,1-1,.76,1.66,1.66,0,0,1-1.47-.26l.7-3.87a2.41,2.41,0,0,1,1.12.42,4.43,4.43,0,0,1,1.12.93V74.11a9.19,9.19,0,0,0,3.22-2.52,1.16,1.16,0,0,0-1.12-.42,8.93,8.93,0,0,1-1.12.08,5.28,5.28,0,0,1,.35-1.51,4.85,4.85,0,0,1,.77-1.52,1.39,1.39,0,0,0-1.12-.5,7.32,7.32,0,0,0-1.54.17,3.47,3.47,0,0,1,.07-1.52,11.07,11.07,0,0,0,.28-1.85,7.12,7.12,0,0,0-.21-2.19,5.32,5.32,0,0,0-1.4-2.36,3.54,3.54,0,0,1,1.12.26,8.13,8.13,0,0,0,2.38.25,9.36,9.36,0,0,0,1.54-2.11,3.38,3.38,0,0,0,.56-2.1l-2.1-3.2h-2.66c-.28.34-.63.73-1,1.18a1.88,1.88,0,0,0-.63,1.18,3.88,3.88,0,0,1,.84-2.19,27.48,27.48,0,0,0,1.68-2.69V48.7A4.11,4.11,0,0,0,268,47a8.77,8.77,0,0,0-2.1-1.34L263.84,47a3,3,0,0,1,.21-1.6c.23-.72.49-1.43.77-2.1a18.81,18.81,0,0,0-.84-2,9.46,9.46,0,0,0-1.27-1.85.9.9,0,0,0-.84.08,4.45,4.45,0,0,1-.91.42,1.35,1.35,0,0,1-1-.08,4.71,4.71,0,0,1-1.4-1.26l1.82-2.19a3.66,3.66,0,0,0-.28-1.26,3.76,3.76,0,0,1-.28-1.27l-1.54-1.17a5.11,5.11,0,0,0-1.54,1.51,10.72,10.72,0,0,0-1.12,2,10,10,0,0,0-2.1-1.77A6.62,6.62,0,0,0,251,33.38h-8.83a34,34,0,0,0-5.54,5.81,59.39,59.39,0,0,0-4.06,6.22,43.26,43.26,0,0,0-2.87,6.15A42.18,42.18,0,0,0,228,57.11c-.47-.56-1.08-.56-1.82,0a6.19,6.19,0,0,0-.35-1.6,13.74,13.74,0,0,1-.35-3.78,2.38,2.38,0,0,0,1.26,0,2.58,2.58,0,0,0,1.54-1.18V48.7l-1-1h-1L221.8,59.13a3.13,3.13,0,0,0-1.47.34,2.43,2.43,0,0,1-1.05.34,4.42,4.42,0,0,0-.28-1.35,4.26,4.26,0,0,0-.7-1.35,5.19,5.19,0,0,1-1.19,1,5.48,5.48,0,0,0-1.19,1c.18-1,.35-2,.49-2.94a2.61,2.61,0,0,0-.91-2.44,7.87,7.87,0,0,0-2.17,2.35,5.78,5.78,0,0,0,.07,2.36,1.87,1.87,0,0,0-1.61-.25,7.74,7.74,0,0,0-1.62.75l9.39,15.83a2.94,2.94,0,0,1,1-.68,2.4,2.4,0,0,0,1.12-1.34,3.88,3.88,0,0,1,1.4,1.51,3.51,3.51,0,0,1,.56,1.52L222.5,77l16.82,12.12v1.69h-9.53l5.18,7.4-3.08.85a5.69,5.69,0,0,1-3.71-1.69,24.45,24.45,0,0,1-3.64-4.12A45.34,45.34,0,0,1,221.31,88q-1.47-2.77-2.45-5.13L206.25,97.51a5.53,5.53,0,0,0,.42,1.94,9.2,9.2,0,0,1,.56,2.27,7.81,7.81,0,0,0-1.26-2,8,8,0,0,1-1.26-2c-.56.34-.75.67-.56,1a2,2,0,0,1,.28,1l-2.8-2.86,1,.84,1.68-2a1.89,1.89,0,0,0,1.54.67L216.9,80.51,204.85,72.6l-.91,1.09c-.33.4-.49.42-.49.09a10.27,10.27,0,0,1-.7-.93c-.19-.28-.42-.25-.7.09.46-.57,1-.45,1.68.33l.84-.84a4.9,4.9,0,0,1-2.73-3.28c-.52-1.63-.91-3.06-1.19-4.3l1.4-1.68,5.6,4.72c0,.11,0,.16.14.16s.42-.16.7-.5l-2.24-8.08a3.29,3.29,0,0,0,.7-2.19H208a1.22,1.22,0,0,0,1.05-.67,2.66,2.66,0,0,1-1.12-1,3,3,0,0,1-.35-1.1c-.05-.39.26-.75.91-1.09a3.43,3.43,0,0,1-.63-1.18,1,1,0,0,0-1.05-.67,1.84,1.84,0,0,1,.14-.68,6.22,6.22,0,0,0,.21-.59,1.71,1.71,0,0,1,.35-.58,2.85,2.85,0,0,1,1.12.33,2.73,2.73,0,0,0,1.12.34,53.82,53.82,0,0,1,4-10.61,70.68,70.68,0,0,1,6.44-10.6,53.15,53.15,0,0,1,8.13-8.84,24.78,24.78,0,0,1,8.89-5.13l1.41,1.35a6.24,6.24,0,0,0,1.82-1.27,6.66,6.66,0,0,1,2.66-1.43,3.08,3.08,0,0,0,2.38-.67,2,2,0,0,0-.28.5,2.9,2.9,0,0,0-.14,1l1.4,1.86a4.36,4.36,0,0,0,1-2.87h5.47l-.56,1.18,1.54,1.69c.28,0,.58-.23.91-.68a2.28,2.28,0,0,0,.49-1.34h2l9.25,5.21a2.41,2.41,0,0,0-1.12.43,7.57,7.57,0,0,0-1.26.92,3.36,3.36,0,0,0,2,2.86c.46-.78.81-1.4,1.05-1.85a3.2,3.2,0,0,0,.07-2,37.38,37.38,0,0,1,6.93,7.41,77.63,77.63,0,0,1,5.61,9,79.52,79.52,0,0,1,4.2,9.34c1.17,3.15,2.08,6,2.73,8.42a8.7,8.7,0,0,0-1.68.17c-.56.11-1.12.9-1.68,2.36.37,1.57,1,2.41,2,2.52a9.63,9.63,0,0,0,2.52,0l1.13,9.6a5,5,0,0,0,.14,2,22.05,22.05,0,0,1,.42,2.52,7.46,7.46,0,0,1-.15,2.52,2.81,2.81,0,0,1-1.54,1.86,4.64,4.64,0,0,0,1,1.6,2.26,2.26,0,0,1,.64,1.76v6.57a2.16,2.16,0,0,0,1,.42,8.63,8.63,0,0,1,1.19.25,2.91,2.91,0,0,1,1,.59A2.55,2.55,0,0,1,293.4,90.61Zm-91.49,31.31h-1v-1.85h1Zm1.54-18.18-1.68,1v-1l1.4-.84Zm6.72-18.85c-.28,1.23-.6,2.44-1,3.61a31.56,31.56,0,0,1-1.4,3.62h-2.1V78.66c0-.9.19-1.32.56-1.26a7.55,7.55,0,0,0,1,.08Zm-2.38,17.5c.28.34.28.87,0,1.6s-.56,1.09-.84,1.09a9.57,9.57,0,0,1,.21-1.59C207.3,102.76,207.51,102.39,207.79,102.39Zm2.38,14.14-1.4-.84-.28,1,1.4.84Zm2.67,7.07v-1.18h-1.4v1.18Zm1.54-3.7v-1.85h-1v1.85Zm9.8-3.54a8.12,8.12,0,0,0-2.1-1.76,21.45,21.45,0,0,1-2.1-1.43,12.17,12.17,0,0,0-1.33,2.35,5.18,5.18,0,0,0-.49,1.68,10.72,10.72,0,0,0,1.61-.25c.14,0,.16-.17.07-.33a1.69,1.69,0,0,1-.14-.76,2.3,2.3,0,0,1,.84-1.35l2,1.35A2.14,2.14,0,0,0,224.18,116.36Zm0-72.88a1.91,1.91,0,0,0-.49-1.26,1.27,1.27,0,0,0-.91-.59c-1.21,0-1.49.78-.84,2.35,0,.34.31.42.91.26A2.62,2.62,0,0,0,224.18,43.48Zm-.84,8.08V49.87h-1v1.69Zm4.77-14.82a4.45,4.45,0,0,0-.42-1.51c-.28-.67-.56-1-.84-1s-.59.34-.91,1a3.9,3.9,0,0,0-.49,1.51Zm.7,17-1.54-.85-.28.85,1.54.84Zm3.36-25.42a2.18,2.18,0,0,0-2.8,0,3.08,3.08,0,0,0,.28,1.18,1,1,0,0,0,.42.5,2.56,2.56,0,0,0,1.26-.59C231.89,29,232.17,28.67,232.17,28.33Zm.56,14.31a1.8,1.8,0,0,0-1.89-1.18c-.8.11-1.29.17-1.47.17l.7,3.36a8.39,8.39,0,0,0,1.54-1.18A14.17,14.17,0,0,0,232.73,42.64Zm3.36-21q0-.51-.84-.93c-.56-.28-.84-.25-.84.08-.56,0-.89.2-1,.59a5,5,0,0,0-.14,1.1,1.92,1.92,0,0,0,1.82.08C235.77,22.24,236.09,21.93,236.09,21.6Zm.56,14.13c-.28-.33-.6-.69-1-1.09s-.7-.76-1-1.09l-1.4.84.56,3H236a3.28,3.28,0,0,1,.7-1.69Zm-.28,67.34a.75.75,0,0,1,.07,1c-.23.33-.49.67-.77,1a3.54,3.54,0,0,1,.14-.67,2.88,2.88,0,0,0,.21-.67A1.61,1.61,0,0,1,236.37,103.07Zm4.07-73.73a3.68,3.68,0,0,0-.7-1.6c-.47-.73-.84-1.09-1.12-1.09a5,5,0,0,1-.91-.09c-.33,0-.5.37-.5,1.26V30a3.93,3.93,0,0,0,2.18-.25A4.94,4.94,0,0,1,240.44,29.34Zm2.66,50.5a2.42,2.42,0,0,0-1.19.5,2.5,2.5,0,0,1-1.19.51,1.7,1.7,0,0,1-.35-.93,8.11,8.11,0,0,0-.21-1.09,6.19,6.19,0,0,1-.14-1.35c.28,0,.39.23.35.67s.3.68,1,.68,1.07-.11,1-.34,0-.34.28-.34V79C242.68,79.56,242.82,79.84,243.1,79.84Zm.84-59.76h-2.1l-.7,3.2h2.66a2.08,2.08,0,0,0,.28-1.6A14.93,14.93,0,0,1,243.94,20.08Zm.14,66.32-.7,2.53-.7-.34.56-2.19Zm.14,47.81-1.4-1.69,1.4-1.68a3.59,3.59,0,0,1,0,3.37ZM247.86,30V27.49a2.87,2.87,0,0,0-2.17.17,5.09,5.09,0,0,0-1.19.67l.7,2.36ZM249,79.67c-.28.33-.91.48-1.89.42S245.48,80,245.2,80a1.53,1.53,0,0,1,.7-1.43A2.83,2.83,0,0,0,247,77.14v.34a1.24,1.24,0,0,1-.28.84Zm0,47a1.48,1.48,0,0,1-2.24,0,8.09,8.09,0,0,1,.21-1.51c.14-.68.35-1,.63-1s.59.33.91,1A3.85,3.85,0,0,1,249,126.63Zm2.81-105a.8.8,0,0,0-.14-.51,1.74,1.74,0,0,1-.28-.5,2.27,2.27,0,0,0-.28-.51h-2.53v2.36L249.68,24c.28,0,.7-.31,1.27-.92A2.64,2.64,0,0,0,251.79,21.6Zm.42,99a3.9,3.9,0,0,1-1.05-.17,2,2,0,0,1-1.06-.67v-1.85q0-1.35.57-1.26a7.55,7.55,0,0,0,1,.08,7,7,0,0,1,.49,1.43A4.94,4.94,0,0,1,252.21,120.57Zm.7,12.79a2.19,2.19,0,0,1-2.81,0,4,4,0,0,1,.5-1.51c.32-.67.63-1,.91-1s.58.34.91,1A4.09,4.09,0,0,1,252.91,133.36Zm2.8-105.87-2.52-.84-1.4,1.85a4.27,4.27,0,0,1,.56,1,1.53,1.53,0,0,1,.14.5l2.52.68Zm1.12,99.81h-2.1l-.56-3,2-.84a8,8,0,0,1,.63,2.19C256.81,126.18,256.83,126.74,256.83,127.3Zm2.94-105.7a.8.8,0,0,0-.14-.51,2,2,0,0,1-.28-.5,1.93,1.93,0,0,0-.28-.51h-2.66v2.36L257.67,24a9.44,9.44,0,0,1,1.26-1.18C259.49,22.33,259.77,21.93,259.77,21.6Zm1.54,98.3-3.22.67,1.4-1.68a3.58,3.58,0,0,0,1-2.19Zm2.25-92.41L261,26.81l-.7,3,2.67.85Zm2.38,84.83a4.74,4.74,0,0,1-1.26,1,4,4,0,0,1-2.11.51,15.41,15.41,0,0,1,1.27-2.61,17.48,17.48,0,0,1,1.26-1.94,4.49,4.49,0,0,0,.42,1.52A4.45,4.45,0,0,1,265.94,112.32Zm2.24-77.26A12.85,12.85,0,0,0,267.13,34a11.51,11.51,0,0,1-1.05-1.1c0,.34-.24.54-.7.59a9.29,9.29,0,0,1-1.12.09,6.64,6.64,0,0,1-.28,1.51,6.1,6.1,0,0,0-.28,1.52L265,38.09h1.82a8,8,0,0,0,.91-1.51A4.12,4.12,0,0,0,268.18,35.06ZM268,78.66a2.33,2.33,0,0,1-1.33-.59c-.52-.39-.77-.76-.77-1.1a10.18,10.18,0,0,1,1-1,1.69,1.69,0,0,1,1.12-.5,3.26,3.26,0,0,1,0,3.2Zm4.62-36a6.53,6.53,0,0,0-1.4-2,2.67,2.67,0,0,0-1.82-1l-1.82,1.51V44l1.26,1.69h2.52Zm-.56-14.31-1.26-1.52h-2l-.7,3,2.52.85c.28-.34.58-.73.91-1.18A2.09,2.09,0,0,0,272.1,28.33Zm.56,126.07a1,1,0,0,1-.56.17.9.9,0,0,1-.42.17c-.09,0-.23.11-.42.34a2.49,2.49,0,0,1-.42-1.6c0-.73.14-1.1.42-1.1s.58.26.91.76A2.5,2.5,0,0,1,272.66,154.4ZM276,36.58V34.39l-2-1.68a9.85,9.85,0,0,0-1.68,1.76,3.5,3.5,0,0,0-.84,2.11l1.26,1.51h2Zm.56,12.79L275.32,47H272.1a6.18,6.18,0,0,1-.28,1.52,12,12,0,0,0-.28,3l2.52,1.51a4.36,4.36,0,0,0,1.48-1.6A18.67,18.67,0,0,0,276.59,49.37Zm0,13.3a7,7,0,0,0-1.83-1.6,3.4,3.4,0,0,0-1.4-.59L271.54,62a12,12,0,0,0,.28,3,6.18,6.18,0,0,1,.28,1.52h3.22c.28-.67.56-1.4.85-2.19A5.89,5.89,0,0,0,276.59,62.67Zm-1.13,17.17a7.22,7.22,0,0,1-.84-1.35,7.22,7.22,0,0,0-.84-1.35l1.12-1.68h-2.1L271.54,77a4.43,4.43,0,0,0,.42,1.52A6,6,0,0,0,272.8,80c.28,0,.73,0,1.33-.08S275.18,79.84,275.46,79.84Zm-.84,12.79c-.28,0-.51-.28-.7-.84a4.07,4.07,0,0,0-.7-1.35c0-.34-.19-.22-.56.34a2.74,2.74,0,0,0-.56,1.34,1.54,1.54,0,0,0,1.26.51Zm5.89-35a6.7,6.7,0,0,0-.28-1.52,6.12,6.12,0,0,1-.28-1.51,2.47,2.47,0,0,1-1.26-.42,3.83,3.83,0,0,0-2-.42l-1.27,1.51v3l1.27,1.52h2Zm-.56,14a4.16,4.16,0,0,1-1.26-1.69,8.15,8.15,0,0,1-.56-1.85,4.92,4.92,0,0,0-1.61,1.1,3.89,3.89,0,0,0-1.06,1.93l1.27,2.19h2Zm0-27.44V41.79l-1.26-1.51h-2a3.21,3.21,0,0,0-1.06,2.36,6.5,6.5,0,0,0,.5,2.18,2.18,2.18,0,0,0,1.89.17A8.59,8.59,0,0,0,280,44.15ZM278.27,85.9c-.47,0-.7-.43-.7-1.27V82.87a6.24,6.24,0,0,1-1-.09c-.38,0-.56.37-.56,1.26v2a9.9,9.9,0,0,0,1.26-.08A8.15,8.15,0,0,1,278.27,85.9Zm-1,13V97.17h-1v1.69Zm6.58-48V48.53a4.74,4.74,0,0,0-1.26-1,2.84,2.84,0,0,0-1.26-.51,3.91,3.91,0,0,0-1.4,1.52,3.52,3.52,0,0,0-.56,1.51l1.26,2.36h2Zm0,14.14V62.84l-1.26-1.69h-2a19.56,19.56,0,0,0-.7,2.44,3.72,3.72,0,0,0,.14,2.28,3.87,3.87,0,0,1,1.26.33,3.7,3.7,0,0,0,1.26.34Zm-1.12,15a8.12,8.12,0,0,1-.56-2.27,21.67,21.67,0,0,1-.14-2.27A4.53,4.53,0,0,0,280.58,77a3.39,3.39,0,0,0-.63,1.52,4.48,4.48,0,0,1,.56,1,1.6,1.6,0,0,1,.14.5Zm-.28,12.63c-.28,0-.51-.25-.7-.76a4.45,4.45,0,0,0-.7-1.26,1.58,1.58,0,0,0,.42-1v-.67l-1,1.17a2,2,0,0,0-.56,1.18,1.74,1.74,0,0,0,1.26,1.18A7.32,7.32,0,0,0,282.47,92.63Zm3.5-5.72a8.17,8.17,0,0,0-.21-1.52,8.2,8.2,0,0,1-.21-1.51c0-.34-.28-.26-.84.25s-.84.92-.84,1.26Zm1.26-14.48-1.12-2.69.56-1H284v3l1.26,1.51Zm-2,26.43V97.17h-1v1.69Zm8.13,20.87-1.26,1.68h-1.82l-1.4-1.68v-2.19l1.4-1.51h2.52a4.43,4.43,0,0,0,.28,1.34A8.07,8.07,0,0,1,293.4,119.73ZM292.84,78l-2.66.68v-2c-.1-.9,0-1.32.35-1.26a6,6,0,0,0,.91.08c.28,0,.58.34.91,1A4.09,4.09,0,0,1,292.84,78Zm2.8,8.08-2.1-.67a2.65,2.65,0,0,1,.49-1.77,3.18,3.18,0,0,1,1.47-1.43,2.25,2.25,0,0,1,.28,1.69A19.2,19.2,0,0,0,295.64,86.06Zm-.7,8.93a7.05,7.05,0,0,1,0,2,7.88,7.88,0,0,1-.7,2.7l-.7-3Zm-.42,14.3a8.19,8.19,0,0,0-.56,2.28,21.67,21.67,0,0,0-.14,2.27,7.74,7.74,0,0,1,0-2.19A5.15,5.15,0,0,1,294.52,109.29Zm1-40.56a2.31,2.31,0,0,1,.42,1.51c0,.68-.14,1-.42,1s-.58-.22-.91-.67a2.09,2.09,0,0,1-.49-1.18,1.75,1.75,0,0,1,.42-.34A2,2,0,0,1,295.5,68.73Z" transform="translate(-4.64 -3.58)"/>
    <path class="a" d="M339.63,58.12a.74.74,0,0,1-.14.51,1.44,1.44,0,0,1-1.12.33,1.92,1.92,0,0,1-1.54-1,2.4,2.4,0,0,0-2.1-1,7.51,7.51,0,0,0-2,.26,13.07,13.07,0,0,1-3,.25,2.05,2.05,0,0,1,.21-.93,4.66,4.66,0,0,0,.21-1.76c0-.9-.26-1.38-.77-1.44a3.94,3.94,0,0,1-1.61-.58,1.57,1.57,0,0,1-.78.58,1.7,1.7,0,0,0-.77.59v48.14a1.67,1.67,0,0,1-.91-.33,1.66,1.66,0,0,0-.91-.34h-.28a2.74,2.74,0,0,0-.14,1.18,2.5,2.5,0,0,0,1,2.1,3.84,3.84,0,0,1,1.26,1.43l-3.64,1.1a15.9,15.9,0,0,0-3.64,1.6v2.35a3.9,3.9,0,0,0,.84,1.27,2.21,2.21,0,0,0,1.68.59c.75,0,1.33-.56,1.75-1.69a7.43,7.43,0,0,0,.35-3.7,3,3,0,0,0,1.4.84c.66.23,1,.17,1-.17a16.2,16.2,0,0,0,.07,3.29,14.45,14.45,0,0,1-.07,3.78,16.34,16.34,0,0,1-1.47,1.27,3,3,0,0,0-1.05,1.43,2.44,2.44,0,0,0,1,1.85,12.88,12.88,0,0,0,1.82,1.34v9.94a1.49,1.49,0,0,0-1.19.25c-.51.28-1.05.59-1.61.92v1.86a2.3,2.3,0,0,0,1.05.58l1.75.59v7.24a1.13,1.13,0,0,0-.56.17,2.85,2.85,0,0,1-.49.25,1.54,1.54,0,0,0-.49.42,5.28,5.28,0,0,0-.35-1.51,2.85,2.85,0,0,1-.21-1.52,4.89,4.89,0,0,0-1.05-1.18,2.54,2.54,0,0,0-1.61-.5,2.45,2.45,0,0,0-1.82.93,6.67,6.67,0,0,0-1.26,1.93,1.37,1.37,0,0,0,1.12.51,7.39,7.39,0,0,1,1.54.17,3.18,3.18,0,0,1,1,1.85,8.15,8.15,0,0,0,.56,2c.28-.34.54-.68.77-1a11.74,11.74,0,0,1,.77-1h2.8l.29-.68a3.36,3.36,0,0,0,.21,2.19c.32.9.63,1.68.91,2.36l-1.69-1.85a2.9,2.9,0,0,1-1.4,1.51,5.93,5.93,0,0,0-1.82,1.52,9.79,9.79,0,0,0,2.1,1.85,2.54,2.54,0,0,1,1.26,2.19,4.89,4.89,0,0,1-.28,1.85,4.53,4.53,0,0,0-.28,1.68,5.07,5.07,0,0,1-2.66-.59,4,4,0,0,0-2.1-.59,3.62,3.62,0,0,0-2.1.68,3.66,3.66,0,0,1-2.1.67,5.33,5.33,0,0,1-2.52-.76,21.67,21.67,0,0,0-2.81-1.26,2.91,2.91,0,0,1-.91.76.79.79,0,0,0-.49.75,9.53,9.53,0,0,0,1.89,1,10,10,0,0,1,1.89,1V161h-6.58a2.7,2.7,0,0,1,.35-1.68,9.89,9.89,0,0,1,1.33-2c-.28-.34-.72-.4-1.33-.17a7.94,7.94,0,0,1-2.59.33v-7.74a5.3,5.3,0,0,0,.45-.67c0-.11.4-.17,1.09-.17s1.4.53,2,1.6,1.12,2.1,1.68,3.11a1.78,1.78,0,0,0,.77-1.18,13.53,13.53,0,0,1,.63-1.85,2.32,2.32,0,0,0-1.4-1.51,6.43,6.43,0,0,1-1.82-1.18,14.36,14.36,0,0,1-1.4-4.38,25.42,25.42,0,0,1-.42-3.87l.14-5.55a9.31,9.31,0,0,1,2.1,4.12,4.63,4.63,0,0,1-.42,3.45,2.57,2.57,0,0,0,2,.25,2.64,2.64,0,0,1,2.31.59,7.76,7.76,0,0,1,.63,1.85,4.18,4.18,0,0,0,.92,1.86c1.3-.56,2-1.8,2-3.71a2.22,2.22,0,0,0-.63-1.26,10.09,10.09,0,0,0-1.48-1.43c-.56-.45-1.07-.84-1.54-1.18a3.08,3.08,0,0,0-.84-.5H311c-.05,0-.21.17-.49.5A7.5,7.5,0,0,0,312.1,135a3.56,3.56,0,0,0-.7-2.44,9.5,9.5,0,0,0-1.89-1.85,9,9,0,0,1-1.82-1.77,3.16,3.16,0,0,1-.63-2.19,6.44,6.44,0,0,1,1.75-3.28,6.79,6.79,0,0,0-2-.76,1.69,1.69,0,0,1-1.4-1.09v-2.36a1,1,0,0,0,.42-.16,4,4,0,0,1,.49-.26,1.31,1.31,0,0,0,.49-.42l2.1,2.7a3.66,3.66,0,0,0,2.1-1.6,2,2,0,0,0-.28-2.61,1.36,1.36,0,0,0,1.26.42q.84-.09.84.42a2.12,2.12,0,0,0,.07-1.77,16.07,16.07,0,0,1-.77-2.27,4.45,4.45,0,0,0-.7,1.26c-.19.51-.65.76-1.4.76a2.47,2.47,0,0,1-1.61-.42,1.46,1.46,0,0,0-.91-.42V104.58a3.57,3.57,0,0,0,1.54,0,1.8,1.8,0,0,0,1-.84,4.62,4.62,0,0,0,.28-2.53,5.64,5.64,0,0,0-1.4-1.68,13.89,13.89,0,0,1-1.26-1q0-6.06-.07-9.93t-.07-6.4v-6.9a2.12,2.12,0,0,1,.91.25,2,2,0,0,0,.91.26c.56-1.24.54-2-.07-2.44a5,5,0,0,1-1.61-1.94q-.13-4-.14-8t-.42-8.66l-3.22,5.13A34.83,34.83,0,0,1,299.84,65c0-.33-.26-.7-.77-1.09a2.32,2.32,0,0,0-1.19-.59.9.9,0,0,0,.42-.17,1,1,0,0,1,.42-.17.93.93,0,0,0,.42-.16,15.39,15.39,0,0,0,1.61-2.78,13.45,13.45,0,0,0,.92-3,3.45,3.45,0,0,1,1.68-1.51,11.62,11.62,0,0,0,2.52-1.69,3,3,0,0,0-2-.42,8.68,8.68,0,0,0-2.53.59c.38-.67.8-1.4,1.27-2.19a16.39,16.39,0,0,1,1.54-2.18,1.75,1.75,0,0,0-1.54-.76,1.05,1.05,0,0,1-1.13-.42A2.61,2.61,0,0,0,301,47.1a6.71,6.71,0,0,0-1.12-1.35,8,8,0,0,0-1.19-.93,3.17,3.17,0,0,1-.7-.5,5.44,5.44,0,0,0,1.89,0,3.74,3.74,0,0,0,2-1.18.52.52,0,0,1-.43-.17,2.14,2.14,0,0,0-.7-.33c0-.68,0-1.52.07-2.53a13.87,13.87,0,0,1,.49-3,4.53,4.53,0,0,0-.77-.34,9.63,9.63,0,0,0-2.31-.16c-1.21,0-3,.05-5.32.16l-9.67.51v-20l1.4-1.52.7.68h8.83a9.58,9.58,0,0,0,3-.68,9.8,9.8,0,0,1,3-.67q.42,0,1.26,1.26a27.63,27.63,0,0,1,1.69,2.95c.56,1.12,1.09,2.33,1.61,3.62s.91,2.33,1.19,3.11a24.19,24.19,0,0,0,2.11,5.39l2.82,5.55a15.15,15.15,0,0,1-4,3.37,23,23,0,0,0-4.42,3.37l2.52,3c.56-.23,1.33-.59,2.32-1.1s2-1,3-1.6,2-1,2.89-1.43a5.77,5.77,0,0,1,1.9-.59,9.85,9.85,0,0,1,3.67,1.52,33.73,33.73,0,0,1,4.38,2.86,5.2,5.2,0,0,1,1.41,2A16.67,16.67,0,0,0,326,50.88a3.17,3.17,0,0,0,3.3-1.59A13.52,13.52,0,0,1,332.49,46a2.31,2.31,0,0,1-.7,2.36,2.26,2.26,0,0,1,.77,1.77,6.7,6.7,0,0,0,.21,2.1.23.23,0,0,1,0-.34c0-.33.33-.5,1-.5a5.12,5.12,0,0,1,2.87,1.43,21.65,21.65,0,0,1,3,3ZM296.9,20.59a2,2,0,0,0-1-.68,4.34,4.34,0,0,0-1.05-.17v2.53a2.66,2.66,0,0,0,1.26-.59C296.62,21.29,296.9,20.92,296.9,20.59Zm5.89,1.85a.85.85,0,0,0,.14-1,6.33,6.33,0,0,0-.7-1,3.36,3.36,0,0,0,.28,1.34A1.8,1.8,0,0,0,302.79,22.44Zm13.87,103.18c-.28-.34-.77-1-1.47-1.85a2.88,2.88,0,0,0-2.18-1.35,2.21,2.21,0,0,0-2.17,1.52c-.42,1-.72,1.79-.91,2.35a7.23,7.23,0,0,1,2.31.51,1.92,1.92,0,0,1,.84.76,2.22,2.22,0,0,1,.21,1,6.47,6.47,0,0,0,.14,1.26,9.24,9.24,0,0,0,1.83-2.19,3.2,3.2,0,0,0,.7-2Zm-3.51-29.29v-1l-2.66-.84v1Zm2.39,14.31a3.36,3.36,0,0,1-.63-1.52,3.61,3.61,0,0,0-.64-1.51h-2.52l-1.26,1.51v2.36a2.91,2.91,0,0,0,.91.76,2.91,2.91,0,0,1,.91.76,2.78,2.78,0,0,0,1.82-.93A16.12,16.12,0,0,0,315.54,110.64Zm34.32-74.23h-8.4l1.12-1.35a28.57,28.57,0,0,0-4.14,1.35,9,9,0,0,1-3.15.84,1.59,1.59,0,0,1-1.54-.76c-.28-.5-.56-.76-.84-.76a2.57,2.57,0,0,1-.56,1.69,2.78,2.78,0,0,0-.56,1.85,2.34,2.34,0,0,0,.91,2A4.26,4.26,0,0,1,334,42.8l-.56.34a4.23,4.23,0,0,0-.84.84,9,9,0,0,0-3.29-6,11.29,11.29,0,0,0-5.4-2.28,6,6,0,0,0,.84-1.51,4.15,4.15,0,0,1,1-1.51,1.06,1.06,0,0,0-.28-1,1.91,1.91,0,0,0-1.54-.51c-.75,0-1.17.11-1.26.34s-.51.33-1.26.33a1.77,1.77,0,0,1-1.75-1.34,13.76,13.76,0,0,1-.7-3c-.14-1.12-.24-2.25-.28-3.37a6.52,6.52,0,0,0-.49-2.52,31.16,31.16,0,0,0-3.29-4.3,53,53,0,0,0-3.86-4,15.75,15.75,0,0,1,1.33-2.11A4,4,0,0,0,313.29,9a4.55,4.55,0,0,1,1.2.25,6,6,0,0,0,1.89.26,1.71,1.71,0,0,1,1.47.5,8.71,8.71,0,0,1,.77,1.52,5.43,5.43,0,0,1,1-.93,1.18,1.18,0,0,0,.56-.93l1.26,1.18L324.57,7a33.23,33.23,0,0,1,3.3-3.46A8.8,8.8,0,0,0,326.46,6a8.86,8.86,0,0,1-1.4,2.44,1.06,1.06,0,0,0,1,.42c.38-.06.42-.09.14-.09v.34a1.12,1.12,0,0,0,.14.67,2.44,2.44,0,0,0-.77,1.6,2.37,2.37,0,0,0,.35,1l.63.93a1.41,1.41,0,0,1,.21,1.18c.28.33.49.25.64-.26s.58-.75,1.33-.75S330,14,330.39,15s.93,1.43,1.68,1.43a11.83,11.83,0,0,0,1.33-.09c.51-.05,1.33-.11,2.45-.17s2.66-.05,4.62,0l8,.26a.51.51,0,0,1,.42-.17,1.2,1.2,0,0,1,1,.34Zm-27.6,29.12v-3a18.31,18.31,0,0,1-4.34-5.14,24.32,24.32,0,0,0-4.35-5.47,2,2,0,0,1-1.26-.08,4.76,4.76,0,0,0-1.26-.25v2.19a8.29,8.29,0,0,0,1.33,3.7c.89,1.57,1.75,3.09,2.6,4.54a10.9,10.9,0,0,1-1.83,1.77,2.21,2.21,0,0,0-1,1.77,4.87,4.87,0,0,0,2-.59,5,5,0,0,1,2.17-.59,3.93,3.93,0,0,1,2.38,1l2.1,1.68Zm-9.95,7.41V70.58h-1v2.36Zm4.91,5.89c-.56-.34-1.17-.68-1.82-1a3.71,3.71,0,0,0-1.55-.51,2.35,2.35,0,0,1-.63,1.68c-.42.45-.77.85-1.05,1.18A4.21,4.21,0,0,0,313,81a.9.9,0,0,0,.42.17,3,3,0,0,0,1.9-.92A12.68,12.68,0,0,1,317.22,78.83ZM318.9,101l-2-1.51a2.2,2.2,0,0,0-2.45.17,5.75,5.75,0,0,1,1.05,2.1,19.57,19.57,0,0,0,.77,2.28h2Zm-.28,20a5.94,5.94,0,0,0,.14-3,19.66,19.66,0,0,0-.56-3h-2a7.23,7.23,0,0,0-.91,1.51,18.42,18.42,0,0,1-.91,1.68,16.54,16.54,0,0,1,2.59,1.35A4.07,4.07,0,0,1,318.62,121.08Zm1.4,14a12.06,12.06,0,0,1-.28-1.27,10.64,10.64,0,0,0-.42-1.51,3.58,3.58,0,0,0-.77-1.26,1.76,1.76,0,0,0-1.33-.51,2.15,2.15,0,0,0-1.75,1.18,8.75,8.75,0,0,0-1.05,2,7.45,7.45,0,0,1,2.59,1.68q1.47,1.35,1.47,1.86a9,9,0,0,0,.77-1.1A7.88,7.88,0,0,1,320,135.05Zm0,15.48a2.87,2.87,0,0,0-1.12-2.27,18.34,18.34,0,0,0-2-1.43,3.74,3.74,0,0,0-1.4,1.43c-.47.73-.52,1.15-.14,1.26a7.91,7.91,0,0,1,1.75,1.35,4.69,4.69,0,0,1,1.33,2.69c.28-.33.6-.7,1-1.09A2.78,2.78,0,0,0,320,150.53ZM322.26,161h-4.9a3.2,3.2,0,0,1,.63-2c.51-.9,1.09-1.35,1.75-1.35a2.1,2.1,0,0,1,1.82,1.1A4.09,4.09,0,0,1,322.26,161Zm-3.22-71V87.41h-1v2.53Zm4.9,34.84-.91-1.1a2,2,0,0,0-1.61-.58,2,2,0,0,0-1.89,1.17,3.56,3.56,0,0,0-.49,2.19,4.27,4.27,0,0,1,2.52,1.6,9.13,9.13,0,0,0,1.68,1.77ZM321.28,7.29,319.88,9l-.56-.67,1.4-1.69Zm0,73.72V78.66h-.84V81Zm1.26,8.93V85.39h-1v4.55Zm1.4,4.71a1.22,1.22,0,0,0-.14-.59,5.51,5.51,0,0,1-.28-.59,2.08,2.08,0,0,1-.42-.84,1.73,1.73,0,0,1-.49,1.09,1.29,1.29,0,0,1-.91.59,1.16,1.16,0,0,0,1.12.42C323.29,94.68,323.66,94.65,323.94,94.65Zm4.21,35.85h-1v-3.2h1ZM331.23,33a1.51,1.51,0,0,1-.35-.59c-.05-.17-.12-.36-.21-.59a1.58,1.58,0,0,1-.14-.67c-.28,0-.31.31-.07.93S331,33,331.23,33Zm2.8,1V32.87h-2.1v1.18Zm5.6,7.07a6,6,0,0,0-2-.84,4.3,4.3,0,0,1-2.31-1.52h1.82a1.4,1.4,0,0,1,1.61.85A8,8,0,0,0,339.63,41.12Zm2.81-6.9V33H340.9v1.18Z" transform="translate(-4.64 -3.58)"/>
    <path class="a" d="M350.7,123.1a8.47,8.47,0,0,1-2.17.84,7.8,7.8,0,0,0-2.17.84,3.18,3.18,0,0,1,.42-1.85,2.81,2.81,0,0,1,1.4-1.52Zm1.05-37.29a27.19,27.19,0,0,0-2.73.93,6.18,6.18,0,0,0-.28-1.52,12,12,0,0,1-.28-3c.28,0,.75,0,1.4-.08s1-.25,1-.59a6.51,6.51,0,0,1,1.82,1.94c.66,1,1.13,1.59,1.4,1.93A9,9,0,0,0,351.75,85.81Zm1.89,5.3-.7.68-.7-1,.56-.68Zm1.55,25.59-1.69.84v-1l1.41-.84Zm93.87-26.09a6.45,6.45,0,0,1-1,1.51,2,2,0,0,1-1.54.85,2.42,2.42,0,0,1-.91-1.35c-.24-.67-.49-1.35-.77-2L444,90.78a2.12,2.12,0,0,0,.36,1.09c.23.4.44.59.63.59v10.61l1-1.35h1.82l1.26,1.68v3a4.31,4.31,0,0,1-2.52.25,13.48,13.48,0,0,0-2.53-.25,1.86,1.86,0,0,0,.07,1.52,6.88,6.88,0,0,0,1.62,1.34,16.73,16.73,0,0,1-.28,3.62,7.09,7.09,0,0,0-.28,1.6c-.66-.11-1.59.56-2.81,2l-1.68,7.07.42.51,1-1.35h1.83l1.26,1.51v3a2.55,2.55,0,0,0-1.13.42,1.81,1.81,0,0,1-3.08-1.59,7.92,7.92,0,0,0-.56-2l-2,5.55a5.83,5.83,0,0,1,1.61,1.52,9,9,0,0,1,1.19,2L440,134.88h-2l-1-1.35-2,3.71q1,1.17,1.68,1.17l-.7,3.2h-2l-1-1.35L430,144.64a1.31,1.31,0,0,0,1.05.51h1.2v2.35a2.33,2.33,0,0,1-.56.51,2.06,2.06,0,0,1-1,.33,2.48,2.48,0,0,1-.49-1.43,6.1,6.1,0,0,0-.49-1.93,24.73,24.73,0,0,1-2.1,2.52c-.84.9-1.73,1.8-2.66,2.7s-1.89,1.74-2.87,2.52-1.85,1.52-2.59,2.19c-.84.23-1.83.53-2.95.92s-2.24.82-3.36,1.27-2.12.81-3,1.09a7.44,7.44,0,0,1-1.89.42H398.9a7,7,0,0,1-2.87-.84,10.8,10.8,0,0,0-2.87-1,18.24,18.24,0,0,1-9.25-4.71,54.41,54.41,0,0,1-8.55-9.6,66.18,66.18,0,0,1-6.65-11.86,49.29,49.29,0,0,1-3.58-11.37.53.53,0,0,1-.14-.33c-.19-.23-.32-.34-.42-.34l-9.24,12.29v-.51a1.77,1.77,0,0,0-.42-1.17c.28.33.49.25.63-.26a9.53,9.53,0,0,1,.35-1.09A107.83,107.83,0,0,0,364,115.52c-.19-1-.4-2-.63-3.11a14.12,14.12,0,0,1-.35-3v-2.19c.65.12,1.38-.25,2.17-1.09a14.24,14.24,0,0,0,2.18-3.11,15.2,15.2,0,0,0,1.4-3.71,3.56,3.56,0,0,0-.14-2.69,9.79,9.79,0,0,1,2.1-1.85A3.46,3.46,0,0,0,372.28,93l2.24,1.34.56-.67,6.45,4.21,3.92,18.85h2l1-1.18a6.33,6.33,0,0,0-1.68-4,5,5,0,0,0,1.19-1.09,2.7,2.7,0,0,0,.63-1.77l5.75,3.2,1-1.18a1.74,1.74,0,0,1,1.4-.67,2,2,0,0,1,.49,1.43,4.7,4.7,0,0,1-.35,2.1,7.86,7.86,0,0,0,1.89,1.26c.61.28,1.17.54,1.68.76a4.56,4.56,0,0,1,1.47,1.1,5.4,5.4,0,0,1,1.12,2.27,3.53,3.53,0,0,1-.7,1.6,2.27,2.27,0,0,1-1.12.59,7.07,7.07,0,0,1-1.61.16,11.34,11.34,0,0,0-1.89.17l-1.68.68-6.17-2.87a.58.58,0,0,0-.14.34,1.15,1.15,0,0,0-.14.67l4.77,5.9,2.24-2V132a12.26,12.26,0,0,1-3.44-.34,2.21,2.21,0,0,0-1.89.17,23.49,23.49,0,0,0,3.44,3.7,11.53,11.53,0,0,0,3.08,1.94,9.2,9.2,0,0,0,2.94.67c1,.06,1.94.09,2.87.09,1.22,0,2.39-.06,3.51-.17s2.8-1,5-2.7a3,3,0,0,0,1.26-1.6,9.25,9.25,0,0,0,.56-2.1,14.75,14.75,0,0,1,1.82-1.09,6.54,6.54,0,0,0,2-1.6,2.71,2.71,0,0,0,.14-1.94,9.25,9.25,0,0,0-.7-1.93,5.15,5.15,0,0,1,1.34-1.35,1.54,1.54,0,0,1,1.61-.34c.28-.33.51-.5.7-.5s.28-.45.28-1.35v-3.37l2.8-8.08v-2.52a2,2,0,0,0-1.19-.67,5.21,5.21,0,0,1-1.61-.68,7.63,7.63,0,0,1,.28-2.35,4.75,4.75,0,0,0,.28-1.35,2,2,0,0,1,1.19-.67,6.18,6.18,0,0,1,1.19-.17l1.54-2.53V92.8l-.84-1.18a2.59,2.59,0,0,1-1.05.76,1.66,1.66,0,0,1-1.47-.26l.7-3.87a2.41,2.41,0,0,1,1.12.42,4.43,4.43,0,0,1,1.12.93V74.11a9.19,9.19,0,0,0,3.22-2.52,1.16,1.16,0,0,0-1.12-.42,8.93,8.93,0,0,1-1.12.08,5.28,5.28,0,0,1,.35-1.51,4.85,4.85,0,0,1,.77-1.52,1.39,1.39,0,0,0-1.12-.5,7.32,7.32,0,0,0-1.54.17,3.47,3.47,0,0,1,.07-1.52,11.07,11.07,0,0,0,.28-1.85,7.12,7.12,0,0,0-.21-2.19,5.32,5.32,0,0,0-1.4-2.36,3.54,3.54,0,0,1,1.12.26,8.13,8.13,0,0,0,2.38.25,9.36,9.36,0,0,0,1.54-2.11,3.38,3.38,0,0,0,.56-2.1l-2.1-3.2h-2.66c-.28.34-.63.73-1.05,1.18a1.88,1.88,0,0,0-.63,1.18,3.88,3.88,0,0,1,.84-2.19A27.48,27.48,0,0,0,425,50.55V48.7A4.11,4.11,0,0,0,423.7,47a8.77,8.77,0,0,0-2.1-1.34L419.5,47a3,3,0,0,1,.21-1.6c.23-.72.49-1.43.77-2.1a18.81,18.81,0,0,0-.84-2,9.82,9.82,0,0,0-1.26-1.85.92.92,0,0,0-.85.08,4.45,4.45,0,0,1-.91.42,1.35,1.35,0,0,1-1.05-.08,4.71,4.71,0,0,1-1.4-1.26L416,36.41a3.66,3.66,0,0,0-.28-1.26,3.76,3.76,0,0,1-.28-1.27l-1.54-1.17a5.11,5.11,0,0,0-1.54,1.51,10.72,10.72,0,0,0-1.12,2,10,10,0,0,0-2.1-1.77,6.62,6.62,0,0,0-2.52-1.09h-8.83a34,34,0,0,0-5.54,5.81,59.39,59.39,0,0,0-4.06,6.22,43.26,43.26,0,0,0-2.87,6.15,42.18,42.18,0,0,0-1.68,5.55c-.47-.56-1.08-.56-1.82,0a6.19,6.19,0,0,0-.35-1.6,13.74,13.74,0,0,1-.35-3.78,2.38,2.38,0,0,0,1.26,0,2.58,2.58,0,0,0,1.54-1.18V48.7l-1-1h-1l-4.49,11.44a3.13,3.13,0,0,0-1.47.34,2.43,2.43,0,0,1-1.05.34,4.42,4.42,0,0,0-.28-1.35,4.26,4.26,0,0,0-.7-1.35,5.19,5.19,0,0,1-1.19,1,5.48,5.48,0,0,0-1.19,1c.18-1,.35-2,.49-2.94a2.61,2.61,0,0,0-.91-2.44A7.87,7.87,0,0,0,369,56.1a5.78,5.78,0,0,0,.07,2.36,1.87,1.87,0,0,0-1.61-.25,7.74,7.74,0,0,0-1.62.75l9.39,15.83a2.94,2.94,0,0,1,1-.68,2.4,2.4,0,0,0,1.12-1.34,3.88,3.88,0,0,1,1.4,1.51,3.51,3.51,0,0,1,.56,1.52L378.16,77,395,89.09v1.69h-9.53l5.18,7.4-3.08.85a5.69,5.69,0,0,1-3.71-1.69,24.45,24.45,0,0,1-3.64-4.12A45.34,45.34,0,0,1,377,88q-1.47-2.77-2.45-5.13L361.91,97.51a5.53,5.53,0,0,0,.42,1.94,9.2,9.2,0,0,1,.56,2.27,7.81,7.81,0,0,0-1.26-2,8,8,0,0,1-1.26-2c-.56.34-.75.67-.56,1a2,2,0,0,1,.28,1l-2.8-2.86,1,.84,1.68-2a1.89,1.89,0,0,0,1.54.67l11.07-15.82L360.51,72.6l-.91,1.09c-.33.4-.49.42-.49.09a10.27,10.27,0,0,1-.7-.93c-.19-.28-.42-.25-.7.09.46-.57,1-.45,1.68.33l.84-.84a4.9,4.9,0,0,1-2.73-3.28c-.52-1.63-.91-3.06-1.19-4.3l1.4-1.68,5.6,4.72c0,.11.05.16.14.16s.42-.16.7-.5l-2.24-8.08a3.29,3.29,0,0,0,.7-2.19h1.05a1.22,1.22,0,0,0,1-.67,2.72,2.72,0,0,1-1.12-1,3,3,0,0,1-.35-1.1c-.05-.39.26-.75.91-1.09a3.43,3.43,0,0,1-.63-1.18,1,1,0,0,0-1-.67,1.84,1.84,0,0,1,.14-.68,6.22,6.22,0,0,0,.21-.59,1.71,1.71,0,0,1,.35-.58,2.85,2.85,0,0,1,1.12.33,2.73,2.73,0,0,0,1.12.34,53.19,53.19,0,0,1,4-10.61,70.68,70.68,0,0,1,6.44-10.6A53.15,53.15,0,0,1,384,20.33a24.73,24.73,0,0,1,8.9-5.13l1.4,1.35a6.24,6.24,0,0,0,1.82-1.27,6.66,6.66,0,0,1,2.66-1.43,3.08,3.08,0,0,0,2.38-.67,2,2,0,0,0-.28.5,2.9,2.9,0,0,0-.14,1l1.4,1.86a4.36,4.36,0,0,0,1-2.87h5.47L408,14.86l1.54,1.69c.28,0,.58-.23.91-.68a2.22,2.22,0,0,0,.49-1.34h2l9.25,5.21a2.41,2.41,0,0,0-1.12.43,7.57,7.57,0,0,0-1.26.92,3.36,3.36,0,0,0,2,2.86c.46-.78.81-1.4,1.05-1.85a3.2,3.2,0,0,0,.07-2,37.38,37.38,0,0,1,6.93,7.41,77.63,77.63,0,0,1,5.61,9,79.52,79.52,0,0,1,4.2,9.34c1.17,3.15,2.08,6,2.73,8.42a8.7,8.7,0,0,0-1.68.17c-.56.11-1.12.9-1.68,2.36.37,1.57,1,2.41,2,2.52a9.63,9.63,0,0,0,2.52,0l1.13,9.6a5,5,0,0,0,.14,2,22.05,22.05,0,0,1,.42,2.52A7.73,7.73,0,0,1,445,76a2.85,2.85,0,0,1-1.55,1.86,4.64,4.64,0,0,0,1.05,1.6,2.26,2.26,0,0,1,.64,1.76v6.57a2.16,2.16,0,0,0,1.05.42,8.63,8.63,0,0,1,1.19.25,2.91,2.91,0,0,1,1.05.59A2.55,2.55,0,0,1,449.06,90.61Zm-91.49,31.31h-1v-1.85h1Zm1.54-18.18-1.68,1v-1l1.4-.84Zm6.72-18.85c-.28,1.23-.6,2.44-1,3.61a31.56,31.56,0,0,1-1.4,3.62h-2.1V78.66c0-.9.19-1.32.56-1.26a7.55,7.55,0,0,0,1,.08Zm-2.38,17.5c.28.34.28.87,0,1.6s-.56,1.09-.84,1.09a9.57,9.57,0,0,1,.21-1.59C363,102.76,363.17,102.39,363.45,102.39Zm2.38,14.14-1.4-.84-.28,1,1.4.84Zm2.67,7.07v-1.18h-1.41v1.18Zm1.54-3.7v-1.85h-1v1.85Zm9.8-3.54a8.12,8.12,0,0,0-2.1-1.76,21.45,21.45,0,0,1-2.1-1.43,12.17,12.17,0,0,0-1.33,2.35,5.18,5.18,0,0,0-.49,1.68,10.72,10.72,0,0,0,1.61-.25c.14,0,.16-.17.07-.33a1.69,1.69,0,0,1-.14-.76,2.3,2.3,0,0,1,.84-1.35l2,1.35A2.14,2.14,0,0,0,379.84,116.36Zm0-72.88a1.91,1.91,0,0,0-.49-1.26,1.27,1.27,0,0,0-.91-.59c-1.21,0-1.49.78-.84,2.35,0,.34.31.42.91.26A2.62,2.62,0,0,0,379.84,43.48ZM379,51.56V49.87h-1v1.69Zm4.77-14.82a4.45,4.45,0,0,0-.42-1.51c-.28-.67-.56-1-.84-1s-.59.34-.91,1a3.9,3.9,0,0,0-.49,1.51Zm.7,17-1.54-.85-.28.85,1.54.84Zm3.36-25.42a2.18,2.18,0,0,0-2.8,0,3.08,3.08,0,0,0,.28,1.18,1,1,0,0,0,.42.5,2.56,2.56,0,0,0,1.26-.59C387.55,29,387.83,28.67,387.83,28.33Zm.56,14.31a1.8,1.8,0,0,0-1.89-1.18c-.79.11-1.29.17-1.47.17l.7,3.36a8.39,8.39,0,0,0,1.54-1.18A14.17,14.17,0,0,0,388.39,42.64Zm3.36-21q0-.51-.84-.93c-.56-.28-.84-.25-.84.08-.56,0-.89.2-1,.59a5,5,0,0,0-.14,1.1,1.92,1.92,0,0,0,1.82.08C391.43,22.24,391.75,21.93,391.75,21.6Zm.56,14.13c-.28-.33-.6-.69-1-1.09s-.7-.76-1-1.09l-1.4.84.56,3h2.1a3.28,3.28,0,0,1,.7-1.69ZM392,103.07a.75.75,0,0,1,.07,1c-.23.33-.49.67-.77,1a3.54,3.54,0,0,1,.14-.67,2.88,2.88,0,0,0,.21-.67A1.61,1.61,0,0,1,392,103.07Zm4.07-73.73a3.68,3.68,0,0,0-.7-1.6c-.47-.73-.84-1.09-1.12-1.09a5,5,0,0,1-.91-.09c-.33,0-.49.37-.49,1.26V30a3.91,3.91,0,0,0,2.17-.25A4.94,4.94,0,0,1,396.1,29.34Zm2.66,50.5a2.42,2.42,0,0,0-1.19.5,2.5,2.5,0,0,1-1.19.51,1.7,1.7,0,0,1-.35-.93,8.11,8.11,0,0,0-.21-1.09,6.19,6.19,0,0,1-.14-1.35c.28,0,.39.23.35.67s.3.68,1.05.68,1.07-.11,1-.34,0-.34.28-.34V79C398.34,79.56,398.48,79.84,398.76,79.84Zm.84-59.76h-2.1l-.7,3.2h2.66a2.08,2.08,0,0,0,.28-1.6A14.93,14.93,0,0,1,399.6,20.08Zm.14,66.32-.7,2.53-.7-.34.56-2.19Zm.14,47.81-1.4-1.69,1.4-1.68a3.59,3.59,0,0,1,0,3.37ZM403.52,30V27.49a2.87,2.87,0,0,0-2.17.17,5.09,5.09,0,0,0-1.19.67l.7,2.36Zm1.12,49.66c-.28.33-.91.48-1.89.42s-1.61-.09-1.89-.09a1.53,1.53,0,0,1,.7-1.43,2.83,2.83,0,0,0,1.12-1.43v.34a1.24,1.24,0,0,1-.28.84Zm0,47a1.48,1.48,0,0,1-2.24,0,8.09,8.09,0,0,1,.21-1.51c.14-.68.35-1,.63-1s.59.33.91,1A3.85,3.85,0,0,1,404.64,126.63Zm2.81-105a.8.8,0,0,0-.14-.51,1.74,1.74,0,0,1-.28-.5,2.27,2.27,0,0,0-.28-.51h-2.53v2.36L405.34,24c.28,0,.7-.31,1.27-.92A2.64,2.64,0,0,0,407.45,21.6Zm.42,99a3.9,3.9,0,0,1-1.05-.17,2,2,0,0,1-1.06-.67v-1.85q0-1.35.57-1.26a7.55,7.55,0,0,0,1,.08,7,7,0,0,1,.49,1.43A4.94,4.94,0,0,1,407.87,120.57Zm.7,12.79a2.19,2.19,0,0,1-2.81,0,4,4,0,0,1,.5-1.51c.32-.67.63-1,.91-1s.58.34.91,1A4.09,4.09,0,0,1,408.57,133.36Zm2.8-105.87-2.52-.84-1.4,1.85a4.27,4.27,0,0,1,.56,1,1.53,1.53,0,0,1,.14.5l2.52.68Zm1.12,99.81h-2.1l-.56-3,2-.84a8,8,0,0,1,.63,2.19C412.47,126.18,412.49,126.74,412.49,127.3Zm2.94-105.7a.8.8,0,0,0-.14-.51,2,2,0,0,1-.28-.5,1.93,1.93,0,0,0-.28-.51h-2.66v2.36L413.33,24a9.44,9.44,0,0,1,1.26-1.18C415.15,22.33,415.43,21.93,415.43,21.6ZM417,119.9l-3.22.67,1.4-1.68a3.58,3.58,0,0,0,1-2.19Zm2.25-92.41-2.53-.68-.7,3,2.67.85Zm2.38,84.83a4.74,4.74,0,0,1-1.26,1,4,4,0,0,1-2.11.51,15.41,15.41,0,0,1,1.27-2.61,17.48,17.48,0,0,1,1.26-1.94,4.49,4.49,0,0,0,.42,1.52A4.45,4.45,0,0,1,421.6,112.32Zm2.24-77.26a12.85,12.85,0,0,0-1-1.09,11.51,11.51,0,0,1-1.05-1.1c0,.34-.24.54-.7.59a9.29,9.29,0,0,1-1.12.09,6.64,6.64,0,0,1-.28,1.51,6.1,6.1,0,0,0-.28,1.52l1.26,1.51h1.82a8,8,0,0,0,.91-1.51A4.12,4.12,0,0,0,423.84,35.06Zm-.14,43.6a2.33,2.33,0,0,1-1.33-.59c-.52-.39-.77-.76-.77-1.1a10.18,10.18,0,0,1,1-1,1.69,1.69,0,0,1,1.12-.5,3.26,3.26,0,0,1,0,3.2Zm4.62-36a6.53,6.53,0,0,0-1.4-2,2.67,2.67,0,0,0-1.82-1l-1.82,1.51V44l1.26,1.69h2.52Zm-.56-14.31-1.26-1.52h-2l-.7,3,2.52.85c.28-.34.58-.73.91-1.18A2.09,2.09,0,0,0,427.76,28.33Zm.56,126.07a1,1,0,0,1-.56.17.9.9,0,0,1-.42.17c-.09,0-.23.11-.42.34a2.49,2.49,0,0,1-.42-1.6c0-.73.14-1.1.42-1.1s.58.26.91.76A2.5,2.5,0,0,1,428.32,154.4Zm3.37-117.82V34.39l-2-1.68A9.85,9.85,0,0,0,428,34.47a3.5,3.5,0,0,0-.84,2.11l1.26,1.51h2Zm.56,12.79L431,47h-3.22a6.18,6.18,0,0,1-.28,1.52,12,12,0,0,0-.28,3l2.52,1.51a4.36,4.36,0,0,0,1.48-1.6A18.67,18.67,0,0,0,432.25,49.37Zm0,13.3a7,7,0,0,0-1.83-1.6,3.4,3.4,0,0,0-1.4-.59L427.2,62a12,12,0,0,0,.28,3,6.18,6.18,0,0,1,.28,1.52H431c.28-.67.56-1.4.85-2.19A5.89,5.89,0,0,0,432.25,62.67Zm-1.13,17.17a7.22,7.22,0,0,1-.84-1.35,7.22,7.22,0,0,0-.84-1.35l1.12-1.68h-2.1L427.2,77a4.43,4.43,0,0,0,.42,1.52,6,6,0,0,0,.84,1.51c.28,0,.73,0,1.33-.08S430.84,79.84,431.12,79.84Zm-.84,12.79c-.28,0-.51-.28-.7-.84a4.07,4.07,0,0,0-.7-1.35c0-.34-.19-.22-.56.34a2.74,2.74,0,0,0-.56,1.34,1.54,1.54,0,0,0,1.26.51Zm5.89-35a6.7,6.7,0,0,0-.28-1.52,6.12,6.12,0,0,1-.28-1.51,2.47,2.47,0,0,1-1.26-.42,3.83,3.83,0,0,0-2-.42l-1.27,1.51v3l1.27,1.52h2Zm-.56,14a4.16,4.16,0,0,1-1.26-1.69,8.15,8.15,0,0,1-.56-1.85,4.92,4.92,0,0,0-1.61,1.1,3.89,3.89,0,0,0-1.06,1.93l1.27,2.19h2Zm0-27.44V41.79l-1.26-1.51h-2a3.21,3.21,0,0,0-1.06,2.36,6.5,6.5,0,0,0,.5,2.18,2.18,2.18,0,0,0,1.89.17A8.59,8.59,0,0,0,435.61,44.15ZM433.93,85.9c-.47,0-.7-.43-.7-1.27V82.87a6.24,6.24,0,0,1-1-.09c-.38,0-.56.37-.56,1.26v2A9.9,9.9,0,0,0,433,86,8.15,8.15,0,0,1,433.93,85.9Zm-1,13V97.17h-1v1.69Zm6.58-48V48.53a4.74,4.74,0,0,0-1.26-1A2.84,2.84,0,0,0,437,47a3.91,3.91,0,0,0-1.4,1.52,3.52,3.52,0,0,0-.56,1.51l1.26,2.36h2Zm0,14.14V62.84l-1.26-1.69h-2a19.56,19.56,0,0,0-.7,2.44,3.72,3.72,0,0,0,.14,2.28,3.87,3.87,0,0,1,1.26.33,3.7,3.7,0,0,0,1.26.34Zm-1.12,15a8.12,8.12,0,0,1-.56-2.27,21.67,21.67,0,0,1-.14-2.27A4.53,4.53,0,0,0,436.24,77a3.39,3.39,0,0,0-.63,1.52,4.48,4.48,0,0,1,.56,1,1.6,1.6,0,0,1,.14.5Zm-.28,12.63c-.28,0-.51-.25-.7-.76a4.45,4.45,0,0,0-.7-1.26,1.58,1.58,0,0,0,.42-1v-.67l-1,1.17a2,2,0,0,0-.56,1.18,1.74,1.74,0,0,0,1.26,1.18A7.32,7.32,0,0,0,438.13,92.63Zm3.5-5.72a8.17,8.17,0,0,0-.21-1.52,8.2,8.2,0,0,1-.21-1.51c0-.34-.28-.26-.84.25s-.84.92-.84,1.26Zm1.26-14.48-1.12-2.69.56-1h-2.66v3l1.26,1.51Zm-2,26.43V97.17h-1v1.69Zm8.13,20.87-1.26,1.68H446l-1.4-1.68v-2.19L446,116h2.52a4.43,4.43,0,0,0,.28,1.34A8.07,8.07,0,0,1,449.06,119.73ZM448.5,78l-2.66.68v-2c-.1-.9,0-1.32.35-1.26a6,6,0,0,0,.91.08c.28,0,.58.34.91,1A4.09,4.09,0,0,1,448.5,78Zm2.8,8.08-2.1-.67a2.65,2.65,0,0,1,.49-1.77,3.18,3.18,0,0,1,1.47-1.43,2.25,2.25,0,0,1,.28,1.69A19.2,19.2,0,0,0,451.3,86.06ZM450.6,95a7.05,7.05,0,0,1,0,2,7.88,7.88,0,0,1-.7,2.7l-.7-3Zm-.42,14.3a8.19,8.19,0,0,0-.56,2.28,21.67,21.67,0,0,0-.14,2.27,7.74,7.74,0,0,1,0-2.19A5.15,5.15,0,0,1,450.18,109.29Zm1-40.56a2.31,2.31,0,0,1,.42,1.51c0,.68-.14,1-.42,1s-.58-.22-.91-.67a2.09,2.09,0,0,1-.49-1.18,1.75,1.75,0,0,1,.42-.34A2,2,0,0,1,451.16,68.73Z" transform="translate(-4.64 -3.58)"/>
  </g>
</svg>
