<svg xmlns="http://www.w3.org/2000/svg" viewBox="0 0 160 32.79">
  <defs>
    <style>
      .a {
        fill: #fe0404;
      }
    </style>
  </defs>
  <g>
    <path class="a" d="M24,22.88c.56,1.56.52,3.95-.1,7.17-.05.35-.1.72-.16,1.12s-.09.59-.15.95c-.2,1.2-.48,2.53-.85,4A38.1,38.1,0,0,1,21.18,41q-2.31,5.81-4.69,3.62a.33.33,0,0,1-.16-.05A.58.58,0,0,1,16,45a.36.36,0,0,1-.46,0c-1.13-1.1-1.64-3.15-1.54-6.13a36.74,36.74,0,0,1,.36-3.71c.07-.49.15-1.06.25-1.72l.07-.4.06-.38c.05-.31.09-.54.12-.71V31.9l0-.15,0-.15v-.08l0-.23L15,31c0-.23.05-.44.08-.62.08-.52.17-1,.26-1.38.27-1.12.62-1.74,1-1.87a.37.37,0,0,1,.41.09.59.59,0,0,1,.37-.22.28.28,0,0,1,.31.2l.08.17a.52.52,0,0,1-.21.69l0,.12,0,.13c-.08.81-.15,1.63-.22,2.43a26.23,26.23,0,0,1,1.6-6.36,4.31,4.31,0,0,1,1.78-2.27c.8-1.21,1.58-1.55,2.32-1a1.94,1.94,0,0,1,.32.29h0l0,0,0,0h0a3.94,3.94,0,0,1,.74,1.2.1.1,0,0,1,.06.08v.14ZM14.88,39a8.38,8.38,0,0,0,.94,4.74.29.29,0,0,1,.13-.15,11.63,11.63,0,0,1-.36-1.95c-.15,0-.23-.13-.27-.31C15.15,40.65,15,39.87,14.88,39Zm1.21-9.85c0-.57,0-.39-.11.53ZM16.68,38c0,1.56,0,3.12.15,4.67l.12.83.45,0a15.78,15.78,0,0,0,1.45-3.27c.16-.49.34-1.09.55-1.81l.14-.42.12-.42c.09-.34.17-.6.23-.78.32-1.06.57-1.91.74-2.53.28-1,.51-1.82.7-2.62a32.43,32.43,0,0,0,.88-5.4c0-.37,0-.68,0-.9s0-.64,0-.92a4.24,4.24,0,0,0-.4-1.69c0-.06-.08-.12-.13-.2a16.66,16.66,0,0,0-1.48,2.7q-.21.66-.24.78-.37,1.49-.69,3.21-.57,3.09-.78,5.1l0,1.11,0,1.11c0,.89-.06,1.63-.1,2.23,0,.15-.15.27-.44.36s-.42.1-.42,0c0-.45,0-.92,0-1.4A.7.7,0,0,1,17,38C16.83,38.08,16.71,38.07,16.68,38Zm1.4,5.5h.06l.07,0,.67-1.07c.25-.4.42-.7.52-.89a41.89,41.89,0,0,0,2-7A37.82,37.82,0,0,1,18.08,43.49Z" transform="translate(-14 -20.85)"/>
    <path class="a" d="M34.06,33.65c.16,0,.22.05.19.14a41.08,41.08,0,0,0-1.18,8.38.4.4,0,0,1-.21.31.84.84,0,0,1-.38.15c-.27.09-.44,0-.52-.3L31.88,42a.46.46,0,0,1-.15-.38v-.45a10.26,10.26,0,0,1,.3-3.63l.12-.78.15-.78-.57.67c-.33.49-.71,1-1.14,1.52l-.36.67-.38.66c-.28.51-.54.94-.76,1.27a.67.67,0,0,1-.33.26A.28.28,0,0,1,28.4,41h0v0l0,0a.38.38,0,0,1-.05-.19c0-.28-.05-.52-.07-.7a.38.38,0,0,1-.26-.22.42.42,0,0,1,0-.38.45.45,0,0,1-.12-.38,10.66,10.66,0,0,1,.24-1.8l.18-.9c.06-.35.11-.65.15-.91a7.07,7.07,0,0,0-1,1l-.72,1.29L26,39.09q-.9,1.72-1.44,2.61a.6.6,0,0,1-.11.12l-.09.6a.66.66,0,0,1-.24.44.35.35,0,0,1-.38.08l0,.08,0,.07c0,.17-.19.29-.47.37s-.41,0-.39-.14l.2-1.54.19-1.55c.15-1.24.28-2.27.4-3.08.32-2.34.67-4.37,1.05-6.07,0-.17.21-.28.49-.34s.4,0,.38.12l0,.09a.41.41,0,0,1,.42-.06c.15.06.21.2.17.42l-.09.58,0-.08a.48.48,0,0,1,.5-.29c.24,0,.35.16.32.46-.13,1-.21,1.79-.26,2.47a5,5,0,0,1,.88-.81,11.34,11.34,0,0,1,1.42-1c1.24-.72,1.81-.73,1.69,0a8.7,8.7,0,0,1-.46,1.68l-.13.38-.13.4a6,6,0,0,0-.2.81,9.28,9.28,0,0,1,2.66-2.51,3.87,3.87,0,0,1,1.35-.69c.38-.07.54.1.49.5a.74.74,0,0,1,0,.22l0,.1ZM35.51,29c.23.11.25.28.07.49a.65.65,0,0,1-.48.31l-.18,0h0c.09.11.06.25-.09.45a.6.6,0,0,1-.44.29c-.44,0-1.09,0-2,.09l-1,.06-1,0c-.25,0-.32-.11-.23-.37h-.57l-.37.08-.1,0-.11,0-.24,0a3.37,3.37,0,0,1-.52,0,1.08,1.08,0,0,0-.25.17.54.54,0,0,1-.6.16c-.25-.06-.29-.19-.11-.42l0,0,0-.38a.36.36,0,0,1,0-.11,11.41,11.41,0,0,1-.06-1.47.48.48,0,0,1,.41-.46c.27-.09.42,0,.46.21s.06.44.09.71a.65.65,0,0,1,.2-.17l.39-.15a.76.76,0,0,1,.23-.35.48.48,0,0,1,.33-.17h2.21a6.47,6.47,0,0,1,2.37.08h0l.1,0c.17,0,.23.14.16.29A6.94,6.94,0,0,1,35.51,29Zm-6.72.71.59-.06.62-.2a3.77,3.77,0,0,0-1.38.24Z" transform="translate(-14 -20.85)"/>
    <path class="a" d="M39.7,32.29a.3.3,0,0,1,.3.06.38.38,0,0,1,.1.35q-.43,4.42-1.4,10.22a.66.66,0,0,1-.42.54q-.37.13-.45-.3c0-.18,0-.39-.07-.63a.5.5,0,0,1-.51.33c-.24,0-.34-.14-.32-.43l0-.5a.38.38,0,0,1-.3-.09.37.37,0,0,1-.09-.34c0-.15.08-.43.15-.83l0-.27.06-.3.12-.61c.19-1.07.31-1.8.36-2.18a1.53,1.53,0,0,1-.33.45,6.17,6.17,0,0,1-.66.6c-.65.49-1.15.63-1.53.43q-1.17-.65-1.14-2.67a11,11,0,0,1,.19-1.81c0-.25.11-.55.17-.87l.09-.43.1-.4a.47.47,0,0,1,.26-.35.41.41,0,0,1,.37,0,.55.55,0,0,1,.49-.18c.19,0,.27.17.23.41l0,.14-.13.63-.14.61a8.71,8.71,0,0,0-.19,1.27,2.5,2.5,0,0,0,.09,1c.1.34.24.52.43.55.44.08,1.07-.65,1.89-2.21.28-.52.55-1.1.84-1.76.1-.21.2-.44.29-.67a2.6,2.6,0,0,0,.1-.25l0-.09,0-.06a.65.65,0,0,1,.44-.4c.24-.08.37,0,.41.31S39.69,32,39.7,32.29Z" transform="translate(-14 -20.85)"/>
    <path class="a" d="M43.56,32.07a1.5,1.5,0,0,1,1.57.6,2.33,2.33,0,0,1,.3,2.25,5.73,5.73,0,0,1-1.12,2.16c-.2.24-.45.51-.74.8l-.4.37-.39.38c-.21.24-.44.49-.7.75l-.29.37-.1.16-.1.15a2.77,2.77,0,0,0-.22.34l-.09.62a.47.47,0,0,1-.13.25l.05.17.06.17a.88.88,0,0,0,.78.53,4.87,4.87,0,0,0,.81-.72,3.26,3.26,0,0,0,.31-.33l.11-.13,0,0,0,0a.63.63,0,0,1,.21-.13,1.32,1.32,0,0,1,.32-.07c.26,0,.34.07.22.32A3.8,3.8,0,0,1,43,42.42a3.16,3.16,0,0,1-1.25.87.66.66,0,0,1-.39.19.27.27,0,0,1-.32-.1l0-.07-.22-.08a2,2,0,0,1-1-1.7,7.55,7.55,0,0,1,0-2.36A.26.26,0,0,1,40,39a9.73,9.73,0,0,1,.8-2.79c.06-.14.15-.33.26-.59l.14-.32.13-.32q.34-.78.63-1.29C42.45,32.73,43,32.19,43.56,32.07Zm-1.63,5.78a8,8,0,0,0,1.68-2.31A4.69,4.69,0,0,0,44,34.31a1.29,1.29,0,0,0-.08-1,4.72,4.72,0,0,0-.35.48c-.17.46-.44,1.12-.83,2l-.42,1q-.23.55-.39,1Z" transform="translate(-14 -20.85)"/>
    <path class="a" d="M55.53,33.65c.16,0,.22.05.2.14a40.51,40.51,0,0,0-1.19,8.38.41.41,0,0,1-.2.31.93.93,0,0,1-.39.15c-.26.09-.44,0-.52-.3L53.35,42a.53.53,0,0,1-.15-.38v-.45a10.26,10.26,0,0,1,.3-3.63l.13-.78.14-.78-.57.67c-.33.49-.71,1-1.14,1.52l-.36.67-.38.66c-.28.51-.54.94-.76,1.27a.64.64,0,0,1-.32.26.29.29,0,0,1-.38-.06h0v0l0,0a.38.38,0,0,1,0-.19c0-.28-.05-.52-.07-.7a.38.38,0,0,1-.26-.22.42.42,0,0,1,0-.38.48.48,0,0,1-.12-.38,12,12,0,0,1,.25-1.8l.17-.9c.07-.35.12-.65.15-.91a7,7,0,0,0-1,1c-.22.37-.46.8-.73,1.29l-.7,1.33q-.9,1.72-1.44,2.61a.4.4,0,0,1-.11.12l-.09.6a.7.7,0,0,1-.23.44.37.37,0,0,1-.39.08l0,.08,0,.07c0,.17-.18.29-.47.37s-.4,0-.38-.14l.19-1.54.19-1.55c.15-1.24.28-2.27.4-3.08.32-2.34.68-4.37,1-6.07,0-.17.21-.28.49-.34s.4,0,.38.12L47,31a.41.41,0,0,1,.42-.06q.23.09.18.42l-.1.58,0-.08a.48.48,0,0,1,.5-.29c.25,0,.35.16.32.46-.12,1-.21,1.79-.26,2.47a4.76,4.76,0,0,1,.89-.81,10.57,10.57,0,0,1,1.41-1c1.24-.72,1.81-.73,1.69,0a9.32,9.32,0,0,1-.45,1.68l-.14.38-.13.4a7.92,7.92,0,0,0-.2.81,9.41,9.41,0,0,1,2.66-2.51,3.87,3.87,0,0,1,1.35-.69c.38-.07.54.1.5.5,0,.06,0,.13,0,.22l0,.1ZM57,29c.22.11.24.28.07.49a.67.67,0,0,1-.49.31l-.18,0h0c.08.11,0,.25-.09.45a.62.62,0,0,1-.45.29c-.43,0-1.09,0-2,.09l-1,.06-1,0c-.24,0-.32-.11-.22-.37h-.58l-.37.08-.1,0-.11,0-.23,0a3.59,3.59,0,0,1-.53,0,1.08,1.08,0,0,0-.25.17.53.53,0,0,1-.59.16c-.26-.06-.3-.19-.12-.42l0,0,0-.38a.36.36,0,0,1,0-.11q-.06-.68-.06-1.47a.49.49,0,0,1,.41-.46c.27-.09.43,0,.47.21s.06.44.08.71a.79.79,0,0,1,.2-.17l.4-.15a.67.67,0,0,1,.22-.35.48.48,0,0,1,.33-.17h2.21a6.47,6.47,0,0,1,2.37.08h0l.1,0c.17,0,.23.14.17.29A7.55,7.55,0,0,1,57,29Zm-6.72.71.58-.06.62-.2a3.85,3.85,0,0,0-1.38.24Z" transform="translate(-14 -20.85)"/>
    <path class="a" d="M62.34,35.28a.5.5,0,0,1,.06.26A21.8,21.8,0,0,1,61.72,40l-.28,1.09-.29,1.07c-.26.94-.45,1.65-.57,2.14a.5.5,0,0,1-.5.39c-.27,0-.38-.09-.34-.37l0-.26,0-.26c-.1,0-.16-.12-.16-.28v-.12a10.25,10.25,0,0,1,.09-2V41.3h0s-.07-.06-.07-.1a22.62,22.62,0,0,1,.23-3.54,8.16,8.16,0,0,0-2.43,1.12c-.14.54-.34,1.26-.59,2.16L56.58,42l-.3,1.08c0,.14-.2.25-.48.34s-.4,0-.38-.11l.09-.65a.79.79,0,0,1-.44.16c-.17,0-.25,0-.24-.16q.14-.84.3-2.28l.13-1.15.14-1.13a19.44,19.44,0,0,1,1.18-6,.4.4,0,0,1,.22-.2,1,1,0,0,1,.34-.09,8.32,8.32,0,0,1,.5-1,.84.84,0,0,1,.44-.26c.26-.09.39-.08.38.05a15.2,15.2,0,0,1-.42,2.6.84.84,0,0,1,.31-.07c.09,0,.14,0,.13.09v.06c0,.63-.13,1.32-.25,2.07a3.3,3.3,0,0,1,1.71.06.13.13,0,0,1,.07,0c.16-.22.32-.45.48-.71a13.9,13.9,0,0,1,.33-2.68c0-.13.19-.25.46-.34s.4-.08.4.05v.35a.85.85,0,0,1,.53-.25.61.61,0,0,1,.53-.33c.25,0,.34.09.3.35l-.18.83a21.11,21.11,0,0,1-.43,2.13ZM57.68,38l-.06.24.63-.37.6-.33-.34,0Zm1.06-2.21a2.32,2.32,0,0,0-.59,0l0,.17h.21Z" transform="translate(-14 -20.85)"/>
    <path class="a" d="M72.37,31.18c-.08.51-.15,1.13-.23,1.84l-.2,1.83c-.17,1.49-.34,2.7-.53,3.63s-.11,1.76-.12,2.54a.5.5,0,0,1-.31.48c-.2.1-.36.09-.47,0l-.11.75a.58.58,0,0,1-.49.53c-.28.05-.42-.1-.4-.43l0-.23a.37.37,0,0,1-.33,0,.35.35,0,0,1-.1-.37c.13-.87.28-2.06.44-3.56l.2-1.79c.07-.68.14-1.27.21-1.78a7.36,7.36,0,0,1-1.48.81.29.29,0,0,1-.18,0,6.47,6.47,0,0,1,.09,1.44c.12,0,.17,0,.16.07l-.23.56a9.32,9.32,0,0,1-.45,1.89A8.07,8.07,0,0,1,65.5,43q-1.76,1.41-2.75-1.25v0a.27.27,0,0,1-.12-.29l0-.13v-.13a8.49,8.49,0,0,1-.28-5.27c.08-.4.18-.85.31-1.35l.19-.67.17-.68c.31-1.13.52-2,.62-2.6a.47.47,0,0,1,.2-.31.55.55,0,0,1,.49-.31c.23,0,.34.11.32.35v.27a.42.42,0,0,1,.14.38c0,.05,0,.13,0,.23.26,0,.37.08.33.32l0,.11c.26,0,.37.06.33.32-.14,1-.35,2.09-.62,3.36A5.87,5.87,0,0,1,66,34.08a1.24,1.24,0,0,1,1.34-.14,1.48,1.48,0,0,1,.41.32c.19-.09.48-.2.87-.35l.44-.17.43-.18a8.38,8.38,0,0,0,.66-.52,22.31,22.31,0,0,1,.5-2.29.49.49,0,0,1,.46-.38.31.31,0,0,1,.39.31.42.42,0,0,1,.1-.17l0-.29a.56.56,0,0,1,.5-.52c.29,0,.42.09.37.41Zm-8.74,10-.06.14v0h0l.07.09.07.09.17.2a.28.28,0,0,1,.07-.09l0,0,0,0,.34-.22A1,1,0,0,1,63.63,41.19Zm.64-3.45a1.32,1.32,0,0,0,0,.36c0,.07,0,.15-.17.24l-.05.25V39a.4.4,0,0,1,.36,0l0,0c.09.07.11.2.06.38a5.1,5.1,0,0,1-.29.72.23.23,0,0,0,.11,0,.34.34,0,0,1,.36.31,1.07,1.07,0,0,0,.39-.14,4.46,4.46,0,0,0,.62-.93,10.68,10.68,0,0,0,.79-1.84c.07-.21.12-.41.17-.6a3.69,3.69,0,0,0,0-.75c-.08-.59-.26-.92-.54-1s-.51,0-.82.32l-.16.22L65,36l-.13.09a3.11,3.11,0,0,0-.38.72Zm1.08,3.84q.21-.34.39-.72a9.06,9.06,0,0,1-1,.72.61.61,0,0,0,.15.17Z" transform="translate(-14 -20.85)"/>
    <path class="a" d="M77.52,40.23a3.52,3.52,0,0,0,.84,2c.1.11,0,.24-.22.38a1,1,0,0,1-.28.12l-.17,0a1.27,1.27,0,0,1-1.1-.88c-.12,0-.18-.06-.18-.16a8.87,8.87,0,0,1,0-.91c0-.15,0-.31,0-.47A3.53,3.53,0,0,1,74.75,42a3.15,3.15,0,0,1-.61.46c-.06.21-.11.41-.16.6a.56.56,0,0,1-.34.37.46.46,0,0,1-.44,0q-2-1.39-1.48-4.85a16.11,16.11,0,0,1,.71-2.91,26.93,26.93,0,0,1,1-2.54.48.48,0,0,1,.22-.2.91.91,0,0,1,.33-.13.84.84,0,0,1,.5-.18c.2,0,.27,0,.23.17l-.06.18-.06.19c.21,0,.31,0,.3.13,0,.31-.14.8-.28,1.48l-.08.41-.08.41-.16.85a13.55,13.55,0,0,0-.22,3.35,25.79,25.79,0,0,0,1.76-2.94c.19-.36.46-.88.81-1.58l.41-.8.41-.78a.66.66,0,0,1,.53-.29c.27-.05.36,0,.27.25l-.06.12,0,.11a.53.53,0,0,1,.29,0c.08,0,.1.08.07.18l0,.15-.06.17,0,0v0a4.58,4.58,0,0,1,0,2.76q-.15.6-.45,1.56l-.23.77C77.66,39.79,77.59,40,77.52,40.23Zm1-12.59a.35.35,0,0,1,.34,0c.13.06.17.2.14.4l-.08.29a.35.35,0,0,1,0,.38,2.56,2.56,0,0,1-.22.39,6.44,6.44,0,0,1-.91,1.62.42.42,0,0,1-.31.13,3.74,3.74,0,0,0-.35.69.41.41,0,0,1-.27.24.37.37,0,0,1-.31,0c-.22,0-.31-.09-.28-.33a6,6,0,0,1,.72-2c.08-.2.19-.44.33-.73l.17-.33.17-.34a.3.3,0,0,1,.25-.18.29.29,0,0,1,.29.06A2.25,2.25,0,0,1,78.47,27.64Z" transform="translate(-14 -20.85)"/>
    <path class="a" d="M90.71,33.13l.18-.05.23,0c.15,0,.19.14.1.31a.49.49,0,0,1,0,.47,11.66,11.66,0,0,1-3,3.77c.29.69.75,1.59,1.36,2.7L90,41l.36.66c.26.5.48.95.67,1.35.09.19,0,.36-.28.52s-.44.15-.53,0l0-.07a.76.76,0,0,1-.35.17.29.29,0,0,1-.3-.07,32.88,32.88,0,0,1-2.91-4.7h0a3.56,3.56,0,0,0-.31.48,9.55,9.55,0,0,1-.31,1.18c-.15.79-.28,1.44-.41,2,0,.16-.17.28-.43.36a.55.55,0,0,1-.48.37c-.26.06-.38,0-.36-.23l0-.18v-.19c-.16,0-.23-.05-.22-.21,0-.4.21-1.71.52-3.94l.09-.63.09-.64c.06-.46.12-.86.17-1.2.11-.84.18-1.43.22-1.78,0-.13.11-.25.3-.35v-.52c0-.19.13-.34.4-.44s.42-.08.46.07a.67.67,0,0,1,.5-.27q.35,0,.3.18l-.07.35-.06.36q.21,0,.18.21c-.05.38-.12.82-.2,1.33a.2.2,0,0,1,0,.13c-.09.38-.2.91-.33,1.56a28.48,28.48,0,0,1,3.06-3.65c.18-.19.36-.38.55-.55l.06-.06.06-.08a.68.68,0,0,1,.55-.17c.26,0,.3.12.13.34l0,0,0,.06Z" transform="translate(-14 -20.85)"/>
    <path class="a" d="M96,38.08l-.09.31a1.2,1.2,0,0,1-.15.49,13.35,13.35,0,0,1-1.27,2.91,2.81,2.81,0,0,1-1.93,1.55h-.18a1,1,0,0,1-1.11,0,4,4,0,0,1-1-2.88,6.28,6.28,0,0,1,.15-2.85l0-.17a.4.4,0,0,1,.09-.17c.06-.14.12-.26.16-.36A.46.46,0,0,1,91,36.7a1,1,0,0,1,.34-.11.62.62,0,0,1,.5-.3,5.53,5.53,0,0,1,.91-3.42.51.51,0,0,1,.2-.14,2.34,2.34,0,0,1,2.14-1.62c.63,0,1,.51,1.16,1.5a6.75,6.75,0,0,1,.24,2.8A12.64,12.64,0,0,1,96,38.08Zm-4.58,2.55-.1-.14c0,.17.08.34.12.49Zm3.12-8.1-.07,0A1.38,1.38,0,0,0,94,33a5.11,5.11,0,0,0-.3.95,3.67,3.67,0,0,0-.09.43q0,.2-.06.3a27.34,27.34,0,0,0-.1,4c0,.2-.12.36-.38.47s-.43.06-.48-.12-.12-.43-.18-.72a6.17,6.17,0,0,0-.15,2c.3.3.7,0,1.18-.86a10.37,10.37,0,0,0,1.4-4.23v-.25l0-.32c0-.28,0-.55,0-.78A1.84,1.84,0,0,0,94.55,32.53Zm-1.41,9.22c.09-.2.2-.48.34-.85l.18-.44.18-.43a2.08,2.08,0,0,1-1.46,1C92.55,41.67,92.81,41.92,93.14,41.75Zm1.58-10A.54.54,0,0,0,94,32a1.33,1.33,0,0,1,.49-.19Z" transform="translate(-14 -20.85)"/>
    <path class="a" d="M103.19,35.28a.36.36,0,0,1,.06.26,21.14,21.14,0,0,1-.68,4.49l-.27,1.09-.3,1.07c-.26.94-.45,1.65-.57,2.14a.5.5,0,0,1-.49.39c-.27,0-.39-.09-.35-.37l0-.26,0-.26c-.1,0-.15-.12-.16-.28v-.12a12,12,0,0,1,.09-2V41.3h0s-.07-.06-.07-.1a23.9,23.9,0,0,1,.23-3.54,8.11,8.11,0,0,0-2.42,1.12q-.21.81-.6,2.16L97.43,42l-.3,1.08c0,.14-.2.25-.48.34s-.39,0-.37-.11l.09-.65a.85.85,0,0,1-.45.16c-.17,0-.25,0-.23-.16.09-.56.18-1.32.29-2.28l.13-1.15.15-1.13a19.19,19.19,0,0,1,1.17-6,.42.42,0,0,1,.23-.2.9.9,0,0,1,.33-.09,8.32,8.32,0,0,1,.5-1,.94.94,0,0,1,.45-.26c.25-.09.38-.08.37.05a16.1,16.1,0,0,1-.41,2.6.79.79,0,0,1,.3-.07c.09,0,.14,0,.13.09v.06c0,.63-.13,1.32-.25,2.07a3.3,3.3,0,0,1,1.71.06.1.1,0,0,1,.07,0,6.29,6.29,0,0,0,.48-.71,14.62,14.62,0,0,1,.34-2.68c0-.13.18-.25.45-.34s.41-.08.4.05v.35a.86.86,0,0,1,.54-.25.59.59,0,0,1,.52-.33c.25,0,.35.09.3.35l-.17.83c-.09.6-.24,1.31-.44,2.13ZM98.53,38l-.06.24.63-.37.61-.33-.35,0C99.11,37.76,98.83,37.9,98.53,38Zm1.07-2.21a2.31,2.31,0,0,0-.59,0L99,36h.2Z" transform="translate(-14 -20.85)"/>
    <path class="a" d="M112.64,45.13c.12.16.07.31-.17.48s-.4.2-.5.15a2.69,2.69,0,0,0-.75-.26,12.73,12.73,0,0,1-.67,2.1,2.74,2.74,0,0,1-1,1.33l-.31.14a1.18,1.18,0,0,1-.39.08.52.52,0,0,1-.56-.48,2.54,2.54,0,0,1,.06-1.21,1.36,1.36,0,0,1,.12-.64,3.32,3.32,0,0,1,2-2c.15-.7,0-1.16-.38-1.38l-.33.06-.35.06a2.22,2.22,0,0,1-.64.05q-.68-.1-.84-1.2l-.06-.13c-.12,0-.18-.07-.18-.16a9.07,9.07,0,0,1,0-.92c0-.14,0-.3,0-.47a3.59,3.59,0,0,1-1.63,1.65,3.54,3.54,0,0,1-.61.45c-.06.21-.11.41-.16.6a.57.57,0,0,1-.34.36.44.44,0,0,1-.44,0c-1.3-.93-1.79-2.55-1.48-4.84a16.83,16.83,0,0,1,.71-2.92c.28-.81.62-1.66,1-2.54a.54.54,0,0,1,.22-.19.91.91,0,0,1,.33-.13.79.79,0,0,1,.5-.19c.2,0,.27,0,.23.17l-.06.18-.06.19c.21,0,.31,0,.3.14,0,.3-.14.8-.28,1.48l-.08.4-.08.42-.16.84a13.63,13.63,0,0,0-.22,3.36,27,27,0,0,0,1.76-3c.19-.34.46-.87.81-1.56l.41-.8.41-.8a.66.66,0,0,1,.53-.29c.27-.05.36,0,.27.26l-.11.22a.84.84,0,0,1,.29,0c.08,0,.1.08.07.18l0,.16-.06.16,0,0v0a4.58,4.58,0,0,1,0,2.76q-.15.6-.45,1.56l-.23.77c-.09.29-.16.53-.23.72a4,4,0,0,0,.59,1.7A2.27,2.27,0,0,1,111,42c.51.17.7.75.56,1.74,0,.2-.06.42-.1.66l0,.24A1.4,1.4,0,0,1,112.64,45.13Zm-3.32,1.93,0,.14a5.68,5.68,0,0,0,.78-1.24A2.55,2.55,0,0,0,109.32,47.06Z" transform="translate(-14 -20.85)"/>
    <path class="a" d="M113.92,32.07a1.5,1.5,0,0,1,1.57.6,2.36,2.36,0,0,1,.31,2.25,5.75,5.75,0,0,1-1.13,2.16,8.42,8.42,0,0,1-.74.8l-.4.37-.38.38c-.21.24-.44.49-.7.75l-.3.37-.1.16-.1.15a1.85,1.85,0,0,0-.21.34l-.09.62a.49.49,0,0,1-.14.25l.06.17.06.17a.88.88,0,0,0,.78.53,5.31,5.31,0,0,0,.81-.72q.15-.15.3-.33l.12-.13,0,0,0,0a.47.47,0,0,1,.21-.13,1.25,1.25,0,0,1,.31-.07c.27,0,.34.07.23.32a3.93,3.93,0,0,1-1.09,1.41,3,3,0,0,1-1.25.87.63.63,0,0,1-.38.19.29.29,0,0,1-.33-.1l0-.07-.21-.08a2.05,2.05,0,0,1-1-1.7,8.21,8.21,0,0,1,0-2.36.29.29,0,0,1,.11-.15,9.73,9.73,0,0,1,.8-2.79l.25-.59.14-.32.14-.32q.34-.78.63-1.29C112.81,32.73,113.36,32.19,113.92,32.07Zm-1.62,5.78A8.11,8.11,0,0,0,114,35.54a5.1,5.1,0,0,0,.43-1.23,1.29,1.29,0,0,0-.08-1c-.09.11-.21.26-.36.48-.16.46-.44,1.12-.82,2l-.43,1c-.15.37-.28.7-.38,1Z" transform="translate(-14 -20.85)"/>
    <path class="a" d="M123,34.05a4.32,4.32,0,0,1,0,2.24,8.74,8.74,0,0,1-.79,2.08,11.41,11.41,0,0,1-3,4,2.15,2.15,0,0,1-2.51.48q-1.21,6.81-2.19,10.31a.65.65,0,0,1-.48.45c-.26.09-.39,0-.38-.29V53c0-1.11.09-2.28.18-3.53.12-1.86.28-3.61.49-5.26a32.4,32.4,0,0,1,.67-4.64c.13-.64.31-1.38.52-2.24l.27-1.1.28-1.12c.25-1.16.51-2.33.8-3.51a.55.55,0,0,1,.42-.4c.24-.08.38-.05.43.09a.2.2,0,0,1,.12.08c.39.52.5,1.69.31,3.51q2.26-3.29,3.63-2.62l.07,0a.29.29,0,0,1,.39.06.27.27,0,0,1,0,.36l0,.07c.39,0,.6.32.64.87C123,33.72,123,33.88,123,34.05Zm-7.07,8.41-.12.94.2-1.1Zm.48-3.11.36-.76v0l-.06.11-.06.09a.35.35,0,0,1-.17.14Zm1,0v0h0c0,.19-.08.4-.14.65l-.06.29-.06.27c-.08.41-.14.7-.17.88l-.11.61a.3.3,0,0,1,.26,0,1.09,1.09,0,0,0,.65,0c-.09-.07-.07-.19,0-.35l.44-.55.43-.59c.33-.43.61-.84.85-1.21a10.11,10.11,0,0,0,1.27-2.88l0-.06,0-.08a2.17,2.17,0,0,0,.07-.24l.15-.66c-.28-.73-.9-.42-1.86.92-.32.44-.67,1-1.06,1.66-.12.21-.26.44-.4.7l-.15.28-.06.1-.06.1h0l0,.06Zm3.83-5.49h0Z" transform="translate(-14 -20.85)"/>
    <path class="a" d="M133,33.65c.15,0,.22.05.19.14A40.51,40.51,0,0,0,132,42.17a.41.41,0,0,1-.2.31.93.93,0,0,1-.39.15c-.26.09-.43,0-.52-.3l-.08-.31a.53.53,0,0,1-.15-.38v-.45a10.06,10.06,0,0,1,.31-3.63l.12-.78.14-.78-.57.67c-.33.49-.71,1-1.14,1.52l-.36.67-.38.66c-.28.51-.54.94-.76,1.27a.64.64,0,0,1-.32.26.29.29,0,0,1-.38-.06h0v0l0,0a.53.53,0,0,1,0-.19c0-.28,0-.52-.07-.7a.35.35,0,0,1-.25-.22.37.37,0,0,1,0-.38.49.49,0,0,1-.13-.38,12,12,0,0,1,.25-1.8l.17-.9c.07-.35.12-.65.15-.91a7,7,0,0,0-1,1q-.33.56-.72,1.29l-.7,1.33c-.61,1.15-1.09,2-1.45,2.61a.4.4,0,0,1-.11.12l-.09.6a.65.65,0,0,1-.23.44.37.37,0,0,1-.39.08l0,.08,0,.07c0,.17-.18.29-.47.37s-.4,0-.38-.14l.19-1.54.19-1.55c.15-1.24.29-2.27.4-3.08.32-2.34.68-4.37,1.06-6.07,0-.17.2-.28.48-.34s.41,0,.38.12l0,.09a.42.42,0,0,1,.42-.06q.22.09.18.42l-.09.58,0-.08a.46.46,0,0,1,.49-.29c.25,0,.35.16.32.46-.12,1-.21,1.79-.26,2.47a4.76,4.76,0,0,1,.89-.81,10.57,10.57,0,0,1,1.41-1c1.24-.72,1.81-.73,1.69,0a9.32,9.32,0,0,1-.45,1.68l-.13.38-.14.4c-.08.29-.15.56-.2.81a9.41,9.41,0,0,1,2.66-2.51,3.87,3.87,0,0,1,1.35-.69c.38-.07.54.1.5.5,0,.06,0,.13-.05.22l0,.1ZM134.42,29c.22.11.24.28.07.49a.67.67,0,0,1-.49.31l-.18,0h0c.09.11.06.25-.09.45a.62.62,0,0,1-.45.29c-.43,0-1.09,0-2,.09l-1,.06-1,0c-.24,0-.32-.11-.22-.37h-.58l-.37.08-.1,0-.11,0-.23,0a3.49,3.49,0,0,1-.53,0,.83.83,0,0,0-.24.17.55.55,0,0,1-.6.16c-.26-.06-.3-.19-.11-.42l0,0,0-.38a.21.21,0,0,1,0-.11,13.42,13.42,0,0,1-.07-1.47.49.49,0,0,1,.41-.46c.27-.09.43,0,.47.21s.06.44.08.71a.79.79,0,0,1,.2-.17l.4-.15a.74.74,0,0,1,.22-.35.48.48,0,0,1,.34-.17h2.2a6.47,6.47,0,0,1,2.37.08h0l.11,0c.16,0,.22.14.16.29A7.55,7.55,0,0,1,134.42,29Zm-6.72.71.59-.06.62-.2a3.86,3.86,0,0,0-1.39.24Z" transform="translate(-14 -20.85)"/>
    <path class="a" d="M147.62,37.51c.26-.07.42,0,.46.28a.42.42,0,0,1-.32.51,7,7,0,0,0-.75.24l-1.34.52q-1.95.8-3.39,1.53a9.81,9.81,0,0,0-2.27,2l-.21.29-.2.28a.59.59,0,0,1-.28.14.5.5,0,0,1-.35.15.29.29,0,0,1-.3-.17,14.2,14.2,0,0,1-1.09-2.71.39.39,0,0,1,.18-.46.55.55,0,0,1,.48-.12.76.76,0,0,1,.37-.23c.41-.69,1-1.68,1.85-3l.93-1.48c.36-.55.67-1.05.94-1.51a30.86,30.86,0,0,0,3-6.66c0-.11.08-.25.14-.43l.07-.25.1-.26c.14-.45.25-.83.32-1.13a7.37,7.37,0,0,0-2,.89,5.22,5.22,0,0,0-1.13,2,.45.45,0,0,1-.21.24.81.81,0,0,1-.35.14,5.2,5.2,0,0,0-.18.63.52.52,0,0,1-.21.26.51.51,0,0,1-.41.32.3.3,0,0,1-.39-.17.28.28,0,0,1-.2-.24l0-.45-.06-.47c0-.37-.06-.69-.08-1a6.83,6.83,0,0,1,.13-1.85v0A.5.5,0,0,1,141,25l.24-.26.27-.28.54-.59a14.54,14.54,0,0,1,1.23-1.14c1-.82,1.9-1.09,2.62-.81a2.35,2.35,0,0,1,1.59,2,1,1,0,0,1,.42-.13c.14,0,.19.08.17.22a19.1,19.1,0,0,1-1.55,5.13c.07.05.08.13,0,.25l-.83,2c-.32.78-.6,1.45-.85,2-.65,1.52-1.25,2.84-1.8,4a14.18,14.18,0,0,1,4.6-.46c.21,0,.28.07.22.21a.93.93,0,0,1-.32.34Zm-8,3.54,0,.1,0,.07.11-.13.11-.14Zm.86-1-.07.18.73-.41.11-.2Zm1.31-1.43,0,0c-.16.08-.32.18-.48.28l.14-.05h0l0,0,.14-.09Zm.41-.83q.95-1.85,2-4.29l-.51.88c-.48.83-1,1.67-1.47,2.49l-.39.66-.39.66C141.62,38,141.89,37.9,142.17,37.77Zm-.72,2.72.51-.28.71-.44a7.49,7.49,0,0,0-1.1.55l-.06.09Zm1.49-16,.27-.31a3.64,3.64,0,0,0-.57.54A3.06,3.06,0,0,1,142.94,24.53Zm3,13.44,1.21-.3-1.25.24Z" transform="translate(-14 -20.85)"/>
    <path class="a" d="M155.5,23.32c1,.63,1.41,1.89,1.23,3.76a32.1,32.1,0,0,1-1.8,7.6,36.94,36.94,0,0,1-1.31,4.26,12.07,12.07,0,0,1-2,3.49,2.64,2.64,0,0,1-1.2.83,2,2,0,0,1-2.89-1.13,11.34,11.34,0,0,1-.41-5,40.6,40.6,0,0,1,1-6.09,25.51,25.51,0,0,1,1.39-4.44.55.55,0,0,1,.47-.33l0-.09a.55.55,0,0,1,.32-.29.53.53,0,0,1,.39,0l.13-.19.14-.17a.41.41,0,0,1,.45-.14.35.35,0,0,1,.27.34,8.38,8.38,0,0,1,1.69-2.19A1.65,1.65,0,0,1,155.5,23.32Zm-5.93,11.91c0-.18,0-.41,0-.67a19.56,19.56,0,0,0-.49,3.95,2.32,2.32,0,0,0,.61,1.84c.44.42.88.28,1.32-.43a13.85,13.85,0,0,0,1.24-2.74q.83-2.4,1.68-5.95l.19-.81.21-.83,0-.09,0-.11c0-.1.05-.19.07-.28s.11-.46.15-.67a6.14,6.14,0,0,0,.13-1.5,3.21,3.21,0,0,0-.33-.86l0,0,0-.05q-.66-.54-1.71,1.23a13.71,13.71,0,0,0-.8,1.55c-.21.47-.4.93-.57,1.39a26.84,26.84,0,0,0-.83,4.95.52.52,0,0,1-.45.52C149.71,35.7,149.57,35.56,149.57,35.23Z" transform="translate(-14 -20.85)"/>
    <path class="a" d="M164.84,37.51c.27-.07.42,0,.47.28a.42.42,0,0,1-.32.51,6.29,6.29,0,0,0-.76.24l-1.34.52q-1.95.8-3.39,1.53a9.75,9.75,0,0,0-2.26,2l-.21.29-.21.28a.55.55,0,0,1-.27.14.53.53,0,0,1-.36.15.28.28,0,0,1-.29-.17,14.23,14.23,0,0,1-1.1-2.71.41.41,0,0,1,.19-.46.54.54,0,0,1,.47-.12.84.84,0,0,1,.38-.23c.41-.69,1-1.68,1.85-3l.93-1.48c.35-.55.66-1.05.93-1.51a30.94,30.94,0,0,0,3-6.66c0-.11.08-.25.14-.43l.07-.25.09-.26c.15-.45.25-.83.33-1.13a7.37,7.37,0,0,0-2,.89,5.22,5.22,0,0,0-1.13,2,.5.5,0,0,1-.21.24.85.85,0,0,1-.36.14c-.07.23-.13.44-.17.63a1.87,1.87,0,0,1-.62.58c-.19,0-.33,0-.39-.17a.29.29,0,0,1-.21-.24l0-.45-.05-.47c0-.37-.07-.69-.08-1a7.31,7.31,0,0,1,.12-1.85v0a.55.55,0,0,1,.14-.37l.25-.26.26-.28.55-.59a14.54,14.54,0,0,1,1.23-1.14c1-.82,1.89-1.09,2.62-.81a2.35,2.35,0,0,1,1.59,2,1,1,0,0,1,.42-.13c.13,0,.19.08.17.22a19.1,19.1,0,0,1-1.55,5.13c.06.05.08.13,0,.25l-.83,2c-.32.78-.61,1.45-.86,2-.64,1.52-1.24,2.84-1.79,4a14.11,14.11,0,0,1,4.59-.46c.21,0,.29.07.23.21a.88.88,0,0,1-.33.34Zm-8,3.54,0,.1,0,.07.12-.13.11-.14Zm.87-1-.07.18.73-.41.11-.2ZM159,38.6l0,0c-.16.08-.32.18-.48.28l.14-.05h0l0,0,.13-.09Zm.41-.83c.62-1.23,1.28-2.66,2-4.29l-.52.88c-.48.83-1,1.67-1.46,2.49l-.39.66-.39.66C158.85,38,159.12,37.9,159.4,37.77Zm-.72,2.72.51-.28.71-.44a8.2,8.2,0,0,0-1.11.55l0,.09Zm1.48-16,.28-.31a3.64,3.64,0,0,0-.57.54Zm3,13.44,1.21-.3-1.25.24A.21.21,0,0,1,163.13,38Z" transform="translate(-14 -20.85)"/>
    <path class="a" d="M172.73,23.32c1,.63,1.41,1.89,1.23,3.76a32.1,32.1,0,0,1-1.8,7.6,34.83,34.83,0,0,1-1.32,4.26,11.85,11.85,0,0,1-2,3.49,2.62,2.62,0,0,1-1.19.83,2,2,0,0,1-2.89-1.13,11.34,11.34,0,0,1-.41-5,39.36,39.36,0,0,1,1-6.09,25.51,25.51,0,0,1,1.39-4.44.55.55,0,0,1,.47-.33l0-.09a.58.58,0,0,1,.71-.3l.13-.19.13-.17a.43.43,0,0,1,.46-.14.35.35,0,0,1,.27.34,8.38,8.38,0,0,1,1.69-2.19A1.65,1.65,0,0,1,172.73,23.32Zm-5.94,11.91v-.67a20.23,20.23,0,0,0-.48,3.95,2.32,2.32,0,0,0,.61,1.84c.44.42.87.28,1.32-.43a14.45,14.45,0,0,0,1.24-2.74q.83-2.4,1.68-5.95l.19-.81.2-.83,0-.09,0-.11c0-.1,0-.19.07-.28s.11-.46.15-.67a6.14,6.14,0,0,0,.13-1.5,3.21,3.21,0,0,0-.33-.86l0,0V26c-.45-.36-1,.05-1.71,1.23a13.71,13.71,0,0,0-.8,1.55c-.21.47-.4.93-.57,1.39a26.84,26.84,0,0,0-.83,4.95.52.52,0,0,1-.45.52C166.94,35.7,166.8,35.56,166.79,35.23Z" transform="translate(-14 -20.85)"/>
  </g>
</svg>
