<?xml version="1.0" encoding="utf-8"?>
<!-- Generator: Adobe Illustrator 25.2.0, SVG Export Plug-In . SVG Version: 6.00 Build 0)  -->
<svg version="1.1" id="_Слой_1" xmlns="http://www.w3.org/2000/svg" xmlns:xlink="http://www.w3.org/1999/xlink" x="0px"
	 y="0px" viewBox="0 0 214.1 231.9" style="enable-background:new 0 0 214.1 231.9;" xml:space="preserve">
<style type="text/css">
	.st0{fill:url(#SVGID_1_);}
	.st1{fill:none;stroke:#FFFFFF;stroke-width:0.934;}
</style>
<g>
	<g>
		<linearGradient id="SVGID_1_" gradientUnits="userSpaceOnUse" x1="110.8914" y1="9.8998" x2="103.9012" y2="240.5759">
			<stop  offset="0.1803" style="stop-color:#3B1501"/>
			<stop  offset="0.1855" style="stop-color:#491D01"/>
			<stop  offset="0.1995" style="stop-color:#693101"/>
			<stop  offset="0.2147" style="stop-color:#834000"/>
			<stop  offset="0.2314" style="stop-color:#984D00"/>
			<stop  offset="0.2501" style="stop-color:#A65500"/>
			<stop  offset="0.2728" style="stop-color:#AE5A00"/>
			<stop  offset="0.3101" style="stop-color:#B15C00"/>
			<stop  offset="0.3716" style="stop-color:#914900"/>
			<stop  offset="0.445" style="stop-color:#723601"/>
			<stop  offset="0.5219" style="stop-color:#5A2701"/>
			<stop  offset="0.6028" style="stop-color:#481D01"/>
			<stop  offset="0.6904" style="stop-color:#3E1701"/>
			<stop  offset="0.7965" style="stop-color:#3B1501"/>
		</linearGradient>
		<path class="st0" d="M63.5,193.1c-3.1-1.2-5.4-3.4-6.8-6.6c-1.4-3.2-2.3-7.1-2.5-11.6c-0.2-4.5,0-9.3,0.7-14.5
			c0.7-5.2,1.6-10.3,2.8-15.4c1.2-5.1,2.5-9.9,4-14.4c1.4-4.5,2.8-8.3,4.1-11.5l1.6-0.9c-0.7,2-1.5,4.9-2.5,8.8
			c-1,3.9-2,8.3-2.8,13.3c-0.9,5-1.5,10.1-2,15.4c-0.5,5.3-0.5,10.3-0.1,15c0.4,4.7,1.3,8.7,2.8,12.2c1.5,3.5,3.8,5.8,6.9,7
			c4.9,1.2,10.3-0.4,16.3-4.8c5.9-4.4,11.9-10.7,17.9-18.8c6-8.1,11.8-17.5,17.4-28.3c5.6-10.7,10.6-21.9,15-33.6
			c4.3-11.6,7.9-23.3,10.6-34.9c2.7-11.6,4.1-22.3,4.2-31.9c0.1-9-1.1-16.1-3.5-21.2c-2.5-5.1-6-7.7-10.5-7.7
			c-3.6-0.7-7.2,0-10.9,2.4c-3.7,2.3-7.1,5.5-10.4,9.5c-3.3,4-6.3,8.4-9.2,13.4c-2.8,5-5.3,9.7-7.3,14.1c-2,4.4-3.6,8.3-4.8,11.7
			c-1.2,3.4-1.6,5.5-1.4,6.4c0.3,0.9,0.6,1.3,1,1.1c0.5-0.1,1.2-1.2,2.2-3.2c1-1.9,2-4.2,3-6.8c1-2.6,2-5.1,2.9-7.7
			c0.9-2.6,1.6-4.6,2-6.1l0.7-0.2c-0.1,1.4-0.5,3.5-1.2,6.4c-0.7,2.9-1.5,5.9-2.5,8.8c-1,2.9-2.1,5.6-3.3,8
			c-1.2,2.4-2.4,3.8-3.5,4.3c-0.9,0.3-1.7,0.1-2.4-0.6c-0.7-0.7-1.2-1.5-1.5-2.4c-0.9-3.3-0.9-7.1-0.1-11.5
			c0.8-4.4,2.1-8.9,4.1-13.5c2-4.7,4.4-9.3,7.4-13.9c2.9-4.6,6.2-8.7,9.8-12.3c3.6-3.6,7.3-6.5,11.2-8.7c3.9-2.2,7.8-3.3,11.8-3.5
			c2.7,0,5.4,0.8,8,2.4s4.9,4.1,6.9,7.7c2,3.5,3.7,8.1,4.9,13.7c1.3,5.6,1.8,12.6,1.7,20.8c-0.1,11.3-1.7,22.9-4.8,34.9
			c-3.1,12-7.2,23.7-12.2,34.9c-5.1,11.3-10.8,21.8-17.3,31.6c-6.5,9.8-13.1,18.2-19.9,25c-6.8,6.8-13.5,11.9-20.1,15.2
			C74.7,194.2,68.8,194.9,63.5,193.1z M159.7,106.4c-2.6,0.8-5.2,1.4-7.8,2c-2.6,0.6-5.3,1.2-8.1,1.8c-2.8,0.6-5.8,1.2-8.9,1.8
			c-3.1,0.6-6.5,1.3-10.2,2c-5.5,0.9-10,1.7-13.4,2.3c-3.4,0.6-5.9,0.8-7.3,0.5c-1.5-0.1-2.8-1-3.8-2.6c-1-1.6-1.4-4-1.2-7.3
			c0.2-2.6,0.9-4.4,2-5.4c1.2-1,2.4-1.4,3.8-1.1c0.4,0,0.8,0.3,1.2,0.8c0.4,0.5,0.8,0.8,1.1,0.8l-0.3,1.1c-0.5-0.7-1-1.1-1.6-1.1
			c-3-0.1-4.5,0.8-4.6,2.9c0,0.9,0.1,1.6,0.4,2.1c0.3,0.5,0.9,0.9,1.9,1c1,0.2,3,0.2,6.1,0.2c3.1,0,6.7-0.1,10.8-0.2
			c4.1-0.1,8.4-0.4,13-0.7c4.6-0.3,8.8-0.6,12.7-0.9c3.9-0.3,7.2-0.6,9.9-0.9c2.7-0.3,4.2-0.5,4.5-0.7L159.7,106.4z"/>
	</g>
	<g>
		<path class="st1" d="M63.5,193.1c-3.1-1.2-5.4-3.4-6.8-6.6c-1.4-3.2-2.3-7.1-2.5-11.6c-0.2-4.5,0-9.3,0.7-14.5
			c0.7-5.2,1.6-10.3,2.8-15.4c1.2-5.1,2.5-9.9,4-14.4c1.4-4.5,2.8-8.3,4.1-11.5l1.6-0.9c-0.7,2-1.5,4.9-2.5,8.8
			c-1,3.9-2,8.3-2.8,13.3c-0.9,5-1.5,10.1-2,15.4c-0.5,5.3-0.5,10.3-0.1,15c0.4,4.7,1.3,8.7,2.8,12.2c1.5,3.5,3.8,5.8,6.9,7
			c4.9,1.2,10.3-0.4,16.3-4.8c5.9-4.4,11.9-10.7,17.9-18.8c6-8.1,11.8-17.5,17.4-28.3c5.6-10.7,10.6-21.9,15-33.6
			c4.3-11.6,7.9-23.3,10.6-34.9c2.7-11.6,4.1-22.3,4.2-31.9c0.1-9-1.1-16.1-3.5-21.2c-2.5-5.1-6-7.7-10.5-7.7
			c-3.6-0.7-7.2,0-10.9,2.4c-3.7,2.3-7.1,5.5-10.4,9.5c-3.3,4-6.3,8.4-9.2,13.4c-2.8,5-5.3,9.7-7.3,14.1c-2,4.4-3.6,8.3-4.8,11.7
			c-1.2,3.4-1.6,5.5-1.4,6.4c0.3,0.9,0.6,1.3,1,1.1c0.5-0.1,1.2-1.2,2.2-3.2c1-1.9,2-4.2,3-6.8c1-2.6,2-5.1,2.9-7.7
			c0.9-2.6,1.6-4.6,2-6.1l0.7-0.2c-0.1,1.4-0.5,3.5-1.2,6.4c-0.7,2.9-1.5,5.9-2.5,8.8c-1,2.9-2.1,5.6-3.3,8
			c-1.2,2.4-2.4,3.8-3.5,4.3c-0.9,0.3-1.7,0.1-2.4-0.6c-0.7-0.7-1.2-1.5-1.5-2.4c-0.9-3.3-0.9-7.1-0.1-11.5
			c0.8-4.4,2.1-8.9,4.1-13.5c2-4.7,4.4-9.3,7.4-13.9c2.9-4.6,6.2-8.7,9.8-12.3c3.6-3.6,7.3-6.5,11.2-8.7c3.9-2.2,7.8-3.3,11.8-3.5
			c2.7,0,5.4,0.8,8,2.4s4.9,4.1,6.9,7.7c2,3.5,3.7,8.1,4.9,13.7c1.3,5.6,1.8,12.6,1.7,20.8c-0.1,11.3-1.7,22.9-4.8,34.9
			c-3.1,12-7.2,23.7-12.2,34.9c-5.1,11.3-10.8,21.8-17.3,31.6c-6.5,9.8-13.1,18.2-19.9,25c-6.8,6.8-13.5,11.9-20.1,15.2
			C74.7,194.2,68.8,194.9,63.5,193.1z M159.7,106.4c-2.6,0.8-5.2,1.4-7.8,2c-2.6,0.6-5.3,1.2-8.1,1.8c-2.8,0.6-5.8,1.2-8.9,1.8
			c-3.1,0.6-6.5,1.3-10.2,2c-5.5,0.9-10,1.7-13.4,2.3c-3.4,0.6-5.9,0.8-7.3,0.5c-1.5-0.1-2.8-1-3.8-2.6c-1-1.6-1.4-4-1.2-7.3
			c0.2-2.6,0.9-4.4,2-5.4c1.2-1,2.4-1.4,3.8-1.1c0.4,0,0.8,0.3,1.2,0.8c0.4,0.5,0.8,0.8,1.1,0.8l-0.3,1.1c-0.5-0.7-1-1.1-1.6-1.1
			c-3-0.1-4.5,0.8-4.6,2.9c0,0.9,0.1,1.6,0.4,2.1c0.3,0.5,0.9,0.9,1.9,1c1,0.2,3,0.2,6.1,0.2c3.1,0,6.7-0.1,10.8-0.2
			c4.1-0.1,8.4-0.4,13-0.7c4.6-0.3,8.8-0.6,12.7-0.9c3.9-0.3,7.2-0.6,9.9-0.9c2.7-0.3,4.2-0.5,4.5-0.7L159.7,106.4z"/>
	</g>
</g>
</svg>
