<svg xmlns="http://www.w3.org/2000/svg" xmlns:xlink="http://www.w3.org/1999/xlink" viewBox="0 0 169.42 141.16">
  <defs>
    <linearGradient id="a" data-name="Безымянный градиент 6" x1="83.36" y1="136.44" x2="84.82" y2="3.79" gradientUnits="userSpaceOnUse">
      <stop offset="0.55" stop-color="#3b1501"/>
      <stop offset="0.64" stop-color="#b05b00"/>
      <stop offset="0.65" stop-color="#a45400"/>
      <stop offset="0.67" stop-color="#7e3d00"/>
      <stop offset="0.7" stop-color="#612c01"/>
      <stop offset="0.72" stop-color="#4c1f01"/>
      <stop offset="0.75" stop-color="#3f1801"/>
      <stop offset="0.77" stop-color="#3b1501"/>
    </linearGradient>
  </defs>
  <g>
    <path d="M22.17,139.54q-11.65-.14-17-8.49A31.66,31.66,0,0,1,.43,112q.86-16.2,11.94-31.62T41.49,51.43q-11.89-12-11.89-28,0-14.51,10-23.06l.71.26q-9.95,8.67-9.94,22.8,0,15.68,11.79,27.6A212.8,212.8,0,0,1,93.3,23.38q28.17-10.69,46.92-10.69,14.19,0,20.88,5.76T167.77,32a22.21,22.21,0,0,1-1.91,8.49,35,35,0,0,1-7,10,55.33,55.33,0,0,1-12.5,9.72q-7.47,4.33-19.89,7.25A121.16,121.16,0,0,1,98.7,70.37q-31.64,0-50.1-12.85Q29.42,73.45,17.6,90.3T4.84,122.18a14.1,14.1,0,0,0,4.54,11.6q5,4.72,13.78,4.85,12.5,0,26-6.86a68.71,68.71,0,0,0,23-18.92q9.53-12.06,9.52-25,0-6.73-3.69-10.56a13,13,0,0,0-9.81-3.82q-9.51,0-19.1,7.12A57.12,57.12,0,0,0,33.81,97.24q-5.69,9.53-5.69,17.17T33.25,124l-.57.52q-5.4-2.07-5.4-10.11,0-5.82,3.55-13.08a62.54,62.54,0,0,1,9.09-13.61A50.47,50.47,0,0,1,53.14,77a30.49,30.49,0,0,1,15-4.34q6.54,0,10.44,4.08t3.91,11.08a38.33,38.33,0,0,1-5.75,19.7,58.76,58.76,0,0,1-14.63,16.58A81.11,81.11,0,0,1,42.6,135.27,55.18,55.18,0,0,1,22.17,139.54ZM140.22,13.46q-17.06,0-42.62,12.31a237.35,237.35,0,0,0-48.3,31.1Q67.77,69.44,98.74,69.44a121.44,121.44,0,0,0,27.34-2.85q12.29-2.85,19.68-7.13A54.74,54.74,0,0,0,158.12,50,34.78,34.78,0,0,0,165,40.27,21.15,21.15,0,0,0,166.92,32q0-7.64-6.46-13.08T140.22,13.46Z" transform="translate(0.65 0.62)" style="fill: none;stroke: #fff;stroke-linejoin: round;stroke-width: 2px"/>
    <path d="M22.17,139.54q-11.65-.14-17-8.49A31.66,31.66,0,0,1,.43,112q.86-16.2,11.94-31.62T41.49,51.43q-11.89-12-11.89-28,0-14.51,10-23.06l.71.26q-9.95,8.67-9.94,22.8,0,15.68,11.79,27.6A212.8,212.8,0,0,1,93.3,23.38q28.17-10.69,46.92-10.69,14.19,0,20.88,5.76T167.77,32a22.21,22.21,0,0,1-1.91,8.49,35,35,0,0,1-7,10,55.33,55.33,0,0,1-12.5,9.72q-7.47,4.33-19.89,7.25A121.16,121.16,0,0,1,98.7,70.37q-31.64,0-50.1-12.85Q29.42,73.45,17.6,90.3T4.84,122.18a14.1,14.1,0,0,0,4.54,11.6q5,4.72,13.78,4.85,12.5,0,26-6.86a68.71,68.71,0,0,0,23-18.92q9.53-12.06,9.52-25,0-6.73-3.69-10.56a13,13,0,0,0-9.81-3.82q-9.51,0-19.1,7.12A57.12,57.12,0,0,0,33.81,97.24q-5.69,9.53-5.69,17.17T33.25,124l-.57.52q-5.4-2.07-5.4-10.11,0-5.82,3.55-13.08a62.54,62.54,0,0,1,9.09-13.61A50.47,50.47,0,0,1,53.14,77a30.49,30.49,0,0,1,15-4.34q6.54,0,10.44,4.08t3.91,11.08a38.33,38.33,0,0,1-5.75,19.7,58.76,58.76,0,0,1-14.63,16.58A81.11,81.11,0,0,1,42.6,135.27,55.18,55.18,0,0,1,22.17,139.54ZM140.22,13.46q-17.06,0-42.62,12.31a237.35,237.35,0,0,0-48.3,31.1Q67.77,69.44,98.74,69.44a121.44,121.44,0,0,0,27.34-2.85q12.29-2.85,19.68-7.13A54.74,54.74,0,0,0,158.12,50,34.78,34.78,0,0,0,165,40.27,21.15,21.15,0,0,0,166.92,32q0-7.64-6.46-13.08T140.22,13.46Z" transform="translate(0.65 0.62)" style="fill: url(#a)"/>
  </g>
</svg>
