<svg xmlns="http://www.w3.org/2000/svg" viewBox="0 0 286.75 197.98"><defs><style>.a{fill:#f90505;}.b{fill:#fff;}</style></defs><path class="a" d="M512.58,310.53q-7.35,19.05-1.11,43.81c.17.69-.32,1.31-1.45,1.88a8,8,0,0,1-3.33,1q-.35,1.46-3.42,2.13c-2,.4-3.3.14-3.76-.77l-.17-.34a2,2,0,0,1-1.62-1.37l-.68-3.5a1.74,1.74,0,0,1-1-1.19,45,45,0,0,1-1.28-7.77,44.12,44.12,0,0,1-3.84,4,41.12,41.12,0,0,1-9,8.2q-7.35,4.69-14.18-.09a11.54,11.54,0,0,1-2.47-1.36,6.67,6.67,0,0,1-4.79-3.42q-2.22-2.56-2.73-7.51a24.84,24.84,0,0,1,.51-8.72l.09-.42.17-.86.26-.94q3.66-14.68,10.67-24.59,8.63-12.39,21.18-15.46,14.26-3.58,16,12.13a6,6,0,0,1,3.67-.77c1.31.11,1.91.77,1.8,2-.12.86-.26,1.83-.43,2.91C512.44,309.68,512.75,310,512.58,310.53ZM469.79,347c.57-.57,1.23-1.28,2-2.14.22-.28.48-.62.77-1l.34-.51.25-.35a93.1,93.1,0,0,0,13.15-22.88q2.14-7.69.52-13.67a8.39,8.39,0,0,0-.43-1.36,38.48,38.48,0,0,0-2.65,3.41c-.34.46-.68.94-1,1.45l-.34.52L482,311q-9.47,14.69-11.87,26.9Q469,343.76,469.79,347Zm9.57,4.27a50,50,0,0,0,6.4-5.89l.34-.6c1.6-2.34,3.08-4.61,4.44-6.83A91.29,91.29,0,0,1,482.09,348a27.51,27.51,0,0,1-7.43,5.21A8.13,8.13,0,0,0,479.36,351.27Z" transform="translate(-457.58 -218.13)"/><path class="b" d="M580.56,307q2.75,5.63.43,12.46A39.76,39.76,0,0,1,574.33,331q-12.72,16.23-25.28,22.29Q537.61,359.47,528,356q-10.25,37.9-18.45,57.47c-.45,1.14-1.79,2-4,2.48s-3.3,0-3.25-1.63l.09-1.45-.09-.17v-.17q.35-9.22,1.54-19.64,1.45-15.54,4.1-29.29a125.13,125.13,0,0,1,5.63-25.88q1.71-5.29,4.36-12.47l2.31-6.15,2.39-6.23q3.07-9.64,6.66-19.56c.34-1,1.54-1.76,3.59-2.22s3.18-.28,3.58.51a1.72,1.72,0,0,1,1,.43q4.95,4.35,2.64,19.56,19-18.29,30.49-14.61l.6-.17a3.61,3.61,0,0,1,3.25.34c.85.63.93,1.32.25,2.05l.43.35q4.95.25,5.38,4.86C580.53,305.12,580.56,306,580.56,307Zm-59.43,46.88-1,5.21,1.71-6.15Zm4-17.34,3.07-4.27v-.08l-.51.6-.51.51a3.11,3.11,0,0,1-1.45.77Zm8.8-.17-.09.09-.09.08c-.34,1-.74,2.22-1.19,3.59l-.51,1.62-.52,1.54-1.45,4.87-.94,3.41a4.37,4.37,0,0,1,2.22-.08,13.35,13.35,0,0,0,5.47.26c-.74-.4-.6-1.06.43-2l3.67-3.07,3.67-3.25q4.18-3.68,7.09-6.74a49.72,49.72,0,0,0,10.76-16.06l.17-.34.17-.43.51-1.37c.46-1.25.89-2.47,1.28-3.67q-3.5-6.06-15.62,5.13a119,119,0,0,0-8.89,9.22q-1.62,1.8-3.41,3.93c-.34.45-.77,1-1.28,1.54l-.51.59-.43.52-.09.08-.25.34Zm32.19-30.57h0Z" transform="translate(-457.58 -218.13)"/><path class="b" d="M599.62,328.64a132.69,132.69,0,0,0,9.9,19.55q1.2,1.89-1.79,3.16t-4.44.17l-.52-.42a46.85,46.85,0,0,1-6.66-6,61.17,61.17,0,0,1-4.69-4.7q-5.22,7.26-9.82,12.64a5.42,5.42,0,0,1-3,1.37,6.34,6.34,0,0,1-3.51.17l-1.45,1.62-1.45,1.62c-.57.57-2,1.09-4.18,1.54s-3.28.09-2.82-.94a98.84,98.84,0,0,1,9.31-16.05q4.18-8.88,8-16.14a75.69,75.69,0,0,1-7.61-32.11v-.6c0-1.2,1.14-2.05,3.42-2.56s3.62-.12,3.84,1.19l.43,2.56a5.8,5.8,0,0,1,3.76-1.36c1.59-.12,2.5.34,2.73,1.36q1.62,7.18,3.5,13.75a164.19,164.19,0,0,1,22.8-29.38c.57-.56,2-1.05,4.27-1.45s3.25,0,2.74.86l-.26.51h-.08q-1.55,2.73-3.93,6.66l.59-.6a4.08,4.08,0,0,1,1.54-.68,16.51,16.51,0,0,1,2.48-.51c2.16-.23,3,.11,2.48,1l-.43.94-.51.86a9.21,9.21,0,0,1,3.67-.6c1.31.06,1.85.42,1.62,1.11a48.78,48.78,0,0,1-6.92,12q-1.78,2.48-4.44,5.55l-2.3,2.73-2.31,2.65L611.06,314,608.5,318a4.73,4.73,0,0,1-2.22,1.28l-1.8,2.22Z" transform="translate(-457.58 -218.13)"/><path class="b" d="M660.85,341.36a17,17,0,0,0,7,11.19q1.36.94-1.8,2.13a11.51,11.51,0,0,1-2.39.69,10.64,10.64,0,0,1-1.45.25q-6.57-.42-9.22-4.86c-1-.06-1.54-.37-1.54-.94a35.41,35.41,0,0,1-.17-5c-.06-.86-.09-1.74-.09-2.65q-6.91,7.61-13.66,9.14a36.49,36.49,0,0,1-5.12,2.56c-.52,1.14-1,2.25-1.37,3.33-.34.86-1.31,1.54-2.9,2a5.48,5.48,0,0,1-3.68.09q-16.4-7.77-12.47-27a66.79,66.79,0,0,1,6-16.23,123,123,0,0,1,8.63-14.17,4.19,4.19,0,0,1,1.79-1.11,14.11,14.11,0,0,1,2.82-.69,9.37,9.37,0,0,1,4.18-1c1.66-.06,2.31.26,2,.94l-.51,1-.52,1c1.77-.17,2.59.08,2.48.77-.4,1.7-1.17,4.44-2.31,8.19l-.68,2.31-.68,2.31-1.37,4.69Q630.89,332,632,339.06a155,155,0,0,0,14.77-16.4q2.4-3,6.83-8.8l3.42-4.44,3.5-4.35q.94-1.29,4.44-1.63t2.22,1.37l-.42.68-.43.6a6.25,6.25,0,0,1,2.39-.17c.68.12.88.46.6,1l-.34.85-.52.94.18.17.08.09q3.42,5.29-.26,15.37c-.79,2.22-2.05,5.12-3.75,8.71l-2,4.27C662,338.94,661.37,340.28,660.85,341.36Z" transform="translate(-457.58 -218.13)"/><path class="b" d="M735.84,221q6.4.69,8,6.75a21.35,21.35,0,0,1-.68,11.19q-3.93,13-15.29,28-11.53,15.28-24.08,23.91-3.42,4.28-6,7.6a10.57,10.57,0,0,1,3.24.68,2,2,0,0,1,.69.35q6.22-1.8,8.2,2.81a11,11,0,0,1,3.58,3.85q5.64,10.08-2,27.07a135.47,135.47,0,0,1-7.34,13.58l-1.88,3.07-.94,1.45-.94,1.46q-2.22,3.49-3.24,5.21a4.36,4.36,0,0,1-3,1.7,5.31,5.31,0,0,1-3.5-.25q-8.46,11.7-14.27,9.22c-2.1-.51-3.9-2.62-5.38-6.32-1.65,0-2.56-.63-2.73-1.88v-.77l-.26-3.24q-5.62-12.21-.94-32a121.1,121.1,0,0,1,5.21-16.39q2.49-6.58,6.07-14.1,1.53-3.4,3.76-8.19l3.75-8.29q4.62-10.34,7.77-16.65,9.66-19,20-30.23,3.84-6.06,7.09-10.51a4.34,4.34,0,0,1,3.67-1.45h.85a4,4,0,0,1,1.63.43l.25-.26a5.4,5.4,0,0,1,4.44-.42c1.94.45,2.36,1.31,1.28,2.56A17.09,17.09,0,0,1,735.84,221ZM679.14,359c1.19-.28,2.79-2.64,4.78-7.08q1-2.14,2.3-5.38l.43-1.2.43-1.2.77-1.79,1.88-4.27,1.79-4.27q2.06-5,3.33-8.54a62.25,62.25,0,0,0,3.93-17.68A26.67,26.67,0,0,1,695.7,309a4.64,4.64,0,0,1-3.16.08l-1.11.77q-4.18,8.53-6.91,14.94a206.21,206.21,0,0,0-7.26,31.09A6.39,6.39,0,0,0,679.14,359Zm28.43-82.75q19-24,22-41.33a45.47,45.47,0,0,0-7.86,6.66Q717.15,255,707.57,276.2Zm27.76-49.53q-3.51-5.89-10,3.24l-.26.94a40.15,40.15,0,0,1,7.18-3.84A5.59,5.59,0,0,1,735.33,226.67Z" transform="translate(-457.58 -218.13)"/></svg>