<svg xmlns="http://www.w3.org/2000/svg" viewBox="0 0 451.58 168.43"><defs><style>.a{fill:#2ea4c5;}</style></defs><path class="a" d="M290,330.57h-.88l-.87-1.58.87-.35ZM396.51,276.7l-7,25.71c-.46,1-1,2.27-1.48,3.67a7.52,7.52,0,0,0-.61,3.5h-.7a1.52,1.52,0,0,1-1.05-.53l-1.05,1.23a2.1,2.1,0,0,0,.26,1.92q.62,1.05,1.14,2.1c-.35,1.05-.82,2.25-1.4,3.59s-1.05,2.53-1.4,3.58l-2.8,2.1a4.85,4.85,0,0,1-.35,1.49,4.09,4.09,0,0,1-.88,1.48v-3l-4.89-5.42-2.28.52v2.45a2.33,2.33,0,0,0,1.4.79,2.48,2.48,0,0,0,1.93-.26,12.7,12.7,0,0,0-.79,2.45,3.33,3.33,0,0,0,.26,2.27,11.27,11.27,0,0,0-1.57.17,3.6,3.6,0,0,0-1.93,1l5.43,8.75a5.78,5.78,0,0,0,2-1.84,11.08,11.08,0,0,0,1.48-2.71v1.75a1.88,1.88,0,0,0,.53,1.4,1.55,1.55,0,0,1,1.57-.26,3.3,3.3,0,0,1,1.58.78,9.24,9.24,0,0,0-1.66.35,2.73,2.73,0,0,1-2.19-.17l-2.45,1.92,1.4,3.68a4.94,4.94,0,0,0-1.4.26,2.39,2.39,0,0,0-1.4,1.14q.52.87,1.23.78a9.6,9.6,0,0,1,1.22-.09c.35,0,.35.24,0,.7a11.18,11.18,0,0,1-1.05,1.23v6.3a4.32,4.32,0,0,0,.61,1.13c.41.64.79,1.23,1.14,1.75a6.49,6.49,0,0,1,.61,1.05c.06.18-.2-.14-.79-1-.81-.23-1.51-.47-2.09-.7a2.08,2.08,0,0,1-1.23-1.23l-1.05,1.23a6.05,6.05,0,0,0,2.1,4.2,1.68,1.68,0,0,1-1.14-.7,1.63,1.63,0,0,0-1.13-.7l-4,14.34a8.48,8.48,0,0,1,1.67,1.4,2.07,2.07,0,0,0,1.66.7v7.52a2.78,2.78,0,0,1-1.49-.79,11,11,0,0,0-2-1.31l.87,2.27a2.63,2.63,0,0,0,1.4.7,7.39,7.39,0,0,0,1.4.18,3.31,3.31,0,0,1-1.31.79,4.42,4.42,0,0,1-1.31.26c-.24-.35-.59-.85-1.05-1.49a3.56,3.56,0,0,0-2.1-1.31l-4,12.42v4L366.6,399a1.5,1.5,0,0,0-1.31-.78,5.72,5.72,0,0,1-2-.62,10.45,10.45,0,0,0-1,1.93,2.76,2.76,0,0,1-1.4,1.4l.35,6.47c.35-.35.84-.15,1.49.61a11.27,11.27,0,0,1,1.48,2.19l-1.57-2.1-1.4,2.1c-.12,0-.18-.12-.18-.35a.64.64,0,0,1-.17-.44,1,1,0,0,0-.35-.61,4.7,4.7,0,0,0-1.22,3.5,1.94,1.94,0,0,0-.53-.35,2.67,2.67,0,0,0-1.05-.36l-1.05,1.23,2.1,4-3,5.95q-1,0-3.15-2.1a2.12,2.12,0,0,0-1.31.79c-.53.52-1,1-1.31,1.31-.47.12-1.46-.58-3-2.1-1.05,0-1.92.7-2.62,2.1a2.4,2.4,0,0,1-1.84-.88q-.78-.87-1.83-1.92c-1.17.24-2.05,1.17-2.63,2.8a2.37,2.37,0,0,1-1.83-.88c-.53-.58-1.14-1.22-1.84-1.92l-1.49,1.14a4.81,4.81,0,0,0-1.31,1.66,2.64,2.64,0,0,1-.52-.7,1.68,1.68,0,0,1-.53-1.22,7.17,7.17,0,0,0,2.19-1.93,9.92,9.92,0,0,0,1.66-2.8,8.54,8.54,0,0,0,1.31,2.8,7,7,0,0,0,1.49,1.75l2.45-1.92V417l-3.33-2.1v-4a2.69,2.69,0,0,1,1.4,1.83,12.75,12.75,0,0,0,.88,2.36c.35-.7.7-1.45,1.05-2.27a2.69,2.69,0,0,1,1.4-1.57,3,3,0,0,0-1-.7.68.68,0,0,1-.43-.7c.35-1.05-.24-2.34-1.75-3.85-.7.35-1.46.76-2.28,1.22a4,4,0,0,0-1.74,2.28v-.18A.35.35,0,0,1,334,409a.68.68,0,0,0,.09-.44L330.75,406a2.26,2.26,0,0,0-1.4.87,5.49,5.49,0,0,0-.79,1.49,8.05,8.05,0,0,0-.35,1.57c-.06.53-.09.85-.09,1a11.86,11.86,0,0,1-.87-2.45,9.07,9.07,0,0,0-.87-2.28H328a2.46,2.46,0,0,0,1.83-.7V403.5l-1.22-1.05h-1.58c-.93,0-1.34,0-1.22.09a1.15,1.15,0,0,1,.35.61V398.6c-.35-.46-.93-.4-1.75.18a8.64,8.64,0,0,0-.52-2.63L322.88,393l-7-26.41a3,3,0,0,1,.61-1.75,10.94,10.94,0,0,1,1.14-1.4,1.09,1.09,0,0,0,0,1.75l12.24-15-8.92-4c-1.75.24-3.26-.61-4.54-2.53a26.94,26.94,0,0,1-3.15-6.56l-3.85,1.4v1.92c0,1.17.73,2.36,2.19,3.59a34.35,34.35,0,0,0,4.89,3.41q2.72,1.58,5.16,2.88c1.63.88,2.74,1.49,3.33,1.84l-9.62,11.72-19.77-75.38a.68.68,0,0,1-.52-.18,3.19,3.19,0,0,0-.88-.35l-2.8-11h15.22c0,.47.41,1.11,1.22,1.93.36,0,.73-.27,1.14-.79a2.34,2.34,0,0,0,.61-1.31H314l1.57-1.4a8.77,8.77,0,0,0,1.14,1,2,2,0,0,0,1.13.44l3,17.84c0,.35.26.73.79,1.13a4.85,4.85,0,0,1,1.31,1.67v2.44a2.42,2.42,0,0,1-1.05.18,5.71,5.71,0,0,0-1.58.26,6.62,6.62,0,0,0-1.57.7,1.44,1.44,0,0,0-.7,1.31l2.45,1.93,3-2.1a3.55,3.55,0,0,1-1.22,2.45,1.1,1.1,0,0,0,1,.43,5.64,5.64,0,0,1,1-.08L332,329.17q-1.92,1.92-1.14,3.76a44.38,44.38,0,0,1,1.67,4.81,11.18,11.18,0,0,0,1.05-1.23,1.52,1.52,0,0,1,1.22-.7,4.68,4.68,0,0,1-.87,2.28c-.59.93-1.11,1.75-1.58,2.45l-9.27-12.6a3.39,3.39,0,0,0-2.27,1.23v1.92l11.72,15.22a5.2,5.2,0,0,0,2.18-.53,2.41,2.41,0,0,1,2.19,0l-.7,2.8,14,7.7v4h-3.85l-2.62-1.4a.5.5,0,0,0-.35.18,1,1,0,0,0-.17.7,11.88,11.88,0,0,0,2,2.18,17.34,17.34,0,0,1,2,2,1.94,1.94,0,0,0-.18.88,1.82,1.82,0,0,0-.17.78,1.8,1.8,0,0,1-.35,1,9.78,9.78,0,0,1-4.64-1.75,24.12,24.12,0,0,1-4.37-3.76,29.1,29.1,0,0,1-3.5-4.64,13,13,0,0,1-1.83-4.55l-13.47,14.35a.48.48,0,0,0-.18.35c0,.11.18.35.53.7l10.49-9.8,12.25,16.44v7.35l-5.43-5.6a4.75,4.75,0,0,0-1,.09,2,2,0,0,0-1,.61l-7-9.09-1,1.22a4.08,4.08,0,0,0-.09,1.57,5.58,5.58,0,0,0,.61,2.1l-3-1.4L322.88,372a2.55,2.55,0,0,0,.7,2.45,18.49,18.49,0,0,0,2.62,2.45,20.3,20.3,0,0,0,3.32,2.09,15.32,15.32,0,0,0,3.15,1.23l-9.09,10a1.77,1.77,0,0,0,.52,1.13,1.45,1.45,0,0,0,1,.62l9.27-10L343,392l2.62-.7q.52,0,1.14.78a14,14,0,0,0,1.14,1.32,5.91,5.91,0,0,0,1.48-.27,2.3,2.3,0,0,1,1.84.27l.18-.18a1,1,0,0,0,.35-.7,2.65,2.65,0,0,1-1.32-1.14,6.26,6.26,0,0,0-1.31-1.66h-4.37v-2.62l2.8-1.23-1.4-4a14.23,14.23,0,0,0-1.4-.78,5.21,5.21,0,0,1-1.4-1l2.8.7,9.79-38.65a2,2,0,0,1,1.23.7c.46.47.87.88,1.22,1.22l1.05-1c0-.34-.26-.72-.79-1.13a2.31,2.31,0,0,0-1.31-.61,20,20,0,0,1,.35-3.5,7,7,0,0,0-.17-3.5c-.12.24-.12.41,0,.53s.23.4.7.87a4.1,4.1,0,0,0,.52-1.75v-5.77l4.2-7.7a2.42,2.42,0,0,0-.44-1.22,6.72,6.72,0,0,0-1-1.23v-9.44l4.2-1.92a.71.71,0,0,1-.53-.18,3.18,3.18,0,0,0-.87-.35l3-11c.47,0,1.11-.4,1.93-1.22a3.36,3.36,0,0,0-2.1-1.23l4.37-15.91Zm-98.29,53.69a20.44,20.44,0,0,1-1.4,2,5.59,5.59,0,0,1-1.93,1.66l1.93-2.44q0-1.23-1.05-1.23Zm1-34.8a2.14,2.14,0,0,0,0-2.8,4.55,4.55,0,0,1-1.23.87,1.32,1.32,0,0,1-.52.18Zm2.79,38.65h-1.22v-2.62h1.22Zm2.45-43.2a4.21,4.21,0,0,0-1.05-.7,1.73,1.73,0,0,1-.52-.35q-.53,0-1.14,1.14a4.12,4.12,0,0,0-.61,1.66h2.45a4.21,4.21,0,0,0,.7-1.05A1.64,1.64,0,0,0,304.51,291Zm3.5-8.57a4.14,4.14,0,0,1-2-.53,2.47,2.47,0,0,0-2.19,0,1.88,1.88,0,0,1,1.58,1.58,4.48,4.48,0,0,0,1.31-.26A3.38,3.38,0,0,0,308,282.47Zm2.1,11.54c0-.35-.32-.78-1-1.31a18.34,18.34,0,0,1-1.49-1.31,2.94,2.94,0,0,0-.7,1.66,16.54,16.54,0,0,1-.52,2.27,10.67,10.67,0,0,1-1,2.19,2.34,2.34,0,0,1-1.66,1.23,5.32,5.32,0,0,0,1.49.78,4.12,4.12,0,0,0,1.31.26,13.16,13.16,0,0,1,1.22-3.23A6.5,6.5,0,0,1,310.11,294Zm-4,15.74-.35-1.05-1.75.88v1.05Zm1.92,4.73a1.23,1.23,0,0,0-.61-1,8.77,8.77,0,0,1-1.14-1,5.79,5.79,0,0,0-1.05,1.75,2.87,2.87,0,0,0-.35,1.75,6.15,6.15,0,0,1,1.58-1.05A4,4,0,0,1,308,314.48ZM307,319.55c-.35,0-.58.23-.7.7a4.93,4.93,0,0,0-.17,1.22q.53,0,1.05-1T307,319.55Zm1.92-39a1.68,1.68,0,0,1-1.22-.53,2.64,2.64,0,0,1-.7-.52c-.35.35-.2.61.44.78A6,6,0,0,0,308.88,280.55Zm2.63,10.14a1.52,1.52,0,0,0-.53-1.05l-1.05-1.05a1.07,1.07,0,0,0-.61.18c-.17.11-.38.23-.61.35l-.52.52Zm1.4,22.39a20,20,0,0,1-1-2.28,5.82,5.82,0,0,1-.44-1.75h-2.63a2,2,0,0,0,.09,2,3.66,3.66,0,0,1,.61,2Zm3.32-7.87a9.6,9.6,0,0,0-.17-1.49c-.12-.64-.35-1-.7-1-.35.35-.3.76.17,1.22A1.92,1.92,0,0,1,316.23,305.21Zm5.07,26.58L315.18,333v3.84l6.12,3.68a16.32,16.32,0,0,0-1-2.54,11.9,11.9,0,0,1-.87-2.45,4.14,4.14,0,0,1,0-2.1C319.64,332.81,320.25,332.26,321.3,331.79Zm-3.5-26.23a4.31,4.31,0,0,0-1.74,1.66,3.79,3.79,0,0,0-.7,1.66,3,3,0,0,0,1.48-1.57A18.79,18.79,0,0,1,317.8,305.56Zm-.87-6.48a2.74,2.74,0,0,0-.7,1.4,1.77,1.77,0,0,0,.18,1.4,1.8,1.8,0,0,0,1-1.4A1.68,1.68,0,0,0,316.93,299.08Zm7.17,17.67a1.88,1.88,0,0,0-1.22.7,1.9,1.9,0,0,0-.7,1.22,2.9,2.9,0,0,0,1.48-.7C324.3,317.51,324.45,317.1,324.1,316.75Zm5.77,79.05-.87-2.44a2.51,2.51,0,0,0-1.31.52,7.89,7.89,0,0,0-1.31,1.05l.87,2.45a2.54,2.54,0,0,0,1.31-.53A8.33,8.33,0,0,0,329.87,395.8Zm2.63,5.25v-2.8l-4,.88a2.82,2.82,0,0,0,.35,1.22c.24.47.82.7,1.75.7Zm-.88-8.39a1.52,1.52,0,0,1-.7-.18,5.08,5.08,0,0,1-1.05-.87,1.72,1.72,0,0,1,.62-1.14,1.66,1.66,0,0,1,1.13-.61c.35,0,.53.38.53,1.13A2.29,2.29,0,0,1,331.62,392.66Zm.53,19.06h-1l-.7,3.15h1.05Zm1.75-25.36c-.47-.46-.82-.67-1-.61a1,1,0,0,0-.62.52,4.66,4.66,0,0,0-.43,1,1.14,1.14,0,0,1-.53.7,4.58,4.58,0,0,0,1.23.88,1.48,1.48,0,0,0,.7.17c.35-.7.63-1.31.87-1.83S334.25,386.36,333.9,386.36Zm2.27,17-3.15-.88a4.66,4.66,0,0,0-.87,1.22,1.55,1.55,0,0,0-.18.7h1.4a1.9,1.9,0,0,1,1.4.53,1.67,1.67,0,0,0-.52,1.22v.53a10,10,0,0,0,1.22-1.66A4,4,0,0,0,336.17,403.33Zm5.6-9.1a1.85,1.85,0,0,0-1.58,0,2.16,2.16,0,0,0-.78.87,3.64,3.64,0,0,0-.36,1,1.23,1.23,0,0,1-.26.7,1.93,1.93,0,0,0-3,0,1.63,1.63,0,0,1-.44-1.4c.06-.58.09-1,.09-1.39a3.34,3.34,0,0,0-1.57.69q-1,.71-1,1.23a2.39,2.39,0,0,1,1.66.79,2.94,2.94,0,0,1,.52,1.4c.06.52.12,1,.18,1.48a2.74,2.74,0,0,0,.43,1.23l2.45.87Zm-5.25-60.69h-1.23v-1.92h1.23Zm1.4,57.54v-1.92h-1.23v1.92Zm5.25-54.57c0,.35-.3.76-.88,1.23a2.16,2.16,0,0,0-.87,1.75,1.1,1.1,0,0,0-.44-.88,11.45,11.45,0,0,1-1-.87,3.31,3.31,0,0,0-.79,1.31c-.18.52-.44.79-.79.79a5.35,5.35,0,0,0-.35-1.58,2.67,2.67,0,0,1,.18-2.1.47.47,0,0,1-.35-.17,1.22,1.22,0,0,0-.88-.35v-2.8a4.25,4.25,0,0,1,.88,1.4,4.08,4.08,0,0,0,.87,1.4,15.32,15.32,0,0,1,2.19.17A7.47,7.47,0,0,1,343.17,336.51Zm1.74,8.75h-7.17l1.05-1.75a4.82,4.82,0,0,1,1.23-1.4,6.59,6.59,0,0,1,1.66.35,7.24,7.24,0,0,0,2.19.35,4.94,4.94,0,0,0,.26,1.4A1.41,1.41,0,0,0,344.91,345.26Zm-3.84-17.67h-2.63v-1.22h2.63Zm1.22,84a2.73,2.73,0,0,0-1.4,1.84,9.43,9.43,0,0,0-.35,2.36c1.28-.93,1.95-1.8,2-2.62A2.19,2.19,0,0,0,342.29,411.54Zm3-12.41a4,4,0,0,0-2.62.17c-.82.35-1.34.59-1.57.7l3.32,1.05a1.81,1.81,0,0,0,.44-.61,3.26,3.26,0,0,1,.26-.61A1.67,1.67,0,0,0,345.26,399.13Zm0,10.84v-2.45a4.47,4.47,0,0,0-2.62.09,6,6,0,0,0-1.4.61,2.9,2.9,0,0,0,.35,1.23,1.94,1.94,0,0,0,.35.52,2.86,2.86,0,0,0,3.32,0Zm0,9.1v-2.45a4.39,4.39,0,0,0-2.62.09,5.55,5.55,0,0,0-1.4.61,2.58,2.58,0,0,0,.53,1.31,8.83,8.83,0,0,0,1.05,1.31Zm4.2-6.65a1.77,1.77,0,0,1-1.13-.52c-.41-.36-.79-.7-1.14-1a2.51,2.51,0,0,0-1.31.52,8.45,8.45,0,0,0-1.32,1.05l1.05,4Zm-1-7.35c-.35-.11-.7-.55-1.05-1.31s-.7-1-1.05-.61c-.35-.35-.7-.2-1.05.44a3.43,3.43,0,0,0-.52,1.48Zm-.35-34.45c-.23-.93-.73-1.14-1.48-.61s-1.14.84-1.14,1C344.85,371.55,345.73,371.44,348.06,370.62Zm1.4-39.53h-4v-1.22h4Zm-1.92,10.32-2.1.88v-1.05l1.75-.88Zm.52,52.65h-2.62a7.92,7.92,0,0,0,.17,1.39,2.66,2.66,0,0,0,.7,1.4c.35,0,.73-.37,1.14-1.13A4.12,4.12,0,0,0,348.06,394.06Zm1.4-58.25a1.6,1.6,0,0,1-.17.7,4.88,4.88,0,0,0-.27.62,1.76,1.76,0,0,1-.43.61,1.64,1.64,0,0,1-1.14-.7,2,2,0,0,1-.61-1.23ZM349.11,367l-.87,1.74-1.05-.34.87-1.75Zm1.75,41.27a4.21,4.21,0,0,0-1.05-.7,1.44,1.44,0,0,0-.52-.17,1.19,1.19,0,0,0-1,.61,9.72,9.72,0,0,1-1,1.14,3,3,0,0,0,2.36.08Q350.86,408.75,350.86,408.22Zm-.52-8.22a2.83,2.83,0,0,0-.79-1.48c-.53-.64-1-1-1.31-1v3.33a6.12,6.12,0,0,0,1.31-.18C350.07,400.59,350.34,400.35,350.34,400Zm.17-52.82-1.05-.35-.87,1.75,1.05.53Zm.35,70.14a1.68,1.68,0,0,0-.61-.44,4.1,4.1,0,0,1-.61-.26,1.35,1.35,0,0,0-.53-.18,3.2,3.2,0,0,0,0,3.5,5.32,5.32,0,0,0,1.23-1.31A2.54,2.54,0,0,0,350.86,417.32Zm2.45-71.19c-.59,0-1-.14-1.14-.43a5,5,0,0,0-.78-1l-.35.35a1,1,0,0,0-.35.7A2.41,2.41,0,0,0,350,344l1.05-1a4.59,4.59,0,0,0-1.32-.87,1.38,1.38,0,0,1-.78-1.4l3.49-1.4a4,4,0,0,0-.43-1.57.66.66,0,0,0-.7-.26,1.55,1.55,0,0,0-.79.43,1.15,1.15,0,0,1-.87.35,7.62,7.62,0,0,1,1.75-1.4,2.82,2.82,0,0,1,1.22-.35c.35,0,.58.3.7.88Zm.35,59.64a5.76,5.76,0,0,0-.61-.78l-.44-.44-.35-.18a5.28,5.28,0,0,1-1.31.18c-.41,0-.61.17-.61.52Zm.17,8.4a2.33,2.33,0,0,1-1.83.35,12,12,0,0,0-1.66-.18,4.31,4.31,0,0,1,.7-1.75,4.13,4.13,0,0,1,1.75-1.74ZM353,389.68a1.22,1.22,0,0,0-.53-1,6.54,6.54,0,0,1-1-1.14c-.35.47-.27.94.26,1.4A2.19,2.19,0,0,0,353,389.68Zm-.35,7h-1.22v-2.62h1.22Zm.7-64.54-.52-3.15a3,3,0,0,0,.78,1.14C354,330.54,353.89,331.21,353.31,332.14Zm3.15,67h-2.63a2.39,2.39,0,0,0,.62,1.13c.4.53.78.79,1.13.79a1.68,1.68,0,0,0,.44-.61,5.53,5.53,0,0,1,.26-.61A1.55,1.55,0,0,0,356.46,399.13Zm-.88,20.11a1.67,1.67,0,0,1-.7-.17,4.63,4.63,0,0,1-1.05-.7,3.52,3.52,0,0,1,.27-1.23c.17-.46.43-.7.78-.7s.64.38.88,1.14A1.58,1.58,0,0,1,355.58,419.24Zm.7-8.39a6.22,6.22,0,0,0-.61-2.45A7.86,7.86,0,0,0,354,406v4a4.72,4.72,0,0,1,1.05.18A2.56,2.56,0,0,1,356.28,410.85Zm-.17-87.45-.88,1.75-1.05-.35.88-1.75Zm2.27,79.75a1.75,1.75,0,0,1,0,2.8l-1.75-1.75.53-.53a6.67,6.67,0,0,0,.61-.34A1,1,0,0,1,358.38,403.15Zm4.55-73.28a3.75,3.75,0,0,0-.61-1.58q-.61-1.05-1.14-1.05a1,1,0,0,0-.87.62,5.55,5.55,0,0,1-.88,1.13,1.92,1.92,0,0,1,.44.61,4.66,4.66,0,0,0,.26.62,1.32,1.32,0,0,1,.18.52,6,6,0,0,0,1.31-.17A2.65,2.65,0,0,0,362.93,329.87Zm-.88,6.47c-.34,0-.72.38-1.13,1.14s-.5,1.31-.26,1.66c.58,0,1-.38,1.39-1.14S362.4,336.69,362.05,336.34Zm1.75,75-1.75,1.75-.7-.7,1.75-1.75Zm.53-6.12L364,404.2l-1.75.87v1.05Zm1.22-88.67a11.38,11.38,0,0,0-.17-1.58c-.12-.7-.35-1.05-.7-1.05a1,1,0,0,0-.61.18c-.18.11-.38.23-.62.35a1.73,1.73,0,0,0-.52.35c0,.35.35.73,1.05,1.13A3.64,3.64,0,0,0,365.55,316.58Zm.88,8.39a.68.68,0,0,0-.18-.52,2,2,0,0,1-.35-.53l-.35-.7h-2.62a2.69,2.69,0,0,0,1.75,1.93A1.73,1.73,0,0,0,366.43,325Zm0,9.09-1.23-1.22a1.93,1.93,0,0,0-1.22-.7c-.35,0-.64.47-.88,1.4a6.16,6.16,0,0,0-.17,1.4Zm-.88,10a13.42,13.42,0,0,0-.17-1.66c-.12-.75-.35-1.13-.7-1.13a1.09,1.09,0,0,0-.61.17,4.42,4.42,0,0,1-.62.35l-.52.53c0,.35.35.73,1.05,1.13A3.59,3.59,0,0,0,365.55,344Zm6.3,64.72-1.75-2.1a5,5,0,0,1-3.06.09,5.77,5.77,0,0,0-2-.44l6.12-2.45a6.16,6.16,0,0,0,.35,1.66A11.73,11.73,0,0,1,371.85,408.75Zm-2.62-97.07v-3.33a3.3,3.3,0,0,0-1.84,1c-.76.64-1.31,1.13-1.66,1.48a4.63,4.63,0,0,1,.7,1.05,1.47,1.47,0,0,1,.17.53,11.81,11.81,0,0,0,1.31-.09A2.14,2.14,0,0,0,369.23,311.68Zm0,9.09a3.64,3.64,0,0,0-.62-1.57c-.41-.7-.78-1.05-1.13-1.05s-.73.35-1.14,1.05a3.59,3.59,0,0,0-.61,1.57,3.15,3.15,0,0,0,3.5,0Zm-.18,10v-3.32a2.78,2.78,0,0,1-1.05-.35,1.11,1.11,0,0,1-.52-.53,7.4,7.4,0,0,0-1.14,1.67,4.12,4.12,0,0,0-.61,1.66Zm.18,7.52a1.07,1.07,0,0,0-.18-.61,5.51,5.51,0,0,1-.35-.61l-.35-.7-2.62.87a2.76,2.76,0,0,0,.35,1.23,2.81,2.81,0,0,0,.52.7Zm.87-48.09h-1.05l-.7,2.27.88.52Zm2.45,35.67a5.26,5.26,0,0,0-.53-1.74,5.66,5.66,0,0,0-1-1.75,3.85,3.85,0,0,0-1.66,1.57,4.1,4.1,0,0,0-.78,1.75,3.32,3.32,0,0,0,2.27.26A3.89,3.89,0,0,1,372.55,325.84Zm.17-10a1.15,1.15,0,0,0-.17-.62,3.78,3.78,0,0,1-.35-.61l-.35-.7H369.4a2.14,2.14,0,0,0-.61,1.31,12.13,12.13,0,0,0-.09,1.32ZM372.55,333H368.7a3.93,3.93,0,0,0,1.4,2.62c.35,0,.84-.35,1.49-1.05S372.55,333.37,372.55,333Zm.7-28.86-4,1.4a2.65,2.65,0,0,0,1.92,1.92,11,11,0,0,1,1.31-2A3,3,0,0,0,373.25,304.16ZM371.32,351l-.35,1.05-1.74-.87.35-1Zm1.4-61.91a8.91,8.91,0,0,0-1.48-1.14,2.52,2.52,0,0,1-1.14-1.14v2.28Zm-.52,52.29h-1.05l-.7,2.45.87.35Zm1.92,56.49a.74.74,0,0,0-.17-.52,1.8,1.8,0,0,1-.35-.53l-.35-.7h-2.63l.88,3.33a4,4,0,0,0,1.57-.53Q374.12,398.43,374.12,397.9Zm0-112.81-2.62-.87v1l2.27.7Zm4.2,21.69a1.2,1.2,0,0,0-.61-1,8.77,8.77,0,0,1-1.14-1L375,307h-3a4.42,4.42,0,0,0,2.89.52A15,15,0,0,0,378.32,306.78Zm-2.8,4-1.75-1.75L372,310.63a2,2,0,0,0,.62,1.22,1.61,1.61,0,0,0,1.13.7,1,1,0,0,0,.88-.61A5.23,5.23,0,0,1,375.52,310.8Zm-1,28.34c.35-.35.41-.93.18-1.75a4.11,4.11,0,0,0-.88-1.75,2.7,2.7,0,0,0-.7,1.4,8,8,0,0,0-.17,1.4,2.78,2.78,0,0,1,1.05.35A1.87,1.87,0,0,1,374.47,339.14Zm1.23,56.14v-2.62h-1.05v2.62Zm2.45-78.7V314l-3.33.88a2.82,2.82,0,0,0,.35,1.22,1.14,1.14,0,0,0,.53.53Zm-.35,10.84-.7,3.15h-1.05l.7-3.15Zm.17,21.16-1.05-.35-.87,1.93.87.35Zm3.85-28.68a2.19,2.19,0,0,0-.53-1.23,12,12,0,0,0-1.05-1.22,4.07,4.07,0,0,0-1.92,1.49c-.58.76-.82,1.37-.7,1.83l2.45,1.58a5.18,5.18,0,0,0,.79-1,3.82,3.82,0,0,1,.61-.78Zm-.7-8.22a4.42,4.42,0,0,0-.26-1.31,3.35,3.35,0,0,0-.79-1.32,1.77,1.77,0,0,1-.61.44,6.54,6.54,0,0,0-.62.26,1.32,1.32,0,0,1-.52.18,6,6,0,0,0,.18,1.31,2.52,2.52,0,0,0,.69,1.31,2.76,2.76,0,0,0,1.23-.35A2.81,2.81,0,0,0,381.12,311.68Zm0,55.09a4.42,4.42,0,0,1-.26,1.31,3.35,3.35,0,0,1-.79,1.32l-1.75-2.63Zm-.53-71-.52-1.05-1.57.88v1.05Zm-1.22,5.42a1.56,1.56,0,0,0-.44.7,3.12,3.12,0,0,1-.26.7,2.68,2.68,0,0,0-.17.7c.34-.35.67-.7,1-1A.7.7,0,0,0,379.37,301.18Zm1.4,58.77-1,1.75-.88-.35.88-1.75Zm3.85-43.37A3.67,3.67,0,0,0,384,315c-.41-.7-.78-1.05-1.13-1.05a1,1,0,0,0-.61.18c-.18.11-.38.23-.62.35a1.73,1.73,0,0,0-.52.35,2.69,2.69,0,0,0,.35,1.22,1.11,1.11,0,0,0,.52.53Zm-1.23-32-1.05-1.05-.7.7,1.05,1Zm4.55,14.51v-3.32l-4.37-.87L382,296.46c-.35.35,0,.61,1,.79a7.92,7.92,0,0,0,3.41-.26Zm-4.2,8.58a1.12,1.12,0,0,0,.09-1.4,5.19,5.19,0,0,0-1-1.4,1.44,1.44,0,0,0-.35,1.4A2,2,0,0,0,383.74,307.66Zm7-17.67-.53-2.62-3.32-.7V290a9.17,9.17,0,0,0,2.45-.26A1.3,1.3,0,0,1,390.74,290Z" transform="translate(-288.25 -271.28)"/><path class="a" d="M395.28,400.53l-.87,4h-2.62a16,16,0,0,0-.18-1.84,6.51,6.51,0,0,1,.35-2.88Zm-.17-11.37a8.69,8.69,0,0,0-1.66.26,8,8,0,0,1-1.66.26,4.11,4.11,0,0,0,.87-1.75,13,13,0,0,1,.87-2.27,6.6,6.6,0,0,1,1.05,1.49A4.14,4.14,0,0,1,395.11,389.16Zm-.53-30.43a2.61,2.61,0,0,1-1.31.7,6.61,6.61,0,0,1-1.31.17V357a3.59,3.59,0,0,1,1.57.61Q394.58,358.21,394.58,358.73Zm5.6,37.25a3.52,3.52,0,0,1-1.22.79,3.31,3.31,0,0,0-1.23.78,3.35,3.35,0,0,0-1.22-.78,3.47,3.47,0,0,1-1.23-.79,4.6,4.6,0,0,1,.44-1.57,4.7,4.7,0,0,0,.44-1.58l4,.7Zm0-14.69a3.35,3.35,0,0,1-1.22.78,3.47,3.47,0,0,0-1.23.79L396,381.29v-2.63a3,3,0,0,0,1.4-.35,2.87,2.87,0,0,1,1.23-.34,5.67,5.67,0,0,1,1.05,1.66A4.81,4.81,0,0,1,400.18,381.29Zm-.7-16.44a2.76,2.76,0,0,1-.79,1.48,2.29,2.29,0,0,1-1.83,1,1.73,1.73,0,0,1-.27-1.67,8,8,0,0,0,.27-1.66,6.12,6.12,0,0,1,1.31.18A2.65,2.65,0,0,1,399.48,364.85Zm31-53.17a2.87,2.87,0,0,1-1.58.7,14.65,14.65,0,0,1-2.44.17h-3.15a5,5,0,0,1-.27,1.23,6.81,6.81,0,0,0-.26,1.92,5.28,5.28,0,0,0,1.31,1.22,4.81,4.81,0,0,0,1.84.88c.11.58.29,1.31.53,2.19s.49,1.72.78,2.53a6.07,6.07,0,0,0,1.23,2.1,2.54,2.54,0,0,0,2,.87,3.47,3.47,0,0,0-.79,1.23c-.17.47-.73.7-1.66.7s-1.4-.12-1.4-.35-.47-.35-1.4-.35a3.33,3.33,0,0,0-2.19.79,2.47,2.47,0,0,0-1,2,2.68,2.68,0,0,0,1.49,2.18c1,.65,1.78,1.2,2.36,1.67a19,19,0,0,1,.26,1.92,13.94,13.94,0,0,0,.35,2.1,6,6,0,0,0,1,2,4.49,4.49,0,0,0,2.28,1.49,1.31,1.31,0,0,1-1.49.17,7,7,0,0,0-2.36-.35,4.56,4.56,0,0,0-2.54.88,2.64,2.64,0,0,0-1.31,2.27,2.38,2.38,0,0,0,.61,1.31,12.71,12.71,0,0,0,1.49,1.58l1.75,1.57a10.42,10.42,0,0,1,1.4,1.49c.11.11.09.23-.09.35a2.5,2.5,0,0,0-.61.7,4.1,4.1,0,0,0,2.27,2.62v2.62a5.3,5.3,0,0,1-1.57-.35,8.47,8.47,0,0,0-2.62-.35l-1.23,1.23V360a1.79,1.79,0,0,0,1.31.53,1.57,1.57,0,0,1,1.14.34,3.29,3.29,0,0,0,1.49,2.19,10,10,0,0,1,2.36,2.54,6.11,6.11,0,0,1-1.4,1.83,6.12,6.12,0,0,0-1.4,1.84.5.5,0,0,0-.18.35c0,.12.18.35.53.7a2.12,2.12,0,0,1,2.45-.7c-.7.24-1.55.5-2.54.79s-2,.61-3.06,1a4.91,4.91,0,0,1,1.23,2.45,22.39,22.39,0,0,0,.43,2.27,4,4,0,0,0,1.05,1.84,4.12,4.12,0,0,0,2.89.78V382a2.46,2.46,0,0,1-1.58.61,1.89,1.89,0,0,1-1.57-.44,20.25,20.25,0,0,0-.7,7.7.69.69,0,0,0-.44-.7,3.11,3.11,0,0,1-1-.7,13.19,13.19,0,0,0-1.57,3.15c-.47,1.28-.91,2.59-1.31,3.93s-.82,2.54-1.23,3.59a3.1,3.1,0,0,1-1.49,1.92H413a1,1,0,0,0-.53-.87,7.43,7.43,0,0,1-1.05-.88,7.38,7.38,0,0,1,1.58-.7,2.13,2.13,0,0,0,1.4-1.22,3.47,3.47,0,0,1-.7-.88c-.12-.23-.65-.35-1.58-.35a5.23,5.23,0,0,0-1.48.09c-.06.06-.09.26-.09.61a30.51,30.51,0,0,0,.17-3.49,30.84,30.84,0,0,1,.27-4.11,10.63,10.63,0,0,1,1-3.42,2.5,2.5,0,0,1,2.45-1.39,1.68,1.68,0,0,0-.7-1.14q-.7-.62-1.23-1.14a1.89,1.89,0,0,0-1.13,1.4,3.67,3.67,0,0,1-1,1.75,48.27,48.27,0,0,1-4.46,4.9,16.76,16.76,0,0,0-3.93,5.94,29.19,29.19,0,0,0-.35-4.37,15,15,0,0,0-1.4-4.37,4.77,4.77,0,0,1,1.75-1.84,8.71,8.71,0,0,1,2.62-1.13,1.68,1.68,0,0,0-.87-1.32c-.59-.4-1.17-.84-1.75-1.31-.12-1.28-.32-2.82-.61-4.63a27.12,27.12,0,0,1-.44-4.11c0-.35,0-1.34.09-3s.17-3.52.35-5.68.35-4.4.52-6.73.38-4.38.61-6.12q.18-5.43.09-12.95t-.26-14.43q-.18-6.9-.35-11.89c-.12-3.32-.18-5.22-.18-5.68V288.77a1.91,1.91,0,0,0,1.05-.35,3.67,3.67,0,0,1,1.93-.35,4.71,4.71,0,0,1,2.62,1,7.82,7.82,0,0,1,2.1,2,15.67,15.67,0,0,1-.35,5.6,26.41,26.41,0,0,0-.7,6.12,13.36,13.36,0,0,0,3.59-2.28,23.35,23.35,0,0,0,3.32-3.49,19.12,19.12,0,0,0,2.36-3.94,9.17,9.17,0,0,0,.87-3.58,5.6,5.6,0,0,0-1.92-4.46,28.85,28.85,0,0,1-4.37-5.16,15.59,15.59,0,0,1,4.81-.35c1.8.11,4.81.17,9,.17,0,1.75,0,4,.08,6.65s.09,5.42.09,8.22a2.39,2.39,0,0,0,1.84.35,4.25,4.25,0,0,1,2.36.35c-.12,1.28-.47,2.07-1.05,2.36a5.16,5.16,0,0,1-1.93.52l-2.18.18a2.32,2.32,0,0,0-1.84,1.31,36.5,36.5,0,0,1,3.76,5.77Q428.87,308.53,430.44,311.68ZM409.27,417.84a5.27,5.27,0,0,1-1.39-.26,5.56,5.56,0,0,0-2.8.26,1.22,1.22,0,0,1-.35.88c-.24.23-.35.81-.35,1.74a3.44,3.44,0,0,0,.79,2.1,2.4,2.4,0,0,0,2,1.05c.93,0,1.42-.08,1.48-.26s.26-.26.61-.26v2.45a29.08,29.08,0,0,1-5.33-.35,14.24,14.24,0,0,0-2.19-.35v-8a4.49,4.49,0,0,1,1.32-1.13,12.3,12.3,0,0,0,2-1.67v-1.92a3.62,3.62,0,0,0-1.31-1.31,3.72,3.72,0,0,0-2-.61c0-1-.06-2.42-.17-4.11a31.46,31.46,0,0,0-1.23-6.21,24.5,24.5,0,0,0,2.37,3.41c1,1.22,2,2.42,3,3.58s1.84,2.19,2.54,3.06a3.93,3.93,0,0,1,1,2Zm-1.39-87.27a5.7,5.7,0,0,0-.35-1.58,5.3,5.3,0,0,1-.35-1.57h-2.63L403,329.34a1.83,1.83,0,0,0,.44,1,2,2,0,0,1,.43,1.13,2.75,2.75,0,0,0,2.28.09A3.37,3.37,0,0,0,407.88,330.57ZM407,346.31a5.22,5.22,0,0,0,.53-2.36,2.56,2.56,0,0,0-.53-1.84h-3.15l-.87,2.1a1.75,1.75,0,0,0,.52,1q.53.61,1.05,1.14Zm.18-46.87a2.79,2.79,0,0,1-1.23-.36,1.05,1.05,0,0,1-.52-.52,15.09,15.09,0,0,0-1.14,1.31,2.34,2.34,0,0,0-.61,1.31,2.53,2.53,0,0,0,1.31.7,6,6,0,0,0,1.31.18,2.65,2.65,0,0,0,.7-1.31A6.2,6.2,0,0,0,407.18,299.44Zm0,14h-2.63l-.87,2.45a2.61,2.61,0,0,0,1.31.7,7.25,7.25,0,0,0,1.49.17Zm.7,44.42a8,8,0,0,0-1.58-1.14,3.72,3.72,0,0,0-1.57-.61,2.35,2.35,0,0,0-.35,1.84,13.25,13.25,0,0,1,.17,1.66h2.63a2.61,2.61,0,0,1,.35-1.05Zm-.7,15.74a2.25,2.25,0,0,0-1.05-1.83,3.16,3.16,0,0,0-1.58-.79,6.24,6.24,0,0,0,.44,1.75,6.16,6.16,0,0,1,.44,1.75,3.73,3.73,0,0,1,1.05-.7A1.49,1.49,0,0,1,407.18,373.59Zm1.4,4.2a5.45,5.45,0,0,0-.18-1.22,1.69,1.69,0,0,0-.7-1.05,1.58,1.58,0,0,0-1.22.17l-.7.35a2.69,2.69,0,0,0,1.4,1.4A3.87,3.87,0,0,0,408.58,377.79Zm4.19-56.67-4-.7-.87,2.1a3.58,3.58,0,0,0,1.66,1.4,4.61,4.61,0,0,0,1.66.53,5.88,5.88,0,0,0,1.05-1.67A4.54,4.54,0,0,0,412.77,321.12Zm0,29.56a6.07,6.07,0,0,0-1.57-1.05,4,4,0,0,0-1.58-.52l-1.74,2.1a1.89,1.89,0,0,0,.43,1,2,2,0,0,1,.44,1.13h3.15a2.61,2.61,0,0,0,.7-1.31A6.61,6.61,0,0,0,412.77,350.68Zm.7-13.82a3.27,3.27,0,0,1-.78-1.22,3.56,3.56,0,0,0-.79-1.23h-3.85a10.6,10.6,0,0,0,.35,3.24,5.09,5.09,0,0,1,.35,1.66h3.15a3.43,3.43,0,0,0,.79-1.22A3.31,3.31,0,0,1,413.47,336.86Zm-.7-28.68a3.72,3.72,0,0,0-1.48-1.84,2.5,2.5,0,0,0-1.84-.61l-.7,3.32a2.82,2.82,0,0,1,1.22.35,2.76,2.76,0,0,0,1.23.35Zm-.7,58.42a6.09,6.09,0,0,0-.35-1.66,2.66,2.66,0,0,0-1.4-1.67,5,5,0,0,0-.52,2.28,2.43,2.43,0,0,0,.52,1.75,2.68,2.68,0,0,0,1.05-.35Zm0,12.06a2.69,2.69,0,0,1-1.22-.35l-.7-.34a12.13,12.13,0,0,0,.09,1.31,2.09,2.09,0,0,0,.61,1.31c0,.35.2.2.61-.44A3.14,3.14,0,0,0,412.07,378.66Zm6.47-49.49c-.35-.35-.9-.85-1.66-1.49a3.34,3.34,0,0,0-1.66-1,5,5,0,0,1-1.49,1,1.81,1.81,0,0,0-1,1.84,2.14,2.14,0,0,0,.61,1.83,9.72,9.72,0,0,1,1.14,1,4.7,4.7,0,0,0,1.58-.44,4.66,4.66,0,0,1,1.57-.44A3.08,3.08,0,0,1,418.54,329.17Zm-.87-14.87a7.9,7.9,0,0,0-1.57-1.14,3.75,3.75,0,0,0-1.58-.61,3.47,3.47,0,0,0-.79,1.23A3.35,3.35,0,0,1,413,315a4.46,4.46,0,0,0,1.57,1.75,3.35,3.35,0,0,0,1.58.7,6.07,6.07,0,0,0,1-1.57A4,4,0,0,0,417.67,314.3Zm.87,30.26a3.08,3.08,0,0,1-.87-2.27,4.66,4.66,0,0,1-1.57-.44,4.7,4.7,0,0,0-1.58-.44L413,343v2.45a6.07,6.07,0,0,0,1.57,1.05,4.08,4.08,0,0,0,1.58.53ZM417,302.06v-2.62a2.5,2.5,0,0,0-1.31-.7,6.12,6.12,0,0,0-1.31-.18l-.7,2.62Zm.7,57.54v-2.45l-1.57-1.75a2.45,2.45,0,0,0-1.23.44,2.42,2.42,0,0,1-1.22.44l.7,4A6.16,6.16,0,0,0,416,360,6.59,6.59,0,0,1,417.67,359.6Zm.17,13.12c-.34-.35-.78-.76-1.31-1.23s-1-.87-1.31-1.22c0,.7,0,1.46-.09,2.27s-.08,1.4-.08,1.75a3,3,0,0,0,1.4-.52A7,7,0,0,0,417.84,372.72Zm.53,5.07a4.93,4.93,0,0,0-.18-1.22,1.68,1.68,0,0,0-.69-1.05,1.6,1.6,0,0,0-1.23.17,2.21,2.21,0,0,0-.52.35,2.77,2.77,0,0,0,1.31,1.4A3.25,3.25,0,0,0,418.37,377.79Zm.7,13.64v-1.05l-3.32-.7v1.05Zm4.2-52.29v-3.85a5.46,5.46,0,0,0-1-1.05,3.07,3.07,0,0,0-2-.52A2.58,2.58,0,0,0,418,335.2a5.18,5.18,0,0,0-.87,2.54,11,11,0,0,1,1.13,1.4,2.29,2.29,0,0,0,2,.87,3.05,3.05,0,0,0,1.93-.44A1.64,1.64,0,0,1,423.27,339.14Zm-.7-32.71-3.15-.87-1.58,1.75a3.3,3.3,0,0,1,.79,1.22,3.43,3.43,0,0,0,.79,1.22h2.45Zm.87,15.57a3.72,3.72,0,0,1-.79-1.14,3.52,3.52,0,0,0-.78-1.14h-2.45a4,4,0,0,1-1.05.79c-.35.18-.53.73-.53,1.66a2.13,2.13,0,0,0,1.05,2q1,.61,2.1,1.14c.35-.35.85-.9,1.49-1.66A3.34,3.34,0,0,0,423.44,322Zm0,28.86L421,348.41a3.26,3.26,0,0,1-1.57.78,3.4,3.4,0,0,0-1.58.79v2.45a3.72,3.72,0,0,0,1.14.79,3.52,3.52,0,0,1,1.14.78A7.91,7.91,0,0,0,423.44,350.86Zm-1.57-56.67a2.37,2.37,0,0,0-1-1.84,2,2,0,0,0-1.67-.61,5.6,5.6,0,0,0,.18,1.4,4.19,4.19,0,0,0,.87,1.92,4.63,4.63,0,0,1,1-.7A1.47,1.47,0,0,1,421.87,294.19Zm.7,70-3.33-.88v4h2.63Zm6.29,61.56h-9.44V413.12l1.57,1.4a1.89,1.89,0,0,1,1.49-.61,2.57,2.57,0,0,0,1.66-.62c0-1.16-.7-2-2.1-2.62a12.12,12.12,0,0,0,2.63-2c1.05-1,1.92-1.84,2.62-2.54a9.53,9.53,0,0,1,.79,2.63c.17,1.05.43,2.45.78,4.19h-2.1a15.58,15.58,0,0,0-.69,3.42,13,13,0,0,1-1.23,4.1.8.8,0,0,1,.09,1.14c-.29.41,0,.61,1,.61s1.46-.11,1.57-.35a.71.71,0,0,1,.7-.35c0,.35,0,.91.09,1.67A9.33,9.33,0,0,0,428.86,425.71Zm-7-47a2.76,2.76,0,0,1-1.23-.35,1.94,1.94,0,0,1-.52-.34v1.31a1.78,1.78,0,0,0,.52,1.31c0,.35.24.2.7-.44S422,379,421.87,378.66Zm1.4,6.13a5.07,5.07,0,0,0-.18-1.23c-.12-.46-.35-.7-.7-.7a1.07,1.07,0,0,0-.61.18c-.17.11-.38.23-.61.35l-.53.52a2.57,2.57,0,0,0,1.32.7A6,6,0,0,0,423.27,384.79Zm7.87,8.22a10.32,10.32,0,0,1-1.58,1.22,10.81,10.81,0,0,0-1.57,1.22,4.12,4.12,0,0,1-.88-1.74,12.84,12.84,0,0,0-.87-2.28Zm2.8-88.15a1.39,1.39,0,0,0-1.05.35,2.81,2.81,0,0,1-1.75.35,2.49,2.49,0,0,1-2.1-.88,3.5,3.5,0,0,1-.7-2.27,4.09,4.09,0,0,1,2.27-3.85h2.45a3.55,3.55,0,0,1-1.22,2.45,2,2,0,0,0,1.05.61,2,2,0,0,1,1.05.61Zm-.88,14.69a8.07,8.07,0,0,1-1.57-.35,8.5,8.5,0,0,0-2.28-.35l-.87-.88v-2.44a3.62,3.62,0,0,1,2.36-1.32,5.42,5.42,0,0,0,2.36-1Zm-1.92,8.74a3.76,3.76,0,0,0-.35,2.28,17,17,0,0,1,.17,2.27h-2.62v-3.15A4,4,0,0,1,431.14,328.29Zm0,15.4c-.94.58-1.46,1.13-1.58,1.66a7.1,7.1,0,0,0,0,2.18c-.58,0-1-1.28-1.22-3.84Zm2.62,15.91a7.91,7.91,0,0,1-1.14-.09,1.93,1.93,0,0,1-1.13-.61,9.14,9.14,0,0,1-.79.7c-.29.24-.55.47-.79.7a3.64,3.64,0,0,1-.87.7,1.35,1.35,0,0,0,.35-1.31,6.12,6.12,0,0,1-.18-1.31,2.18,2.18,0,0,0,1.58-.44q1.05-.62,2.1-1.14a2.7,2.7,0,0,1,.7,1.4A8.13,8.13,0,0,1,433.76,359.6Zm-2.45,30.08h-1.05l-.7-2.27.88-.35Zm3.33-15.39a1.3,1.3,0,0,0-.53.18,3.73,3.73,0,0,0-1.05.7,4,4,0,0,1-1.57-.53,2,2,0,0,1-1.05-1.92c0-.93.06-1.37.17-1.31s.35-.09.7-.44l3.33.87Zm2.27-7h-1.23v-2.63h1.23Z" transform="translate(-288.25 -271.28)"/><path class="a" d="M431,325.49h-2.62v-1.22H431Zm3.5-7.34q-.88.18-2.1-1.23a7.92,7.92,0,0,0-2.8-2.09h3.32a5.81,5.81,0,0,1,1.05,1.66A4.67,4.67,0,0,1,434.46,318.15Zm-3.85-10.49v-2.8a2.59,2.59,0,0,1,.7,1.4A1.24,1.24,0,0,1,430.61,307.66Zm6.65,16.09h-2.63a1.28,1.28,0,0,1,1.58-.79C436.91,323.13,437.26,323.4,437.26,323.75Zm0,72.05h-2.63v-1.22h2.63Zm-1.05,15.05H435v-1.93h1.23Zm102.31-61c0,2.79-.11,5.88-.35,9.27a93.76,93.76,0,0,1-1.39,10.66,110.56,110.56,0,0,1-2.72,11.2,65.84,65.84,0,0,1-4.28,10.84l-2.8,4.11q-2.44,3.58-5.86,7.78a74.09,74.09,0,0,1-7,7.53q-3.6,3.32-5.86,3.32a1.73,1.73,0,0,1-.79-.09.34.34,0,0,1-.09-.26.34.34,0,0,0-.09-.26,1.7,1.7,0,0,0-.78-.09,1.8,1.8,0,0,0-1.75,1.22,9.55,9.55,0,0,1-1,1.93,7.88,7.88,0,0,1-2.89,1.48q-2.54,1-5.77,1.93t-6.21,1.75a19.73,19.73,0,0,1-4,.78.7.7,0,0,1-.7-.35l-.35-.7a2.84,2.84,0,0,0-.52-.69,1.71,1.71,0,0,0-1.23-.35,3.39,3.39,0,0,0-2.45,1,3.35,3.35,0,0,1-2.45,1.05,1.86,1.86,0,0,1-1-.17,1.5,1.5,0,0,1-.43-.44,2.39,2.39,0,0,0-.53-.52,1.69,1.69,0,0,0-1-.27c-.47,0-.7,0-.7.09v.53c0,.06-.23.08-.7.08-.93,0-1.28-.23-1.05-.7s.18-.69-.17-.69a23.88,23.88,0,0,0-3.15,3.76,3.34,3.34,0,0,1-2.62,1.83,4.88,4.88,0,0,1-2.54-.44,1.64,1.64,0,0,1-.7-1.22c-.06-.52-.12-1.14-.17-1.84a4.58,4.58,0,0,0-.79-2.09,13.28,13.28,0,0,1-5.25,3.14,2.68,2.68,0,0,0,1.05.7,2.79,2.79,0,0,1,1.05.7,5.44,5.44,0,0,1-2.71.53,6.57,6.57,0,0,1-2.89-.53,4,4,0,0,1,1.05-.78,4.25,4.25,0,0,0,1.05-.79V422a2.19,2.19,0,0,1-.61-.87c-.06-.24-.56-.35-1.49-.35a3.91,3.91,0,0,0-2.62,1.39,3.88,3.88,0,0,1-2.62,1.4c-.94,0-1.29-.11-1.05-.35s.17-.35-.18-.35a2.07,2.07,0,0,0-.61,1.23c-.06.47-.26.7-.61.7a3,3,0,0,0-.61-2.1,2.23,2.23,0,0,0-1.84-1.23c-.94,0-1.34,0-1.22.09s0,.26-.35.61a14.28,14.28,0,0,0-.53-3.14q-.52-2.1-1.05-5.78a5.64,5.64,0,0,1,4.9-1.57,5.28,5.28,0,0,1,.35-1.84,5.9,5.9,0,0,0,.35-2,3.44,3.44,0,0,0-2.1-1.13q-1-.09-2.1-.09a2.78,2.78,0,0,0,0-1.93,2.64,2.64,0,0,0-1.4-1.57v-4.72c.35,0,.7-.26,1.05-.79a2.71,2.71,0,0,0,.53-1.49,1.77,1.77,0,0,0,1,.79,6.2,6.2,0,0,0,1.05.09c.35-.47.64-.61.88-.44s.35-.2.35-1.14a14.57,14.57,0,0,0-.18-2.44c-.11-.7-.64-1.05-1.57-1.05s-1.37.11-1.31.35-.09.35-.44.35a8.11,8.11,0,0,0-.7-3.76c-.58-1.46-1-2.54-1.22-3.24l1.4,1.4a5.13,5.13,0,0,0,.61-2.27,11.19,11.19,0,0,0-.09-2.45h2.8c0-.35.11-.53.35-.53s.35-.46.35-1.4a6.83,6.83,0,0,0-.18-1.92c-.11-.35-.64-.52-1.57-.52s-1.34,0-1.22.08,0,.26-.35.61V366.07l1.57,1.4a2.19,2.19,0,0,1,.87-.61,2.14,2.14,0,0,0,.88-.61,6.65,6.65,0,0,0-.18-1.49c-.11-.53-.64-.79-1.57-.79h-1.22c.11,0-.07.18-.53.53V314.56a26.39,26.39,0,0,0-.35-4.28.52.52,0,0,0-.17-.35,1.5,1.5,0,0,0-.35-.26,1.22,1.22,0,0,1-.35-.27,17.33,17.33,0,0,0,.43-3.32,21,21,0,0,1,.44-3.5,7.42,7.42,0,0,1-3.15-4,6.51,6.51,0,0,0-.26,2.45q.09,1.39.09,3a2.93,2.93,0,0,1-1.93.88,32.55,32.55,0,0,1,.44-4.9,32.44,32.44,0,0,0,.44-4.9l1.57,1.4a.22.22,0,0,1,0-.35,2,2,0,0,1,1.4-.35,11.12,11.12,0,0,1,2.89.79l4.63,1.66,4.64,1.66a11,11,0,0,0,2.88.79,3.6,3.6,0,0,0,1.75-.26,1.69,1.69,0,0,1,1-.27v2.45a9.41,9.41,0,0,1-1.14,2.71q-1.14,2.19-2.71,5.16t-3.23,6.13c-1.11,2.09-2,4-2.71,5.59a.52.52,0,0,0-.18.35c0,.12.18.35.53.7a120.2,120.2,0,0,1,6.64-11q3.67-5.42,6.82-10.14,0,1.92,2.28,4.37a37.74,37.74,0,0,0,5.51,4.81,39.17,39.17,0,0,0,6.64,3.94,14.48,14.48,0,0,0,5.86,1.57,3,3,0,0,0,1.66-.26c.18-.18.79-.26,1.84-.26a2.39,2.39,0,0,1,1,2.09,17,17,0,0,1-.35,2.45,10.4,10.4,0,0,0-.26,2c0,.53.46.79,1.4.79-.94-.23-1.69.59-2.27,2.45a1.13,1.13,0,0,0,.08-1.14,5.1,5.1,0,0,0-.87-1.31,11,11,0,0,0-1.4-1.31l-1.49-1.14a.5.5,0,0,1-.35.18c-.23.23-.35.41-.35.52a2.19,2.19,0,0,1,1.75-1.22,16.54,16.54,0,0,0,2.8-.7v-.18a.79.79,0,0,0-.09-.35,1.18,1.18,0,0,1-.08-.52,7.31,7.31,0,0,0-4.38-1.4c-.58.58-.46,1.22.35,1.92a36.89,36.89,0,0,0-4.28,2.54,37.84,37.84,0,0,1-4.29,2.54v1.74a53.73,53.73,0,0,1,5.77,2.37q3.15,1.49,6.3,3.23A4.72,4.72,0,0,1,482,333.1a4.45,4.45,0,0,1-2.62.44l-.35-.52-.88,1a6.39,6.39,0,0,1,3.5,3.68.72.72,0,0,1-.17.52,2.36,2.36,0,0,1-1.58.35,6.5,6.5,0,0,1-3.85-1.4,25.08,25.08,0,0,1-3.49-3.06c-1-1.1-2-2.12-2.71-3.06s-1.2-1.45-1.32-1.57a4.18,4.18,0,0,0-1.48,1.66,3.8,3.8,0,0,1-1.66,1.66V379c0,.82,0,2.1.08,3.85a11.41,11.41,0,0,0,.79,4.2,5.1,5.1,0,0,0-.79,2,10.08,10.08,0,0,0-.17,2.62,5.48,5.48,0,0,0,.61,2.28,2.1,2.1,0,0,0,1.57,1.13,6.62,6.62,0,0,0-2.71,3.5c-.52,1.52-1,3-1.48,4.38a3.33,3.33,0,0,0,1.4,1.31,11.21,11.21,0,0,0,1.75.7,14.49,14.49,0,0,0,2.44.43,2.14,2.14,0,0,0,1.93-1.22c.46-.82.87-1.58,1.22-2.27.7.69,1.6,1.57,2.71,2.62a4.7,4.7,0,0,0,3.06,1.57q1.41,0,3.06-1.92c1.11-1.28,2-2.27,2.72-3a4.39,4.39,0,0,0,.61,2.44,2.52,2.52,0,0,0,2.36,1.75,2.64,2.64,0,0,0,2.19-.78,4.17,4.17,0,0,0,.78-1.84,4.52,4.52,0,0,0-.09-2,3.24,3.24,0,0,0-.78-1.49,29.74,29.74,0,0,0,12-9.09,48.84,48.84,0,0,0,7.26-12.94,64.58,64.58,0,0,0,3.58-14.43,107.89,107.89,0,0,0,1-13.73c0-.35,0-1-.08-2s-.15-2.13-.27-3.41-.26-2.6-.43-3.94-.33-2.54-.44-3.59a75,75,0,0,0-2.71-12.85,39.59,39.59,0,0,0-6.74-12.86,32.09,32.09,0,0,0-4.28-4.54,40.27,40.27,0,0,0-5.16-4,3,3,0,0,1-.09-1.31,1.51,1.51,0,0,0-.43-1.31,6.9,6.9,0,0,1-2.89.87,4.05,4.05,0,0,1-1.84-.35,10.06,10.06,0,0,1-1.31-.78,2.22,2.22,0,0,0-1.31-.44,2.09,2.09,0,0,0-1.84.88,2.48,2.48,0,0,0-.43,1.92q-3.68-1-8.14-2.19T464.72,297a3.17,3.17,0,0,0,.35-2.1,3.76,3.76,0,0,1,.35-2.28,4.21,4.21,0,0,0-1.32-.87,4.3,4.3,0,0,1-1.31-.88c-.35-.11-.76.15-1.22.79a2.61,2.61,0,0,0-.53,2c-.35-.35-.52-.43-.52-.26s-.47.26-1.4.26c-.47,0-1.4-.64-2.8-1.92s-3-2.83-4.81-4.64l-5.59-5.59q-2.9-2.89-5-4.81,3.68-.34,8.05-.53a82.87,82.87,0,0,0,9.09-.87.87.87,0,0,1,.79.44c.17.29.72.43,1.66.43,1.28,0,2.86-.08,4.72-.26a8.27,8.27,0,0,0,4.2-1.31,4.19,4.19,0,0,0,2.8,1.31,29.61,29.61,0,0,0,4.11.26c1.45,0,2.94,0,4.46.09a9,9,0,0,1,3.67.79,5.19,5.19,0,0,0-1,1.4,3.41,3.41,0,0,0-.44,1.4,2.85,2.85,0,0,0,3,1.92l1.93-1.92a1.93,1.93,0,0,0-1.4-1.93h-1.4a8.53,8.53,0,0,1,3.59-.35,21.44,21.44,0,0,0,3.93,0,10.93,10.93,0,0,0,0,2.8c.12.94,1,1.4,2.62,1.4a2,2,0,0,0,1.93-1,2,2,0,0,1,1.92-1.05,10,10,0,0,1,4.2,1.58,20.71,20.71,0,0,0,4.9,2.09,6.23,6.23,0,0,0-1.4,2.72,2.62,2.62,0,0,0,.35,1.92,3,3,0,0,0,1.4,1.14,4.71,4.71,0,0,0,1.75.35,2.4,2.4,0,0,0,1.74-.53,9.85,9.85,0,0,0,1.4-2.27,38.55,38.55,0,0,1,7.35,6.64,73.59,73.59,0,0,1,6.3,8.4,63,63,0,0,1,4.72,8.83,53.91,53.91,0,0,1,2.8,8,3.09,3.09,0,0,1-.35,2.36,6.14,6.14,0,0,0-.7,2.54,3.68,3.68,0,0,0,2.62,1.22q.53,3.15,1,7.26c.29,2.74.53,5.36.7,7.87s.32,4.69.44,6.56S538.52,349.34,538.52,349.81Zm-95.14-60-1.23-1.23c-.46-.46-.52-.87-.17-1.22a2.64,2.64,0,0,1,.7,1.22A2.54,2.54,0,0,0,443.38,289.82Zm5.07,95.32a11.8,11.8,0,0,0-1.92.26,1.53,1.53,0,0,0-1.4,1.66,2,2,0,0,0,1.05,1.92,13.56,13.56,0,0,0,2.27.88,3.54,3.54,0,0,0,.26-2.36A12.66,12.66,0,0,1,448.45,385.14Zm.88,19.41c-.35-.81-.73-1.75-1.14-2.8a5.08,5.08,0,0,1-.44-2.62,3.92,3.92,0,0,1-1.57.87,1.62,1.62,0,0,0-1.05,1.75,3.16,3.16,0,0,0,.35,1.84,1.51,1.51,0,0,1,.35,1Zm-.18,9.27H446.7l-1.57,1.57v2.45a4.74,4.74,0,0,0,1.66,1,5.13,5.13,0,0,0,1.66.44,3.25,3.25,0,0,1,.61-2.36A3.23,3.23,0,0,0,449.15,413.82Zm0-39.53V371h-2.62a5.1,5.1,0,0,0,.35,2.8,4.12,4.12,0,0,1,.52,1.4,3.73,3.73,0,0,1,1.05-.7A1.52,1.52,0,0,1,449.15,374.29Zm5.07,38a9.33,9.33,0,0,1-1.4-3.33,11.34,11.34,0,0,0-.87-2.8,5,5,0,0,0-1.84,1.67,3.85,3.85,0,0,0-.78,2.18,5.78,5.78,0,0,0,2.36,1.66A6.85,6.85,0,0,0,454.22,412.25Zm-2.27,15a3.46,3.46,0,0,1-.35,1.31,3.25,3.25,0,0,0-.35,1.31,5.92,5.92,0,0,1-1-1.31,6,6,0,0,0-1-1.31Zm-.7,3.32a2.39,2.39,0,0,1-.44,1.22,1.59,1.59,0,0,1-1.48.7Zm3-52.47H451.6a3.93,3.93,0,0,0-1.05,1.14,2.51,2.51,0,0,0-.52,1.31l1.57,1.57h2.45a18.29,18.29,0,0,0-.18-2.1A2.28,2.28,0,0,1,454.22,378.14Zm.7,18.54a5.22,5.22,0,0,1-1.4-2.62,4.45,4.45,0,0,0-.87-2.1,2.51,2.51,0,0,0-1.31.52,8.33,8.33,0,0,0-1.31,1V396l.87.87a3.66,3.66,0,0,0,2.45.18A5.65,5.65,0,0,1,454.92,396.68Zm-.7-30.08a2.27,2.27,0,0,0-1.05-1.84,3.14,3.14,0,0,0-1.57-.79,2.56,2.56,0,0,0-.26,1.93,5.33,5.33,0,0,1,.26,1.4,5.9,5.9,0,0,0,1.75-.35A8.19,8.19,0,0,0,454.22,366.6Zm5.6,37.77a1.19,1.19,0,0,0-1.05-.43,7.41,7.41,0,0,1-1.22.08v-4.89H455.1a7,7,0,0,0-.27,3.15,10.52,10.52,0,0,1,.27,2.27,29.54,29.54,0,0,1,3-.18Zm-.7-19.23H455.8a1.11,1.11,0,0,0-.53.52,4,4,0,0,0-.35,1.75c0,.93.18,1.49.53,1.66a4.25,4.25,0,0,1,1.05.79h2.62a13.92,13.92,0,0,0-.26-2.45A3.15,3.15,0,0,1,459.12,385.14Zm0,34.1a9.68,9.68,0,0,1-1.84-2.71c-.52-1.11-1-2-1.31-2.71a7,7,0,0,0-1.05,3.06v1.66a6,6,0,0,0,2.36.61C458.16,419.21,458.77,419.24,459.12,419.24ZM456.5,439.7h-1.23V435h1.23Zm3.32-66.28a2,2,0,0,1-.61-1.23,9.6,9.6,0,0,1-.09-1.22H456.5a4.31,4.31,0,0,0,.17,2.8,4.23,4.23,0,0,1,.53,1.4,4.36,4.36,0,0,1,1.31-.88A4.28,4.28,0,0,0,459.82,373.42Zm2.8,53.87a25.79,25.79,0,0,0,.17,2.71,4.87,4.87,0,0,1-.35,2.71h-4a15.18,15.18,0,0,0,1.14-2.54,3.53,3.53,0,0,0-.44-2.88Zm-.7-153.39a5.33,5.33,0,0,1-1.4-.26,3.28,3.28,0,0,1-1.4-.79,7.07,7.07,0,0,1,1.4-1.05,3,3,0,0,1,1.4-.52Zm2.8,123a14,14,0,0,0-.35-4,3.87,3.87,0,0,1-.35-1.4c-.94-.23-1.93.21-3,1.31a9.7,9.7,0,0,0-1.92,2.54q.53.53,1.05,1.14a1.79,1.79,0,0,1,.52,1.13Zm-.88,16.09a8.13,8.13,0,0,0-.7-1.4,11.77,11.77,0,0,1-.87-1.74,6.75,6.75,0,0,1-.44-2,3,3,0,0,1,.79-2.19,6.16,6.16,0,0,0-1.75.44,3.19,3.19,0,0,0-1.58,1v4.54A8.62,8.62,0,0,1,463.84,412.94Zm.18-35h-2.63a3,3,0,0,0-.26,2.18,10.54,10.54,0,0,1,.26,1.84H464Zm0-11.37a2.27,2.27,0,0,0-1-1.84,3.16,3.16,0,0,0-1.58-.79,6.36,6.36,0,0,0,.18,1.58,4.48,4.48,0,0,0,.7,1.92,4.21,4.21,0,0,1,1.05-.7A1.6,1.6,0,0,1,464,366.6Zm5.59,53.17a4.76,4.76,0,0,1-2.27-3.33,5.08,5.08,0,0,1,.87-3.85,5,5,0,0,0-2.36.27A3.71,3.71,0,0,0,464,414v4.55c.93.24,1.92.53,3,.88A5.69,5.69,0,0,0,469.61,419.77Zm-3.67-140.1a4.42,4.42,0,0,1,.26-1.31c.18-.53-.26-.79-1.31-.79a2.15,2.15,0,0,0,.53,1.58A1.09,1.09,0,0,0,465.94,279.67Zm2.8,120.16c.35.35.35.87,0,1.57s-.7,1.05-1.05,1.05a7.42,7.42,0,0,1,.26-1.57C468.13,400.18,468.39,399.83,468.74,399.83ZM473.11,431a3.23,3.23,0,0,1-1.66,1.05,4.73,4.73,0,0,1-2.19.17h2.1a2.1,2.1,0,0,0,.53-1.05,1.42,1.42,0,0,1,.52-.87,3.35,3.35,0,0,1-.79-1.49c-.17-.64-.72-1-1.66-1s-1.46.15-1.57.44a3.11,3.11,0,0,1-.7,1l1.57-2.1h3.15c0,.47,0,1.05.09,1.75A5.77,5.77,0,0,0,473.11,431Zm-1.4-42.68a2.31,2.31,0,0,1-1.83-.7,4.07,4.07,0,0,1-1.49-1.92,4,4,0,0,0,1.31,1.57,2.08,2.08,0,0,0,1,.35,1.93,1.93,0,0,1,.62.09C471.45,387.73,471.59,387.93,471.71,388.28Zm.35-15L468.91,372l.35-1,2.8,1.22Zm4.72,36a4.86,4.86,0,0,0-1-2.36,3.75,3.75,0,0,0-3.41-1.49,3.85,3.85,0,0,0-2.36.88,2.32,2.32,0,0,0-1,2.27v3a11.66,11.66,0,0,1,3.5.62,5.07,5.07,0,0,0,3.32.09c0-.71.14-1.14.44-1.32S476.78,410.21,476.78,409.27Zm-6.12-71.53h-1.22V336h1.22Zm30.61,24a4.85,4.85,0,0,1-2.8,1.14,7.73,7.73,0,0,0-2.8.78c.35.35.79.82,1.32,1.4a4.07,4.07,0,0,1,1,1.58l-.7,1.57a15.09,15.09,0,0,1-6.47-3.06,27.93,27.93,0,0,1-5.25-6.21q-1.92,2.44-4,5.25t-4,5.25a47.26,47.26,0,0,0,3.24-5.25c1-1.87,2-3.67,3.06-5.42a8,8,0,0,0-2.45-1.58c-1.05-.46-2.21-1-3.5-1.57a33.27,33.27,0,0,1-3.76-2,11.81,11.81,0,0,1-3.06-2.71,1.8,1.8,0,0,0,.35-.53,1.94,1.94,0,0,1,.35-.52.71.71,0,0,0,.18-.53c.7.35,1.42.67,2.18,1s1.49.62,2.19,1a2.64,2.64,0,0,0-.18-2.45,6.32,6.32,0,0,1-.69-2.8c0-.82.43-.93,1.31-.35a21.81,21.81,0,0,1,3.06,2.62c1.16,1.17,2.3,2.36,3.41,3.59a11,11,0,0,0,2.36,2.18,2.68,2.68,0,0,0,.7-.17,7.25,7.25,0,0,1,2.27-.35,3.44,3.44,0,0,0,1.58,2.54,21.6,21.6,0,0,0,3.32,1.83c1.28.59,2.65,1.17,4.11,1.75A15.82,15.82,0,0,1,501.27,361.7Zm-26.76,47.05-.7.35a2.86,2.86,0,0,1-1.22.35,6.88,6.88,0,0,1,.26-1.58q.25-1,1-1.05l.35.7A2.9,2.9,0,0,1,474.51,408.75Zm7.17,8.22a5,5,0,0,0-1.22-3,3.66,3.66,0,0,0-3-1.57,5.22,5.22,0,0,0-2.62,1.4,3.78,3.78,0,0,0-1.75,2.8c0,.93.61,1.86,1.84,2.8a5.5,5.5,0,0,0,2.88,1.4,4.24,4.24,0,0,0,3.85-3.85Zm-4.9,8-2.79.88v-1.05l2.44-.7Zm-.87-44.42a1.64,1.64,0,0,1-1.14-.7,2,2,0,0,1-.61-1.23Zm2.1-99.87a2.38,2.38,0,0,1-.61-1.57c-.06-.7-.09-1.23-.09-1.58h-2.62v2.63a7.94,7.94,0,0,1,1.66.26A8.58,8.58,0,0,0,478,280.72Zm8.57,31.66a.87.87,0,0,0-.79.43c-.17.3-.73.44-1.66.44a2.79,2.79,0,0,1-1.57-.61,13.67,13.67,0,0,1-1.84-1.57c-.64-.64-1.25-1.26-1.84-1.84l-1.4-1.4a16.34,16.34,0,0,0,8.22,0,13.41,13.41,0,0,0-.52,2.1C485.06,310.63,485.53,311.45,486.58,312.38Zm-.7,96.89a4,4,0,0,0-1.05-2.62,3.15,3.15,0,0,0-2.45-1.23,4.44,4.44,0,0,0-2.8,1.14,3.16,3.16,0,0,0-1.4,2.36,5.06,5.06,0,0,0,1.05,2.62,3.54,3.54,0,0,0,3.15,1.58,3.11,3.11,0,0,0,2.36-1.4A4.14,4.14,0,0,0,485.88,409.27ZM482,288.07a7.53,7.53,0,0,0-.35-1.75,2.74,2.74,0,0,0-2.1-1.75v2.62c.35,0,.5-.09.44-.26s.38-.26,1.31-.26c.7,0,1.05.23,1.05.7A1,1,0,0,1,482,288.07Zm6,5.94c-.35-.35-.79-.75-1.31-1.22s-1-.88-1.32-1.23c0,.35-.29.65-.87.88a1.5,1.5,0,0,1-.7.17,4.1,4.1,0,0,1,.88,1.58,3.92,3.92,0,0,0,.87,1.57,4.66,4.66,0,0,1,1.22-.87A4.58,4.58,0,0,0,488,294Zm2.1,122.26a4.84,4.84,0,0,0-1.75-1.84,26.25,26.25,0,0,0-2.28-1.31,3.8,3.8,0,0,1-1.13.79,3.52,3.52,0,0,0-1.14.78v3.15q.53.53,1.14,1.05a3,3,0,0,0,2,.53,2.36,2.36,0,0,0,2.1-1.05A9.37,9.37,0,0,0,490.08,416.27Zm-1.23-26.06-.87.52-1.75-2.45,1-.7Zm4-104.77a3.31,3.31,0,0,0-1.23-.78,3.43,3.43,0,0,1-1.22-.79,3.35,3.35,0,0,1-1.49.79c-.64.17-1,.73-1,1.66s.11,1.46.35,1.57a.71.71,0,0,1,.35.7H492Zm2.09,123c-.35-.35-.78-.82-1.31-1.4a2.79,2.79,0,0,0-2.18-.88,2.53,2.53,0,0,0-2,1,3.42,3.42,0,0,0-.78,2.19,2.72,2.72,0,0,0,.52,1.93,11,11,0,0,1,1.05,1.22h2.45a8.87,8.87,0,0,0,1.66-2.27A4.7,4.7,0,0,0,495,408.4Zm-.17-112.81L493.58,293l-1.05.35,1.22,2.28Zm4.37,108.26v-3.5a1.42,1.42,0,0,0-.17-.87l-.35-.35h-2.8a4.08,4.08,0,0,1-1.4.87c-.59.24-.87.82-.87,1.75a2.37,2.37,0,0,0,.52,1.84q.52.44,1,1a6.92,6.92,0,0,0,2.45-.35A4.32,4.32,0,0,1,499.17,403.85Zm0,14a7.62,7.62,0,0,0-.35-2.53,4.85,4.85,0,0,1-.35-1.49h-3.32a6.07,6.07,0,0,0-1,1.57,4.13,4.13,0,0,0-.52,1.75l2.27,2.28a4.67,4.67,0,0,0,1.66-.53A5.81,5.81,0,0,0,499.17,417.84Zm-3.5-125.58-.35-1.05-1.57.88v1.05Zm7,8.05a3.73,3.73,0,0,1-.7-1.05,1.49,1.49,0,0,1-.18-.7h-2.27a1.87,1.87,0,0,0-1.14.52,2.48,2.48,0,0,0-.61,1.93c0,.93.18,1.49.53,1.66a4.25,4.25,0,0,1,1.05.79h2.44Zm.7-13.12a4.67,4.67,0,0,0-.53-1.66,5.4,5.4,0,0,0-1-1.66h-2.44a7.36,7.36,0,0,0-1,3.23,5,5,0,0,0,.27,2.37h2.45Zm.7,120.51-3.85-.88a2.67,2.67,0,0,0-1,1.23,3.52,3.52,0,0,1-.79,1.22,3.47,3.47,0,0,1,.79,1.23,2.06,2.06,0,0,0,.79,1h3.14Zm0-12.42a6.33,6.33,0,0,0-1.14-1.66,6.58,6.58,0,0,1-1.14-1.66,4.16,4.16,0,0,0-1.92,1.48,2.37,2.37,0,0,0-.7,1.84l1.58,1.57a4.6,4.6,0,0,0,1.66-.52A6,6,0,0,0,504.07,395.28Zm4.2-99.69v-2.45a4.55,4.55,0,0,0-1.58-1.75,2.32,2.32,0,0,0-1.75-.53,5.21,5.21,0,0,1-1.4,1,1.84,1.84,0,0,0-.87,1.83c0,.94.14,1.52.44,1.75a1.28,1.28,0,0,1,.43,1h2.63a3.82,3.82,0,0,0,1.75-.35A.56.56,0,0,0,508.27,295.59Zm-.7,11.54-4-.87-.87,2.09a1.73,1.73,0,0,0,.52,1c.35.41.7.78,1.05,1.13h2.45Zm.7,81.15v-2.45a2.87,2.87,0,0,1-1.23-.34,1.11,1.11,0,0,1-.52-.53l-2.45,2.45,1.57,1.75A6.2,6.2,0,0,0,507,389,2.57,2.57,0,0,0,508.27,388.28Zm.7,13.12-1.58-1.57-3.15.7v2.62a3,3,0,0,0,1.05.61,2.81,2.81,0,0,1,1.23,1,7.83,7.83,0,0,0,1.83-1.66A2,2,0,0,0,509,401.4Zm4.19-101.27-1.57-1.57h-3.15a1.26,1.26,0,0,1-.44,1.05c-.29.23-.43.82-.43,1.75a1.81,1.81,0,0,0,1,1.84,5,5,0,0,1,1.49,1,6.89,6.89,0,0,0,2.09-1.75A3.65,3.65,0,0,0,513.16,300.13Zm-.7,16.62a5.27,5.27,0,0,0-.52-1.75,5.79,5.79,0,0,0-1.05-1.75,4.27,4.27,0,0,0-1.75,1.75,4.31,4.31,0,0,0-.7,1.75Zm.7,79.4v-2.44a2.22,2.22,0,0,0-1.22-.88,5.46,5.46,0,0,0-1.23-.17L509,394.41l2.45,2.44c.23-.23.4-.35.52-.35a1.26,1.26,0,0,0,.52-.17A1.49,1.49,0,0,0,513.16,396.15Zm.7,12.25a6.07,6.07,0,0,0-1.57-1,4,4,0,0,0-1.58-.53,2,2,0,0,0-1.22.7,2.81,2.81,0,0,0-.52.7v1.93a5.81,5.81,0,0,0,1.66,1.05,4.75,4.75,0,0,0,1.66.52,5.81,5.81,0,0,0,1.05-1.66A4.6,4.6,0,0,0,513.86,408.4Zm-.7-28.86a2.61,2.61,0,0,0-1.31-.7,6.73,6.73,0,0,0-1.31-.18,2,2,0,0,0,.17,2.8,2.89,2.89,0,0,0,1.49-.7C512.84,380.3,513.16,379.89,513.16,379.54Zm4.9-83.25v-4.73a2.26,2.26,0,0,1-1.14-.35,4.32,4.32,0,0,0-2-.35,2.06,2.06,0,0,0-1.92.88,3.77,3.77,0,0,1-1.05,1.22v1.93a7.07,7.07,0,0,1,1.05,1.4,2.06,2.06,0,0,0,1.92.87,3.48,3.48,0,0,0,2-.44A2,2,0,0,1,518.06,296.29Zm-.7,10.84-3.15-.87a12.46,12.46,0,0,0-1.13,1.31,2.34,2.34,0,0,0-.62,1.31l1.75,1.57h2.45Zm-1.57,17.32a2.93,2.93,0,0,0,0-3.33,2.38,2.38,0,0,0-1.31.61,14,14,0,0,0-1.32,1.14,8.45,8.45,0,0,0,1.32,1.05A2.54,2.54,0,0,0,515.79,324.45Zm2.27,64a2.52,2.52,0,0,0-1-1.93,3.06,3.06,0,0,0-1.57-.87l-.7,2.62c.35,0,.9,0,1.66.09S517.71,388.46,518.06,388.46Zm0,12.07a3.42,3.42,0,0,1-1.31-.35,3.29,3.29,0,0,0-1.31-.35l-.7,3.15a2.56,2.56,0,0,0,1.31.69,6,6,0,0,0,1.31.18Zm4.2-97.07a9.51,9.51,0,0,0,.44-2.28,3.56,3.56,0,0,0-1.32-2.62h-2.27l-1.57,1.57a5.35,5.35,0,0,0,.35,1.58,5.65,5.65,0,0,1,.35,1.57,4.74,4.74,0,0,0,2.44.35A11.38,11.38,0,0,1,522.26,303.46Zm0,13.29a5.36,5.36,0,0,0-.53-1.75,5.79,5.79,0,0,0-1.05-1.75,4.25,4.25,0,0,0-1.74,1.75,4.31,4.31,0,0,0-.7,1.75Zm.7,76.78a2.76,2.76,0,0,1-1.23-.35,1.09,1.09,0,0,1-.52-.52,8.33,8.33,0,0,0-1.05,1.31,2.54,2.54,0,0,0-.53,1.31,2.67,2.67,0,0,0,1.23.7,4.87,4.87,0,0,0,1.22.17,2.53,2.53,0,0,0,.7-1.31A6,6,0,0,0,523,393.53Zm4.2-86.4-3.15-.7-.88,3.15,3.33.87Zm-.7,17.32a5.45,5.45,0,0,0-.44-1.67,3.08,3.08,0,0,0-2.19-1.66v3.33Zm5.59-7.7a5.27,5.27,0,0,0-.52-1.75,5.79,5.79,0,0,0-1-1.75,4.21,4.21,0,0,0-1.75,1.75,4.31,4.31,0,0,0-.7,1.75Z" transform="translate(-288.25 -271.28)"/><path class="a" d="M534.41,349a1.22,1.22,0,0,1-.61-1l1.75,1.92A8.77,8.77,0,0,0,534.41,349Zm36.38-68.56-5.07-1.4a40,40,0,0,0-4.28-1,27,27,0,0,0-4.55-.35h-8.22a10.25,10.25,0,0,0-2.19.35c-1,.23-2.1.55-3.32,1s-2.45.85-3.67,1.31-2.19.88-2.89,1.23a5.73,5.73,0,0,1-.7,1c-.35.41-.7.78-1,1.13a4.32,4.32,0,0,1,.7,1.05,1.29,1.29,0,0,1,.17.53,5.09,5.09,0,0,0,3,1.31,25,25,0,0,0,3.15.26,12.18,12.18,0,0,0,2.88-.35,5.8,5.8,0,0,0,2.36-1.05,73.09,73.09,0,0,1,.62,7.52q.07,3.51-.09,7.17a25.47,25.47,0,0,0,4-1,41.14,41.14,0,0,0,5.16-1.92,17.91,17.91,0,0,0,4.37-2.71,4,4,0,0,0,1.66-3.5,7.91,7.91,0,0,1,1.14.09,1.3,1.3,0,0,0,1.14-.44c-2.57-1.28-5.13-2.48-7.7-3.59a35.39,35.39,0,0,0-7.87-2.36,8.57,8.57,0,0,0-1.22-1.57,2.59,2.59,0,0,1-.7-1.92c0-.94.09-1.34.26-1.23s.26,0,.26-.35a14.23,14.23,0,0,1,4.73.09,25.37,25.37,0,0,1,3.93,1.14,26.11,26.11,0,0,1,3.41,1.57,15.69,15.69,0,0,0,3.5,1.4,3.13,3.13,0,0,1-1.66-1.23,2.68,2.68,0,0,1-.61-1.39,8.08,8.08,0,0,1,2.88.17,21.36,21.36,0,0,1,3,1c1,.41,2,.79,2.89,1.14a7.47,7.47,0,0,0,2.62.52,6.83,6.83,0,0,0,2.54-.52,12.79,12.79,0,0,0,2.36-1.23C575,281.6,572.72,281,570.79,280.46Zm-29.47,82.11a.47.47,0,0,1-.17-.35c-.24-.81-.44-1.69-.62-2.62a9.16,9.16,0,0,0-.78-2.45H536.6c-.35,0-.53.44-.53,1.31a2.56,2.56,0,0,0,.53,1.84c-.35-.35-.44-.61-.26-.79a1.06,1.06,0,0,1,.78-.26,8,8,0,0,0,2.28,2.36,14.17,14.17,0,0,1,2.27,1.84A1.22,1.22,0,0,0,541.32,362.57ZM539.75,314h-3.33v1.23h3.33Zm5.59-13.64a17.71,17.71,0,0,1-2.36.26,9,9,0,0,0-2.8.61,4.92,4.92,0,0,0-2.18,1.75,6,6,0,0,0-.88,3.5,12.78,12.78,0,0,1,4.2.79,5.56,5.56,0,0,0,4.72-.61ZM541.85,368l-1.58-1.58h-2.45a14,14,0,0,0,1.58,2.19,5.13,5.13,0,0,0,2.45,1.83ZM625.45,399a7.38,7.38,0,0,0-2-5.16,16.6,16.6,0,0,0-4.81-3.58,26.83,26.83,0,0,0-5.77-2.1,22.15,22.15,0,0,0-4.9-.7c-.94,0-1.4.12-1.4.35s-.18.35-.53.35v2.62a7.67,7.67,0,0,1,2.72,1.31c1.1.76,2.24,1.58,3.41,2.45a29,29,0,0,1,3,2.54c.81.82,1.22,1.34,1.22,1.57a24.15,24.15,0,0,1-2.1,2.89c-1.39,1.81-3,3.79-4.72,5.95s-3.44,4.14-5.07,5.94-2.68,2.71-3.15,2.71c-.93,0-1.37,0-1.31.09s0-.09-.26-.44V415a4.1,4.1,0,0,0-.35-1.22,7.59,7.59,0,0,0-1-1.75,9.78,9.78,0,0,0-1.58-1.57,3.22,3.22,0,0,0-2.09-.7c-.47,0-.73.08-.79.26a1.58,1.58,0,0,0-.09.52.93.93,0,0,1-.09.44q-.09.18-.78.18c-.94,0-1.49-.29-1.66-.88a5,5,0,0,1-.27-1.4q3.15-1.05,6.47-2t6.48-2a1.34,1.34,0,0,0,1,1.49,3.07,3.07,0,0,0,2.36-.62,6.2,6.2,0,0,0-1,.09,1.2,1.2,0,0,1-1.05-.44c1.4-.23,2.19-.84,2.36-1.83a13,13,0,0,1,.61-2.36,1.92,1.92,0,0,0,1-1.58c0-.7.49-1,1.31-1l-2.28-.7v1.49a1.78,1.78,0,0,1-.52,1.31c-.59-.7-1.55-.9-2.89-.61a32,32,0,0,0-4.54,1.4q-2.55,1-5.16,1.84a14.82,14.82,0,0,1-4.55.87c-.82,0-1.34-.23-1.58-.7s-.76-.7-1.57-.7q-2.28,0-4.11.18a8.44,8.44,0,0,0-3.59,1.22A3.64,3.64,0,0,0,577,403a10,10,0,0,1,.79.87c.17.23-.21.35-1.14.35a8.85,8.85,0,0,1-2.19-.44,31.23,31.23,0,0,1-3.32-1.22c-1.22-.53-2.51-1.11-3.85-1.75a28.91,28.91,0,0,1-3.58-2,6,6,0,0,1,.26-1.84,3.89,3.89,0,0,0,.26-1.14h2.45a1.34,1.34,0,0,1,.35,1.32q-.18.78,1.23.78a3.28,3.28,0,0,1,2.27.79c.58.52,1.11.61,1.57.26a5.63,5.63,0,0,0-2.53-2.18,6,6,0,0,1-2.36-1.67,9.63,9.63,0,0,1,2.36-.43,4.5,4.5,0,0,1,2.36.43c0-3,0-5.44-.09-7.25s-.12-3.24-.17-4.29-.12-1.77-.18-2.18a7.06,7.06,0,0,1-.09-1c-.69,0-1.11.12-1.22.35s-.64.35-1.57.35-1.32-.11-1.14-.35.09-.52-.26-.87v-1.23l.35-.52a3.88,3.88,0,0,0,3.41,1.31,5.75,5.75,0,0,0,2.53-.79,10.17,10.17,0,0,0-.35-3.41,1.09,1.09,0,0,1,.18-1.31c.46,0,1.16.47,2.1,1.4a1.5,1.5,0,0,0-.61-1.4,1,1,0,0,1-.62-.87,2.07,2.07,0,0,1,1.23-.61,2.08,2.08,0,0,0,1.22-.62,11.2,11.2,0,0,0,1.05,1.75l1,1.4a4.59,4.59,0,0,0,2.45,1.66,9.17,9.17,0,0,1,2.8,1.49v-2.62a1,1,0,0,1-.7-.35.52.52,0,0,1-.18-.35,10.84,10.84,0,0,1,0-3.94,2.26,2.26,0,0,1,.88-1.4,1.75,1.75,0,0,1,1.4.09v-3.15a2.37,2.37,0,0,0-1.14.35,3.28,3.28,0,0,1-1.66.35l-.7-6.64,1.22-1.23h4.38a4,4,0,0,1,.61-2.19,3.55,3.55,0,0,1,1.31-1.31c1.05.7,2.24,1.46,3.58,2.28a7,7,0,0,0,3.42,1.22,1.81,1.81,0,0,0,1.66-.7,2,2,0,0,1,1.83-.7,2.6,2.6,0,0,1,2.19,1,2.4,2.4,0,0,0,2,1.05c.93,0,1.49-.11,1.66-.35a10,10,0,0,1,.79-.87h-1.31a.88.88,0,0,1-1-.7v-1.4a16,16,0,0,1-5.34.17,40.13,40.13,0,0,0-4.28-.35,2.45,2.45,0,0,1-1.93-.61,11.58,11.58,0,0,1-.87-1.14v-1.4a5.65,5.65,0,0,1,1.66-1,5.46,5.46,0,0,0,1.49-.78c1.63.81,2.44,1.92,2.44,3.32.35,0,.56-.09.62-.26s.55-.27,1.48-.27,1.49.09,1.66.27l.79.78a1.66,1.66,0,0,1-.52-1.22V353a3.2,3.2,0,0,1-3.33-1.05l1.75-1.74a7.22,7.22,0,0,0,1.84.78c.64.18,1.28.38,1.92.62a7.94,7.94,0,0,1,1.93,1,5.76,5.76,0,0,1,1.66,2.1l-2.1,2.1c1.05.35,2.42.79,4.11,1.31a16.18,16.18,0,0,1,4.11,1.84l.87-3.32a4.28,4.28,0,0,1-2.79-2.45,11,11,0,0,0,1.13-1.4,4.48,4.48,0,0,1,1.66-1.4v-8.74a14.67,14.67,0,0,1-1.22-1.49,2.09,2.09,0,0,1-.17-2.19h-6.13a4,4,0,0,1-2.62,3.5q-2.28-2.26-1.75-3.5h-5.6a3.66,3.66,0,0,1-.69,2.19,3.7,3.7,0,0,1-1.58,1.31,3.92,3.92,0,0,0-1.75-2.1,8.5,8.5,0,0,0-2.53-1,21.54,21.54,0,0,0-2.63-.35,13.31,13.31,0,0,1-2-.26,18.39,18.39,0,0,0,4,2.62,12,12,0,0,1,3.68,2.62,4.94,4.94,0,0,1-3.41-.17,9.48,9.48,0,0,0-3.24-.7,4,4,0,0,1-2.71-1.22,3.38,3.38,0,0,1-1.31-2.28,5,5,0,0,1,1-2.88c.7-1,1.16-1.67,1.4-2a38,38,0,0,1-3,3,9.22,9.22,0,0,1-3.15,1.92,13.66,13.66,0,0,0-1.57-1.31,3.23,3.23,0,0,0-1.57-.79,21.56,21.56,0,0,1-.79,2c-.29.65-.61.91-1,.79-.35-.58-.41-1-.18-1.13s-.11-.27-1.05-.27-1.31-.11-1.13-.35.08-.52-.27-.87a3.9,3.9,0,0,0,.44-2.1,1.83,1.83,0,0,1,.26-1.4c-.35,0-.49.06-.43.17s-.38.18-1.31.18-1.46-.29-1.58-.87a7.24,7.24,0,0,1-.17-1.4,13.12,13.12,0,0,0,2.44-2,8.22,8.22,0,0,1,1.75-1.49,25.69,25.69,0,0,1-1.57-11.46c.35-3.9.52-7.61.52-11.1a5,5,0,0,1-1-.88,1.9,1.9,0,0,1-.71-1.22,7.44,7.44,0,0,0,1.49-1.93c.29-.58.53-1.07.7-1.48a1.71,1.71,0,0,1,.79-.88,4.9,4.9,0,0,1,1.92-.26,8.66,8.66,0,0,1,3.85,1.4,40.86,40.86,0,0,0,4.55,2.27,40.54,40.54,0,0,1-.88-4.11,8,8,0,0,1,.18-3.76,4.54,4.54,0,0,1-2.19.7,21.49,21.49,0,0,1-2.53.18c.35.35.46.64.35.87a.7.7,0,0,1-.7.35,8.25,8.25,0,0,0-1-1.66,2.46,2.46,0,0,0-1.93-.61,14.48,14.48,0,0,0-3.93.78,16.18,16.18,0,0,0-4.11,1.84,1.22,1.22,0,0,1,1,.61.8.8,0,0,1-.09,1.14c-.35,0-.41-.11-.17-.35s-.12-.35-1.05-.35-1.29-.11-1-.35-.12-.35-1.05-.35-2,.61-3.15,1.84a20.44,20.44,0,0,1-3.32,2.88,18.32,18.32,0,0,1-5.16,2c-1.81.41-3.41.73-4.81,1a14.89,14.89,0,0,0,.35,3.32c.23,1,.46,2.1.7,3.15a6.93,6.93,0,0,1-.79,1.22,6.67,6.67,0,0,0-.79,1.23c.24,2.44.47,5.19.7,8.22a53.12,53.12,0,0,1,0,8.74.94.94,0,0,1,1.31,0,8.45,8.45,0,0,1,1.32,1l-1,1.22c0-.23-.09-.34-.27-.34a1.38,1.38,0,0,1-.61-.18,2,2,0,0,1-.87-.17v2.44l1.4,1.4a14,14,0,0,0-1.66,3.41c-.41,1.23-.73,2.31-1,3.24a2.81,2.81,0,0,1,1.05,2.27,23.78,23.78,0,0,1-.17,2.8,8.14,8.14,0,0,1-2.1,2.28c-.7.46-1.37.87-2,1.22a3.87,3.87,0,0,0-1.49,1.4,5.2,5.2,0,0,0-.52,2.62,3.48,3.48,0,0,0,.61,2.19A15.09,15.09,0,0,0,542.9,360c1.63-.7,2.73-.76,3.32-.17a5.9,5.9,0,0,1-.35,2,1.93,1.93,0,0,0-.18,1.31,6.3,6.3,0,0,1,1.58,2A7.3,7.3,0,0,0,549,367.3a1.75,1.75,0,0,1-1,.7,4.12,4.12,0,0,0-1.14.43,1.45,1.45,0,0,0-.52.44c-.06.12.2.35.78.7.59,2.1.41,3.76-.52,5a21.89,21.89,0,0,0-2.45,4.11,1.68,1.68,0,0,0,.61.44,5.53,5.53,0,0,1,.61.26,1.55,1.55,0,0,0,.7.18,3,3,0,0,1,1.05-2.1,14.69,14.69,0,0,0,.35,3.15,14.08,14.08,0,0,1,.35,3.15c.35-.35.64-.47.88-.35a.7.7,0,0,1,.35.7,7.62,7.62,0,0,0-2,2.09,20.66,20.66,0,0,0-1.49,2.45c.35-.35.67-.43,1-.26a2.7,2.7,0,0,1,.79.79,9.11,9.11,0,0,1,.17,3.06,15.7,15.7,0,0,0-.08,2.8,3.88,3.88,0,0,0,.87,2.27,6.2,6.2,0,0,0,2.89,1.66,2.08,2.08,0,0,0-.62,1.23,1.43,1.43,0,0,1-.61,1.05,2.2,2.2,0,0,1-1.4-.18,5.39,5.39,0,0,1-.87-.35V425h35.15a7,7,0,0,1-2.45,3.15,2.07,2.07,0,0,0-1.22-.61,9.73,9.73,0,0,0-1.22-.09,13.38,13.38,0,0,0,.26,2,22.19,22.19,0,0,0,.78,3.06,11,11,0,0,0,1.4,2.8,2.68,2.68,0,0,0,2.28,1.23,12.86,12.86,0,0,0,1.66-.53,7.36,7.36,0,0,1,3.24-.35,3.49,3.49,0,0,1-.7-2.88,6.78,6.78,0,0,1,1.31-2.54c.64-.82,1.37-1.69,2.18-2.62a11.08,11.08,0,0,0,1.93-3.15c1.4.7,2.5,1.28,3.32,1.75s1.54.84,2.19,1.13a8.79,8.79,0,0,0,1.83.62,11.49,11.49,0,0,0,2.1.17c1.05,0,2,0,2.8-.09a2.57,2.57,0,0,0,1.92-1,33.57,33.57,0,0,0,2.89-3.32q1.49-1.92,2.8-3.59c.87-1.1,1.66-2.07,2.36-2.88s1.22-1.23,1.57-1.23a6.69,6.69,0,0,1,1.58.09,4.3,4.3,0,0,1,.7.61,6.28,6.28,0,0,0-.26-1.48,2.63,2.63,0,0,1-.09-1.49,27.91,27.91,0,0,1,2.62-3.41,17,17,0,0,0,2.28-3.06,43.77,43.77,0,0,0,1.74-4.64A14.58,14.58,0,0,0,625.45,399ZM543,373.59a3.35,3.35,0,0,1-1.66-1.57H544a1.09,1.09,0,0,0,0,.87.61.61,0,0,0,.69.7C544.29,373.94,543.74,373.94,543,373.59Zm2-78.18a2.06,2.06,0,0,0-1.92-.87c-.47,0-.61.12-.44.35a3.76,3.76,0,0,0,1,.78c.46.3.93.62,1.39,1a8.78,8.78,0,0,0,1,.7C545.69,296.64,545.34,296,545,295.41Zm1.93,62.27a4.55,4.55,0,0,0-1.23.87,2,2,0,0,1-.35-.7,3.12,3.12,0,0,1-.35-1.4,2.57,2.57,0,0,0,1.32.7,6,6,0,0,0,1.31.18Zm-.7,8.74-.88-1.05.7-.7,1.05,1.05Zm2.8,4.2-.88-1.05.7-.7,1,1.05Zm-.27-28.07c-.52-.18-.61-.44-.26-.79a1.14,1.14,0,0,0,.53.53,1.5,1.5,0,0,0,1.05.52A4.53,4.53,0,0,1,548.75,342.55Zm2,46.61a7.63,7.63,0,0,0-1.75-.35v2.62a.7.7,0,0,1,.52.18,2.3,2.3,0,0,0,.53.35l.7.35,1.75-1.75A2.68,2.68,0,0,0,550.77,389.16Zm.08-12.51a6.28,6.28,0,0,0-1.48-.26,1.22,1.22,0,0,0,1.31-1,3.25,3.25,0,0,1,.79-1.49l.87,3.5A3.35,3.35,0,0,0,550.85,376.65ZM552.6,320a2.44,2.44,0,0,1-1.48.61l-.7-3.33a5.36,5.36,0,0,1,1.75.53,5.72,5.72,0,0,1,1.74,1.05A13.72,13.72,0,0,1,552.6,320Zm-2.18,18.45v-1.23h1.92v1.23Zm5.24,68.91a3,3,0,0,1-.7,1.75,2.44,2.44,0,0,0-1.57-.62c-.7-.05-1.22-.08-1.57-.08v-2.63a3.18,3.18,0,0,1,1.31-.78,3.38,3.38,0,0,0,1.31-.79,3,3,0,0,1-.7,1.49,1.81,1.81,0,0,0-.18,2l2.28-2.1A13.88,13.88,0,0,1,555.66,407.35Zm.53-22.83a3.35,3.35,0,0,1-2.28-.26l.88-3.15a19.91,19.91,0,0,0,1.83,1.66,7.24,7.24,0,0,1,1.49,1.67A4.44,4.44,0,0,0,556.19,384.52Zm4.28,14.35a5.36,5.36,0,0,1-.43-1.67c-.7,0-1,.12-1,.35s-.38.35-1.31.35-1.43-.23-1.48-.7a1.44,1.44,0,0,0-.62-1.05,2.32,2.32,0,0,0-1.4,1.05,2.9,2.9,0,0,0-.35,1.23,9.15,9.15,0,0,1,2.28,1.75,3.68,3.68,0,0,0,2.62,1.22c.93,0,1.43-.06,1.49-.17a3.9,3.9,0,0,1,.61-.7A5.34,5.34,0,0,0,560.47,398.87Zm-5-85.27a1.32,1.32,0,0,0-.18-.52,6.54,6.54,0,0,1-.26-.62,1.77,1.77,0,0,0-.44-.61c.35-.35.79-.84,1.32-1.48s1-1,1.31-1a4.8,4.8,0,0,1,1,1.67,5.41,5.41,0,0,1,.44,1.66Zm-.88,40.23V352.6h1.93v1.23Zm4,58.94a31.75,31.75,0,0,1-3.33-1.92,7.74,7.74,0,0,1,3.41.52,4.39,4.39,0,0,1,2.72,3.32A10.72,10.72,0,0,0,558.64,412.77Zm11.89-51.68a11.22,11.22,0,0,1-2.27.26,50.12,50.12,0,0,0-5.86-2.8q-3.06-1.21-5.51-2.27v-2.63a11.35,11.35,0,0,0,2.62,1.84c1.17.64,2.36,1.25,3.59,1.84a30.51,30.51,0,0,0,3.41,1.4,8.5,8.5,0,0,0,2.1.52h2.18c.53,0,1,.35,1.31,1.05A2.49,2.49,0,0,1,570.53,361.09Zm-3-6.56a2.61,2.61,0,0,0-.35,1.05h-2.63a3.37,3.37,0,0,0-2.45-2.19c-1-.17-2.39-.38-4-.61a3,3,0,0,1,1.66-1.49c.76-.29,1.26-.32,1.49-.08a4.45,4.45,0,0,1,1.31,1,2.3,2.3,0,0,0,1.84.7,4.83,4.83,0,0,1,3.5,1.05A1.94,1.94,0,0,0,567.56,354.53Zm-6.21,37.08a4.6,4.6,0,0,1-1.66.52l-.88-3.32a3.42,3.42,0,0,0,1.31-.35,3.46,3.46,0,0,1,1.32-.35,3.35,3.35,0,0,1,.78,1.22,3.47,3.47,0,0,0,.79,1.23A6,6,0,0,1,561.35,391.61Zm3.76,16.44a.47.47,0,0,0-.53-.53,2.77,2.77,0,0,0-1.13.27,8.5,8.5,0,0,1-1.32.43,1.46,1.46,0,0,1-1.22-.17c-.12,0-.17-.12-.17-.35s.29-.7.87-1.05a1.11,1.11,0,0,0-1-.44,4.75,4.75,0,0,1-1,.09c-.7-.7-.7-1.63,0-2.8a3.72,3.72,0,0,1,1.57.61,1.86,1.86,0,0,1,1,1.66c.35.35.64.3.87-.17a1,1,0,0,0-.17-1.23,3.42,3.42,0,0,1,1.31.35,3.29,3.29,0,0,0,1.31.35Zm-2.28-101.62a4.6,4.6,0,0,1-1.66-.52,5.81,5.81,0,0,1-1.66-1.05,2.19,2.19,0,0,1,.53-1.23,13.43,13.43,0,0,1,1-1.22,6.7,6.7,0,0,1,1.32.17,2.65,2.65,0,0,1,1.31.7Zm-.26,42a11.79,11.79,0,0,1-3.06-.88,21.63,21.63,0,0,1,3.32.35,9.42,9.42,0,0,1,3.68,1.4C565.22,348.93,563.91,348.64,562.57,348.41Zm.53,12.76a12.23,12.23,0,0,0-3.41-1.92,4.31,4.31,0,0,0,.17,2.8,4.31,4.31,0,0,1,.53,1.4c.35,0,.52-.12.52-.35s.47-.35,1.4-.35c.46,0,.76.09.87.26a.94.94,0,0,1,.18.53.6.6,0,0,0,.17.43,1.37,1.37,0,0,0,.88.18c.93,0,1.42-.18,1.49-.53a.55.55,0,0,1,.61-.52A11.91,11.91,0,0,1,563.1,361.17ZM562.66,275c-.12-.47-.35-.7-.7-.7a1.09,1.09,0,0,0-.61.17,4.91,4.91,0,0,1-.61.35l-.53.53a2.65,2.65,0,0,0,1.31.7,6,6,0,0,0,1.31.17A5.46,5.46,0,0,0,562.66,275Zm.52,44.42a2.78,2.78,0,0,0-.35,1.05,11.62,11.62,0,0,1-1.31-.08,2.15,2.15,0,0,1-1.31-.62,3.46,3.46,0,0,1,.35-1.31,2.82,2.82,0,0,1,1.4-1.31l1.75,1.75A1.16,1.16,0,0,0,563.18,319.37Zm5.16,64.45a3.58,3.58,0,0,1-.78-1.66.92.92,0,0,0,.35.79c.23.17-.12.26-1,.26s-1.37-.38-1.32-1.14.09-1.31.09-1.66a4.82,4.82,0,0,1-1.57,1,1.77,1.77,0,0,0-1,1.83c0,.94.14,1.4.44,1.4s.43.18.43.53a9.13,9.13,0,0,1,2.89.43,19.59,19.59,0,0,1,2.36,1A4.63,4.63,0,0,0,568.34,383.82Zm1.93,30.26a7.91,7.91,0,0,0-1.14-.09l-.35.35a2.91,2.91,0,0,0-.17,1.4h2.1a9.46,9.46,0,0,1-7-3.32,5.31,5.31,0,0,1,1.57-2.36,13.64,13.64,0,0,1,2.1-1.66c.35.7.06,1.51-.87,2.45a5.3,5.3,0,0,0,2.45,1.4,5.08,5.08,0,0,1,2.44,1.39A1.3,1.3,0,0,1,570.27,414.08Zm-3.94-130.91h-1.75v1.22h1.75Zm.53,30.43a2.55,2.55,0,0,0-.53-.35,1.73,1.73,0,0,1-.52-.35.75.75,0,0,0-.53-.17V310.1a6.59,6.59,0,0,1,1.66.35,2.69,2.69,0,0,1,1.67,1.4Zm1.57,77a5.69,5.69,0,0,0-1.92-1.66h1.83c.88,0,1.37-.17,1.49-.52v3.85A17.72,17.72,0,0,1,568.43,390.64Zm7.08,18c-.17.29-.72.44-1.66.44a5.83,5.83,0,0,1-3.32-1.49q-1.92-1.49-4-3.41a14.31,14.31,0,0,1,1.57-.87,5,5,0,0,1,2.28-.53,17.91,17.91,0,0,1,2.53,1.66c.64.53,1.28,1.11,1.93,1.75a8,8,0,0,1,1.48,2A.87.87,0,0,0,575.51,408.66ZM569,276.87l-1.58.88v.87l1.93-.87Zm1.4,71a2.69,2.69,0,0,0-1.75,1.4h2.62a7.19,7.19,0,0,0,.7-1,1.6,1.6,0,0,0,.17-.7A7.48,7.48,0,0,0,570.36,347.88Zm.69,3.59c-.93-.41-1.74-.79-2.44-1.14h3.32l1.57,1.75A6.26,6.26,0,0,1,571.05,351.47Zm-.52,69.35a3.37,3.37,0,0,1-1.92-1.58l1.75-1.75a11,11,0,0,1,2.44,1.84,3.52,3.52,0,0,1,1.4,2.36A18.76,18.76,0,0,1,570.53,420.82Zm1-65.15a6.14,6.14,0,0,0-2.18-.44,4.74,4.74,0,0,0,1.66,1,4.83,4.83,0,0,1,1.66,1A1.52,1.52,0,0,0,571.49,355.67Zm44.86-77.05q-8-.53-15.56-.35t-15.57.18l-1.57-1.4c-.24.7-.41,1.22-.53,1.57s-.58.76-1.4,1.23a9.83,9.83,0,0,1-1.22-3.33c-.35,0-.67.33-1,1a1.8,1.8,0,0,1-1.84,1c-.93,0-2.07-.06-3.41-.18s-2.3-.17-2.89-.17c.82.35,1.81.76,3,1.22s2.3.88,3.41,1.23l3.06,1a7.77,7.77,0,0,0,2.1.43,1.92,1.92,0,0,0,1.92-1.13,3.36,3.36,0,0,1,1.58-1.66,6.64,6.64,0,0,0,1.22,1,4,4,0,0,0,2.1.44,4.32,4.32,0,0,0,2-.35,3.73,3.73,0,0,1,1.84-.35,3,3,0,0,1,2.45,1.57,15.31,15.31,0,0,1,1.39,2.45q6,1.39,9.62,2.62a51.14,51.14,0,0,1,8.4,3.85,12.1,12.1,0,0,0,.61-3.15A18.43,18.43,0,0,0,616,284c0,.94-.81,1.4-2.44,1.4a2.47,2.47,0,0,1-2.8-2.8,2.14,2.14,0,0,1,.61-1.83c.41-.29.84-.61,1.31-1a3.74,3.74,0,0,1,2.1.7,3.43,3.43,0,0,0,1.57.7Zm-36.2,135.55a9.27,9.27,0,0,0-1-1.84,11.89,11.89,0,0,0-1.57-1.75,2.86,2.86,0,0,0-1.93-.78c-.93,0-1.48.26-1.66.78a3.31,3.31,0,0,1-.79,1.32,1.39,1.39,0,0,0-1-.36h-.35a18.4,18.4,0,0,1,2.37,1.49,10.36,10.36,0,0,0,2.88,1.49q-.53.53.09,1.14l1.14,1.13q0-.53.87-1a3.41,3.41,0,0,1,1.4-.44A4.1,4.1,0,0,0,580.15,414.17Zm-4.9-105.12-1.57.88V311l2.1-.88ZM584,346.48c-.47,0-.73-.05-.79-.17a1,1,0,0,1-.09-.44,1.15,1.15,0,0,0-.08-.44c-.06-.11-.33-.17-.79-.17s-.7,0-.7.09v.52c0,.06-.24.09-.7.09s-1.11-.41-1.57-1.23-.94-1.57-1.4-2.27a21.41,21.41,0,0,1,4.37,1.66,24,24,0,0,1,3.85,2.36Zm.52,71c-.47.35-1,.7-1.57,1.05a7.07,7.07,0,0,0-1.4,1,12,12,0,0,1-1-1.22,1.4,1.4,0,0,0-1-.7c-.35.35-.61.52-.79.52s-.26.47-.26,1.4a2.49,2.49,0,0,0,1.4,2.1,6.36,6.36,0,0,1,1.75,1.4l1.4-1.4a.68.68,0,0,1,.09.52,4,4,0,0,0-.18.44c-.06.18-.06.29,0,.35a1.73,1.73,0,0,0,.79.09c.93,0,1.57-.55,1.92-1.66a9.74,9.74,0,0,0,.53-2.19Zm1.31-4.11a21.71,21.71,0,0,0-1.13,2A2.61,2.61,0,0,1,583,415l-2.28-1.14a7,7,0,0,1,1.58-2c.7-.64,1.46-1.31,2.27-2a4.55,4.55,0,0,0,1.23.87,5.18,5.18,0,0,1,1.22.87C586.62,412.13,586.24,412.74,585.83,413.38Zm-1.4-125.58c-.76-.29-1.48-.61-2.18-1a4.83,4.83,0,0,0-1,1.66q-.45,1.14-.09,1.14c.23,0,.41.15.52.44s0,.61-.35,1a11.28,11.28,0,0,1,2.37-1.75,8.27,8.27,0,0,1,2.36-.52A5,5,0,0,0,584.43,287.8Zm0,68.3a6.6,6.6,0,0,1-3.06-1.57h2.1c0-.58.47-1.23,1.4-1.93a11.29,11.29,0,0,0-1.57-1,3.41,3.41,0,0,0-1.4-.43,9.65,9.65,0,0,1,2.53-.7.75.75,0,0,1,.79.43c.12.29.29.7.53,1.23a4.32,4.32,0,0,0,1.75,1.66v3.32A16.65,16.65,0,0,0,584.43,356.1Zm-2.09,26c-.3.65-.62,1-1,1a5.07,5.07,0,0,1,.18-1.23c.11-.46.35-.7.7-.7S582.62,381.44,582.34,382.07ZM583,275.12h-1.23v1.75H583Zm1.57,30.7a6.62,6.62,0,0,1-.35-.61l-.35-.7-1.75,1.92h2.63A1,1,0,0,0,584.52,305.82Zm26.06-10.41a4,4,0,0,1-1.31-.43,5.71,5.71,0,0,0-2.36-.44,4.62,4.62,0,0,1-3-1.4,4.66,4.66,0,0,0-3-1.4c-.93,0-1.34.12-1.22.35s-.29.35-1.23.35a3.45,3.45,0,0,1-2.62-1.49,5.47,5.47,0,0,0-2.27-1.83h-2.45c0,.7,0,1.4.09,2.09a9.24,9.24,0,0,1-.09,2.1c-.35,0-.5-.14-.44-.43s-.38-.44-1.31-.44a7.69,7.69,0,0,0-3.41,1.05c-1.34.7-2,1.51-2,2.45,0,.58,0,.9.17,1a1.2,1.2,0,0,0,.53.09,1.73,1.73,0,0,0,.87-.35l1.4,1.22c-.47.47-.7.82-.7,1.05s-.12.41,0,.53c1.05,0,2.21,0,3.5.08a5.06,5.06,0,0,1,2.62.61,1.63,1.63,0,0,0-.7-1.13,1.68,1.68,0,0,1-.7-1.14,13.82,13.82,0,0,0,2.71-2.36,6.46,6.46,0,0,1,2-1.66,31,31,0,0,1,4.46.35,14.49,14.49,0,0,0,4.46,0,8.78,8.78,0,0,1,1.92,2.45c.58,1.05,1.16,1.57,1.75,1.57a6.64,6.64,0,0,0,1.57-.09,2.08,2.08,0,0,1,.7-.08Zm-24.66,19.94a3.35,3.35,0,0,0-1.75,1.57.72.72,0,0,1,.53.18,1.94,1.94,0,0,0,.52.35l.7.35a14.28,14.28,0,0,0,1.4-1.75,3.9,3.9,0,0,0,.88-1.75Q587.15,314.82,585.92,315.35Zm-.17-8c.11.81.2,1.63.26,2.44a2.7,2.7,0,0,0,.61,1.75,3.36,3.36,0,0,1,1-2.45Zm11-21.52a16.36,16.36,0,0,0-3.14-.35,5,5,0,0,1-3-1.48,16.1,16.1,0,0,1-2.62-2.71,4.16,4.16,0,0,0-.87,1.31,4.49,4.49,0,0,1-.88,1.31,10.84,10.84,0,0,1,2.71,1.31,17.54,17.54,0,0,0,2.19,1.31l-1.23,1.05-3-.52c0,.35.32.78,1,1.31s1.14,1,1.49,1.31a7.07,7.07,0,0,0,1.05-1.4,7.38,7.38,0,0,1,1-1.4q.53.53.09,1c-.3.3,0,.44,1,.44a9.6,9.6,0,0,0,3.41-.79,10,10,0,0,1,3.58-.78A11.59,11.59,0,0,0,596.76,285.79ZM594,349.72a5.57,5.57,0,0,0-2.8-1c-.94,0-1.52.11-1.75.35a1.22,1.22,0,0,1-.88.35l-2.27-2.63a3,3,0,0,0,1.31-.78,3.33,3.33,0,0,1,2.19-.79c.93,0,2,.76,3.32,2.27s2.45,2.8,3.5,3.85C595.89,350.92,595,350.36,594,349.72Zm-6.65-15.83v-2.62h1.22v2.62Zm4.2,71.71a2.7,2.7,0,0,1-.7,1.4L587.67,406a4.7,4.7,0,0,0,1.75-.61l2.27-1.14A8,8,0,0,1,591.52,405.6Zm-.88,13.73a2.26,2.26,0,0,0-.52-1.66,2.17,2.17,0,0,0-1.23.52,12,12,0,0,0-1.22,1.05c.35.35.76.73,1.22,1.14a2,2,0,0,0,1.23.61A2.26,2.26,0,0,0,590.64,419.33Zm-2.27-20.55v-1l1.75-.88.35,1Zm.7-44.95V352.6H591v1.23Zm5.33-48.71a1.86,1.86,0,0,0-.78-1.31q-.52,0-1.14,1.05a3.59,3.59,0,0,0-.61,1.57h2.62A11.81,11.81,0,0,0,594.4,305.12Zm-1-4.11h-1.22v1.92h1.22Zm1.23,99.17-.88-1.05.7-.7,1,1.05Zm7.17-51.69c-.94.3-2.1.62-3.5,1a18.14,18.14,0,0,0-1.22-2.36,4.36,4.36,0,0,0-1.75-1.67,6.48,6.48,0,0,1,4.46.62,18.59,18.59,0,0,0,3.93,1.48A4.82,4.82,0,0,1,601.84,348.49Zm-2.54-51.42a12,12,0,0,0-2.36-1.66v3.33a12.36,12.36,0,0,1,2.27.26,14,14,0,0,0,2.45.26C601,298.56,600.18,297.83,599.3,297.07Zm-.52,107.57a7.29,7.29,0,0,1-1.14,1.66V403h1.57A2.4,2.4,0,0,1,598.78,404.64Zm4.63-61.31-3.67-1.57v-1.05l4,1.58ZM605,289.12a5,5,0,0,0-1.49-1.05,7.62,7.62,0,0,0-1.75-.53,4,4,0,0,1-1.49-.52,6.45,6.45,0,0,1,1.4,2.18,3.32,3.32,0,0,0,1.58,1.84h2.44A2.61,2.61,0,0,0,605,289.12Zm.61-6.21a5.52,5.52,0,0,0-.79-1q-.52.53,0,1.32a8.83,8.83,0,0,0,1.05,1.31,8.69,8.69,0,0,0-1.66.26,4.34,4.34,0,0,1-2.54-.26L601,280h4.72a6.51,6.51,0,0,0,.35,1.66,6.16,6.16,0,0,1,.35,1.66A.84.84,0,0,1,605.6,282.91Zm-.27,61.82v-1l1.58-.88.35,1.05Zm5.08,4.73-3.15-.88.87-3.32h4v2.62Zm-1.75-78-.88,1.75.88.35.87-1.75Zm2.45,84.48L608,354.35l.35-.87,3.32,1.57Zm4.81-63.05a8.21,8.21,0,0,1-.27-1.67h-4.72q-.52.53-1,1.05a1.25,1.25,0,0,1-1,.53,12.37,12.37,0,0,1,3.58.61c1.34.41,2.54.79,3.59,1.14A8.69,8.69,0,0,0,615.92,292.88Zm-4.46-16.71a2.08,2.08,0,0,0,1.66-.7c.41-.46.44-.87.09-1.22Zm4.72,143.25-.7.87,2.45,1.75.7-.87Zm2.62-140.1h-1.22v1.93h1.22Zm1.93,11.28c-.12-.06-.24-.26-.35-.61.11-.35-.09-.38-.62-.09a6.63,6.63,0,0,0-1.31,1c.7,0,1.43,0,2.19-.08s1.31-.09,1.66-.09A6.58,6.58,0,0,1,620.73,290.6ZM626.32,417l-1.05-.53.88-1.75,1.05.35Z" transform="translate(-288.25 -271.28)"/><path class="a" d="M613.9,389.33a11.19,11.19,0,0,1-2.71.88,11.37,11.37,0,0,0-2.71.87,2.85,2.85,0,0,1,.53-1.92,3.25,3.25,0,0,1,1.74-1.58Zm1.31-38.74c-1.22.3-2.36.62-3.41,1a5.6,5.6,0,0,0-.34-1.58,10.4,10.4,0,0,1-.35-3.15c.35,0,.93,0,1.74-.08s1.23-.27,1.23-.62a7.42,7.42,0,0,1,2.27,2c.82,1,1.4,1.66,1.75,2A13.38,13.38,0,0,0,615.21,350.59Zm2.37,5.51-.88.7-.87-1.05.7-.7Zm1.92,26.59-2.1.87v-1.05l1.75-.87Zm117.18-27.11a6.27,6.27,0,0,1-1.22,1.57,2.67,2.67,0,0,1-1.92.88,2.58,2.58,0,0,1-1.14-1.4q-.43-1-1-2.1l-1.05,1.22a2,2,0,0,0,.43,1.14c.29.41.56.61.79.61v11l1.22-1.4h2.28l1.57,1.75V372a6.37,6.37,0,0,1-3.14.26,19.69,19.69,0,0,0-3.15-.26,1.58,1.58,0,0,0,.08,1.57,7.87,7.87,0,0,0,2,1.4,14.34,14.34,0,0,1-.35,3.76,6.16,6.16,0,0,0-.35,1.66c-.82-.11-2,.59-3.5,2.1l-2.1,7.35.52.52,1.23-1.4h2.27l1.58,1.58v3.15a3.37,3.37,0,0,0-1.4.43,5.48,5.48,0,0,1-2.45.44,3.66,3.66,0,0,1-1.4-2.1,7.52,7.52,0,0,0-.7-2.1l-2.45,5.77a7,7,0,0,1,2,1.58,9.37,9.37,0,0,1,1.49,2.1l-1.58,1.75h-2.44l-1.23-1.4L719.19,404a3.36,3.36,0,0,0,2.1,1.23l-.87,3.32H718l-1.23-1.4-3.84,4.55a1.77,1.77,0,0,0,1.31.53h1.49v2.44a2.93,2.93,0,0,1-1.93.88,2.34,2.34,0,0,1-.61-1.49,5.69,5.69,0,0,0-.61-2,27.08,27.08,0,0,1-2.63,2.62q-1.57,1.41-3.32,2.8c-1.17.94-2.36,1.81-3.59,2.63s-2.3,1.57-3.23,2.27c-1,.23-2.27.55-3.67,1s-2.8.85-4.2,1.31-2.66.85-3.76,1.14a11.07,11.07,0,0,1-2.36.44H674.07a10.27,10.27,0,0,1-3.59-.88,15.67,15.67,0,0,0-3.58-1.05,24.77,24.77,0,0,1-11.55-4.89,61.65,61.65,0,0,1-10.66-10,66,66,0,0,1-8.31-12.33,45.43,45.43,0,0,1-4.46-11.81.48.48,0,0,1-.18-.35c-.23-.23-.41-.35-.52-.35l-11.55,12.77v-.53a1.67,1.67,0,0,0-.52-1.22c.35.35.61.26.79-.26a7.85,7.85,0,0,1,.44-1.14,111.48,111.48,0,0,0,10.14-12.77c-.24-1-.5-2.12-.79-3.23a12.2,12.2,0,0,1-.44-3.06v-2.28a3.52,3.52,0,0,0,2.72-1.13,15.17,15.17,0,0,0,2.71-3.24,14.16,14.16,0,0,0,1.75-3.85,3.16,3.16,0,0,0-.18-2.8,11.61,11.61,0,0,1,2.62-1.92,3.82,3.82,0,0,0,1.93-1.92l2.8,1.4.7-.7,8,4.37,4.9,19.59h2.45l1.22-1.23a6,6,0,0,0-2.1-4.19,6.3,6.3,0,0,0,1.49-1.14,2.55,2.55,0,0,0,.79-1.84l7.17,3.32,1.22-1.22a2.41,2.41,0,0,1,1.75-.7,1.89,1.89,0,0,1,.61,1.49,4.15,4.15,0,0,1-.43,2.18,10.28,10.28,0,0,0,2.36,1.32q1.13.44,2.1.78a5.73,5.73,0,0,1,1.83,1.14,5.4,5.4,0,0,1,1.4,2.36,3.3,3.3,0,0,1-.87,1.66,3.06,3.06,0,0,1-1.4.61,10.14,10.14,0,0,1-2,.18,17.6,17.6,0,0,0-2.36.17l-2.1.7-7.7-3a.48.48,0,0,0-.17.35,1,1,0,0,0-.18.7l5.95,6.12,2.8-2.1v8.22a18.14,18.14,0,0,1-4.29-.35,3.26,3.26,0,0,0-2.36.18,27.58,27.58,0,0,0,4.28,3.85,15.53,15.53,0,0,0,3.85,2,13.67,13.67,0,0,0,3.67.7c1.23.06,2.42.08,3.59.08,1.51,0,3-.05,4.37-.17s3.5-1,6.3-2.8a3.35,3.35,0,0,0,1.57-1.66,8.4,8.4,0,0,0,.7-2.19,21,21,0,0,1,2.28-1.13,8,8,0,0,0,2.45-1.67,2.39,2.39,0,0,0,.17-2,9.23,9.23,0,0,0-.87-2,6.1,6.1,0,0,1,1.66-1.4,2.23,2.23,0,0,1,2-.35,1.42,1.42,0,0,1,.87-.52c.24,0,.35-.47.35-1.4v-3.5l3.5-8.39v-2.63a2.77,2.77,0,0,0-1.49-.7,7.32,7.32,0,0,1-2-.7,6.82,6.82,0,0,1,.35-2.44,3.92,3.92,0,0,0,.35-1.4,2.7,2.7,0,0,1,1.49-.7,8.71,8.71,0,0,1,1.49-.18l1.92-2.62v-6.65l-1-1.22a3.25,3.25,0,0,1-1.31.78,2.37,2.37,0,0,1-1.84-.26l.88-4a3.46,3.46,0,0,1,1.4.44,5.36,5.36,0,0,1,1.4,1V338.44a11.44,11.44,0,0,0,4-2.63,1.64,1.64,0,0,0-1.4-.43,14,14,0,0,1-1.4.08,4.43,4.43,0,0,1,.44-1.57,4.82,4.82,0,0,1,1-1.57,1.9,1.9,0,0,0-1.4-.53,11.44,11.44,0,0,0-1.92.18,3,3,0,0,1,.08-1.58,9.11,9.11,0,0,0,.35-1.92,6.43,6.43,0,0,0-.26-2.28,5.34,5.34,0,0,0-1.75-2.44,4.94,4.94,0,0,1,1.4.26,11.85,11.85,0,0,0,3,.26,10.15,10.15,0,0,0,1.93-2.19,3.11,3.11,0,0,0,.7-2.18l-2.63-3.32h-3.32c-.35.34-.79.75-1.31,1.22s-.79.87-.79,1.22a3.63,3.63,0,0,1,1-2.27,28.34,28.34,0,0,0,2.1-2.8V312a4.29,4.29,0,0,0-1.57-1.75,11.66,11.66,0,0,0-2.63-1.4l-2.62,1.4a2.7,2.7,0,0,1,.26-1.66q.44-1.14,1-2.19a18.62,18.62,0,0,0-1-2.1,10.46,10.46,0,0,0-1.57-1.92,1.29,1.29,0,0,0-1,.09,6.41,6.41,0,0,1-1.14.43,2.06,2.06,0,0,1-1.31-.08,5.8,5.8,0,0,1-1.75-1.32l2.28-2.27a3.42,3.42,0,0,0-.35-1.31,3.29,3.29,0,0,1-.35-1.31l-1.93-1.23a6,6,0,0,0-1.92,1.58,10.9,10.9,0,0,0-1.4,2.09,11.92,11.92,0,0,0-2.62-1.83,9.19,9.19,0,0,0-3.15-1.14h-11a39.53,39.53,0,0,0-6.91,6,61.19,61.19,0,0,0-5.07,6.47A42.19,42.19,0,0,0,657.1,315a40.13,40.13,0,0,0-2.1,5.77c-.58-.58-1.34-.58-2.27,0a5.41,5.41,0,0,0-.44-1.66,12.34,12.34,0,0,1-.43-3.93,3.67,3.67,0,0,0,1.57,0,3.22,3.22,0,0,0,1.92-1.23V312l-1.22-1h-1.22l-5.6,11.89a4.57,4.57,0,0,0-1.84.35,3.25,3.25,0,0,1-1.31.35,4.15,4.15,0,0,0-.35-1.4,4.08,4.08,0,0,0-.87-1.4,6.6,6.6,0,0,1-1.49,1.05,6.6,6.6,0,0,0-1.49,1.05c.24-1.05.44-2.07.62-3.06a2.51,2.51,0,0,0-1.14-2.54c-1.64,1.17-2.54,2-2.71,2.45a4.92,4.92,0,0,0,.09,2.45,2.76,2.76,0,0,0-2-.26,10.69,10.69,0,0,0-2,.79l11.72,16.44a3.52,3.52,0,0,1,1.23-.7,2.71,2.71,0,0,0,1.39-1.4,4.46,4.46,0,0,1,1.75,1.57,3.35,3.35,0,0,1,.7,1.58l-1.4,1.22,21,12.59v1.75H657.28l6.47,7.7-3.85.87a7.77,7.77,0,0,1-4.63-1.75,27.83,27.83,0,0,1-4.55-4.28,46.09,46.09,0,0,1-4-5.42,57.2,57.2,0,0,1-3.06-5.34L627.9,362.75a4.9,4.9,0,0,0,.52,2,8.65,8.65,0,0,1,.7,2.36,8.2,8.2,0,0,0-1.57-2.1,8.25,8.25,0,0,1-1.58-2.1c-.7.35-.93.7-.7,1.05a1.91,1.91,0,0,1,.35,1l-3.5-3,1.23.87,2.1-2.1a2.56,2.56,0,0,0,1.92.7l13.82-16.44-15-8.22L625,338c-.41.41-.61.44-.61.09a11.75,11.75,0,0,1-.88-1c-.23-.29-.52-.27-.87.08.58-.58,1.28-.46,2.1.35l1-.87a5.47,5.47,0,0,1-3.41-3.41c-.65-1.69-1.14-3.18-1.49-4.46l1.75-1.75,7,4.9c0,.11.06.17.18.17a1.42,1.42,0,0,0,.87-.52l-2.79-8.4a3.08,3.08,0,0,0,.87-2.27h1.31a1.56,1.56,0,0,0,1.31-.7,3.15,3.15,0,0,1-1.4-1.05,2.65,2.65,0,0,1-.43-1.14c-.06-.41.32-.79,1.13-1.14a3.19,3.19,0,0,1-.78-1.22c-.18-.46-.62-.7-1.32-.7a1.55,1.55,0,0,1,.18-.7,6.48,6.48,0,0,0,.26-.61,1.6,1.6,0,0,1,.44-.61,3.92,3.92,0,0,1,1.4.35,4.09,4.09,0,0,0,1.4.35,50.43,50.43,0,0,1,5-11,72.3,72.3,0,0,1,8-11,60.06,60.06,0,0,1,10.14-9.18,33,33,0,0,1,11.11-5.34l1.75,1.4a7.75,7.75,0,0,0,2.27-1.31,8.9,8.9,0,0,1,3.32-1.49c1.52,0,2.51-.23,3-.7a1.94,1.94,0,0,0-.35.53,2.36,2.36,0,0,0-.18,1.05l1.75,1.92a4,4,0,0,0,1.23-3h6.82l-.7,1.22,1.92,1.75a1.64,1.64,0,0,0,1.14-.7,2.11,2.11,0,0,0,.61-1.4h2.45l11.54,5.42a3.46,3.46,0,0,0-1.4.44,9.93,9.93,0,0,0-1.57,1c0,1.17.81,2.16,2.45,3,.58-.82,1-1.46,1.31-1.93a2.76,2.76,0,0,0,.09-2.1,43.15,43.15,0,0,1,8.65,7.7,78.57,78.57,0,0,1,7,9.36,76,76,0,0,1,5.25,9.7,88.91,88.91,0,0,1,3.41,8.75,13.52,13.52,0,0,0-2.1.17c-.7.12-1.4.94-2.1,2.45.46,1.64,1.28,2.51,2.45,2.63a15,15,0,0,0,3.15,0l1.4,10a4.46,4.46,0,0,0,.17,2.09,18.53,18.53,0,0,1,.53,2.63,6.68,6.68,0,0,1-.18,2.62,3.12,3.12,0,0,1-1.92,1.93A4.79,4.79,0,0,0,731,344a2.19,2.19,0,0,1,.79,1.83v6.82a2.83,2.83,0,0,0,1.31.44,12.63,12.63,0,0,1,1.48.26,4,4,0,0,1,1.32.62A2.34,2.34,0,0,1,736.68,355.58ZM622.47,388.11h-1.22v-1.93h1.22Zm1.93-18.89-2.1,1v-1l1.75-.87Zm8.39-19.59c-.35,1.29-.76,2.54-1.22,3.76a30.61,30.61,0,0,1-1.75,3.76H627.2v-14c0-.93.23-1.37.7-1.31a9.6,9.6,0,0,0,1.22.09Zm-3,18.19c.35.35.35.91,0,1.66s-.7,1.14-1.05,1.14A8.69,8.69,0,0,1,629,369C629.21,368.2,629.47,367.82,629.82,367.82Zm3,14.69-1.75-.87-.35,1.05,1.75.87Zm3.33,7.35v-1.23h-1.75v1.23ZM638,386v-1.92h-1.22V386Zm12.24-3.67a10.09,10.09,0,0,0-2.62-1.84A23.24,23.24,0,0,1,645,379a12.54,12.54,0,0,0-1.67,2.45,4.7,4.7,0,0,0-.61,1.75,15,15,0,0,0,2-.26c.18-.06.21-.18.09-.35a1.41,1.41,0,0,1-.17-.79c0-.35.35-.81,1-1.4l2.44,1.4A3.15,3.15,0,0,0,650.28,382.34Zm0-75.73a1.84,1.84,0,0,0-.61-1.32,1.75,1.75,0,0,0-1.14-.61c-1.51,0-1.86.82-1,2.45,0,.35.38.44,1.14.26A3.34,3.34,0,0,0,650.28,306.61Zm-1,8.39v-1.75H648V315Zm5.95-15.39a4.16,4.16,0,0,0-.52-1.57q-.52-1.05-1-1.05T652.47,298a3.59,3.59,0,0,0-.61,1.57Zm.87,17.66-1.92-.87-.35.87,1.92.88Zm4.2-26.41a3.2,3.2,0,0,0-3.5,0,2.9,2.9,0,0,0,.35,1.23,1.11,1.11,0,0,0,.53.52,3.59,3.59,0,0,0,1.57-.61Q660.25,291.39,660.25,290.86Zm.7,14.87a2.31,2.31,0,0,0-2.36-1.22c-1,.11-1.6.17-1.84.17l.88,3.5a11,11,0,0,0,1.92-1.22A18.59,18.59,0,0,0,661,305.73Zm4.2-21.86q0-.53-1-1c-.7-.29-1.05-.27-1.05.08-.7,0-1.11.21-1.22.62a4,4,0,0,0-.18,1.13,2.79,2.79,0,0,0,2.27.09Q665.15,284.4,665.15,283.87Zm.7,14.69q-.52-.53-1.23-1.14c-.46-.4-.87-.78-1.22-1.13l-1.75.87.7,3.15H665a2.78,2.78,0,0,1,.35-1.05A2.87,2.87,0,0,1,665.85,298.56Zm-.35,70a.7.7,0,0,1,.09,1.05c-.3.35-.62.7-1,1.05a2.76,2.76,0,0,1,.18-.7,4,4,0,0,0,.26-.7A1.56,1.56,0,0,1,665.5,368.52Zm5.07-76.61a3.46,3.46,0,0,0-.87-1.66c-.59-.75-1.05-1.13-1.4-1.13a7.91,7.91,0,0,1-1.14-.09c-.41-.06-.61.38-.61,1.31v2.27a5.72,5.72,0,0,0,2.71-.26A7.68,7.68,0,0,1,670.57,291.91Zm3.32,52.47a3.48,3.48,0,0,0-1.48.53,3.46,3.46,0,0,1-1.49.52,1.66,1.66,0,0,1-.44-1,6.56,6.56,0,0,0-.26-1.14,5.51,5.51,0,0,1-.17-1.39c.35,0,.49.23.43.7s.38.69,1.31.69,1.34-.11,1.23-.35,0-.34.35-.34v.87C673.37,344.09,673.54,344.38,673.89,344.38Zm1.05-62.09h-2.62l-.87,3.33h3.32a1.87,1.87,0,0,0,.35-1.66A12.05,12.05,0,0,1,674.94,282.29Zm.18,68.92-.88,2.62-.87-.35.7-2.27Zm.17,49.67-1.75-1.75,1.75-1.75a3.15,3.15,0,0,1,0,3.5Zm4.55-108.27V290a4.33,4.33,0,0,0-2.71.18,7.72,7.72,0,0,0-1.49.69l.88,2.45Zm1.4,51.6a3.33,3.33,0,0,1-2.36.44c-1.23-.06-2-.09-2.36-.09a1.53,1.53,0,0,1,.87-1.49,3.16,3.16,0,0,0,1.4-1.48v.35a1.18,1.18,0,0,1-.35.87Zm0,48.8a2.14,2.14,0,0,1-2.8,0,7.49,7.49,0,0,1,.26-1.58c.18-.7.44-1.05.79-1.05s.73.35,1.14,1.05A3.62,3.62,0,0,1,681.24,393Zm3.5-109.14a.72.72,0,0,0-.18-.53,2.21,2.21,0,0,1-.35-.52,1.94,1.94,0,0,0-.35-.53h-3.15v2.45l1.4,1.58a3,3,0,0,0,1.58-1C684.39,284.72,684.74,284.22,684.74,283.87Zm.52,102.84a6.12,6.12,0,0,1-1.31-.18,2.57,2.57,0,0,1-1.31-.7v-1.92c0-.93.23-1.37.7-1.31a9.6,9.6,0,0,0,1.22.09,5.83,5.83,0,0,1,.61,1.48A4.18,4.18,0,0,1,685.26,386.71Zm.88,13.29a3.15,3.15,0,0,1-3.5,0,3.59,3.59,0,0,1,.61-1.57q.62-1.05,1.14-1.05t1.14,1.05A3.72,3.72,0,0,1,686.14,400Zm3.49-110-3.14-.87L684.74,291a4.21,4.21,0,0,1,.7,1,1.44,1.44,0,0,1,.17.52l3.15.7ZM691,393.71h-2.62l-.7-3.15,2.45-.88A7.27,7.27,0,0,1,691,392C691,392.54,691,393.12,691,393.71Zm3.68-109.84a.72.72,0,0,0-.18-.53,2.21,2.21,0,0,1-.35-.52,1.94,1.94,0,0,0-.35-.53h-3.32v2.45l1.57,1.58a10.94,10.94,0,0,1,1.58-1.23C694.36,284.63,694.71,284.22,694.71,283.87ZM696.63,386l-4,.7,1.75-1.75a3.41,3.41,0,0,0,1.22-2.27Zm2.8-96-3.15-.7-.87,3.15,3.32.87Zm3,88.15a6.07,6.07,0,0,1-1.57,1.05,5.85,5.85,0,0,1-2.62.52,14.72,14.72,0,0,1,1.57-2.71,17.56,17.56,0,0,1,1.57-2,4.08,4.08,0,0,0,.53,1.58A4,4,0,0,1,702.4,378.14Zm2.8-80.28a15.09,15.09,0,0,0-1.31-1.14,13.58,13.58,0,0,1-1.31-1.13c0,.35-.29.55-.88.61s-1.05.09-1.4.09a5.3,5.3,0,0,1-.35,1.57,5.63,5.63,0,0,0-.35,1.58l1.58,1.57h2.27a8.21,8.21,0,0,0,1.14-1.57A3.62,3.62,0,0,0,705.2,297.86Zm-.17,45.3a3.18,3.18,0,0,1-1.66-.61c-.65-.41-1-.79-1-1.14a11.18,11.18,0,0,1,1.23-1.05,2.3,2.3,0,0,1,1.4-.52,2.91,2.91,0,0,1,0,3.32Zm5.77-37.43a7.07,7.07,0,0,0-1.75-2.1,3.65,3.65,0,0,0-2.27-1.05l-2.28,1.58v3l1.58,1.75h3.14Zm-.7-14.87-1.58-1.57h-2.44l-.88,3.15,3.15.87c.35-.35.73-.75,1.14-1.22A2.07,2.07,0,0,0,710.1,290.86Zm.7,131a1.55,1.55,0,0,1-.7.18,1.29,1.29,0,0,1-.53.17c-.11,0-.29.12-.52.35a2.26,2.26,0,0,1-.53-1.66c0-.75.18-1.13.53-1.13s.73.26,1.14.78A2.41,2.41,0,0,1,710.8,421.86ZM715,299.44v-2.28l-2.45-1.75a11.92,11.92,0,0,0-2.1,1.84,3.33,3.33,0,0,0-1.05,2.19L711,301h2.45Zm.7,13.29-1.58-2.45h-4a5.65,5.65,0,0,1-.35,1.57,10.4,10.4,0,0,0-.35,3.15l3.15,1.58a4.89,4.89,0,0,0,1.83-1.67A16.9,16.9,0,0,0,715.7,312.73Zm0,13.81a8.74,8.74,0,0,0-2.28-1.66,4.9,4.9,0,0,0-1.75-.61l-2.27,1.57a10.4,10.4,0,0,0,.35,3.15,5.7,5.7,0,0,1,.35,1.58h4q.52-1.05,1-2.28A5.3,5.3,0,0,0,715.7,326.54Zm-1.4,17.84a7.07,7.07,0,0,1-1-1.4,7.28,7.28,0,0,0-1-1.39l1.4-1.75H711l-1.57,1.57a3.94,3.94,0,0,0,.52,1.57,6,6,0,0,0,1.05,1.58c.35,0,.91,0,1.66-.09S714,344.38,714.3,344.38Zm-1,13.3c-.35,0-.65-.29-.88-.88a4.08,4.08,0,0,0-.87-1.4c0-.35-.24-.23-.7.35a2.56,2.56,0,0,0-.7,1.4,2.13,2.13,0,0,0,1.57.53Zm7.34-36.38a5.7,5.7,0,0,0-.35-1.58,5.65,5.65,0,0,1-.35-1.57,3.61,3.61,0,0,1-1.57-.44,5.62,5.62,0,0,0-2.45-.44l-1.57,1.58V322l1.57,1.57h2.45Zm-.7,14.51a4.39,4.39,0,0,1-1.57-1.75,7.29,7.29,0,0,1-.7-1.92,6.36,6.36,0,0,0-2,1.14,3.92,3.92,0,0,0-1.31,2l1.57,2.27h2.45Zm0-28.5v-2.45l-1.57-1.58h-2.45a3.08,3.08,0,0,0-1.31,2.45,5.93,5.93,0,0,0,.61,2.27,3.21,3.21,0,0,0,2.36.18A12.08,12.08,0,0,0,719.89,307.31Zm-2.1,43.37c-.58,0-.87-.44-.87-1.31v-1.84a8.05,8.05,0,0,1-1.22-.09c-.47-.05-.7.38-.7,1.32v2.1a15.5,15.5,0,0,0,1.57-.09C717.15,350.71,717.56,350.68,717.79,350.68Zm-1.22,13.47V362.4h-1.22v1.75Zm8.22-49.85v-2.45a6.07,6.07,0,0,0-1.57-1.05,4,4,0,0,0-1.58-.52,4.53,4.53,0,0,0-1.75,1.57,3.46,3.46,0,0,0-.7,1.58l1.58,2.45h2.45Zm0,14.69v-2.27L723.22,325h-2.45a18.13,18.13,0,0,0-.88,2.54,3.26,3.26,0,0,0,.18,2.36,5.3,5.3,0,0,1,1.57.35,5.7,5.7,0,0,0,1.58.35Zm-1.4,15.57a7.56,7.56,0,0,1-.7-2.36,17.44,17.44,0,0,1-.17-2.36,5.16,5.16,0,0,0-1.84,1.57,3.27,3.27,0,0,0-.79,1.57,4.32,4.32,0,0,1,.7,1,1.35,1.35,0,0,1,.18.53ZM723,357.68c-.35,0-.64-.27-.87-.79a4.36,4.36,0,0,0-.88-1.31,1.52,1.52,0,0,0,.53-1.05v-.7l-1.23,1.22a1.92,1.92,0,0,0-.7,1.23,2.08,2.08,0,0,0,1.58,1.22A10.2,10.2,0,0,0,723,357.68Zm4.37-5.95a6.82,6.82,0,0,0-.26-1.57,7.49,7.49,0,0,1-.26-1.58c0-.35-.35-.26-1,.26s-1.05,1-1.05,1.32Zm1.58-15-1.4-2.8.7-1.05H725V336l1.58,1.57Zm-2.45,27.46V362.4h-1.23v1.75Zm10.14,21.68-1.57,1.75h-2.28l-1.74-1.75v-2.27l1.74-1.57H736a4.09,4.09,0,0,0,.35,1.4A6.64,6.64,0,0,1,736.68,385.83Zm-.7-43.37-3.32.7v-2.1c-.12-.93,0-1.37.44-1.31a7.67,7.67,0,0,0,1.13.09q.53,0,1.14,1.05A3.59,3.59,0,0,1,736,342.46Zm3.5,8.4-2.62-.7a2.45,2.45,0,0,1,.61-1.84,3.74,3.74,0,0,1,1.84-1.49,2,2,0,0,1,.35,1.75A15.82,15.82,0,0,0,739.48,350.86Zm-.87,9.27a6.25,6.25,0,0,1,0,2.09,7.14,7.14,0,0,1-.88,2.8l-.87-3.15ZM738.08,375a7.56,7.56,0,0,0-.7,2.36,19.23,19.23,0,0,0-.17,2.36,6.93,6.93,0,0,1,0-2.27A4.71,4.71,0,0,1,738.08,375Zm1.23-42.15a2.14,2.14,0,0,1,.52,1.57c0,.7-.17,1-.52,1a1.66,1.66,0,0,1-1.14-.69,2,2,0,0,1-.61-1.23,2.21,2.21,0,0,1,.52-.35A2.9,2.9,0,0,1,739.31,332.84Z" transform="translate(-288.25 -271.28)"/></svg>