<svg xmlns="http://www.w3.org/2000/svg" viewBox="0 0 640 65">
  <defs>
    <style>
      .a {
        fill: #ff9595;
      }
    </style>
  </defs>
  <path class="a" d="M371,41V83H-269V40a34.35,34.35,0,0,0,3.82-.73C-224,26.39-181.73,20.44-138.73,18.88A32.74,32.74,0,0,0-134,18h36a30.81,30.81,0,0,0,4.29.88c8.14.46,16.29.66,24.42,1.25C-26,23.31,16.34,31.36,58.21,42.46A601.39,601.39,0,0,0,178.65,61.69c22.23,1.25,44.61,1.21,66.86.33A449,449,0,0,0,304,56.26C326.54,52.35,348.68,46.19,371,41Z" transform="translate(269 -18)"/>
</svg>
