<svg xmlns="http://www.w3.org/2000/svg" viewBox="0 0 959.71 125.03"><defs><style>.a{fill:#ff931e;}</style></defs><path class="a" d="M1004.88,264.07c-2-1.53-4.63-.91-6.86.14A21.63,21.63,0,0,0,1004.88,264.07Z" transform="translate(-198.74 -252.65)"/><path class="a" d="M1096.84,355.75c1.22,0,2.44.22,3.44-.35C1099.05,355.16,1097.49,354.79,1096.84,355.75Z" transform="translate(-198.74 -252.65)"/><path class="a" d="M1127.25,258.58c-1,.08-2.06.16-2.06-.71-1.23.23-1.39.66-2.12,1.29C1124.62,259.2,1126,259.33,1127.25,258.58Z" transform="translate(-198.74 -252.65)"/><path class="a" d="M1106,282.52c.32,0,.77.12,1,.14s.08,0,.21,0,.18-.08.27-.12.13-.09.11-.16a.17.17,0,0,0-.1-.13.58.58,0,0,0-.42-.05c-.13,0,.07,0-.16.05s-.52-.12-.85-.1c-.87,0-1.61.33-2.34-.16,0,0,0,0,0,0-1.71-1.36-3.44-.56-4.79.64a41.7,41.7,0,0,0,4.87-.15s-.07,0,0,0A11.25,11.25,0,0,1,1106,282.52Z" transform="translate(-198.74 -252.65)"/><path class="a" d="M1056.71,355.85a53.61,53.61,0,0,0-5.57.49A11.31,11.31,0,0,0,1056.71,355.85Z" transform="translate(-198.74 -252.65)"/><path class="a" d="M1112.59,303.72a9.61,9.61,0,0,0,2,.2C1114.09,303.19,1113.25,302.87,1112.59,303.72Z" transform="translate(-198.74 -252.65)"/><path class="a" d="M1130.77,322.36c-.55-.17-.75-.54-1.26-.74C1129.35,322.29,1129.72,322.76,1130.77,322.36Z" transform="translate(-198.74 -252.65)"/><path class="a" d="M1116,296.3c-.1-.35-.42-.64-.56-1a5.56,5.56,0,0,0-2.66.82A12.33,12.33,0,0,1,1116,296.3Z" transform="translate(-198.74 -252.65)"/><path class="a" d="M1111.19,283a5.8,5.8,0,0,0,4.26-1.2,11.32,11.32,0,0,1-3.25-.27A11.33,11.33,0,0,0,1111.19,283Z" transform="translate(-198.74 -252.65)"/><path class="a" d="M1125.21,294.3c-.49,0-1,0-1.49.05,0,.25,0,.5,0,.75,2,0,3.68.14,5.34-.69-.48-.11-.32-.27,0-.49-1,0-2,.09-3.07.09-.08,0-.07-.12-.15-.17a.57.57,0,0,0-.38-.07c-.14,0-.24.1-.21.21s.26.23.27.32S1125.28,294.3,1125.21,294.3Z" transform="translate(-198.74 -252.65)"/><path class="a" d="M1124.29,292.07c1.61-.2.9-.54,0,0Z" transform="translate(-198.74 -252.65)"/><path class="a" d="M1140.91,282.15c.36,0,.48-.12.53-.27s.07,0-.07-.16a1,1,0,0,0-.85-.13c-.29.09-.59.27-.93.11,0,0,0,0,0,0a3.45,3.45,0,0,0-2.75-.09c-.31.09-.12.5-.52.42s-.83-.25-1.11-.13.17.31,0,.41-.15,0-.3,0-.29.05-.3.16.23.12.32.14.28-.05.29,0c.21.71-.81.7-1.53,1a14.53,14.53,0,0,0,6.66-.5,1.8,1.8,0,0,0-.66-.72s-.06,0,0-.06C1139.94,282.06,1140.54,282.15,1140.91,282.15Z" transform="translate(-198.74 -252.65)"/><path class="a" d="M1090.16,360.41c-1.23,0-2.46-.24-3.49.32a9.79,9.79,0,0,0,4.17.16C1090.4,360.82,1090.17,360.73,1090.16,360.41Z" transform="translate(-198.74 -252.65)"/><path class="a" d="M1095.74,359.56c-.71.34-1.61.27-2.11.78a14.37,14.37,0,0,1,2.08.21c.31-.3.48-.47,0-.74C1096.14,359.74,1096.16,359.64,1095.74,359.56Z" transform="translate(-198.74 -252.65)"/><path class="a" d="M1092.08,322.59c1.46-.11,3,0,3.67-1a9.26,9.26,0,0,1-2.24-.23A2.49,2.49,0,0,1,1092.08,322.59Z" transform="translate(-198.74 -252.65)"/><path class="a" d="M1137.35,307.67c.34.06.51.45.8.5a8.72,8.72,0,0,0,2.34,0A3.89,3.89,0,0,0,1137.35,307.67Z" transform="translate(-198.74 -252.65)"/><path class="a" d="M1108,351.22c-.64.28-1.55.27-1.76.82C1106.68,352,1109.3,351.51,1108,351.22Z" transform="translate(-198.74 -252.65)"/><path class="a" d="M1148.1,257.69a1.28,1.28,0,0,1-.72,1,23.84,23.84,0,0,1,3.44.94c2.55-.29,5.08.09,7.63-.15C1155.22,257.77,1152.16,257.46,1148.1,257.69Z" transform="translate(-198.74 -252.65)"/><path class="a" d="M774.85,375.56s0,0,0,0Z" transform="translate(-198.74 -252.65)"/><path class="a" d="M774.85,375.56l-.07,0a.85.85,0,0,0-.71-.16c-.43,0-1.06,0-1.67.07s-1.62.06-2.3.05c-.29,0-.63,0-.71.2s.26.23.53.24c.74,0,2,0,2.63,0s1.12-.07,1.56-.07a.85.85,0,0,0,.68-.18l.06,0h0S774.84,375.56,774.85,375.56Z" transform="translate(-198.74 -252.65)"/><path class="a" d="M774.85,375.59Z" transform="translate(-198.74 -252.65)"/><path class="a" d="M858.83,376.83a29.13,29.13,0,0,1-4-.12,31.78,31.78,0,0,0-5-.06c-.51.05-1.1.16-.76.51s.79.3,1.47.27a31.12,31.12,0,0,1,3.92.12,36.08,36.08,0,0,0,5,.08c.42,0,.82-.14.89-.36s.24,0-.1-.22A2.35,2.35,0,0,0,858.83,376.83Z" transform="translate(-198.74 -252.65)"/><path class="a" d="M1081.06,299.56l-.36,0a26.82,26.82,0,0,1-3.36,0c-.34,0-.59,0-.67.22s.17.35.49.38a27,27,0,0,0,3.82.08l.33,0c.13,0,.42-.17.42-.24s0,0,0-.07,0,0,0-.09A1.24,1.24,0,0,0,1081.06,299.56Z" transform="translate(-198.74 -252.65)"/><path class="a" d="M222,327.34s0,0,0,0Z" transform="translate(-198.74 -252.65)"/><path class="a" d="M282.66,289.61c-.09,0-.09,0,0,0Z" transform="translate(-198.74 -252.65)"/><path class="a" d="M1143.34,262.27c.36-.06.68-.09,1.05-.14a11,11,0,0,0,2.33-.5c.11,0,.2-.06.14-.15s0-.15-.28-.16a1.8,1.8,0,0,0-.89.08,7.05,7.05,0,0,1-1.63.31c-.58.05-1,.19-1.71.26a42.11,42.11,0,0,1-8.12.51c-.15,0-.24.16-.38.16-.61,0-1.27-.06-1.86,0-3.76.15-7.47.45-11.23.48-.23.24-1,.17-1.34.2-1.3.88-3.81.48-5.48.39a1.42,1.42,0,0,0,1-.42c.18-.19.22,0,.37-.05l.05,0h.07a4,4,0,0,1,.77,0,1.11,1.11,0,0,0,.44-.06h0a.85.85,0,0,0-.38,0,2.3,2.3,0,0,1-.23,0,31.46,31.46,0,0,0-4.57-.06c-1.64,0-3.94.13-5.57.17-3.4.06-6.61.08-9.84.33a3.13,3.13,0,0,1-.67,0c-2.41-.12-4.85,0-7.28,0,0,0,0-.09.07-.1s0,0,0,0,0,0,.18,0a7.56,7.56,0,0,0,1.31-.2l.1,0,0,0c0-.07-.23-.06-.4-.05a3.45,3.45,0,0,0-.66.07,4.09,4.09,0,0,1-.87.1h-2.59c-2.14,0-4.18,0-6.29,0,.77-.1,1.53-.22,2.29-.35-1.62,0-.6-.19,0-.74,0,0-.17.08-.09-.05s.59-.15.78-.16.3-.08.3-.19,0-.08-.15-.15a1.66,1.66,0,0,0-.83,0,4.47,4.47,0,0,1-.65.15h-.09s.06-.05,0-.05l-6.87.19c-.66.5-.85.94-.53,1.58-1.2,0-2.41.06-3.6.16a6,6,0,0,1-.6,0h-.54c-.14,0-.4,0-.41.05s.24.05.38.05h.51l1.1,0c.22,0,0,0,0,0,1.17.06,2.35,0,3.52,0,.07,0,.12.07.14.09h.06a2.13,2.13,0,0,1-.45.06c-2.85,0-6,.15-8.81.21-1.87,0-3.3-.25-5.09-.25.14,0,1.21.21.54.24-1.3.07-2.78,0-4.1.09a4.4,4.4,0,0,1-1.59-.13c-.29-.15.94-.1,1-.14-1.91-.19-3.85-.25-5.79-.28-.14-.92-1.37-1.1-2.17-1.75L1041,262a1.42,1.42,0,0,1,.71-.77,76.57,76.57,0,0,1-8.31.75c-1,1.05-2.53,1.55-3.88,2.35-2.93,0-6.14.1-9,.21-1.22.05.37.17-.81.22a13.41,13.41,0,0,0-1.9,0c-.1,0,.63.13-.11.13-4.41,0-8.86.18-13.29.1-2.42.18-4.84.27-7.27.35a18.5,18.5,0,0,0-7,.08,4,4,0,0,1-1,0c-.19,0,.23-.12.37-.16a1.65,1.65,0,0,0,.56-.62c0-.11,0,0,0-.05s0,0,0,0,0,0,0,0c2-.08.39-1.5-1.28-1.53s-4.57.32-6.45.17a11.77,11.77,0,0,0,2.9-.48l.17-.07,0,0h0c.14.59,1.53-.57,1.68-.7l.08-.07h0a19.43,19.43,0,0,1,2.12-.84c.55-.16.54-.5.67-.65s0,0,0-.06h0c2-.07.48-1.52-1.32-1.53s-4.68.26-6.83.19-4.59.1-6.78.08a1.77,1.77,0,0,1,0-.32l5.63-.67a1.3,1.3,0,0,0-.82-.42c-4.72.14-9.33.22-14,.34-6.87.19-13.67.28-20.6.37a8.51,8.51,0,0,0-2.65.35c5.58,0,11.11-.14,16.68.34a1.16,1.16,0,0,0,.49-.13,2.93,2.93,0,0,1,3.09.11,8.2,8.2,0,0,1,3.38-.62,3.31,3.31,0,0,1,.55,0,7.74,7.74,0,0,0,4.83,0c.78-.23,2.1.36,1.8.81s-.23.19-.13.18a17.41,17.41,0,0,1-2.29.08l-36.72.58a8.88,8.88,0,0,0-2,.35l-.16,0h0l-1,0H931a3.34,3.34,0,0,0-.94-.3c-3.58,0-7.15.07-10.71.12a3.09,3.09,0,0,0-.88.31c-.18.05-.06,0-.11,0a6.87,6.87,0,0,0-3.17-.1.89.89,0,0,0-.22.12h0c-2,1.16-5.06-.48-7.19,0a20.18,20.18,0,0,1-6.66.12c-3.47-.38-7.92.43-10.92-.08s-8.11-.94-9.85-.22c-.64.26-.85.4-.88.46a2,2,0,0,1-.92-.05c-1.41-.46-4.56-.68-5.46-.16-.58.33,0,0-.18.15l0,0v0c-.39-.25-1.23,0-1.69,0a4.66,4.66,0,0,1-1.18,0,5.68,5.68,0,0,0-2.13,0c-.27.16,0,0-.1.07s0,.06,0,0c-.4-.61-2.25.23-2.89,0-3.39-1.28-12.14-1.45-14.43-.45a3.72,3.72,0,0,0-1.18.64,7,7,0,0,1-.91-.07c-6.23-.11-12.81-.29-18.9-.39-3.69-.05-8.15,0-11.44,0-7.2.06-18.14.16-23.67,0l-1.64-.07h0c-1.29-.06-.36,0-.05,0a11.5,11.5,0,0,0-4.21-.06l-.46.09s.12,0,.09,0a6.74,6.74,0,0,1-3.75.18c-.6-.3-.12-.15-.22-.12a37.68,37.68,0,0,1,7.93-1.79c-4.72,0-9.44,0-14.16-.15-.95,0-1.89,0-2.85,0-.3-.4-.74-.19-1.1,0a2.57,2.57,0,0,1-1.68-.33c-.65-.8-1-.61-1.73,0a5.24,5.24,0,0,1-1.15.38c.74-1-1.12-1.57-2.27-1.76s-1.19.45-1.93.81c.57.05,1.83.61,1.89.93,0,0-.07.06-.1,0-.36-.17-.33-.08-.82,0a17.41,17.41,0,0,1-1.92,0,2.85,2.85,0,0,1-.39-.11,17.75,17.75,0,0,0-3.1-.17l-.09,0a.38.38,0,0,0-.57,0c-.21.16-.46.22-.68.36-4.75,0-9.51-.18-14.25-.37-2.07-.08-4.16,0-6.21-.13a116.27,116.27,0,0,0-17.31-.39s0,.05,0,.06,0,0,0,0,.06,0,0-.05c-.35-.6-1.35-.36-2.08-.35-2.34,0-4.7-.07-7-.05a7.37,7.37,0,0,0-1.21-.05c-4,1.09-12.36,1.32-15.41.46a9.48,9.48,0,0,1-1.33-.43c-2.11-.67-4.18.15-6.46.34a25.76,25.76,0,0,1-2.78,0,17.88,17.88,0,0,1-2.76,0c-1.69-.41-5.1-.83-6.28-.52a3.19,3.19,0,0,0-.59.19c-5.55,1.75-10.59.45-16.43-.11-.4,0-.75,0-1.14,0-2.36,0-4.65,0-7,0-.75,0-1.68-.24-2.11.33,0,0,0,0,0,.05h0s0-.06,0-.06c-3.36-.23-6.66-.26-10-.16-7.19-.11-14.39-.22-21.64-.29h0c-2.94-.11-6.07-.11-9.12-.15l0,0a4.42,4.42,0,0,0-1.87-.47c-.12,0,.32.37.2.44s-.53-.23-.58-.17a.66.66,0,0,0-.06.2h0a5.86,5.86,0,0,1-.82.09,2.46,2.46,0,0,0-1.59-.65,2.42,2.42,0,0,0-1.68.64h-2.55c-1.12-.06-2.35,0-3.55-.05h-.34c-.93-.06-2,0-3,0h0l.47-.08h0a16.79,16.79,0,0,0-2.86-.1c-1.27-.06-2.65,0-4,0h-.92c-.93-.06-2,0-3,0h-1.9c-.93,0-1.91-.06-3,0h0c-.52,0-.72.09-1.52.09-3.57,0-7.2.05-10.67-.08h0c-.35-.05-.94,0-1.49-.05-1.31,0-2.52,0-3.69,0l-.59,0-2.07.09h0c-2-.12-4.29-.18-6.75-.18h0c-4.32-.1-8.78-.07-13.16-.13a5.25,5.25,0,0,0-1.28.06,4.62,4.62,0,0,0,1.27.07l.48.1c-4.54,0-9.07.08-13.64,0a17.78,17.78,0,0,0-1.93-.08l-5,0a.59.59,0,0,0-.43-.08.71.71,0,0,0-.26.07c-3.95,0-7.89-.07-11.87-.05-.28,0-.59,0-.86,0q-7.33.08-14.74.08c-2.33,0-4.64,0-7,.08a3.63,3.63,0,0,0-1,.07,5,5,0,0,0,1.16.06c1.69,0,3.38.05,5.06,0,2.55,0,5.07.12,7.62,0h1.83c.89.06,1.9.09,3,.09,3.22.09,6.53,0,9.79,0a21.69,21.69,0,0,1,4,.2,15.5,15.5,0,0,0,2.59.13h5c2.22,0,3.45-.07,3.57-.28h0c4.4,0,8.81,0,13.15.07-1.19.08-2.53,0-3.75.07-.48,0-1,0-.94.08a3.94,3.94,0,0,0,.93.05,54.25,54.25,0,0,0,6.58-.14,15.2,15.2,0,0,0,4.27.24,57.61,57.61,0,0,1,6.84.16,40.9,40.9,0,0,0,5,0c1.45,0,2-.09,1.73-.23s.94-.06,1.53-.06c4.47,0,8.87.08,13.33.05.66,0,1.31.08,2,.08,5.67,0,11.26.13,17,.11,1,0,2.12,0,3-.06h0c.57-.06.12-.07-.41-.09s-1.37,0-2.08,0c-10-.15-20.32-.1-30.07-.4l-.14,0c.52-.07,1.36,0,2.06,0h3.34c3.28.12,6.76.12,10.2.14,1.42.06,3,0,4.45,0h.38c1.11.06,2.33,0,3.52,0h2.79c1.12.05,2.35,0,3.55,0h.38c1.61.07,3.31,0,5,0,.79,0,1.58,0,2.38,0h1.12a2.22,2.22,0,0,0-.55.75c-.2,0-.33,0-.31.05a.9.9,0,0,0,.28,0,.56.56,0,0,0,0,.18,1.7,1.7,0,0,1-1-.34c-.84-.63-1.07-.75-1.77,0a3.05,3.05,0,0,1-1.66.36c-.43-.12-.87-.43-1.19,0-1,0-1.91-.05-2.85,0-4.69.13-9.46.09-14.08.12a18.07,18.07,0,0,1,2.95.42L566,258.75h0c-2.71-.09-5.57-.07-8.35-.1q-16.21-.24-32.64-.26h0c-.7-.05-1.62-.05-2.44-.08h0c-.17,0-.39-.09.44-.09a10.65,10.65,0,0,0,1.46,0h0a10.27,10.27,0,0,0-2.13-.09c-1.28,0-2.55,0-3.8,0a.63.63,0,0,0-.41-.12.47.47,0,0,0-.38.13c-3.65,0-7.24.14-10.95.12-.28,0-.59,0-.89.06H504.1c-5.06-.24-10.42-.29-15.69-.11-2.79.1-5.49.11-8.3.11l-7.27,0-.51,0a21.34,21.34,0,0,0-2.33-.1c-5.54,0-11.07,0-16.6,0-2.91-.08-5.86,0-8.79,0h0c-1.15,0-2.3,0-3.44,0h0c-.48,0-1,0-1.44,0h-2a1.13,1.13,0,0,0-.33-.08,1.68,1.68,0,0,0-.61.08l-4.41,0H432l-4.87,0a5.32,5.32,0,0,0-1.85-.14h-1.52c1.21-.05,1.83-.12.87-.24h0l-1-.08c-.29-.06-.13-.08.64-.1,1.41,0,3,0,4.22-.09h0c2.54-.07,5.31,0,7.84-.12h0c3.13,0,6.23-.07,9.42,0,2.87.06,5.74.05,8.4-.1.69,0,1.74-.08,2.56,0,3.24.14,6.36,0,9.52,0a4.33,4.33,0,0,0,1.33-.1h0c1.81-.15,4.66-.05,6.71-.21l-1.07-.05c-3.95-.08-8-.11-12-.15-2.26,0-5.22,0-7.38.14-4.54.1-9.33.05-13.85.18-.42,0-1,0-1.41,0-1.66-.09-3.41-.07-5.19,0l-5.51.07c-4.87.06-9.81.06-14.59.17h0c-3.74,0-7.39.05-11.06.1-8.37.11-16.64.27-24.9.44-.8,0-1.64,0-2.39,0l-9.31.26c-9.79.22-21.13.57-31.34,1.06-3.35.13-6.65.28-9.69.46h0c-4.64.14-8.77.36-12.53.65a17,17,0,0,0-3,.34l-1.12.12h0a71.5,71.5,0,0,0-11.32.45h0c-1.47.11-2.1.27-3.27.4s-2.46.27-3.26.43c-1,.2-2.94.38-2.15.64h0c-3.91.18-5.38.54-3.72.89.18,0,.18.09.26.13h0c-.95,0-1.77.06-2.76,0v.13a13.28,13.28,0,0,1,1.35.09,4.06,4.06,0,0,1,.59.17c.23.15,1.67.29,1.23.44s-.23.26.65.37c-.37.08-1.39.15,0,.22h0c3.23.25,3.34.35.59.53-1.72.13-1.18.27-.1.41h0c.2.14-.12.29,1.54.39h0l.46,0h0s0,.06-.13.06c-3.27.16-4,.35-2.79.7h0a21.41,21.41,0,0,0,2.35.31h0c.17.08,1.45.15-.19.23-2.13.11-2.3.3-.67.52h0l.28,0-.28,0c.62.11-1,.13-1.19.2a9.22,9.22,0,0,0,1.27.06h1.67c1.22,0,1,.1-.89.22h-1.7a14.07,14.07,0,0,0-2.29.08c-.28.09.84.11,1.47.15,1.44.08,1.34.16.19.26-3,.21-3,.24-.15.41a3.42,3.42,0,0,1,.47.07c-.64.19-1.82.38-.8.59a.52.52,0,0,1,.23,0l-.23,0c-.23.08.21.15.62.22.85.15,1.81.3.76.48a7.43,7.43,0,0,0-1.37.1c-.82.14-1.69.29.15.42s1.53.25-.08.38a5.22,5.22,0,0,0-1.12,0,6.3,6.3,0,0,0,1.6.09h0c3,.17,3.22.21,1.82.4h0c-.47,0-1,0-1.41,0-.91.05-2.62-.05-2.68.06a22.31,22.31,0,0,0,2.71.11c.13,0,.74.09.13.11-1.64.06-.84.12-.1.18l1.42.11c0,.21,1.61.27,3.41.31h0a6.07,6.07,0,0,1,1.25.23,2.51,2.51,0,0,1-.61,0c-.69-.06-1.55,0-2.25-.05-.36,0-.05-.16.08-.21-1.37,0-2.3.37-3.76.43-2.19.08-4.78,0-7,.15a1.76,1.76,0,0,1-.38,0h.05s0-.08.07-.08c.91-.06,1.83-.08,2.74-.17,0,0-.17,0,0,0l.86,0,.4,0c.11,0,.32,0,.28-.06s-.23,0-.35,0l-.42,0c-.15,0-.3,0-.47,0-1-.05-1.94-.05-2.91,0,0-.62-.44-1-1.14-1.41l-5.41.1s.08,0,0,0,0,0,0,0h-.07c-.13,0-.4-.06-.56-.1a1,1,0,0,0-.64.05c-.1.08-.09.06-.05.15a.34.34,0,0,0,.33.16c.17,0,.55,0,.66.1s-.07,0,0,.05c.55.38,1.66.59.33.68l1.92.22c-1.7.09-3.33.15-5,.34l-.9.06-1.32.1a2.71,2.71,0,0,1-.77,0,3,3,0,0,0-.59,0c-.16,0-.32,0-.33.07l0,0,.09,0a6.24,6.24,0,0,0,1.2.09c.2,0,.1,0,.17,0s0,0,0,0,.13.08.09.09c-2.21.18-4.47.37-6.64.68a2.72,2.72,0,0,1-.62.05c-3,0-6,.29-9.14.51-1.5.11-3.62.22-5.16.32a23.7,23.7,0,0,0-4.24.48.7.7,0,0,1-.22,0,1.34,1.34,0,0,0-.36.09s0,0,0,0h0a1.07,1.07,0,0,0,.44,0,4.67,4.67,0,0,1,.75-.1h.06l.06,0c.16,0,.15-.15.37,0a1.66,1.66,0,0,0,1.11.29c-1.61.28-3.95.95-5.45.24-.38,0-1.05.17-1.34,0-3.66.42-7.34.59-11,.85-.58.05-1.2.19-1.79.26-.14,0-.28-.15-.42-.12a42.78,42.78,0,0,1-8.08.45c-.7,0-1.15-.08-1.73,0a8.08,8.08,0,0,1-1.68-.08,1.85,1.85,0,0,0-.9,0c-.28.05-.2.09-.24.2s.05.11.17.13a10.84,10.84,0,0,0,2.42.18c.38,0,.7,0,1.06,0a75.38,75.38,0,0,1-10.43,2.61,16.69,16.69,0,0,0,6.39.31c-.1.5-.52.69-1.18.89a28.35,28.35,0,0,0,7,0c-.13,1-1.1,1.1.93.93-.62.83-2.27.52-2.44,1.5,1.78-.11,3.57-.23,5.34-.36l-2,.22-1.63.18a1.89,1.89,0,0,0-.67.12l-.08,0h.06a2.13,2.13,0,0,0,.67,0l1.73-.19c.92-.11,1.94-.22,2.87-.3l.22,0c2.84-.23,5.68-.49,8.51-.74l2.14-.17c.14,0,.14.07.24.06.59-.06,1.17-.17,1.76-.22,2.73-.23,5.45-.44,8.18-.65l-.19-.08c1.6-.11,3.26-.31,4.83-.42.46,0,.09.11.16.25,2-.2,4-.31,5.93-.6a54.9,54.9,0,0,1,5.88,0c3-.21,5.95-.36,8.91-.67-3.29,1-6.65,1-10.19,1.16l-.08,0a6.7,6.7,0,0,1-1,0c-.29,0-.62,0-.88,0a3.17,3.17,0,0,0-.83.12c-.16.07-.14,0-.06.06a1,1,0,0,0,.54,0c.19,0,.6,0,.85-.05a3.31,3.31,0,0,1,.93,0h0l0,0a3.1,3.1,0,0,0,.86,0c.17,0,0,.13,0,.15s.13,0,.2,0-.08,0,0,.06.1,0,.21.06a3.43,3.43,0,0,0,.56,0c.12,0,.17,0,.18-.08,4.76-.15,9.42-.53,14.14-1h.3c.2,0,1.55-.08.89.3a17.32,17.32,0,0,1,4.05-.21c1.14.09,1.8-.08,3-.05L284,282c-.09.06,0,.12-.2.13s-1,.12-1.21.12c-1,0-.72,0-.15-.19-1,0-1.81.12-2.8.12s-2.1,0-3.12,0h-.07l-1.82.06a1.18,1.18,0,0,0-.44.07c-.1.05-.11,0,0,0a1.71,1.71,0,0,0,.5,0l1.21,0h.11s-.11,0,0,.1a1.48,1.48,0,0,0,.65.16h.87c.18,0,.3-.08.23-.1s-.41-.11-.35-.12a6.62,6.62,0,0,1,1.33,0c.34,0,.31.25.62.25a40.6,40.6,0,0,1,5.06,0c1.37.19-1.7.13.06.21a31.42,31.42,0,0,1-3.23-.05c-2.48,0-4.83.22-7.29.2-2.45.4-4.93.62-7.43.81a1.07,1.07,0,0,0,.33-.44,31.56,31.56,0,0,1-6.6.29,1.08,1.08,0,0,1,.11.47c-1.41.09-2.87.21-4.26.31-.56,0-1.22,0-1.7,0s-.51.14-.9.17c-4.85.42-9.73.78-14.56,1.28h.08c-1,.11-2,.19-3,.26l-2.13.17a3.39,3.39,0,0,0-1,.16l-.11,0h.1a3.28,3.28,0,0,0,1,0l1.85-.14c1.24-.07,2.68-.25,4-.34,4.59-.3,9.22-.58,13.78-1a1.92,1.92,0,0,0,.87.11c.54,0,1.27,0,2-.05,1.31-.18,2.56-.59,3.85-.06,0,0,0,0,0,0,0,.27-.12.4-.49.52a54.05,54.05,0,0,0,7-1,1.66,1.66,0,0,1-.43-.34c5.14-.39,10.16-.8,15.35-.86.81,0,1.31,0,2.28,0a41,41,0,0,0,5-.36,28.93,28.93,0,0,1,4.84.05c.42-.06,1.22-.17,1.56-.19a1.89,1.89,0,0,1,.65,0c.16.05-.27.09-.27.11s.18,0,.08,0l-.48.05-.59.05c-.58,0-1.11.07-1.71.09l-.53,0a3.31,3.31,0,0,0-.73.09c-.13,0,0,0-.05,0s.14,0,.12,0c-1.06.08-2.23.18-3.29.2l-3.06.06a21.42,21.42,0,0,0,3.22.13c1.67-.08,4.83-.39,6.75-.49,5.09-.29,10.08-.33,15.1-.39,1.41.05,2.87.09,4.41.1l.19.15a8.84,8.84,0,0,1-2.18-.1,2.32,2.32,0,0,0,1,.91l-1.37,0h0a5.78,5.78,0,0,1-.93,0h-.86c-9,.13-17.76.86-26.68,1.55-1.24.1-2.62,0-3.89.06.15,0,.24.28.42.28,1.11,0,2.24-.1,3.37-.16l.32,0h.08c5.1-.3,10.18-.62,15.28-1a48.18,48.18,0,0,1-4.86.7c.29.17-.5.18-.45.19a2,2,0,0,0,.68.07,13.37,13.37,0,0,1-3.71.22,18.54,18.54,0,0,0-2,.09,66.55,66.55,0,0,0-6.9.41c-2.52.21-7.57.56-10.5,1.07-.15,0-.1,0-.17,0h-.29a.71.71,0,0,0-.23.05s.13,0,0,.05-.62.1-.73.12-.09,0-.11,0l-3.17.29-1.56.15a1.9,1.9,0,0,0-.64.1l-.08,0H265a2.77,2.77,0,0,0,.64,0l1.68-.17c.89-.09,1.87-.18,2.77-.24l.22,0c3.28-.24,6.78-.51,10-.77a2,2,0,0,1,.53,0c4.56-.48,9.07-.74,13.58-1.05.43,0,.1.08.24.2,1.81-.15,3.65-.23,5.45-.46a55.8,55.8,0,0,1,5.64,0c2.73-.11,5.43-.16,8.18-.28a7.39,7.39,0,0,1-2.2.37c-7.32.18-14.82.61-22.18,1.09-.74,0-1.57.07-2.25.12s-1.2,0-1.79.11c-.17,0-.26,0-.33.08s-.06,0,.06,0a2.86,2.86,0,0,0,.64,0,2.79,2.79,0,0,1,.62,0l-.18,0-2.52.24c-.05,0-.13,0-.08,0a1.75,1.75,0,0,1,.33-.06c.05,0,.26,0,.16-.06a1.27,1.27,0,0,0-.38,0,5.23,5.23,0,0,0-.64.12c-.11,0-.1,0-.12,0s0,0,.07,0,.35,0,.4.05-.3,0-.26,0c1.53-.06,3.36-.17,4.84-.31.81-.07-.35-.1-.43-.13s-.24,0-.19,0a17,17,0,0,1,1.75-.09,1.2,1.2,0,0,1,.19,0c.06,0,0,0,0,0,2.83-.08,5.69-.25,8.51-.28H298l-.41.07c-.05,0-.1,0-.09,0s0,0,.11,0a2.47,2.47,0,0,0,.35,0l.44-.08c.11,0,0,0,0,0,2.32-.11,4.64-.29,6.95-.39,0,0-.05,0,0,0a.42.42,0,0,0,.22.05l.51,0c.12,0,.08,0,.17-.05a2.57,2.57,0,0,1,.4,0,11.68,11.68,0,0,0-3.25,1.24c-4.88.3-9.73.64-14.56,1.17h.08c-1,.11-2,.2-3,.27l-2.11.17a3.91,3.91,0,0,0-1,.15l-.1,0h.1a3.58,3.58,0,0,0,1,0c.45-.05,1.17-.11,1.82-.15,1.22-.07,2.72-.26,4-.36,4.47-.34,8.91-.6,13.37-.9,0,0-.07,0,0,0,.34.17,1.12,0,1.23.31s-.67.56-1.06.69a16.18,16.18,0,0,0-4,.55c-.55-.42.15-.66.15-1.12-1.57.57-2.84,1.42-4.4,2a56.54,56.54,0,0,0-8.76.89,3.64,3.64,0,0,0-1.41-.24c1.44-.43,3-.63,4.38-1.13,0,0-.19-.07,0-.09a9.42,9.42,0,0,0,1.08-.16c.22-.07.33-.08.52-.13s.35-.12.3-.27-.26-.14-.44-.11-.34.08-.53.11a2.21,2.21,0,0,1-.57.11c-2.79-.13-5.39.59-8.15.15-2.31.62-4.7.91-7,1.58a6.7,6.7,0,0,1-1,.17c-.38,0-1.06.21-1.45.26a1.29,1.29,0,0,1-.89-.21,1.07,1.07,0,0,0-.69-.14.34.34,0,0,0-.32.27c0,.08,0,.08,0,.09a3.29,3.29,0,0,0,1.56.59.33.33,0,0,1,.16.07s0,0,.05.08a1.6,1.6,0,0,1,.15.35c-2.39.49-4.78.63-6.84,1.63-.38,0-.17.1-.64,0-3.37-.34-6.27.32-9.71.72-1.64.19-3.89.28-5.63.49s-3.26.3-4.44,1.22c-.08.06-.1,0-.22.07s-.32.21-.31.28,0,0,0,.06,0,0,0,.05a.45.45,0,0,0,.47.15,2.15,2.15,0,0,1,.76-.23c.21,0,0,.06.14.08a.64.64,0,0,0,.36-.05,2.55,2.55,0,0,0,1.43,1.81c-2.28.61-4.57,1.42-5.73-.48-.66-.15-1.25,0-1.47-.53-3.78.81-7.5.35-11.41.66-.92.08-1.74.78-2.67.93.26,1,2.66.85,3.56,1.66a59.9,59.9,0,0,1,11.75.09c0,.35-.16.69-.2,1a16.62,16.62,0,0,1,2.22-.36c.39-.06.83-.63,1.49-.6a10.36,10.36,0,0,1,2.29.56c1.06.33,1.58.66,1.64,1.42.48.28.63-.09,1.17-.11s-.13.64-.41.72c2.67-.18,5.34-.11,8-.21l-.06-1a2.67,2.67,0,0,1,1.84.92c9.9-1,19.74-2.2,29.61-3.35,0,0,.17-.14.22-.06s-.09.12-.15.19l-.23.25a.14.14,0,0,0-.06.1s0,0,0,0c-2,1-4.24,1.56-6,2.72-.55-.11-.83-.42-1.42-.46a29,29,0,0,0-3.25,1.19c-.14.08-.41.08-.57.16s-.46.27-.65.19.15,0-.07-.08a1,1,0,0,0-.76.17c0-.48.54-.58,1.16-.71-2.14-.35-4.13.1-6.28.18a8.78,8.78,0,0,1-4.52,1.26c.21-.17.58-.39.75-.54s.11,0,.33-.12.5-.27.46-.48-.44-.25-.65-.2-.41.19-.58.16,0,0,0-.05c-.38-.28-.76-.15-1.23,0a20,20,0,0,1-2.84,1.66c-1.38.17-2.75.11-3.5,1a20.4,20.4,0,0,0-3.16-.48,4.67,4.67,0,0,0-1.34,1.36s.17,0,.12,0a9.21,9.21,0,0,1-3.09.34h-.59a1.31,1.31,0,0,0-.78.3c-.06.14-.05.06,0,.19s.36.22.54.22h.52a14.56,14.56,0,0,0,3.81-.44,152.79,152.79,0,0,0,21.41-3,1.76,1.76,0,0,0,.4-.06c.19-.07.56-.13.81-.22s.53-.35.84-.21c0,0,0,0,0,0,1.83-.23,5.15-.61,6.57-.77.92-.11.07,0,.35,0h.1c-.11.35.35.45.85.57s1.73.42,2.12.51l.18,0a2.42,2.42,0,0,0,1.7.57c.31-.1,0,0,.12-.05h0c3,.79,5.94.47,9.13.45-1.91.2-4,.6-5.91.63s-1.14.93-.87,1.34l.13.2h0s-.06-.09,0,0l0,0h0s0,0,0,0h0s0,0,0,0c.44-.06.36.43.86.53s1.29.25,1.83.4c-2.33.29-4.7.49-7,.8.48.32.25.59.16,1-3.72.4-7.47.65-11.18,1.13-.44.85.79.8,1.75.76-1.28,1-2.91,1-4.72,1.18,0,0,0,0,0,0-.34.27-.88.15-1.32.17s-.87.09-1.22.11a257.62,257.62,0,0,0-30.16,4c-1.5-.14-3-.23-4.49-.24.18.48.37,1,.56,1.45,1.25-.22,2.53-.24,3.82-.39l.35,0h.08c5.63-.39,11.21-.91,16.8-1.46a13.77,13.77,0,0,1-5.27,2.53c.11.42,0,.67-.53.91.35.31.12.64.85.56a3.88,3.88,0,0,1-4.28.09,3.92,3.92,0,0,0-1.93.27c-3.24-.81-4.07-.07-7.73.5-2.91.46-8.24.92-11,2.46-.25,0-.12,0-.2-.11a.37.37,0,0,0-.32-.07c-.13,0-.2.1-.21.19s.1.06,0,.17a2.59,2.59,0,0,1-.74.38c-.13.06-.05.14-.1.14-1.09.12-2.24.3-3.27.51-.54.11-1.18.24-1.62.3s-.53.16-.63.33,0,.06-.06.07a.08.08,0,0,1,.07,0c.15.12.26.2.68.12l1.74-.32a24.18,24.18,0,0,1,2.87-.45l.21,0c3.51-.26,7-.69,10.49-.95.44,0,.36.19.56.36,4.8-1.12,9.84-1.44,14.76-2.26.38.38.24.78.28,1.22,2-.43,4.11-.41,6-1.17,2.18.57,4.47.06,6.41,1.05,3.14-.48,6.34-.62,9.43-1.23a8.52,8.52,0,0,1-4.83,2.47c-.33.05-.67.1-1.07.14-1.11.15-2.47.28-3.26.43h0l-1.49.15s0,0,0,0a.64.64,0,0,1-.19.08l-.17,0a4.79,4.79,0,0,1-.77-.07c-.38,0-.64,0-1,0a1.13,1.13,0,0,0-.82.35c-.1.15-.08.05,0,.18-2.1.19-2.68.47-1.4.74a.57.57,0,0,1,.25.12h0c-.94,0-1.76.07-2.76,0v.14a13.07,13.07,0,0,1,1.35.09,3.89,3.89,0,0,1,.6.17c.23.15,1.66.29,1.22.44s-.23.25.66.37c-.38.07-1.4.15,0,.22h0c3.24.25,3.35.34.59.52-1.72.14-1.17.27-.09.41h0c.2.14-.13.3,1.53.4h0l.47,0h0s0,.05-.13.06c-3.27.16-4,.34-2.8.7h0a23.35,23.35,0,0,0,2.35.31h0c.17.07,1.45.15-.2.23-2.12.11-2.3.3-.67.51h0a1.2,1.2,0,0,1,.28,0l-.28,0c.62.11-1,.12-1.18.2a9,9,0,0,0,1.27.06c.56,0,1.15,0,1.66,0,1.23,0,.95.1-.89.22H262a15.69,15.69,0,0,0-2.29.07c-.29.09.84.12,1.47.16,1.44.08,1.33.16.19.25-3,.21-3,.25-.16.42a3.61,3.61,0,0,1,.48.07c-.65.19-1.82.37-.81.58a.87.87,0,0,1,.24,0l-.24,0c-.1,0-.06.08,0,.11-4.27.5-8.55,1-12.76,1.72,0,0,.13,0,.09,0a15.34,15.34,0,0,1-3.06.34c-.63,0-1.63.11-2.19.12a1.25,1.25,0,0,0-1,.42c-.18.18-.08.07-.05.09.36.26.47.28,1.06.24l1.91-.1a21.34,21.34,0,0,0,4.05-.49c4.37-.05,8.65-.29,12.93-.71,2.54.14,2.67.19,1.35.37h0c-.48,0-1,0-1.42,0-.9,0-2.62-.05-2.68.05a19.85,19.85,0,0,0,2.72.12c.12,0,.74.09.13.11-1.65.06-.85.11-.11.18l1.42.11c0,.2,1.61.27,3.42.31h0c1,.07.79.19,1.48.26.35.07.64.15.46.22-.85.1,0,.16.72.19,2.46.1,2.1.26,1.32.44h0c-.33.06-1.3,0-1.59.07h0c-1,.11-.93.22,0,.33.57.13,0,.3,1.42.41h0l.92.08h0s.05,0,0,0c-3.43.19-4.25.41-2.77.75h0l.38.05h0c.29.07.91.12,1.51.18h0c-.15.08,1.95.15.33.26-2.27.15-2.5.31-.83.54h0c.67.11-1.12.12-1.18.22l1.11,0a14.24,14.24,0,0,1,2.44.07,12.67,12.67,0,0,1-2.52.16h-.72a14.64,14.64,0,0,0-2.29.07c-.3.08.75.12,1.4.15,1.41.07,1.55.15.35.25l-.83.05c-2,.19-2,.2.35.36.59,0,.48.09.49.14-1,.21-1.3.43-.38.66h0c1,.18,2.53.36,1,.58h0c-.76,0-1.82.06-1.59.18-1.1.18-.22.3,1.45.4.62.1.52.19-.39.27a8.86,8.86,0,0,0-1.64,0c-.14.08.74.11,1.57.12h0a18.38,18.38,0,0,1,2.85.26h0c-1.16.21-3.76.12-5.82.21,1.29.07,2.33.1,3.45.11h0c.14,0,.65.08.29.09-2.23.1-.69.15.25.21h0a16.45,16.45,0,0,0,4.36.4c1.13.08,2,.17,2.63.28a16.14,16.14,0,0,0,2.73.25h.39c1.06,0,2.19.05,3.18.09,2.83.13,5.65.25,8.88.27a5.12,5.12,0,0,1,1.64.12h0l-1.86,0c-.67,0-2,0-1.63.1a14.28,14.28,0,0,0,2.14,0c2.37-.09,4.81-.1,7.29-.07h0c3.22.09,6.35.2,9.72.23,1.13.06,2.42.07,3.68.08,3.48,0,7.07,0,10.35.19,1.28,0,2.45.14,4,.13,3.18.14,6.69.14,10.11.17h1.44c-1,.12-2.09.21-3.18.27,0,0,.18.07,0,.08s-.78.06-1,0-.27-.11-.45-.18c-5.13.79-10.31.67-15.51.7-2.44,0-4.47.51-6.87.68-4.26.3-8.53.7-12.79,1.23-.31,0-1.12.1-1.38.12-7.48.62-14.83,1.2-22.27,1.76,0,0,0,0,0,0a65.71,65.71,0,0,0-18.3,2c5.83-.41,11.76-.7,17.54-1.12a5,5,0,0,1,.52,0c7.45-.56,14.73-1.13,22.2-1.76l1.65-.14c.33,0,.49-.12.71-.13,3.24-.16,6.42-.24,9.65-.32h0a4.42,4.42,0,0,1,.65,1.42c1.23-.39,2.35-.88,3.61-1.25,0,0-.07,0,0-.05a2.36,2.36,0,0,1,.6,0,.6.6,0,0,0,.55-.3c3-.14,5.89-.34,8.82-.66,2.1.07,4.19.07,6.29.14a20.1,20.1,0,0,1,5.21-1.64c.07,0,.08.08.12.11s-.13,0,0,.09a1.64,1.64,0,0,0,1,0,2.63,2.63,0,0,1-1.54.47c.79.46,1.43,1,2.22,1.48-11.51.7-23,1.35-34.38,2.58a7.86,7.86,0,0,0-2.52.13,3.55,3.55,0,0,0-1.94.08c-.19.05-.29.18-.29.29s0,.07.08.17a.81.81,0,0,0,.65,0,1.15,1.15,0,0,1,.68,0c.12.06-.14.06-.2.07-.82.15-1.68.26-2.54.35-.05,0-.14,0-.07-.09a1.69,1.69,0,0,1,.33-.17c.1-.05.23-.14.12-.23a.38.38,0,0,0-.39,0,2.41,2.41,0,0,0-.62.36c-.09.09-.09,0-.1.12s0,0,.08.12a3.84,3.84,0,0,0,.47.36c.1.09-.31.06-.24.12s.32.06.44.1c-2,.18-3.91.44-5.86.69,0,0,.07,0,0,0-.94.08-1.87.18-2.8.31,0,0,0-.05,0-.05a145.16,145.16,0,0,0-16.59,1l-.18-1a40.15,40.15,0,0,1-5.3.58,14.94,14.94,0,0,0,5.48.41,5.79,5.79,0,0,1,2.29,1.79c1.29-.36,5-1.1,5.84-.22s-3.16.11-2,1.05c0,0-.12,0-.14,0-.42.15-.94.51-1.36.61a29.44,29.44,0,0,1-4.1.64,3.47,3.47,0,0,0-1.62.5c-.31.21-.05.09-.13.14h0a2.4,2.4,0,0,0,1.75.26c1.7-.18,3.53-.46,5.24-.77a46.18,46.18,0,0,0,7-.35,48.17,48.17,0,0,1,5.11-.39,3.3,3.3,0,0,0,1.81-.34c.49-.32,0-.42-.55-.43a48.94,48.94,0,0,0-6.34.4c-1.84.22-3.09.33-4.85.4.19,0,.37-.17.54-.21a78.42,78.42,0,0,1,10.22-2.62c-.27-.35-.8-.51-1.07-.86.23.05.7-.16.87-.06a7.65,7.65,0,0,0,1.07.57c2.11-1,4.59-1,7-1.53,0,0-.07-.05,0-.05,1-.06,2.36-.18,3.25-.29s1.88-.19,2.53-.25,1,0,1.19-.34-.28-.25-.83-.22-2,.17-2.68.25c-.1-.31-.64-.42-.83-.69,0,0-.25-.08-.18-.1a4,4,0,0,1,1.92-.06c.07,0,.17,0,.21,0s0,.06,0,.1c3.07.23,6.17,0,9.18.52,0,0,.14-.07.08,0s-.36.24-.44.31-.1.07-.09.14,0,.07.11.09a.45.45,0,0,0,.37-.06c.12-.08.35-.25.47-.32s-.05,0,0,0a62.06,62.06,0,0,0,11.15-1.42c4.15.45,7.2-.24,11.36-.78,5.44-.7,11.59-.47,17.13-1.24,1.29.12,2.55.22,3.81.4,3.61-.33,6.78-.38,9.93-1.72a1.72,1.72,0,0,1,1.22-.12s-.19,0,.07.06,2.12.15,1.12.4c2.69-.1,5.38-.25,8.08-.23a6.53,6.53,0,0,1,1.31.41l.11,0s0,0,0,0a0,0,0,0,1,0,0h0c.1.44,1.19.81,1.53.7s0,0,.14-.06h0c2.78,1,5.78,1.07,8.84,1.51-1.62.08-3.22.24-4.81.41-.45.05-.88,0-1.32.05-1.37-1.05-3.33-.46-5-.08-.15,0,.2,0,0,.08a1.88,1.88,0,0,1-.88,0,.86.86,0,0,0-.67.22c-.08.1,0,0,0,.08s0,0,0,0,.14,0,.08.11-.26.21-.32.32l5.48.28c0,.11,0,.21,0,.32-2.13.16-4.41.19-6.5.39s-4.52.21-6.46.28c-1.48.06-1.7.1-1.71,1a2.52,2.52,0,0,1-.17.44s0,0,0,0l-.11.05a3,3,0,0,1-1.31-.1c-.34-.07-.45.15-.74-.08,0,0,.08-.08-.13-.16-1.81-.72-4-.33-5.95.07-.25,0-.46-.16-.61-.19s-.15-.05-.24-.06a1.09,1.09,0,0,0-.26,0,12.75,12.75,0,0,0-1.56.21c-.49.12-.9.41-1.38.17,0,0,.05,0,0,0-4.81-.76-9.81.06-14.48.43-1.5.11-1.8-.33-3.13-.07a1.21,1.21,0,0,1,1.73-.23c.41-.18.11-.26-.05-.49a163.7,163.7,0,0,1,18.88-.68c1.46.05-.19.39.85.67a38.51,38.51,0,0,0,5.15-.76c-1,1.16,2.44-.08,3.08-.28-1.31-.22-2.11-.4-1.76-1.39-2.43.14-4.36.27-5.88-1.18-4.16,1.28-8.61,1.62-13.06,2-1.24.11-1-.26-1.4-.82-4.84.86-9.87.87-14.69,1.82a22.83,22.83,0,0,1-3.34.24c-1.15.06-2.48.11-3.62.22a1,1,0,0,0-.6.31c-.08.1,0,0,0,.08s0,0,0,0a.68.68,0,0,0,.69.22c1.18-.11,2.23-.17,3.47-.21s2.68-.13,3.95-.3c0,0,.07,0,.13,0s0,.06.08.08a1.49,1.49,0,0,0,1.57-.19c.51.79,1.6.7,2.74.66-1.22.41-2.49.75-3.67,1.2a12.58,12.58,0,0,0,5.42.59c0,.67-2.24.06-1.81.73.57.89,3.07.25,4.24.23a9.92,9.92,0,0,0-1.82-1c5.62-.5,11.24-.83,16.9-1,0,0-.06-.07,0-.07.57,0,1.48-.13,2-.2a5.24,5.24,0,0,1,1.06-.14,2.6,2.6,0,0,1,.83.21c.17.07-.14,0-.11.16s-.06.49.08.67c1.86-.44,3.9-.39,5.75-.79.21-.05.08-.14.14-.15a3.49,3.49,0,0,1,1.44,0c.51,0,1,0,1.46.09.11,0,.17,0,.33,0s.5,0,.66.1a1.8,1.8,0,0,0,.56.33c.56.15,1.59.54,2,.66l.18.06c.12.39,1.18.8,1.51.7s0,0,.13-.05h0c0,.05.19,0,.29,0-1.71-.07-1.13,1-.91,1.47.13.33,0,0,.05.14s0,.05,0,0,0,0,0,0c.43,0,.3.52.65.67s.88.27,1.27.45c-1.29.05-.33,1.2-.19,1.45s0,0,.05.11v0c.44-.05.3.51.73.67s1.59.54,1.94.66l.17.06a1.9,1.9,0,0,0,1.53.7c.33-.1,0,0,.13-.05h0c3,1.1,6.13,1,9.38,1.45a8,8,0,0,0,3.74.57c4.3-.1,8.43-.17,12.7.09,2.65.16,5.23-.43,7.83-.58a13.13,13.13,0,0,1,1.54,0,3.59,3.59,0,0,0,.74,0c1.28-.07,2.48-.1,3.73-.07,16.2.28,32.33.79,48.52,1.41.8,0,1.62-.31,2.38,0,1.51.68,3.3.37,5,.39,6.65.07,13.34.47,19.89.75s12.84.47,19.37.67c.14,0-.11.24.17.24a11.24,11.24,0,0,1,1.19-.2c4.85.11,9.77.26,14.63.44.87,0,1.69.29,2.56.32.45,0,.84-.22,1.28-.21,5.61.15,11.21.33,16.82.48,2.61.3,5.26.45,7.89.54.09,0,.33-.07.32,0s-.37.24-.38.31,0,0,0,0,0,0,0,.05a.64.64,0,0,0,.35.14.94.94,0,0,0,.49-.1c.08-.07.12-.2.24-.2a76.61,76.61,0,0,1,7.89.76,4.06,4.06,0,0,0-2.05-.55c2-.32,3.9-.11,5.88-.24.52,0,1,.1,1.55.09l-.24,0c-.14,0-.61.13-.58.28s-.09,0,.11.19a2,2,0,0,0,1.12.2l1-.15c.38-.06.91-.14,1.33-.18,0,0,0,0,.07,0s0,0,0,0a43.35,43.35,0,0,0,5.35.12c.07,0,.09.09.17.15a.81.81,0,0,0,.49.11c.16,0,.35-.05.35-.18s-.36-.28-.39-.36.23,0,.32,0c.49,0,.91-.05,1.45-.06a7.32,7.32,0,0,1,2.55.26,15.38,15.38,0,0,0,3.63.35c7.63.17,15.32.32,23,.43,5.11.41,10.23.8,15.36,1.13,0,0,0,0,0,0,1.22.13,2.58.24,3.78.32l1.92.13c.51,0,.81.06,1-.21s-.19-.29-.66-.33l-1.94-.13c-1.06-.08-2.32-.13-3.35-.29-.59-.09-.92-.29-1.47-.39l6.37,0v.61h2.79a2.18,2.18,0,0,0-.45-.62c5.18,0,10.35,0,15.53,0,10.22.06,20.42,0,30.64.07s20.48.08,30.71.06c5.19,0,10.39,0,15.58.05a2.67,2.67,0,0,0-.51.62h2.81L728,375l6.42,0c-.57.09-.93.29-1.53.38-1,.14-2.33.2-3.4.27l-2,.12c-.48,0-.82.05-.7.33s.44.23.95.21,1.29-.08,1.94-.12c1.21-.07,2.6-.18,3.83-.3,0,0,0,0,0,0q7.85-.42,15.68-.91c7.76,0,15.58,0,23.33-.08a16.9,16.9,0,0,0,3.72-.3,7.62,7.62,0,0,1,2.61-.22l1.47.08c.09,0,.36-.1.33,0s-.41.22-.43.36.17.16.34.19a.93.93,0,0,0,.5-.11c.09-.05.12-.15.19-.14a47,47,0,0,0,5.44-.05s0,0,.06,0a.11.11,0,0,1,.08,0c.42,0,.95.12,1.34.19s.67.11,1,.17a2.13,2.13,0,0,0,1.16-.17c.22-.14.09,0,.13-.19s-.43-.28-.56-.29l-.25,0c.53,0,1.06-.11,1.6-.06,2,.19,4.06,0,6.05.41a4.47,4.47,0,0,0-2.16.5,80.64,80.64,0,0,1,8.24-.53c.11,0,.15.13.23.21a1,1,0,0,0,.5.11.58.58,0,0,0,.37-.13c0-.07,0,0,0,0s0,0,0-.06-.36-.27-.37-.32.23,0,.33,0c2.73,0,5.49-.08,8.22-.3,5.83,0,11.64,0,17.47,0,.46,0,.84.25,1.32.25.9,0,1.76-.24,2.67-.25,5.06,0,10.18,0,15.21,0,.45,0,.94.22,1.24.23s0-.24.19-.24c6.91-.07,13.51-.09,20.47-.12s14.24-.19,21.27,0c1.76,0,3.67.4,5.28-.17a9.62,9.62,0,0,1,2.79,0c17.79-.06,35.59-.36,53.4-.58,1.37,0,2.73,0,4.13,0a3.79,3.79,0,0,0,.82,0,13.08,13.08,0,0,1,1.71-.05c2.89.05,5.8.54,8.72.29,4.69-.41,9.27-.51,14-.6a9.16,9.16,0,0,0,4.13-.76,48,48,0,0,0,9.19-1.79h1.47a13.31,13.31,0,0,0,1.34,0h2.91c1,0,2,0,2.95,0,.34,0,.74,0,.53-.08a6.78,6.78,0,0,0-1,0c-.62,0-1.4,0-1.91-.05.35,0,1.07-.06.6-.09a16.39,16.39,0,0,0-2.11.05l-1.43,0a12.79,12.79,0,0,0-1.69-.07l.14-.09a37.61,37.61,0,0,0,3.92-.1h0l.61-.08h0l6.19-.09h0a4.89,4.89,0,0,0,1.43-.07,6.68,6.68,0,0,0-1.8-.1c-3.27,0-6.52,0-9.78,0l0,0c.17-.15.12-.1.1-.08l.78-.3c5.83,0,11.66.06,17.48,0a4.34,4.34,0,0,0,1.06-.07c0-.05-.38-.08-.87-.09-1.52,0-1.76-.08-1-.19h0c.74-.12-.1-.13-1-.13a4.58,4.58,0,0,1-1.48,0h0a12.12,12.12,0,0,1,3.26-.24,11.46,11.46,0,0,0,1.61-.08h0s0-.06,0-.09-1.65-.05-1.12-.14a20.36,20.36,0,0,1,2.41-.07h2.19a7.9,7.9,0,0,0,1.43-.05c.18-.08-.55-.1-1.16-.12h-2.17c-2.34,0-4.67,0-6.92-.08a27.14,27.14,0,0,0-2.92-.06l1.11,0c-.39,0-.77,0-1.11,0s-.5,0-.38-.06a5.78,5.78,0,0,1,.91,0c.38.05,1,0,1.52.05,3.57.07,7.13,0,10.7,0,.86,0,1.83,0,2.57,0a12.06,12.06,0,0,0,2.39-.07c.83-.11,1.33-.24.69-.36a17.13,17.13,0,0,0-3-.08,16.63,16.63,0,0,1-2,0,45.17,45.17,0,0,0-4.94-.17h0c-.44-.15-2.58-.15-3.61-.33,1.92,0,3.41,0,4.82.09.69,0,1.87.05,1.41-.07-.63-.17.44-.13,1.52-.15,1.69,0,3.39.05,5,0a10.73,10.73,0,0,0,1.41-.09h1a72.1,72.1,0,0,0,9.8-.31c.43,0,1.27-.08.72-.17-1,0-1.56.1-2.6.07-2.62-.06-2.81-.06-2.56.1s.48.08,0,.11a10.57,10.57,0,0,1-1.41,0h0a14.22,14.22,0,0,1-2.83-.31h0a10.36,10.36,0,0,1,2.52-.13,19.86,19.86,0,0,0,3.37-.15c.21-.05.53-.1,0-.14a5.71,5.71,0,0,0-1.35.05,12.18,12.18,0,0,1-2.72,0l1.51-.1h0c.06,0,.07,0,0,0h0c.38-.09,1.51-.16.47-.27l-.46,0,.13-.17h5.12a5.33,5.33,0,0,0,1.43-.08,6.26,6.26,0,0,0-1.3-.06,13,13,0,0,1-2.2-.12h2.39c.58,0,1.45,0,.79-.1h0a8,8,0,0,1-1.15-.12h5c2,.08,3.93,0,5.89,0,1.45,0,2.51,0,2.47-.16,0,0,1.14,0,.65-.1a9.42,9.42,0,0,0-1.27-.05c-3.41.1-6.43-.07-9.64-.11h0c-.54,0-1.3-.05-1.81,0-2.77.12-5,0-7.44-.1h0c-2.63-.08-5.31-.15-7.23-.35h0c-.63-.11-2.25-.05-3-.15a14.08,14.08,0,0,0-2.84,0,15.41,15.41,0,0,1-1.56,0l-1.85-.2c3,0,6.08,0,9.1,0h0c1.58.09,3.3,0,5,0l4,.07c1.73,0,3.51,0,5.26,0a16.13,16.13,0,0,0,1.71,0c.26,0,.13-.05-.2-.07-.55-.05-1.28,0-2,0h0c-1.55,0-3.15,0-4.75,0-1.12-.06-2.34,0-3.54,0h-.43l-.16,0h0c-2.19-.13-4.79-.09-7.18-.14h0c-.14,0-1,0-1-.09h3.85l1.68,0a22,22,0,0,0,3.46-.08h0a23.12,23.12,0,0,0-3.21-.11c-2.86-.06-6,0-8.69-.12,2.16-.11,4.46,0,6.68,0a12.32,12.32,0,0,0,2.64-.14h0a6.21,6.21,0,0,0,1.12-.06,4.18,4.18,0,0,0-1.16-.08c-.66-.11-3-.15-1.46-.34h0c1.63.13,3.67.11,5.59.13a15.26,15.26,0,0,0,2.31-.07c.36-.1-.73-.11-1.39-.15-.34,0-.74,0-.55-.08a3.67,3.67,0,0,1,.8,0,10.85,10.85,0,0,0,3.44-.2h1.91c1.94,0,3.78,0,5.64.07a9.26,9.26,0,0,0,1.47-.05c.17,0-.06-.06-.38-.07l-3.81-.09a15.37,15.37,0,0,1-2.7-.12c-.5-.1.63-.16,1.19-.19,1.53-.1,1.66-.14-.33-.19s-3.94-.08-6-.08h-.37c-1.38-.08-3.13,0-4.44-.1-.2-.07,0-.12.89-.11a44.47,44.47,0,0,0,4.86-.18c.78,0,1.57.06,2.36.06-.05.05-.11.1-.15.15.79-.09,2.15,0,3.14-.17h0c.35,0,.9,0,.69.07s-.36.12.7.11c.82,0,1.31-.07,1.08-.15a9.5,9.5,0,0,0-2-.13h-.08a1.55,1.55,0,0,0,.32-.14l.22,0h0a5.53,5.53,0,0,0,1.26-.07,3.89,3.89,0,0,0-1.1-.28c.3-.71-1.82.2-2-.47l1.11-.12,2-.09c-.18,0-.51-.05-.83-.07.31-.05.61-.11.91-.18h.37c2.6.16,1.71-.09,2.1-.16s-.52-.13-.31-.21c1.24-.15,1.2-.24-.34-.28l.31-.16a12.74,12.74,0,0,0,1.54,0c1.19-.12-.05-.16-.93-.2l-1.93-.07c-.29-.05-.57-.11-.86-.15,1.54,0,3-.06,4.58,0a23.52,23.52,0,0,0,2.64.07.68.68,0,0,0,0,.15c0,.09.17.15.31.16a.49.49,0,0,0,.36-.12c.07-.06,0-.09.07-.13s.2,0,.32,0h.29a11.78,11.78,0,0,0,2.54,0c.77-.12.46-.38-.64-.43-2.07-.07-4.08-.17-6.32-.2-1.31,0-2.52-.07-3.7-.13a1.19,1.19,0,0,0,.59-.6,1.53,1.53,0,0,0,1.62,0s0-.07.07-.09.1,0,.14,0c1.33,0,2.82-.11,4.08-.23s2.38-.22,3.57-.26a.73.73,0,0,0,.65-.27l0,0h0s0,0,0,0h0l-.06-.05a1,1,0,0,0-.68-.23c-1.19,0-2.55.17-3.73.26s-2.15.25-3.23.22l-1.33-.16h0c-.11,0-.34-.07.38-.1s1-.07.09-.12h-1.94c-2.37,0-4.54-.06-6.79-.1h0c-1-.08-2.54-.07-3.42-.17-2-.17-4.5-.25-6.86-.35h0c-1.12-.09-2.31-.16-3.78-.18h0c-.13-.07.35-.08.87-.09,3,.09,6.1.1,9.2.1a9.48,9.48,0,0,0,1.41,0c.23,0,0-.05-.29-.07h0c-.87-.05-1.9,0-2.88,0s-2.35,0-3.55,0h-.35c-.36,0-.74,0-1.12,0,1.17,0,2.33-.11,3.5-.19,2,0,4.06,0,5.52,0a8.79,8.79,0,0,0,2,0c.1-.07-.64-.09-1.32-.09l-4.07,0,1.63-.12h.13c.33,0,.67,0,.63,0h-.07c1.88-.13,3.75-.24,5.56-.25,4.37,0,7.62.22,11.68-.75a62.52,62.52,0,0,0,11.61-.17c.06,0-.13-.09,0,0s.41.18.55.25a.53.53,0,0,0,.39,0c.1,0,.1-.05.09-.12s0-.06-.12-.11-.43-.19-.51-.24,0,0,.08,0c2.89-.93,6.06-1.19,9.07-1.88,0,0-.08-.05-.05-.1s.14-.05.21-.07a4.13,4.13,0,0,1,1.92-.23c.08,0-.14.09-.16.12-.12.3-.63.48-.67.8-.71,0-2.16.11-2.72.16s-1,.06-.77.35.6.19,1.26.15,1.67-.12,2.58-.14,2.31-.12,3.3-.22c0,0-.08.06,0,.06,2.54.13,5-.28,7.37.42a7.93,7.93,0,0,0,.92-.71c.16-.13.67,0,.89-.08-.18.39-.68.62-.86,1a81.52,81.52,0,0,1,10.73,1c.18,0,.38.1.58.13-1.74.19-3,.28-4.86.34a51.38,51.38,0,0,0-6.41.57c-.58.1-1,.26-.46.5a3.41,3.41,0,0,0,1.89.05c1.68-.22,3.35-.33,5.19-.4a45.22,45.22,0,0,0,7-.7c1.7.08,3.66,0,5.27,0a2.41,2.41,0,0,0,1.6-.47l.07-.05h0s0,0,0,0l-.18-.08a3.25,3.25,0,0,0-1.7-.26,30.29,30.29,0,0,1-4.15,0c-.44,0-1-.31-1.48-.39,0,0-.15,0-.14,0,.9-1.09-2.8.26-2.23-.72s4.35-.81,5.78-.66c.58-.8.77-1.51,1.83-2.08a14.36,14.36,0,0,0,5.27-1.23,39.4,39.4,0,0,1-5.32.24c0,.33,0,.66.05,1a140.11,140.11,0,0,0-16.57,1.48s.06,0,0,0c-1,0-1.91.07-2.86.14,0,0,.06-.05,0-.05-2,.06-4,.1-6,.22.11-.05.36-.08.42-.16s-.34,0-.26-.08.34-.33.37-.43.08-.05,0-.12,0,0-.12-.1a2.49,2.49,0,0,0-.7-.26c-.19,0-.29,0-.38.08s.06.17.17.21a1.62,1.62,0,0,1,.37.11c.08,0,0,.09,0,.09-.87.05-1.75.07-2.61.06-.06,0-.31,0-.22-.05a1.18,1.18,0,0,1,.69-.06.75.75,0,0,0,.64-.12c.09-.11.08-.07,0-.18a.39.39,0,0,0-.35-.24,3.66,3.66,0,0,0-1.95.22,8.13,8.13,0,0,0-2.52.25c-11.78.52-23.49,1.42-35.22,2.28.72-.56,1.28-1.2,2-1.76a3.72,3.72,0,0,1-1.4-.13,1.9,1.9,0,0,0,.77-.19h0l-.08-.06.08,0s.06-.05.06-.06h1.89a18.23,18.23,0,0,1,3.74.75c2.09-.34,4.2-.63,6.29-1,3-.08,6-.27,9-.53a.72.72,0,0,0,.63.21,2,2,0,0,1,.62-.09c.11,0,0,0,0,0,1.36.18,2.63.49,4,.69a3.88,3.88,0,0,1,.33-1.48s0,0,0,0c3.21-.4,6.38-.8,9.63-1.14.23,0,.41.06.74,0l1.66-.11c7.55-.51,14.88-1.06,22.39-1.63a3,3,0,0,1,.5-.11c5.77-.46,11.63-1.07,17.44-1.54a66.58,66.58,0,0,0-18.39.76s0,0,0,0c-7.49.57-14.89,1.12-22.44,1.64-.26,0-1.08.08-1.39.08-2.8.08-5.57.23-8.34.4.18-.06.16-.13-.18-.19a18.07,18.07,0,0,0-3-.08,14.77,14.77,0,0,1-2,0,45.17,45.17,0,0,0-4.94-.17h0c-.44-.15-2.58-.15-3.61-.33,1.91,0,3.41,0,4.82.09.69,0,1.87.05,1.41-.07-.64-.17.44-.13,1.52-.15,1.69,0,3.39.06,5,0a9.21,9.21,0,0,0,1.41-.09h1a72.17,72.17,0,0,0,9.8-.31c.43,0,1.27-.08.72-.17-1,0-1.56.1-2.61.07-2.61-.06-2.8-.06-2.55.1s.48.08,0,.11a10.77,10.77,0,0,1-1.42,0h0a14.19,14.19,0,0,1-2.82-.31h0A10.31,10.31,0,0,1,1073,345a18.85,18.85,0,0,0,3.37-.15c.21-.05.52-.1,0-.14a5.71,5.71,0,0,0-1.35.05,12.2,12.2,0,0,1-2.72,0l1.51-.1h0c.06,0,.07,0,0,0h0c.38-.09,1.51-.16.47-.27l-.46,0,.13-.17H1079a5.38,5.38,0,0,0,1.43-.08,6.26,6.26,0,0,0-1.3-.06,12,12,0,0,1-2.2-.12h2.39c.58,0,1.44,0,.79-.1h0a8,8,0,0,1-1.15-.12h5c2,.08,3.93,0,5.89,0,1.45,0,2.5,0,2.47-.16,0,0,1.14,0,.65-.1a9.42,9.42,0,0,0-1.27,0c-3.41.11-6.43-.07-9.64-.1h0c-.54,0-1.3-.06-1.81,0-2.77.12-5,0-7.44-.1h0c-2.63-.08-5.31-.15-7.23-.35h0c-.63-.11-2.25-.05-3-.15a14.74,14.74,0,0,0-2.83,0,15.41,15.41,0,0,1-1.56,0l.94-.2c2.1,0,4.21,0,6.31,0h0c1.58.09,3.3,0,4.95,0l4,.07c1.73,0,3.51,0,5.26,0a16.13,16.13,0,0,0,1.71,0c.26,0,.12-.05-.2-.07-.55-.05-1.28,0-2,0h0c-1.54,0-3.14-.05-4.74-.05-1.12-.06-2.34,0-3.54,0h-.43l-.16,0h0c-2.2-.13-4.79-.09-7.19-.14h0a9,9,0,0,1-.94-.08h5.53a22,22,0,0,0,3.46-.08h0a22.94,22.94,0,0,0-3.2-.11c-2.23,0-4.62,0-6.85,0l.36-.12c1.49,0,3,0,4.48,0a12.38,12.38,0,0,0,2.64-.14h0a6.21,6.21,0,0,0,1.12-.06,4.24,4.24,0,0,0-1.16-.08c-.66-.11-3-.15-1.46-.34h0c1.62.13,3.67.11,5.59.13a14,14,0,0,0,2.31-.07c.36-.1-.73-.11-1.39-.15-.34,0-.75,0-.55-.08a4.38,4.38,0,0,1,.79,0,10.82,10.82,0,0,0,3.44-.2h1.91c2,0,3.79,0,5.65.07a9.31,9.31,0,0,0,1.47-.05c.17,0-.06-.06-.38-.06l-3.82-.1a15.31,15.31,0,0,1-2.69-.12c-.5-.1.63-.16,1.18-.19,1.54-.1,1.67-.14-.32-.19s-3.94-.08-6-.08h-.37c-1.38-.07-3.13,0-4.44-.1-.2-.07,0-.12.89-.11a44.58,44.58,0,0,0,4.86-.18c1.74.09,3.55.09,5.4,0,.35,0,.89,0,.69.07s-.36.12.7.11c.82,0,1.31-.07,1.08-.15a9.5,9.5,0,0,0-2-.13c-1.85-.1-.08-.12.46-.17h0a5.53,5.53,0,0,0,1.26-.07c-.58-.14-.26-.34-2.92-.34-1.3,0-2.45-.07-3.56-.12a2,2,0,0,1-.35-.07l.35.07c-.27-.12.3-.15,1.46-.12a7.66,7.66,0,0,0,1.43,0c.18-.09-.77-.08-1.48-.09h0c-.42-.06-.28-.09.46-.11s1.46,0,2-.05h0l2.66-.11c-.53-.1-2.33-.11-1.56-.24a14.8,14.8,0,0,1,2,0c2.6.16,1.71-.09,2.1-.16s-.53-.13-.31-.21c1.59-.2,1.08-.28-2-.31v-.09l1,0h0c.85,0,1.79,0,2.52,0,1.19-.13,0-.17-.93-.21l-3.52-.13h0s0-.1.61-.09c1.58,0,3.11-.06,4.7,0,.91.13,2.63,0,3.74.1a12.12,12.12,0,0,0,2.77,0c.77-.12.45-.38-.64-.42-1.74-.07-3.45-.15-5.28-.19,0,0,0,0,0-.05,0-.2-.3-.21-.57-.22l-1-.05-1-.07c-.28,0-.6,0-.65.19a.1.1,0,0,0,0,.12c-3.28-.11-6.12-.32-9.62-.39h0a24.32,24.32,0,0,0-2.92-.3h0a15.84,15.84,0,0,0-2-.22c-.25-.17,1.23-.06,1.88-.08a7.4,7.4,0,0,0,1.29-.08,5,5,0,0,0-1.25-.07,20.58,20.58,0,0,1-2.65-.13,40.35,40.35,0,0,1,5.43.17,7.67,7.67,0,0,0,1.46,0c.72,0,1.22-.07.61-.15h0a7.62,7.62,0,0,1,1.07-.05,7.37,7.37,0,0,1,2.11.27,3.77,3.77,0,0,0,1.31.09,21.33,21.33,0,0,0,2.85-.16,5,5,0,0,0-1.63-.14c-1.42,0-2.57-.07-3.59-.16,0,0,0,0-.1,0a6.36,6.36,0,0,1,1,0h0q3.14,0,6,.11l.27,0-1.38-.17h0c-.11,0-.34-.07.38-.1s1-.07.09-.12h-1.94c-2.38,0-4.54-.06-6.8-.1h0c-1-.08-2.54-.07-3.42-.17-2-.17-4.5-.24-6.86-.35h0c-1.12-.08-2.31-.16-3.78-.18h0c-.13-.07.35-.08.87-.09,3,.09,6.09.1,9.2.1a7.38,7.38,0,0,0,1.41,0c.23,0,0-.05-.29-.06h0c-.88-.06-1.9-.05-2.88-.05s-2.35,0-3.55,0h-.35c-1-.05-2,0-3,0h-.47c-.48-.1-1.79-.06-2.53-.11-1-.11-2.26-.05-3.41-.06h0a13.92,13.92,0,0,1-1.5,0c.37-.05,1.05,0,1.64-.06h.41c1.06.08,2.31,0,3.48,0h0a10,10,0,0,0,2.29-.1,10,10,0,0,0-2-.11c-.94,0-1.95,0-2.87,0-1.21,0-2.49,0-3.75,0l1.35-.15h1.53a26.57,26.57,0,0,0,3.45-.13,5.28,5.28,0,0,0,1.26-.06,4.5,4.5,0,0,0-1.27-.09h0l-1.44-.08-.19,0,1.22-.14c1.36,0,2.86.05,4.33.06a16.35,16.35,0,0,0,2.13-.06c.42-.09-.31-.12-1-.14,1.53,0,3.06,0,4.25-.1a5.42,5.42,0,0,0,1.47-.25h.88c1.89-.05,3.74.15,5.85,0-1-.15-3.13-.07-3.87-.23a1.08,1.08,0,0,0-.52.1,13.25,13.25,0,0,1-1.89-.11,2.44,2.44,0,0,0,.33-.23c1-.12,1.24-.16.26-.19l.4-.28a3.88,3.88,0,0,0,.49,0,8,8,0,0,0,1.4-.06c1.11-.2-.74-.19-2-.22-1.83-.1-.15-.11.47-.16l1.09-.05h0c0-.14.26-.32-2-.35-1.54,0-2.86-.09-4.23-.14-.15-.1.37-.14,1.42-.11a7,7,0,0,0,1.55,0,6.44,6.44,0,0,0-1.64-.08c-.17-.08.4-.1,1.08-.1a15.24,15.24,0,0,0,1.82-.08l2.27-.07c-.21-.11-2-.11-1.68-.23a10.79,10.79,0,0,1,1.84,0c1.87.15,1.87.15,2.46-.09h0l-.36-.26h0c1.2-.1,1.44-.19-.12-.27,0,0,0,0-.05,0l-.24,0a3,3,0,0,1,.64-.11,6.55,6.55,0,0,0,1.79-.11h0l4.25-.26a12.82,12.82,0,0,0,2.63,0c.29,0,.44-.11.45-.19,5.65-.37,11.25-.81,16.86-1.55a144.49,144.49,0,0,0,18.18-1.4,21.92,21.92,0,0,0,4.06-.12c.68-.08,1.3-.13,1.89-.18s.69-.1,1-.39c0,0,.15.07-.07-.09a1.36,1.36,0,0,0-1-.26c-.54.07-1.55.13-2.16.21a15.8,15.8,0,0,1-3.07.11s.1,0,.09,0c-8.11-.13-16.18.49-24.29.48a.55.55,0,0,1-.47.71c-4,.22-7.64.51-11.5-.33-2.78,1.07-5.61.5-8.65.43-.24.14-.48.26-.72.38-1-.06-2-.1-3-.15h-.1a1.11,1.11,0,0,1,.19-.2c1.08-.9,4.08-1,5.84-.81a7.3,7.3,0,0,0,.5-1.37,14.24,14.24,0,0,1,1.74-.17,1,1,0,0,1-.31.67c-.18.22-.1.39.29.48a1.64,1.64,0,0,0,1.13-.13,1.34,1.34,0,0,0,.59-.88.93.93,0,0,0-.06-.43c0-.1,0,0,0,0s0,0,0,0a11.34,11.34,0,0,1,1.48-.14c.36,0,.4-.06.51-.18l0,0,0,0a.58.58,0,0,0-.49-.16,18.34,18.34,0,0,0-2.08.22.13.13,0,0,1-.09,0,23.82,23.82,0,0,0-3.9.25c-1.25.1-2.25-.2-3.46-.14.51.51,1.22.66.07,1a10.73,10.73,0,0,0-3.84-.21c.26-.08.4-.18.68-.26s.52-.51.57-.63,0,0,0-.05,0,0,0,0h0c-.4-.18.43-.68.6-.87,2.75,0,5.49,0,8.24.15,1.27-.82,3-.47,4.62-.36-.53-.85-.2-1.29,1-1.74a70.06,70.06,0,0,0,14.92-.7c0,.12,0,.2.21.27a.91.91,0,0,0,.63,0,.28.28,0,0,0,.18-.3c0-.11-.13-.14-.08-.25s.14.1.21,0-.22-.56,0-.65.86-.11.9-.22,0,0,0-.06c.18-.33.67-.15,1-.16s.63-.08.91-.1.5-.15.51-.3.06,0-.08-.17a1.23,1.23,0,0,0-.88-.22c-.32.06-.61.05-1,.13s-.73.31-1.12.12c0,0,0,0,0,0-4.27.16-8,.78-11.14-1.55,3.18.14,6.31-.2,9.48-.2,1.64-1.23,4-1.1,6-2,2,.47,4,.14,6.09.26-.06-.44-.28-.81,0-1.23,5,.07,9.94-.36,14.92,0,.15-.19,0-.4.46-.43,3.45-.27,7-.36,10.44-.63h.22a28.05,28.05,0,0,1,2.9,0c.54,0,1.34.05,1.77.06s.52-.08.64-.22,0,0,0,0l-.06-.05c-.14-.16-.26-.24-.7-.23s-1.1,0-1.65-.06c-1-.05-2.22-.05-3.3,0-.05,0,0-.08-.13-.12a2.75,2.75,0,0,1-.81-.26c-.11-.1,0-.08,0-.16a.25.25,0,0,0-.25-.16.34.34,0,0,0-.3.12c-.06.08.07.08-.16.13-3.14-1.11-8.34-.75-11.31-.77-3.72,0-4.74-.59-7.63.65a4.15,4.15,0,0,0-2,0c-1.08,1.06-2.55,1.14-4.19.54.73,0,.43-.32.7-.67-.62-.15-.73-.39-.72-.81a14.83,14.83,0,0,1-5.71-1.69c5.58-.29,11.14-.61,16.71-1.05h.08l.34,0c1.29,0,2.53-.2,3.82-.18l.21-1.49c-1.47.23-2.9.54-4.32.89a257.71,257.71,0,0,0-30.32.58c-.35,0-.8,0-1.22.07s-.92.26-1.33,0c0,0,0,0,0,0-1.78.08-3.37.31-4.87-.45.93-.1,2.16-.22,1.53-1-3.73.09-7.43.4-11.15.55-.18-.39-.45-.61-.06-1-2.36,0-4.71.2-7.06.26.51-.18,1.22-.53,1.69-.68s.53-.5.63-.65,0,0,0-.06,0,0,0,0,0,0,0,0c-1.26-.53.56-1.49-1.19-1.53s-4,.35-5.79.27a37.89,37.89,0,0,0,8.19-1.67c1-.43,0,0,.4-.18l.11-.05c.7.35,1.42-.49,1.65-.7s.12-.1.1-.08c.6-.22,1.56-.67,2.11-.85s.54-.5.67-.66,0,0,0-.06,0,0,0,0,0,0,0,0h0c2.4,0,4.8-.05,7.21-.1,0,0,0,0,0,0,.28-.18.6,0,.87.08s.64.07.84.11a1.83,1.83,0,0,0,.41,0,151.78,151.78,0,0,0,21.54-.2,13.43,13.43,0,0,0,3.85-.09l.5-.09c.18,0,.48-.18.48-.31s0-.05-.07-.18a1.41,1.41,0,0,0-.84-.17l-.57.1a9.3,9.3,0,0,1-3.11.07s.14,0,.11-.06a5.25,5.25,0,0,0-1.62-1.21,19.25,19.25,0,0,0-3,1c-.94-.81-2.27-.54-3.64-.5a21,21,0,0,1-3.14-1.26c-.51,0-.89-.1-1.19.23,0,0,.14,0,0,.07s-.37-.05-.6-.08-.59.09-.58.3.3.35.55.41.14-.06.34.08.61.3.86.44a8.77,8.77,0,0,1-4.68-.6c-2.13.24-4.19.09-6.16.75.65,0,1.13.08,1.28.55a1.06,1.06,0,0,0-.78-.06c-.18.12.12,0,0,.09s-.5,0-.68-.08-.44,0-.59-.08a33.74,33.74,0,0,0-3.54-.81c-.59.12-.77.48-1.29.68q-.37-.18-.75-.33c.07-.06,0-.11-.26-.16l-.24,0c-.68-.25-1.38-.46-2.1-.66.54,0,1.08,0,1.61,0a11.14,11.14,0,0,0,1.41-.08c.32,0,.7,0,1,0a70.5,70.5,0,0,0,9.8-.31c.44,0,1.27-.08.72-.17-1,0-1.56.11-2.6.08-2.61-.07-2.81-.06-2.56.09s.48.08,0,.12a12.58,12.58,0,0,1-1.41,0h0a15.69,15.69,0,0,1-2.82-.31h0a9.25,9.25,0,0,1,2.51-.13,19.62,19.62,0,0,0,3.37-.16c.21,0,.53-.1,0-.13a5.71,5.71,0,0,0-1.35.05,12.23,12.23,0,0,1-2.72,0l1.51-.09h0c.06,0,.08,0,0,0h0c.37-.08,1.5-.16.46-.26l-.46-.05.13-.16H1092a5.83,5.83,0,0,0,1.43-.08s0,0-.09,0q5.21-.12,10.41-.36c1,0,1.58,0,1.55-.17s1.14,0,.65-.1a11.24,11.24,0,0,0-1.13-.05,2.91,2.91,0,0,1,1.42-.93c0,.33.11.65.16,1,2.64-.29,5.23-.71,7.9-.89-.3-.05-1.09-.62-.56-.68s.77.3,1.18,0c-.13-.78.33-1.19,1.28-1.67a8.76,8.76,0,0,1,2.1-.83c.64-.11,1.2.39,1.59.4a13.7,13.7,0,0,1,2.24.05c-.13-.34-.33-.66-.45-1a56.71,56.71,0,0,1,11.38-1.7c.68-.91,3-1.07,3.07-2.11-.94,0-1.9-.61-2.81-.55-3.87.22-7.33,1.18-11.23.91-.09.55-.7.48-1.31.72-.67,2-3,1.52-5.44,1.16a2.19,2.19,0,0,0,1-2,.73.73,0,0,0,.36,0c.12,0-.09-.06.11-.1a2,2,0,0,1,.79.14.38.38,0,0,0,.42-.2c0-.08,0,0,0-.05s0,0,0-.07a.65.65,0,0,0-.37-.24c-.12,0-.14,0-.22,0-1.38-.78-2.87-.7-4.62-.7s-3.93.17-5.61.15c-3.34,0-6.31-.25-9.37.42h-1.59c-2.19-.62-4.51-.51-6.88-.73a2.3,2.3,0,0,1,0-.4h0a1.59,1.59,0,0,0,.56,0c.06,0-.15-.07-.46-.08a.18.18,0,0,1,.07-.05,2.66,2.66,0,0,0,1.4-.82s.06,0,0-.1a.45.45,0,0,0-.42-.25.89.89,0,0,0-.66.23,1.05,1.05,0,0,1-.83.33c-.43,0-1.16-.1-1.56-.1a6.69,6.69,0,0,1-1.07-.07c-1.26-.21-2.51-.33-3.76-.44.93-.11,2.31-.08,3.59-.08,1.9-.05,3.75.16,5.85,0-1-.14-3.13-.07-3.87-.23a1.08,1.08,0,0,0-.52.11,19.07,19.07,0,0,1-2.45-.18h0a6.84,6.84,0,0,1,.8-.15c1.5-.17,1.43-.2-1-.24h-2.12c-1.1-.06-2.32,0-3.51,0h0c-1.05-.07-2.3,0-3.42,0h0l-.82,0h0c-.57-.14.47-.12,1.36-.13a22,22,0,0,0,3.34-.13l1,0c1.74.07,3.54.09,5.39,0,.33,0,.87,0,.73.06s-.58.1.32.12a8.79,8.79,0,0,0,1.4-.07c1.11-.2-.74-.18-2-.21-1.83-.1-.14-.12.48-.16l1.08-.05h0c0-.15.26-.32-2-.36-1.54,0-2.86-.08-4.23-.14-.15-.1.37-.13,1.42-.11a7.19,7.19,0,0,0,1.55,0,5.74,5.74,0,0,0-1.64-.09c-.17-.08.4-.09,1.08-.1a15.45,15.45,0,0,0,1.82-.07l2.27-.08c-.21-.11-2-.11-1.68-.23a11,11,0,0,1,1.84,0c1.87.15,1.87.15,2.46-.09h0l-.36-.27h0c1.2-.09,1.44-.18-.11-.27l-.06,0-1-.11h0c.38,0,.75,0,1.14,0a8.1,8.1,0,0,0,2-.1,7.65,7.65,0,0,0-2.15-.13l-1.44-.06h.25c.94,0,2,0,2.89-.06l1.75,0a2.81,2.81,0,0,0,.51,0c.79,0,1.71,0,2.43.05a12.92,12.92,0,0,0,2.64,0c.75-.12.53-.41-.44-.44-2.23-.07-4.23-.19-6.63-.21-2.69-.07-5.17-.18-7.46-.33-.39,0-.88,0-1.33,0a34.88,34.88,0,0,1-3.88-.2h0a8.39,8.39,0,0,0-1.86-.17h0a76.43,76.43,0,0,0-8.35-.58c-2.83-.15-5.69-.31-8.64-.44,1.68,0,3.57-.06,5.11-.1.93,0,1.94.08,3.09.09,2.41,0,4.92.12,7.14.24,1.39.12,2.85.23,4.13.36a11.3,11.3,0,0,0,1.82.06c.85,0,1-.09.36-.16s-.11-.08.58-.08h0l1.83.09h0l1.06.24a4.17,4.17,0,0,0,1.21.07,22.91,22.91,0,0,0,2.71-.15c.16-.08-.58-.11-1.33-.13l-3-.1-.59-.07c.73-.06,1.92-.05,2.46-.13h0c1.32.05,2.52.14,4.55.14-1.49-.17-3.36-.24-5.07-.32-2.7-.13-5.48-.24-8.22-.36-2.29-.18-5.13-.27-7.7-.4h0c-1.62-.1-3.27-.19-4.94-.27l.4,0a47.54,47.54,0,0,0,5.72,0c1.09,0,1.62-.14,2.5-.17,5.69-.21,11.28-.4,16.94-.63a1.24,1.24,0,0,1-.3.4,66,66,0,0,0,7.57.28.75.75,0,0,1-.68-.47s0,0,0,0c1.16-.66,2.57-.38,3.9-.36.72,0,1.43-.15,2-.17a2.06,2.06,0,0,0,.84-.21c4.64-.14,9.32-.39,14-.62,1.32-.06,2.8-.05,4.05-.13l1.85-.09a3.28,3.28,0,0,0,1-.1l.09,0a.26.26,0,0,1-.11,0,3.58,3.58,0,0,0-1,0c-.48,0-1.55.06-2.14.1q-1.55.08-3.06.09h.08c-5,.06-9.9.26-14.84.4a5.49,5.49,0,0,0-1-.06c-.48.06-1.12.13-1.7.16-1.46.07-3,.08-4.5.12a.93.93,0,0,1-.07-.49,38.39,38.39,0,0,1-6.87.44,1.72,1.72,0,0,0,.5.41c-2.61.09-5.2.16-7.81,0-2.88.37-5.74.2-8.66.32-1.18.05-2.31.34-3.54.3,1.92-.23-1.53.09,0-.24a37.26,37.26,0,0,1,5.83-.34c.35,0,.22-.26.61-.3a10.08,10.08,0,0,1,1.67-.06c.08,0-.28.14-.36.16s.15.1.35.1.81,0,1.06-.06a1.42,1.42,0,0,0,.66-.22c.11-.11,0-.07,0-.11s0,0,0,0,0,0,0,0c.39,0,1.16-.06,1.46-.06a1.54,1.54,0,0,0,.53-.06h0a1.76,1.76,0,0,0-.49,0c-.63,0-1.4,0-2.07.1h-.08c-1.27,0-2.68.09-3.9.14s-2.27,0-3.45,0c.69.17,1.13.16,0,.21-.29,0-1.14,0-1.41,0s-.17-.08-.31-.14c1.42-.13,3.06-.23,4.43-.32s2.39,0,3.71-.1a29.42,29.42,0,0,1,4.62-.15c-.82-.31.57-.39.77-.41l.31,0c5-.05,9.93-.21,14.89-.5,0,.07.09,0,.21.06a4,4,0,0,0,.6,0c.12,0,.18,0,.21-.07s-.14,0-.07-.06.15,0,.22,0-.19-.13,0-.15a4.42,4.42,0,0,0,.91-.07l0,0h0a3.94,3.94,0,0,1,1,0c.26,0,.67,0,.87,0s.48,0,.53-.08.11,0-.08,0a3.9,3.9,0,0,0-.86,0c-.27,0-.62,0-.92.05a6.77,6.77,0,0,1-1.08.06h-.1c-3.73.15-7.34.51-11-.12,3.16,0,6.32-.19,9.48-.26,2-.41,4.06-.35,6.1-.6,2,.06,4.05-.06,6.07-.08,0-.15-.38-.25.08-.27,1.6-.07,3.3-.06,4.93-.14a1,1,0,0,1-.17.1l8.32-.32c.59,0,1.19,0,1.79,0,.1,0,.08-.08.22-.09l2.15-.09c2.85-.1,5.71-.2,8.56-.32h.22c.94,0,2-.06,2.89-.07l1.75,0a2,2,0,0,0,.66-.07h0a2.14,2.14,0,0,0-.69,0l-1.64,0-2,0c1.77-.1,3.56-.19,5.33-.3-.39-.95-1.93-.42-2.75-1.17,2-.08,1.06-.06.7-1a26.88,26.88,0,0,0,6.88-.94c-.7-.1-1.15-.23-1.37-.71a16.17,16.17,0,0,0,6.19-1.17A74.56,74.56,0,0,1,1143.34,262.27ZM524,257.16Zm35-.34h0Zm2,.25h0Zm-105.34,0Zm-8.33.18h0Zm-18.82-.17h0l-.14,0ZM285.94,266l.16,0h0Zm.1,3.71h0s0,0,0,0h0Zm2.44,1.1H289l.05,0Zm-3,33.68Zm3.13,1.12h0S288.56,305.56,288.58,305.56Zm-26.34,25.26h0Zm6.3,12.41h0Zm100.53,16.34h0S369.05,359.57,369.07,359.57Zm5.74,6.44v0S374.79,366,374.81,366Zm661.31.16h0Zm9.21-1.86-2.59,0C1043.61,364.26,1044.5,364.27,1045.33,364.31Zm-13.61.13-.17,0h-.33A4.81,4.81,0,0,1,1031.72,364.44Zm-4.41.31.14,0,.07,0Zm-5.68-1.18h0Zm10.39-.82h0Zm1.22-1.46s0,0,0,0h0Zm41.51-15.71h0Zm9.21-1.86-2.6,0C1082.24,343.67,1083.13,343.68,1084,343.72Zm-13.61.13-.17,0h-.34A5,5,0,0,1,1070.35,343.85Zm-4.41.31.14,0,.07,0Zm-5.68-1.18h0Zm10.39-.82h0Zm1.22-1.46s0,0,.05,0h-.05Zm11.63-3.39h0Zm-5.84,1.44Zm-2-.09h0Zm-3.91.84h0Zm1,.22a.32.32,0,0,1-.2.06l-1.47,0Zm14.86-44.38h0Zm-14.18-19.86h0Zm2.2,51a5.57,5.57,0,0,1-1.3.14,1.2,1.2,0,0,0,.2-.11ZM1065,330.64h0Zm-12.68,16.22h0Zm-.94-.35h0Zm-1.33-.27h0Zm-18,9.8-.39,0c-.11-.07.11-.09.44-.1C1032.09,356,1032.08,356,1032.06,356Zm1.11,4h0Zm-668.4-11.41Zm-21.9-1.77h0Zm-2.62-.67h0Zm0,.2h0Zm-.39-.07h0Zm-.49,1h0Zm-62.95-16.41h0ZM275,333.12h0Zm4.22-4.74h0Zm1.62,4.38h.2v0l-.21,0Zm0-.84h0Zm-.06-4.44h0Zm1.05,4.17h0Zm5.32-3.36h0c-.2,0,.13,0,.09,0ZM522.56,260h0Zm.13.16h0Zm9.63-.22h0Zm1.65-.21h0Zm7.52-.2h0Zm11.32.14h0ZM1076,277.43Zm-55.13,78.47h-.38l.35,0S1020.8,355.89,1020.83,355.9ZM1043,344.6Zm2.45,3.59h0Zm-31.93,3.75h0Zm-.54-.83,0,0h-.28A1.55,1.55,0,0,1,1013,351.11ZM1008.3,353h0Zm28.66-4.13c-.48-.05-1.59-.11.34-.13,1.41,0,2.8,0,4.17,0h-1.08a.74.74,0,0,0-.16.12Zm-9-12.06h0Zm37.83-54.19h-.13C1065.58,282.55,1065.85,282.56,1065.84,282.57Zm-1.59-2.26.31,0,0,0Zm.84.81Zm5.58,2h.41c.69.06,1.45.06,2.22,0l1.09.12-.45,0c-1-.11-2.26,0-3.41-.05h0a13.92,13.92,0,0,1-1.5,0,15.44,15.44,0,0,1,1.64-.06Zm1-.19c-2.29,0-4.81,0-6.88-.12,2-.1,4.23,0,6.32,0h.09s-.08.05-.05.06S1071.47,282.88,1071.64,282.91Zm-14.21-3.62ZM311.82,336.42h0ZM310.13,341h0Zm20.65-4.3-.36,0h.36Zm-2.11.08h0ZM327.2,336h0Zm28.34-76.77,0,0h.22Zm1.57.15h0Zm18.66-.4h0Zm1.47.09a1.28,1.28,0,0,1,.28,0l-.09,0Zm26.34-.36h0Zm-14.13,0h0Zm27.78.58h0Zm7.67,0h0c-.09,0,.08,0,.09,0Zm-101.31,1Zm-18,6.43h0Zm-1,.26h0Zm-5.86,1.2h0Zm.44,1.6h0Zm-6.76-.36Zm15.3,68.65h0Zm-1.14-1-.11,0,.27,0Zm.16,1.64h0Zm18.91,8.2h0Zm21.07,1.53.2,0h0Zm693.59,10.83-1.18,0,1.3-.05Zm11.77-21.65h.09Zm-2.9-61.5h0ZM767,258.87v0ZM605.9,257.36a1,1,0,0,1,0,.3,3.93,3.93,0,0,0,1.07-.23c.25,0,.53-.08.8-.14s.42,0,.62,0a13.52,13.52,0,0,1,2.47.08,3.35,3.35,0,0,0,1,.08h0c1.73,0,3.11.11,4.85.1h0c.91.05,1.92,0,2.92,0h0c1.88.08,3.86.09,5.88.09h.32c2.42.09,5.29,0,7.5.2h.05l-1.79.13h-.23c-4.73-.08-9.45-.16-14.19-.22-3.24-.05-6.45-.16-9.81-.06a7,7,0,0,0-1.14,0,4.39,4.39,0,0,0,1.24.08l4.59,0c4.61,0,9.08.14,13.65.18h-.32l-5.67.18c-2.43,0-4.85-.08-7.33-.05-1.45,0-1.19.07-.12.12h0l.51,0,.36,0-2,0c-.21-.15-.44-.2-.65-.37s-.34-.15-.57,0c0,0-.06,0-.09,0a17,17,0,0,0-3.12.18,2.62,2.62,0,0,1-.4.11,17.19,17.19,0,0,1-1.91,0,1.36,1.36,0,0,0-.78,0c-.16.07-.15,0-.15,0,.12-.57,1.31-.73,2-1l-.09-.06Zm-36.75,1.57h0Zm-3.14-.18h0Zm-50.86-.22h0Zm-6.39-.15h0S508.62,258.39,508.76,258.38Zm-9.94.24h0Zm-3.56-.35h0Zm-6.82.35Zm-6.28.31c.9-.16,2.32,0,3.34-.05h0c6.89,0,13.87.19,20.68-.06.43,0,1,0,1.44,0,2.95,0,5.94.05,8.89.1,3.47.06,7,.11,10.52,0h0c10.2,0,20.42,0,30.57.1l.64,0q12.28.06,24.52.17l1.26.33-2.59,0c-2.3,0-4.65,0-7-.06a11.36,11.36,0,0,0-1.93.11c-.27.06.27.1.88.11h3.68c2.43.07,4.94,0,7.41,0h.15l.64.2-12.8-.14a59.54,59.54,0,0,0-6.28.06,18.11,18.11,0,0,1-2.06,0c-.95-.05-1.94-.07-3-.06h0c-1.38-.06-2.85-.09-4.37-.09l-1.2,0q-8.16-.14-16.42-.2h0c-1.14-.1-2.5-.14-4.13-.13h-4.55c-.36,0-.84,0-1.33,0-3.63,0-7.26,0-10.87,0a17.66,17.66,0,0,0-6.53-.05l-2.47,0c-7.89-.07-15.86,0-23.74-.11-1.43,0-2.37-.08-3.35-.15Zm-13.24.09h0Zm-1.94.31h0Zm-2-.22h0Zm-.88.88h0Zm-.16-.24h0Zm-16.51-1.31h0Zm-2.83.27h0Zm0,.35h0Zm-.48.32h0Zm-8.21,0Zm-7.92-1h0Zm-6.6-.88Zm-9.12-.06h0Zm-.46-.17h0Zm-7.83,0ZM291.9,262.92h0Zm-2,9.45h0Zm.52.48Zm0-1.1Zm-28.12,62.77s0,0,0,0h0S262.31,334.53,262.32,334.52Zm3.89,2.73h0Zm.52.48Zm0-1.11Zm5.36,4.61Zm2-1.37Zm2.51,5.68h0Zm5.92-1.1-.13,0h.16Zm1.68,1.13h0Zm.61-2.3Zm2,1.2h0Zm0-9.22h0Zm.38,5.54a0,0,0,0,0,0,0h0Zm.59,1.43h0Zm.35-2,.05,0,.07,0Zm1.59-1.19h0Zm2.45,5.4Zm1.39,3.06h0Zm2.41-4.17h0Zm2.05,3.2Zm.43-4.39h0Zm1.39,1.29-.06,0h.06Zm1.08,3.68h0Zm.47.17h0Zm0-2.66h0Zm.31,1.42h0Zm1.1-1.77h0Zm.76,3.29h0Zm.6-7.32h0Zm1.14,2.7Zm0-2.62Zm-.05-.09.37,0h.17C305.61,340.19,305.42,340.2,305.2,340.21Zm11.17,6h0Zm.45.13h0Zm3.06,1.92h0Zm4.88-.63Zm4,.19h0Zm1.32.88h0Zm1.05-2.18h0Zm.48-.31h-.11l.12,0Zm1.82-.79h0Zm3.09,1.64h0Zm37.29,2.54c-2.92-.19-5.35-.3-7.85.86a5.51,5.51,0,0,1-.69.06,39.47,39.47,0,0,1-8.22-1.22c-2.21.31-4.36-.14-6.58.14a4.82,4.82,0,0,0-1.12-.47l7.92.07c3.82,0,7.69,0,11.48-.08h0c1.78,0,3.57,0,5.31,0h.14A.58.58,0,0,0,373.79,349.63Zm630.69,15.56h0Zm2.35,3.59h0Zm4.48-1.94h0Zm1.38.26h0Zm.92.35h0Zm4.9-4.44h0Zm6.12-.86h0Zm9.37-1.79c-.46,0-1,0-1.47,0l1.67-.08A.28.28,0,0,1,1034,360.36Zm3.65-.8-.35-.07.35.07c-.27-.12.3-.15,1.47-.12l1,0-.28.19C1039.09,359.63,1038.36,359.59,1037.65,359.56Zm3.76-4.07h1.29c-.7,0-1.4,0-2.09.06h0l-.1,0A8.65,8.65,0,0,1,1041.41,355.49Zm-5.69.23c-1.17,0-2.33,0-3.5,0,0,0,0,.05,0,.07-.41,0-.82,0-1.24-.1C1032.79,355.69,1034.56,355.61,1035.72,355.72Zm26.34-8.82c.8,0,1.68,0,2.4,0l-1.23.09c-.79.06-1.56.07-2.33.08h-1.75c-2.34,0-4.67,0-6.92-.08a27.14,27.14,0,0,0-2.92-.06l1.11,0c-.39,0-.78,0-1.11,0s-.5,0-.38-.06a5.73,5.73,0,0,1,.91,0c.38.05,1,0,1.52.05C1054.93,347,1058.49,347,1062.06,346.9Zm1.2-5.34h0Zm-3.83-6.28s0,0,0,0h-.37Zm-2.81-.88h0ZM1074,331l0,0,0,0S1074,331,1074,331Zm-.73-.06h.42c-1,.12-2,.27-2.84.35l-.63,0H1070c-1.11-.06-2.32-.05-3.51-.05h0c-1-.06-2.3,0-3.42,0h0l-.82,0h0c-.56-.13.47-.11,1.37-.13a20.79,20.79,0,0,0,3.34-.13l1,0C1069.61,330.94,1071.4,331,1073.26,330.9Zm1.45-4.92h0l2.23.1c-.17.08-.34.16-.51.22l-.62,0-1.22,0c-.21,0-.47-.08-.54-.2A5,5,0,0,0,1074.71,326Zm3.14-45.58h0Zm13.88-2.56c-.87,0-1.79,0-2.66.06,0,0,0,0-.12,0h-.08Zm-29-2Zm-.27-.6c-.65,0-1.23.07-1.86.09H1060a3.11,3.11,0,0,1-.54,0c-.12,0,.1,0,.07,0s-.5,0-.37-.11a1.35,1.35,0,0,1,.65-.13h0l1,0h0l1.72.15Z" transform="translate(-198.74 -252.65)"/><path class="a" d="M232.84,286.49c-.09,0-.09,0,0,0Z" transform="translate(-198.74 -252.65)"/><path class="a" d="M370.19,361.93s0,0,0,0S370.18,361.92,370.19,361.93Z" transform="translate(-198.74 -252.65)"/><path class="a" d="M270,362.93h0S269.92,363,270,362.93Z" transform="translate(-198.74 -252.65)"/><path class="a" d="M694.48,257.54l.32.1C694.92,257.51,694.13,257.37,694.48,257.54Z" transform="translate(-198.74 -252.65)"/><path class="a" d="M1089.82,263.09s0,0,0,0Z" transform="translate(-198.74 -252.65)"/><path class="a" d="M1116.7,263.1h0Z" transform="translate(-198.74 -252.65)"/><path class="a" d="M792.63,260.72h0Z" transform="translate(-198.74 -252.65)"/><path class="a" d="M264.36,274c-.05,0,0,0,0,0Z" transform="translate(-198.74 -252.65)"/><path class="a" d="M214.62,285.16Z" transform="translate(-198.74 -252.65)"/><path class="a" d="M372,364.64Z" transform="translate(-198.74 -252.65)"/><path class="a" d="M256.3,282.58h0Z" transform="translate(-198.74 -252.65)"/><path class="a" d="M372,364.64Z" transform="translate(-198.74 -252.65)"/><path class="a" d="M1083.15,272.76Z" transform="translate(-198.74 -252.65)"/><path class="a" d="M1126.05,272.21c.1,0,.09,0,0,0Z" transform="translate(-198.74 -252.65)"/><path class="a" d="M1076.12,299.35Z" transform="translate(-198.74 -252.65)"/><path class="a" d="M1143.63,268.68Z" transform="translate(-198.74 -252.65)"/><path class="a" d="M239.55,276.4Z" transform="translate(-198.74 -252.65)"/><path class="a" d="M1101.54,271h0Z" transform="translate(-198.74 -252.65)"/><path class="a" d="M372,364.64h0S372,364.63,372,364.64Z" transform="translate(-198.74 -252.65)"/><path class="a" d="M467.07,369.57s.29.13,0,0Z" transform="translate(-198.74 -252.65)"/><path class="a" d="M1146.11,311.07c.05,0,.05,0,0,0Z" transform="translate(-198.74 -252.65)"/><path class="a" d="M999.17,369.31Z" transform="translate(-198.74 -252.65)"/><path class="a" d="M1086.06,322.54s0,0,0,0Z" transform="translate(-198.74 -252.65)"/><path class="a" d="M264.93,288.33Z" transform="translate(-198.74 -252.65)"/><path class="a" d="M292.93,308.7h0Z" transform="translate(-198.74 -252.65)"/><path class="a" d="M1055.37,355.35v0s0-.05,0,0Z" transform="translate(-198.74 -252.65)"/><path class="a" d="M377.3,351.9s0,0,0,0h0S377.31,351.9,377.3,351.9Z" transform="translate(-198.74 -252.65)"/><path class="a" d="M1107.39,352.86c0,.05.13-.09,0,0h0Z" transform="translate(-198.74 -252.65)"/><path class="a" d="M1132.77,291.87a12.18,12.18,0,0,0-3.31.23c-.23,0-.35.13-.23.27a.61.61,0,0,0,.6.1,9.88,9.88,0,0,1,2.55-.21,1,1,0,0,0,.6-.1c.14-.09.08,0,.06-.13S1132.94,291.88,1132.77,291.87Z" transform="translate(-198.74 -252.65)"/><path class="a" d="M1048.77,362a14.49,14.49,0,0,1-1.72.11l-.41,0c-.12,0-.39,0-.38.16s.28.14.42.14h.4a21.69,21.69,0,0,0,2.18-.16c.18,0,.25-.05.25-.13s.13,0-.08-.1A1.13,1.13,0,0,0,1048.77,362Z" transform="translate(-198.74 -252.65)"/><path class="a" d="M1105.93,354.41a1.55,1.55,0,0,0-.62.12.3.3,0,0,0-.08.07,3,3,0,0,1-1.25,0l-.53,0c-.23,0-.51,0-.59.18s.24.2.41.21l.39,0a12.94,12.94,0,0,0,2.32-.12.35.35,0,0,0,.18-.06s.14-.12.15-.18.06,0,0-.1S1106.08,354.44,1105.93,354.41Z" transform="translate(-198.74 -252.65)"/><path class="a" d="M1107.68,303.12c.13,0,.18-.09.19-.18s0-.11-.13-.18a1.15,1.15,0,0,0-.64,0,1.42,1.42,0,0,1-.35,0c.25-.53-.74-.74-1-1.19.28,0,.54,0,.82,0a1.41,1.41,0,0,0,.83-.29c.08-.09.05-.07,0-.08-.1-.27-.28-.41-.74-.39s-.92.24-1.36,0c0,0,0,0,0,0-1.21-.13-2.29.47-3.48.3s-1.66-1-3-.64c.52-.47.87-.87.06-1.27-1.08.54-2.37.69-3.14,1.47a3.3,3.3,0,0,1-1.66-.48c-.64.32-1.44,0-2.17,0-.74,1.3-2.31,1.36-4.19,1.5,0,0,0,0,0,.05-.4.19-.77,0-1.14-.11a.9.9,0,0,0-.91.21c-.14.23.13.39.5.42s.83-.11,1.1.15c0,0-.06,0,0,0,.23.44,1,.52,1.16,1,0,0,.32-.08.19,0a6.43,6.43,0,0,1-.73.27c-.2.08-.38.22-.16.36a1,1,0,0,0,.8.09c.29-.07.83-.3,1-.36s-.07.12,0,.12c1.08,0,2.13,0,3.21,0,0,0-.07,0,0,0,1.2,0,2.24,0,3.48.05a43.88,43.88,0,0,0,7.51-.33.62.62,0,0,0,.26-.06c.07,0,.19-.2.24-.24s0,0,0,0a12,12,0,0,0,1.9,0s-.09-.09,0-.08A4.23,4.23,0,0,0,1107.68,303.12Z" transform="translate(-198.74 -252.65)"/><path class="a" d="M936.18,258.87l4.32-.07A11.61,11.61,0,0,0,936.18,258.87Z" transform="translate(-198.74 -252.65)"/><path class="a" d="M853.74,258.31c.33,0,.52,0,.58-.26s-.2-.48-.54-.5-.51.06-.59.28S853.41,258.27,853.74,258.31Z" transform="translate(-198.74 -252.65)"/><path class="a" d="M852.33,254.63c-.63,0-.62.47-.68.79.38,0,.76,0,1.14,0C852.77,255.12,853,254.64,852.33,254.63Z" transform="translate(-198.74 -252.65)"/><path class="a" d="M933.42,258.94c.23-.05.33-.05.34-.19s-.53-.13-.65-.13a1.63,1.63,0,0,0-.44.12C932.69,259,933.19,259,933.42,258.94Z" transform="translate(-198.74 -252.65)"/><path class="a" d="M852.92,255.56s.12,0,.09-.06a.6.6,0,0,0-.2-.07A.58.58,0,0,0,852.92,255.56Z" transform="translate(-198.74 -252.65)"/><path class="a" d="M852.37,256.71s.11,0,.09-.07a1.28,1.28,0,0,0-.21-.07S852.34,256.69,852.37,256.71Z" transform="translate(-198.74 -252.65)"/><path class="a" d="M759.76,256.37c1.19.4,2,.29,2.45-.72.1-.24,1-.28,1,.13,0,.14.16.6.39.52,1.11-.4,2.28-.22,3.24-.81.34-.22.76-.63.28-.89s-.77-.06-1.12.25a.85.85,0,0,1-1.22.14,7.39,7.39,0,0,0-3,0c-1.07.26-1.39-.11-1.55-.78-.24.16-.7.28-.82.5C759.07,255.36,758.57,256,759.76,256.37Z" transform="translate(-198.74 -252.65)"/><path class="a" d="M757.68,257l.69-1.72c-2.73-.52-3.62-.08-3.68,1.8A14.91,14.91,0,0,1,757.68,257Z" transform="translate(-198.74 -252.65)"/><path class="a" d="M764.5,257.37c0-.07-.47.24-.59.17s.36-.44.24-.44a4.64,4.64,0,0,0-1.91.47,3.83,3.83,0,0,0,1.24.31,3.72,3.72,0,0,0,1,.23C764.47,257.89,764.61,257.55,764.5,257.37Z" transform="translate(-198.74 -252.65)"/><path class="a" d="M769.58,255.71c-.52.52-1,.8-.9,1.47C769.4,256.74,769.7,256.36,769.58,255.71Z" transform="translate(-198.74 -252.65)"/><path class="a" d="M764.82,253.07l-1.15.38a1.65,1.65,0,0,0,1.13.39C764.81,253.58,764.82,253.32,764.82,253.07Z" transform="translate(-198.74 -252.65)"/><path class="a" d="M771.14,257.1c.11,0,.22-.17.3-.25s.16-.39-.07-.27a1.49,1.49,0,0,0-.51.38C770.78,257.08,771,257.12,771.14,257.1Z" transform="translate(-198.74 -252.65)"/><path class="a" d="M765.36,254.1c.13,0,.22-.07.13-.13a1.84,1.84,0,0,0-.46-.13c-.17,0-.25,0-.12.13A1.19,1.19,0,0,0,765.36,254.1Z" transform="translate(-198.74 -252.65)"/><path class="a" d="M760.76,254.18c0-.13-.45-.12-.47,0S760.78,254.31,760.76,254.18Z" transform="translate(-198.74 -252.65)"/><path class="a" d="M761,254.32a.64.64,0,0,0-.2-.08s.08.12.11.14S761.05,254.34,761,254.32Z" transform="translate(-198.74 -252.65)"/><path class="a" d="M765,254.9s-.06-.07-.09-.06-.12.13-.11.14A.64.64,0,0,0,765,254.9Z" transform="translate(-198.74 -252.65)"/><path class="a" d="M852.2,258.86c-.63,0-.62.48-.68.79.38,0,.76,0,1.14,0C852.63,259.36,852.83,258.86,852.2,258.86Z" transform="translate(-198.74 -252.65)"/><path class="a" d="M852.79,259.8s.11-.05.09-.07a1,1,0,0,0-.2-.07S852.76,259.78,852.79,259.8Z" transform="translate(-198.74 -252.65)"/><path class="a" d="M764.63,258.25a1.41,1.41,0,0,0,.45.13c.13,0,.22-.07.13-.13a1.84,1.84,0,0,0-.46-.13C764.58,258.08,764.5,258.16,764.63,258.25Z" transform="translate(-198.74 -252.65)"/><path class="a" d="M670.59,256.89c-.25-.33-.52-.66-.8-1-.57.24-1.36.64-.92,1.12S670.07,257.05,670.59,256.89Z" transform="translate(-198.74 -252.65)"/><path class="a" d="M671,255.16c-1-.19-1.13.15-1.18.77A2.35,2.35,0,0,0,671,255.16Z" transform="translate(-198.74 -252.65)"/><path class="a" d="M670.27,254.1a.17.17,0,0,0,.08-.15s-.14-.06-.19,0a.17.17,0,0,0-.08.15A.24.24,0,0,0,670.27,254.1Z" transform="translate(-198.74 -252.65)"/><path class="a" d="M365.8,355.63c1.24.16,2.38-.21,3.61,0C370.14,354,366.64,354.92,365.8,355.63Z" transform="translate(-198.74 -252.65)"/><path class="a" d="M367.41,361.64c-1.18.14-2.17.58-1.16,1.3.17.12.51-.27.71-.25a4.34,4.34,0,0,0,1.8-.06c-.39-.25-1.21-.06-1.55-.26S367.41,361.84,367.41,361.64Z" transform="translate(-198.74 -252.65)"/><path class="a" d="M364.14,355.75c.78-.24,1-.53,1-1.09A1.38,1.38,0,0,0,364.14,355.75Z" transform="translate(-198.74 -252.65)"/><path class="a" d="M277.61,364.38c1.15.42,2.3,0,3.47-.17C280.19,363.34,278.7,364,277.61,364.38Z" transform="translate(-198.74 -252.65)"/><path class="a" d="M279.49,288.75c.3-.12.16-.17.16-.1C278.08,288.34,279.19,288.87,279.49,288.75Z" transform="translate(-198.74 -252.65)"/><path class="a" d="M233.35,272.76a4,4,0,0,0-2.37-1c.21.85-.77.89-1.82.94C230.53,273.27,231.86,273,233.35,272.76Z" transform="translate(-198.74 -252.65)"/><path class="a" d="M255.13,293.52c-.33,0-.58.18-.81.18s0,0-.18,0a.6.6,0,0,0-.39.08c-.07.07-.06.08-.06.14s.05.11.14.14a1,1,0,0,0,.31.09c.13,0,0,0,.2,0s.64-.15.94-.23a10.33,10.33,0,0,1,2.19-.32s-.06.05,0,.05a37.74,37.74,0,0,0,4.78-.45c-1.64-.94-3.55-1.47-4.84,0,0,0,0,0,0,0C256.8,293.68,256,293.48,255.13,293.52Z" transform="translate(-198.74 -252.65)"/><path class="a" d="M319.7,358.37a10.53,10.53,0,0,0,5.4-.23A48.56,48.56,0,0,0,319.7,358.37Z" transform="translate(-198.74 -252.65)"/><path class="a" d="M251.57,315.53a9.54,9.54,0,0,0,2-.5A1.15,1.15,0,0,0,251.57,315.53Z" transform="translate(-198.74 -252.65)"/><path class="a" d="M239.84,335.78c1.14.25,1.39-.27,1.09-.92C240.48,335.14,240.35,335.54,239.84,335.78Z" transform="translate(-198.74 -252.65)"/><path class="a" d="M248.85,307.26c-.06.36-.31.68-.34,1a11.37,11.37,0,0,1,3.14-.63A5.78,5.78,0,0,0,248.85,307.26Z" transform="translate(-198.74 -252.65)"/><path class="a" d="M250.31,294.88a11.76,11.76,0,0,0-1.4-1.31,11.51,11.51,0,0,1-3.16.63A6.43,6.43,0,0,0,250.31,294.88Z" transform="translate(-198.74 -252.65)"/><path class="a" d="M238.2,307.53c-1,.15-2,.24-3.07.36.34.19.49.32.06.5,1.89.57,3.55.19,5.48-.11-.07-.25-.14-.5-.2-.74-.5,0-1,.11-1.5.17-.07,0-.22.13-.23,0s.18-.25.19-.36-.11-.16-.26-.17a.54.54,0,0,0-.36.12C238.25,307.4,238.28,307.52,238.2,307.53Z" transform="translate(-198.74 -252.65)"/><path class="a" d="M239.37,305.38c-1-.41-1.66,0,0,0Z" transform="translate(-198.74 -252.65)"/><path class="a" d="M221.22,298.8a14.72,14.72,0,0,0,6.75-.42c-.8-.21-1.8-.05-1.76-.79,0,0,.2,0,.29,0s.32-.07.29-.18-.18-.12-.34-.12-.12.08-.31,0,.21-.32-.1-.4-.69.14-1.07.27-.28-.29-.62-.34a3.4,3.4,0,0,0-2.71.47s0,0,0,0c-.28.2-.62.08-.95,0a1,1,0,0,0-.81.25c-.11.15-.12,0,0,.17s.24.25.59.2.94-.23,1.28,0c0,0,0,.05,0,.07A1.53,1.53,0,0,0,221.22,298.8Z" transform="translate(-198.74 -252.65)"/><path class="a" d="M288.32,367.65c.06.31-.16.44-.57.58a9.52,9.52,0,0,0,4.1-.78C290.68,367,289.51,367.45,288.32,367.65Z" transform="translate(-198.74 -252.65)"/><path class="a" d="M282.64,367.85c-.38.33-.22.47.19.74a13,13,0,0,1,2-.51c-.63-.44-1.49-.23-2.27-.47C282.19,367.74,282.19,367.84,282.64,367.85Z" transform="translate(-198.74 -252.65)"/><path class="a" d="M229.9,322.65a3.77,3.77,0,0,0-3,.94,9,9,0,0,0,2.33-.32C229.49,323.17,229.58,322.76,229.9,322.65Z" transform="translate(-198.74 -252.65)"/><path class="a" d="M269.05,361.4c-1.24.49,1.43.54,1.93.55C270.64,361.42,269.74,361.58,269.05,361.4Z" transform="translate(-198.74 -252.65)"/><path class="a" d="M209.56,275a1.45,1.45,0,0,1-.94-.92c-4.14.33-7.1,1.12-9.88,3.23,2.61-.12,5-.86,7.6-.92A21.25,21.25,0,0,1,209.56,275Z" transform="translate(-198.74 -252.65)"/><path class="a" d="M589.25,374.72c-.66,0-1.66,0-2.26-.08s-1.2-.06-1.63-.1a.91.91,0,0,0-.72.15c-.18.11,0,0,0,.06h0s0,0,.06,0a.76.76,0,0,0,.65.19c.42,0,.89.05,1.53.09s1.85.1,2.59.08c.26,0,.6,0,.54-.23S589.54,374.72,589.25,374.72Z" transform="translate(-198.74 -252.65)"/><path class="a" d="M584.57,374.76s0,0,0,0Z" transform="translate(-198.74 -252.65)"/><path class="a" d="M512.1,373.85a30.17,30.17,0,0,0-4.75,0,29.66,29.66,0,0,1-3.86.06,2.24,2.24,0,0,0-1.38.23c-.33.21-.15,0-.11.22s.43.34.83.37a32.05,32.05,0,0,0,4.81-.05,27.8,27.8,0,0,1,3.74,0c.66,0,1.09.1,1.42-.23S512.58,373.91,512.1,373.85Z" transform="translate(-198.74 -252.65)"/><path class="a" d="M363.34,353.07a.84.84,0,0,0,.63.23,3.24,3.24,0,0,1,.87.2c.25.08.78.22.94.26s-.17.08-.14.09a28.58,28.58,0,0,0,7.91.52c-1.09-.89-2.77-1.16-3.87-2.05a15.06,15.06,0,0,0-3.46.69c-.12,0-.23-.05-.34-.09a9.39,9.39,0,0,0-1.63-.32,1,1,0,0,0-.87.28c-.15.14-.05,0-.07.09S363.28,353,363.34,353.07Z" transform="translate(-198.74 -252.65)"/><path class="a" d="M324.84,359.25a2.45,2.45,0,0,0-.71,0l-.38.05a.47.47,0,0,0-.33.16c0,.06,0,0,0,0s0,0,0,0a.44.44,0,0,0,.31.09l.38,0a.64.64,0,0,1,.3,0c.1,0,0,.06.09.12a.49.49,0,0,0,.37.07c.13,0,.28-.11.26-.2a.43.43,0,0,0-.1-.24C325,359.25,325,359.29,324.84,359.25Z" transform="translate(-198.74 -252.65)"/><path class="a" d="M284.08,307a32.89,32.89,0,0,0,3.7-.56c.3-.07.5-.2.37-.4s-.38-.18-.7-.12a30,30,0,0,1-3.25.44l-.35,0a1.05,1.05,0,0,0-.56.32c0,.08,0,0,0,.08s0,0,0,.07a.69.69,0,0,0,.46.17Z" transform="translate(-198.74 -252.65)"/><path class="a" d="M231.37,306.75a10.09,10.09,0,0,1,2.59-.16c.24,0,.48,0,.56-.19s0-.22-.29-.23a12,12,0,0,0-3.34.25c-.16,0-.24.11-.23.2s-.07.05.1.12A1,1,0,0,0,231.37,306.75Z" transform="translate(-198.74 -252.65)"/><path class="a" d="M329.76,363.24l-.39,0a12.55,12.55,0,0,1-1.65.11.92.92,0,0,0-.61.11c-.19.08-.09,0-.07.1s.09.1.26.1a16.45,16.45,0,0,0,2.09-.11l.38,0c.13,0,.38-.06.37-.19S329.88,363.24,329.76,363.24Z" transform="translate(-198.74 -252.65)"/><path class="a" d="M274.29,364.08l-.52.11a2.82,2.82,0,0,1-1.23.15l-.1-.06a1.5,1.5,0,0,0-.64,0c-.14,0-.33.13-.35.21s0,0,0,.1a.83.83,0,0,0,.2.16.43.43,0,0,0,.19,0,11.78,11.78,0,0,0,2.32-.23l.38-.07c.15,0,.48-.12.35-.27S274.52,364.05,274.29,364.08Z" transform="translate(-198.74 -252.65)"/><path class="a" d="M258,313.55c0,.09.09.14.23.15a4.23,4.23,0,0,0,1.55-.16c.05,0-.07.09,0,.08a12.59,12.59,0,0,0,1.87-.32s0,0,.05,0,.21.17.29.2a.66.66,0,0,0,.27,0,45.19,45.19,0,0,0,7.51-.81c1.2-.22,2.23-.42,3.43-.58,0,0-.06.06,0,.05,1.07-.14,2.11-.29,3.19-.45.08,0-.21-.15,0-.12s.78.18,1.08.2a1,1,0,0,0,.78-.2c.18-.18,0-.28-.25-.33s-.64-.11-.78-.16.18,0,.19,0c.1-.48.8-.65.94-1.11,0,0-.06,0-.05,0,.19-.28.7-.23,1.05-.31s.61-.26.4-.47a1,1,0,0,0-.94-.07c-.34.11-.67.4-1.11.28,0,0,.05-.06,0-.06-1.8.14-3.43.36-4.48-.8a4.57,4.57,0,0,1-2.16.3,3.24,3.24,0,0,1-1.54.71c-.95-.65-2.24-.59-3.42-.94-.7.47-.33.8.32,1.19-1.41-.14-1.72.73-2.84,1.06s-2.36-.07-3.51.22c0,0,0,0,0,0-.36.28-.88.13-1.34.19s-.61.2-.65.48c0,0-.05,0,.06.07a1.55,1.55,0,0,0,.88.16,7.54,7.54,0,0,1,.81-.12c-.18.47-1.12.83-.74,1.33a1.31,1.31,0,0,1-.35,0,1.17,1.17,0,0,0-.63.12C258,313.44,258,313.47,258,313.55Z" transform="translate(-198.74 -252.65)"/><path class="a" d="M258.06,311.75Z" transform="translate(-198.74 -252.65)"/><path class="a" d="M518.37,253.67c-.63,0-.47.49-.53.79H519C519,254.15,519,253.65,518.37,253.67Z" transform="translate(-198.74 -252.65)"/><path class="a" d="M517.7,254.61s.14-.13.13-.14a1.11,1.11,0,0,0-.21.08S517.67,254.63,517.7,254.61Z" transform="translate(-198.74 -252.65)"/><path class="a" d="M518.16,255.77a.52.52,0,0,0,.13-.13.65.65,0,0,0-.21.07S518.13,255.79,518.16,255.77Z" transform="translate(-198.74 -252.65)"/><path class="a" d="M603.8,255.05c.93.61,2.08.4,3.16.8.23.09.42-.37.44-.51.07-.39.93-.38,1-.14.35,1,1.19,1.1,2.38.72s.8-1,.51-1.63c-.11-.23-.54-.33-.78-.49-.22.65-.56,1-1.62.77a7.39,7.39,0,0,0-3,0,.85.85,0,0,1-1.21-.13c-.33-.33-.6-.51-1.09-.26S603.47,254.83,603.8,255.05Z" transform="translate(-198.74 -252.65)"/><path class="a" d="M615.81,256.65c.11-1.91-.78-2.3-3.52-1.78l.53,1.7A14.91,14.91,0,0,1,615.81,256.65Z" transform="translate(-198.74 -252.65)"/><path class="a" d="M601.8,256.74c.2-.65-.27-.93-.76-1.46C600.87,255.92,601.1,256.3,601.8,256.74Z" transform="translate(-198.74 -252.65)"/><path class="a" d="M606.05,252.65c0,.25,0,.51,0,.76a1.78,1.78,0,0,0,1.16-.38Z" transform="translate(-198.74 -252.65)"/><path class="a" d="M599.35,256.67c.11,0,.37,0,.29-.14a1.28,1.28,0,0,0-.47-.38c-.22-.12-.18.18-.1.27S599.24,256.65,599.35,256.67Z" transform="translate(-198.74 -252.65)"/><path class="a" d="M605.41,253.68a1.68,1.68,0,0,0,.46-.13c.15-.08.07-.17-.1-.13a2.08,2.08,0,0,0-.47.13C605.2,253.61,605.29,253.69,605.41,253.68Z" transform="translate(-198.74 -252.65)"/><path class="a" d="M610.48,253.75c0-.13-.44-.13-.47,0S610.5,253.88,610.48,253.75Z" transform="translate(-198.74 -252.65)"/><path class="a" d="M609.82,253.94a.46.46,0,0,0,.12-.13.74.74,0,0,0-.21.07S609.79,254,609.82,253.94Z" transform="translate(-198.74 -252.65)"/><path class="a" d="M605.71,254.47a.6.6,0,0,0,.19.08s-.07-.12-.1-.14S605.68,254.45,605.71,254.47Z" transform="translate(-198.74 -252.65)"/><path class="a" d="M605.29,257.93a1.19,1.19,0,0,0,.46-.13c.14-.08.07-.17-.1-.13a1.81,1.81,0,0,0-.47.13C605.08,257.86,605.16,258,605.29,257.93Z" transform="translate(-198.74 -252.65)"/><path class="a" d="M701.61,257.11c.48-.46-.24-.86-.81-1.11-.32.32-.61.64-.9,1C700.44,257.15,701.14,257.58,701.61,257.11Z" transform="translate(-198.74 -252.65)"/><path class="a" d="M700.77,256c0-.63,0-1-1.11-.77A2.12,2.12,0,0,0,700.77,256Z" transform="translate(-198.74 -252.65)"/><path class="a" d="M700.7,254.14a.13.13,0,0,0-.06-.15s-.18,0-.19,0a.13.13,0,0,0,.06.15A.18.18,0,0,0,700.7,254.14Z" transform="translate(-198.74 -252.65)"/><path class="a" d="M269.23,339.13a3.64,3.64,0,0,0-.45-.05l-.49,0c-.11,0,0,.06.42.06A5.13,5.13,0,0,0,269.23,339.13Z" transform="translate(-198.74 -252.65)"/><path class="a" d="M1035.92,362.75c-.23.08.51.08,1,.09,1.55.05,3.11.07,4.74,0l2.16,0a7.16,7.16,0,0,0,1.73-.06,5.32,5.32,0,0,0-1.54-.1c-2.26,0-4.55,0-6.77-.06A7.14,7.14,0,0,0,1035.92,362.75Z" transform="translate(-198.74 -252.65)"/><path class="a" d="M1005,369.21l-1.65,0c-.25,0-.43,0-.64.06a6.15,6.15,0,0,0,.65,0c.54,0,1.11,0,1.7,0,1,0,2.24,0,3.1-.06.11,0,.09-.05,0-.06A29.32,29.32,0,0,0,1005,369.21Z" transform="translate(-198.74 -252.65)"/><path class="a" d="M1053,358.06a11.37,11.37,0,0,0-2.22-.13,4,4,0,0,0-1.26.07,9.65,9.65,0,0,0,2.23.12A4.41,4.41,0,0,0,1053,358.06Z" transform="translate(-198.74 -252.65)"/><path class="a" d="M1014.89,370a4.24,4.24,0,0,0-1,.07,3.9,3.9,0,0,0,.91,0c.42,0,.76,0,.75-.07A1.88,1.88,0,0,0,1014.89,370Z" transform="translate(-198.74 -252.65)"/><path class="a" d="M1039.4,362.5a5.71,5.71,0,0,0-.65.05c-.14,0,.2.06.65.06a1.46,1.46,0,0,0,.56-.06A1.63,1.63,0,0,0,1039.4,362.5Z" transform="translate(-198.74 -252.65)"/><path class="a" d="M486.35,257.71a13.14,13.14,0,0,0,2.78.11c4.11-.07,8.25,0,12.36,0l1,0c2.45,0,4.95,0,7.42,0a2.63,2.63,0,0,0,.92-.08,5.22,5.22,0,0,0-.92-.05h0c.22-.07,1.06-.15-.53-.18-6.85,0-13.71,0-20.56.05A8.62,8.62,0,0,0,486.35,257.71Zm23.08-.16h0Z" transform="translate(-198.74 -252.65)"/><path class="a" d="M591.89,258.08a10.31,10.31,0,0,0,2,0,8.12,8.12,0,0,0-1.86-.09h-.73c-2.13-.14-4.63,0-7-.09-3.65-.11-7.34-.28-11.4-.14-.53,0-1.63-.07-1.59.06a6.11,6.11,0,0,0,1.88.13l8.24,0c1.09.07,2.3,0,3.49,0h0C587.18,258.09,589.63,258,591.89,258.08Z" transform="translate(-198.74 -252.65)"/><path class="a" d="M490,257.4c5.29-.06,10.29,0,15.59-.14C502.63,257.09,491.74,257.18,490,257.4Z" transform="translate(-198.74 -252.65)"/><path class="a" d="M437.2,257.7l-3.75.07c-.46,0-1,0-.93.09a4.92,4.92,0,0,0,1.14.06h1.21c1,0,2,0,2.84,0,.53,0,1.29-.07,1.15-.13A9.5,9.5,0,0,0,437.2,257.7Z" transform="translate(-198.74 -252.65)"/><path class="a" d="M525.48,256.66a4.16,4.16,0,0,0,.68-.05c.08-.05-.35-.07-.75-.07h-8C520,256.69,522.75,256.67,525.48,256.66Z" transform="translate(-198.74 -252.65)"/><path class="a" d="M511.55,256.61c.33,0,.57,0,.55-.06a5,5,0,0,0-1,0,2.15,2.15,0,0,0-.46,0A3.74,3.74,0,0,0,511.55,256.61Z" transform="translate(-198.74 -252.65)"/><path class="a" d="M548.9,257.58a1.72,1.72,0,0,0-.41,0c-.06,0,.06.06.45.05.17,0,.32,0,.43,0S549.29,257.58,548.9,257.58Z" transform="translate(-198.74 -252.65)"/><path class="a" d="M1094,278.32a9.24,9.24,0,0,0,2,.1c.57,0,1.36,0,1.24-.06a12.64,12.64,0,0,0-2.12-.11A3,3,0,0,0,1094,278.32Z" transform="translate(-198.74 -252.65)"/><path class="a" d="M1074.55,342.16c-.23.08.51.08,1,.09,1.55.05,3.12.07,4.75,0l2.16,0a8,8,0,0,0,1.73-.05c.1-.09-.8-.1-1.55-.1-2.25,0-4.55,0-6.77-.06A6.52,6.52,0,0,0,1074.55,342.16Z" transform="translate(-198.74 -252.65)"/><path class="a" d="M1067.32,333.3c-.19.08.6.07,1.08.09,2.33.1,4.83,0,6.55,0a8.79,8.79,0,0,0,2,0c.1-.07-.64-.09-1.32-.09l-7.13-.06A6.48,6.48,0,0,0,1067.32,333.3Z" transform="translate(-198.74 -252.65)"/><path class="a" d="M1088.13,337.41a9.65,9.65,0,0,0,2.23.12,4.29,4.29,0,0,0,1.24-.06,12.13,12.13,0,0,0-2.21-.13A4.39,4.39,0,0,0,1088.13,337.41Z" transform="translate(-198.74 -252.65)"/><path class="a" d="M1081.06,328.56a9.44,9.44,0,0,0,2,.09c.57,0,1.36,0,1.24,0a12.49,12.49,0,0,0-2.12-.12A2.82,2.82,0,0,0,1081.06,328.56Z" transform="translate(-198.74 -252.65)"/><path class="a" d="M1052.51,349.48a3.86,3.86,0,0,0,.91,0c.41,0,.76,0,.74-.07a1.84,1.84,0,0,0-.64,0A4.24,4.24,0,0,0,1052.51,349.48Z" transform="translate(-198.74 -252.65)"/><path class="a" d="M1078,341.91a5.69,5.69,0,0,0-.64,0c-.14.05.2.06.65.06a2,2,0,0,0,.56,0A1.54,1.54,0,0,0,1078,341.91Z" transform="translate(-198.74 -252.65)"/><path class="a" d="M1074,333.12a3.36,3.36,0,0,0-.45-.05l-.53,0a1.22,1.22,0,0,0,.35.05A1.72,1.72,0,0,0,1074,333.12Z" transform="translate(-198.74 -252.65)"/><path class="a" d="M1071.29,333.1a1.7,1.7,0,0,0-.41-.05,1.26,1.26,0,0,0-.58.06,4.41,4.41,0,0,0,.45,0C1071.16,333.16,1071.32,333.13,1071.29,333.1Z" transform="translate(-198.74 -252.65)"/></svg>