<svg xmlns="http://www.w3.org/2000/svg" viewBox="0 0 158.57 75.15">
  <defs>
    <style>
      .a {
        isolation: isolate;
      }

      .b {
        fill: #fdfbf9;
      }
    </style>
  </defs>
  <g class="a">
    <g>
      <path class="b" d="M36.85,7.8a29.75,29.75,0,0,1,5.69.55,27.84,27.84,0,0,1,4.24,1.11c1,.37,2.15.86,3.55,1.47a11.93,11.93,0,0,1,6.31-2.07c1.75,0,2.62.5,2.62,1.59a1.93,1.93,0,0,1-1.11,1.71,5.93,5.93,0,0,1-3,.65,15.23,15.23,0,0,1-4.79-1.49,22.41,22.41,0,0,0-3.83,3.13,38.9,38.9,0,0,0-7.34,10.78,18.07,18.07,0,0,1,1,5.05A9.11,9.11,0,0,0,44.9,28.7a24.12,24.12,0,0,0,4.84-4.24q2.43-2.7,4.77-5.56t5.39-6.28a52.54,52.54,0,0,1,5.82-5.68,24.22,24.22,0,0,1,8.44-4.7A37.34,37.34,0,0,1,85,.87a13.66,13.66,0,0,1,6,1.64,7.4,7.4,0,0,1,4.1,4.18s0,0-.08,0a.41.41,0,0,1-.21,0q-.75-2.31-4-3.87a13.56,13.56,0,0,0-5.78-1.57,19.71,19.71,0,0,0-7.49,1.62,35.32,35.32,0,0,0-7.48,4.21Q66.54,9.68,63,12.81T56.2,19.07q-3.21,3.12-6,5.73A39,39,0,0,1,44.88,29a8.31,8.31,0,0,1-4.2,1.61h-.43a47.21,47.21,0,0,1-.14,8.57q-.24,2.46-1.26,8.5a72.64,72.64,0,0,0-1.08,8.79A19.74,19.74,0,0,0,40.7,67.93q3.06,4.72,7.36,4.72a7.15,7.15,0,0,0,5.69-2.94,10.18,10.18,0,0,0,2.46-6.4,9.26,9.26,0,0,0-1-4.38l.17-.1a9.11,9.11,0,0,1,1,4.48,10.63,10.63,0,0,1-2.54,6.6,7.44,7.44,0,0,1-6,3A7.7,7.7,0,0,1,43,71.23a12.41,12.41,0,0,1-3.55-4.6,29.79,29.79,0,0,1-2.13-6.35,40.15,40.15,0,0,1-.9-7.22,38.21,38.21,0,0,1-2.91,8.66A34.32,34.32,0,0,1,28.9,69a20.58,20.58,0,0,1-6.25,5.1A15.69,15.69,0,0,1,15.21,76a11.89,11.89,0,0,1-6.73-2,14,14,0,0,1-4.7-5.27,29.24,29.24,0,0,1-2.66-7.37,38.87,38.87,0,0,1-.91-8.61,42.37,42.37,0,0,1,3-15.29,58.6,58.6,0,0,1,8-14.56A43.54,43.54,0,0,1,23,12.11,25.83,25.83,0,0,1,36.85,7.8ZM23.48,54.6a13,13,0,0,1-3.14-.39,14.13,14.13,0,0,1-2.29-.7c-.47-.2-1.31-.6-2.52-1.18l-.71,0c-.33,0-.57,0-.74,0H12.94c-.07.87-.1,1.7-.1,2.51A15.38,15.38,0,0,0,14,61.48,3.83,3.83,0,0,0,17.63,64v.28a4,4,0,0,1-3.76-2.52A15.48,15.48,0,0,1,12.63,55a20.49,20.49,0,0,1,.14-2.6H9.93a1.24,1.24,0,0,1-1-1,1.72,1.72,0,0,1,.32-1.37,1.38,1.38,0,0,1,1.14-.65,5.89,5.89,0,0,1,2.51,1.35,31.83,31.83,0,0,1,1.81-6.67,30,30,0,0,1,3.16-6,15.45,15.45,0,0,1,4.58-4.43A10.65,10.65,0,0,1,28.23,32a8.14,8.14,0,0,1,4.15,1.11L35,29a4.75,4.75,0,0,1-2.16-4.14,3.74,3.74,0,0,1,.72-2.31,2.17,2.17,0,0,1,1.79-.86,3.73,3.73,0,0,1,3.2,2Q44.9,14.54,50,11.12A33.18,33.18,0,0,0,36.92,8.19a18.93,18.93,0,0,0-8.42,2.14A34.79,34.79,0,0,0,20.3,16,56.14,56.14,0,0,0,13,24.44,63.82,63.82,0,0,0,7,34.55a63.09,63.09,0,0,0-3.95,10.9A42.22,42.22,0,0,0,1.6,56.09q0,9.54,3.75,14.59a11.73,11.73,0,0,0,9.86,5,15.51,15.51,0,0,0,7.56-2,21,21,0,0,0,6.29-5.27A33.75,33.75,0,0,0,33.64,61a40.05,40.05,0,0,0,2.78-8.9c0-.71,0-1.22,0-1.54a53.69,53.69,0,0,1,.64-6.79q-.29-5.36-2.63-8.38Q32.88,38.57,31,41.65a26.28,26.28,0,0,1-6.86,7.41,15.8,15.8,0,0,1-8.21,3.27,19.23,19.23,0,0,0,7.59,2A9.64,9.64,0,0,0,28,53.25a4.44,4.44,0,0,0,2.51-3.13h.24a5,5,0,0,1-2.62,3.35A9.59,9.59,0,0,1,23.48,54.6ZM15.85,52q3.62,0,9.15-7.61,2.13-2.93,7.24-11a7.63,7.63,0,0,0-4-1.06,10.62,10.62,0,0,0-5.73,1.68A15.25,15.25,0,0,0,18,38.37a29.52,29.52,0,0,0-3.08,6,30.79,30.79,0,0,0-1.74,6.55A5.31,5.31,0,0,0,15.85,52ZM33,24.89a4.42,4.42,0,0,0,2.06,3.95L38.34,24a3.46,3.46,0,0,0-3-2,2,2,0,0,0-1.65.77A3.45,3.45,0,0,0,33,24.89Zm6.21,5.68A11.6,11.6,0,0,1,37,30L34.58,35.1a14.5,14.5,0,0,1,2.66,7.65q.21-1.44,1-5.77T39.23,30.57Zm-2.17-.72a8.81,8.81,0,0,0,2.17.39l.1-1.54a11.52,11.52,0,0,0-.32-3C38.45,26.82,37.79,28.21,37.06,29.85Zm22-19.4c0-.9-.74-1.35-2.23-1.35a12.12,12.12,0,0,0-6.14,2,14,14,0,0,0,4.51,1.4A6,6,0,0,0,58,12,1.69,1.69,0,0,0,59.05,10.45Z" transform="translate(-0.21 -0.87)"/>
      <path class="b" d="M43.38,50.31a1.46,1.46,0,0,1-1.33-1A4.54,4.54,0,0,1,41.64,47a17.33,17.33,0,0,1,1-4.62,28.61,28.61,0,0,1,1.81-4.48,21.51,21.51,0,0,1,5-6.6q2.84-2.4,4.72-2.4a.57.57,0,0,1,.53.36,1.73,1.73,0,0,1,.18.79q0,3.18-3.73,9.58-1.56,2.89-2.23,3.9l-.21.34a4.33,4.33,0,0,0,2.21-1.23,11.85,11.85,0,0,0,2.43-3.15l.18.09a12.14,12.14,0,0,1-2.71,3.45,4.17,4.17,0,0,1-2.19,1.13h-.1C46,48.28,44.32,50.31,43.38,50.31Zm3.93-11.94q-4.5,8.15-4.5,10.5c0,.74.21,1.11.64,1.11.85,0,2.49-1.95,4.93-5.83-.38-.13-.55-.58-.5-1.35a9.91,9.91,0,0,1,2-4.67c1.28-1.76,2.28-2.45,3-2.07a15.2,15.2,0,0,0,1.73-6c0-.58-.16-.86-.49-.86-.5,0-1.37.8-2.63,2.4A50,50,0,0,0,47.31,38.37Z" transform="translate(-0.21 -0.87)"/>
      <path class="b" d="M64.48,39.53l.17.09c-.07.13-.17.33-.31.58s-.31.6-.5,1l-.52,1c-.15.3-.3.6-.46.89s-.32.59-.49.91l-.59,1.06a30.22,30.22,0,0,1-2.29,3.61c-.76,1-1.46,1.54-2.07,1.54s-1.06-.72-1.06-2.16q0-4.49,3.54-11.51l3.48-6.79A5.61,5.61,0,0,0,61.66,31a13.91,13.91,0,0,0-1.63,2,24.69,24.69,0,0,0-1.56,2.63c-.51,1-1,1.94-1.48,2.93-.28.58-.55,1.17-.81,1.76s-.52,1.18-.78,1.76c-.45,1-.89,1.94-1.31,2.84a19.25,19.25,0,0,1-1.33,2.38A7.43,7.43,0,0,1,51.32,49a2.51,2.51,0,0,1-1.6.6,1.37,1.37,0,0,1-1.26-.72,3.48,3.48,0,0,1-.4-1.73A4.7,4.7,0,0,1,48.22,46a3.77,3.77,0,0,1,.56-1.25,3.31,3.31,0,0,1,1.14-1,4.24,4.24,0,0,1,1.86-.46,1.77,1.77,0,0,0-1,1.14,4.77,4.77,0,0,0-.39,1.85,2.56,2.56,0,0,0,.21,1.11,1,1,0,0,0,.71.53A3.74,3.74,0,0,0,53.2,46q.91-1.59,1.95-3.9.39-.83.78-1.71c.26-.59.53-1.2.82-1.81.49-1.06,1-2.1,1.54-3.13a24.25,24.25,0,0,1,1.65-2.76,12.35,12.35,0,0,1,1.75-2.07,4.28,4.28,0,0,1,1.83-1.09l.07-.14c.36.13.62.21.78.26a4.41,4.41,0,0,0,.82.12,2.13,2.13,0,0,0,1.49-.62,10.06,10.06,0,0,0,1.59-2.26h.14l-10.21,18a9.5,9.5,0,0,0-1.56,3.85c0,.8.28,1.21.85,1.21s1.21-.6,2.06-1.79A33.61,33.61,0,0,0,62,44.42c.73-1.34,1.46-2.74,2.2-4.22a1.69,1.69,0,0,1,.16-.33A2.16,2.16,0,0,0,64.48,39.53Z" transform="translate(-0.21 -0.87)"/>
      <path class="b" d="M75.19,39.53l.18.09c-.08.13-.18.33-.32.58s-.31.6-.5,1l-.51,1c-.16.3-.31.6-.47.89s-.32.59-.49.91-.37.68-.59,1.06a29,29,0,0,1-2.29,3.61c-.76,1-1.46,1.54-2.07,1.54s-1.06-.72-1.06-2.16q0-4.49,3.54-11.51l3.48-6.79A5.61,5.61,0,0,0,72.37,31a13.91,13.91,0,0,0-1.63,2,24.69,24.69,0,0,0-1.56,2.63c-.51,1-1,1.94-1.48,2.93-.28.58-.55,1.17-.81,1.76s-.52,1.18-.78,1.76c-.45,1-.89,1.94-1.31,2.84a19.25,19.25,0,0,1-1.33,2.38A7.43,7.43,0,0,1,62,49a2.51,2.51,0,0,1-1.6.6,1.37,1.37,0,0,1-1.26-.72,3.48,3.48,0,0,1-.4-1.73A4.7,4.7,0,0,1,58.93,46a3.77,3.77,0,0,1,.56-1.25,3.31,3.31,0,0,1,1.14-1,4.24,4.24,0,0,1,1.86-.46,1.77,1.77,0,0,0-1,1.14,4.77,4.77,0,0,0-.39,1.85,2.56,2.56,0,0,0,.21,1.11,1,1,0,0,0,.71.53A3.74,3.74,0,0,0,63.91,46q.91-1.59,2-3.9.39-.83.78-1.71c.26-.59.53-1.2.82-1.81.49-1.06,1-2.1,1.54-3.13a24.25,24.25,0,0,1,1.65-2.76,12.84,12.84,0,0,1,1.75-2.07,4.34,4.34,0,0,1,1.83-1.09l.07-.14c.36.13.62.21.78.26a4.41,4.41,0,0,0,.82.12,2.13,2.13,0,0,0,1.49-.62A9.74,9.74,0,0,0,79,26.92h.14l-10.21,18a9.5,9.5,0,0,0-1.56,3.85c0,.8.28,1.21.85,1.21s1.21-.6,2.06-1.79a33.61,33.61,0,0,0,2.41-3.77c.73-1.34,1.47-2.74,2.2-4.22a1.69,1.69,0,0,1,.16-.33A2.16,2.16,0,0,0,75.19,39.53Z" transform="translate(-0.21 -0.87)"/>
      <path class="b" d="M84.37,28.94c.52,0,.78.35.78,1.06q0,2.07-2.73,5.12a14.32,14.32,0,0,1-5.07,4,3.16,3.16,0,0,0-.28.52c-.19.42-.52,1.1-1,2s-.78,1.6-1,2a11.54,11.54,0,0,0-1.49,4.86c0,1,.34,1.45,1,1.45s1.89-.94,3.4-2.8a45.77,45.77,0,0,0,4.79-7.65l.18.09a44.83,44.83,0,0,1-4.88,7.85c-1.55,1.9-2.73,2.84-3.53,2.84A1.85,1.85,0,0,1,73,49.18a5.64,5.64,0,0,1-.53-3.06,20.93,20.93,0,0,1,1.63-6.74,25.17,25.17,0,0,1,2.73-4.76,17.94,17.94,0,0,1,3-3.28,15.82,15.82,0,0,1,2.61-1.75A5.22,5.22,0,0,1,84.37,28.94Zm.08.29c-.48,0-1.39.89-2.74,2.69a52.18,52.18,0,0,0-4.15,6.74,16.29,16.29,0,0,0,4.88-4q2.5-2.82,2.5-4.69c0-.52-.15-.77-.46-.77Z" transform="translate(-0.21 -0.87)"/>
      <path class="b" d="M94,34.47a1.31,1.31,0,0,0,.9-.74,4.09,4.09,0,0,0,.5-1.38,2.9,2.9,0,0,0,0-1.32.92.92,0,0,0-.75-.7,3.88,3.88,0,0,0-1.56.94,12.88,12.88,0,0,0-1.63,1.86,28.15,28.15,0,0,0-1.61,2.45c-.53.9-1,1.81-1.51,2.75a6.08,6.08,0,0,1,1.33-1.06A2.93,2.93,0,0,1,91,36.81a1.41,1.41,0,0,1,1.09.41,2.35,2.35,0,0,1,.55,1.44,6.23,6.23,0,0,1,0,1.13,6.89,6.89,0,0,1-.39,1.47,20.7,20.7,0,0,1-.94,2.1c-.41.81-1,1.8-1.65,3-.31.54-.6,1.07-.88,1.59a2.74,2.74,0,0,0-.43,1.3,1.41,1.41,0,0,0,.09.57.37.37,0,0,0,.37.2q1,0,3.51-3.47a43.45,43.45,0,0,0,4.26-7l.18.09c-.67,1.29-1.37,2.54-2.11,3.76s-1.54,2.39-2.36,3.51q-2.49,3.38-3.55,3.37a1.59,1.59,0,0,1-1.24-.72,2.81,2.81,0,0,1-.5-2,9,9,0,0,1,.8-3.37A26.54,26.54,0,0,1,89.52,41a11.7,11.7,0,0,0,1.1-2.09,2.36,2.36,0,0,0,.19-1.16.44.44,0,0,0-.48-.36,1.88,1.88,0,0,0-.89.29,4.34,4.34,0,0,0-1.11,1.08,13.54,13.54,0,0,0-1,1.52c-.3.55-.57,1.09-.82,1.64s-.47,1-.69,1.44c-.52,1.22-1,2.37-1.52,3.44s-1,2-1.39,2.72h-.32l-.46-.21a.94.94,0,0,0-.28-.1l-.32,0a3.21,3.21,0,0,0-.53.05A2.66,2.66,0,0,0,79.5,50,7.2,7.2,0,0,0,78,52h-.17l7.94-13.63,2.38-4.09.39-.6a4.21,4.21,0,0,0,.39-.75,9.76,9.76,0,0,0,.53-1.2,4.65,4.65,0,0,0,.28-1.35c0-.77-.23-1.15-.78-1.15s-1.66,1.44-3.37,4.33l-1.43,2.55c-.56,1-1.19,2.17-1.9,3.51l-.14-.09c1-2,1.92-3.6,2.66-4.91s1.31-2.33,1.74-3c1.08-1.76,1.91-2.64,2.48-2.64.76,0,1.1.7,1,2.12a5.8,5.8,0,0,1-.18,1.29c-.12.52-.26,1.07-.43,1.67s-.35,1.19-.56,1.8-.43,1.19-.64,1.73l-.75,2a66.71,66.71,0,0,1,4.44-7.42c1.37-1.92,2.72-3,4-3.22a1.56,1.56,0,0,1,1.38.38,1.94,1.94,0,0,1,.43,1.45,3.93,3.93,0,0,1-.16,1A3.77,3.77,0,0,1,97,32.93a3.56,3.56,0,0,1-1.12,1A4.09,4.09,0,0,1,94,34.47Z" transform="translate(-0.21 -0.87)"/>
      <path class="b" d="M95.94,39.62l-.18-.09q2.86-5.82,4.11-8c1-1.76,1.83-2.64,2.38-2.64.73,0,1.1.7,1.1,2.12a20.13,20.13,0,0,1-1,5.48,33.12,33.12,0,0,1-2.43,6l0,.1H100c1.19-2.38,2.39-4.66,3.62-6.84a55.82,55.82,0,0,1,3.26-5.17c.86-1.14,1.58-1.71,2.17-1.71,1,.09,1.25,1.54.85,4.33a29,29,0,0,1-2.8,8.91l-.22.38,0,.1h.21q7-14,9.47-14c.4,0,.73.26,1,.79a4.54,4.54,0,0,1,.39,2,11.6,11.6,0,0,1-1,4.72,30,30,0,0,1-2.7,4.67l-.89,1.18c-.54.72-1,1.3-1.24,1.73s-.64,1-1.06,1.71a10.38,10.38,0,0,0-1,2,5.14,5.14,0,0,0-.32,1.64q0,.87.6.87c.62,0,1.65-1.11,3.11-3.33a77.82,77.82,0,0,0,4.13-7.12l.18.09q-2.2,4.2-4.33,7.42t-3.12,3.22c-.64,0-1.06-.42-1.28-1.27a9.38,9.38,0,0,1-.1-3.25q.39-3.47,3.79-8.19c.33-.44.76-1,1.3-1.7s1-1.26,1.29-1.71.67-.93,1-1.45a7.81,7.81,0,0,0,.78-1.39,3.33,3.33,0,0,0,.25-1.16c0-.74-.28-1.11-.82-1.11-1.06,0-3,2.31-5.67,6.94q-2.06,3.56-4.05,7.7c-1.32,2.76-2.2,4.7-2.62,5.82h-.32l-.8-.26a3.73,3.73,0,0,0-.83-.1,1.87,1.87,0,0,0-1,.22,4.47,4.47,0,0,0-1,.91A7.82,7.82,0,0,0,99.09,52H99l9.36-17.72a10.69,10.69,0,0,0,1.31-3.66c0-.86-.16-1.33-.63-1.39s-1.22.59-2,1.68a55.08,55.08,0,0,0-3.12,5q-2,3.51-4,7.63c-1.31,2.74-2.19,4.73-2.64,5.94h-.32a8.39,8.39,0,0,0-1-.31,3.66,3.66,0,0,0-1.06,0,2.23,2.23,0,0,0-1.38.8,8.4,8.4,0,0,0-1.32,2h-.17l9.68-17.72c0-.1.16-.3.34-.6s.3-.55.39-.75l.32-.74a4.61,4.61,0,0,0,.28-.92,4.56,4.56,0,0,0,.09-.89c0-.77-.27-1.15-.82-1.15s-1.63,1.44-3.19,4.33C98.26,35,97.24,37,95.94,39.62Z" transform="translate(-0.21 -0.87)"/>
      <path class="b" d="M129,39.53l.18.09c-.14.26-.41.78-.8,1.57s-.72,1.44-1,2-.63,1.16-1.06,2-.84,1.45-1.19,2-.73,1.07-1.12,1.59a6.44,6.44,0,0,1-1.12,1.18,1.62,1.62,0,0,1-.95.4c-.83,0-1.17-.93-1-2.79a21.59,21.59,0,0,1,1.35-5.87q-4.41,8.67-6.25,8.66c-.82,0-1.17-.93-1-2.79a22.37,22.37,0,0,1,1.13-5.25,32.4,32.4,0,0,1,2.38-5.63l3.68-7.17c.36.13.62.21.78.26a4.13,4.13,0,0,0,.84.1,1.59,1.59,0,0,0,1-.24,5.18,5.18,0,0,0,1-.92,8.78,8.78,0,0,0,1.1-1.7H127l-10.22,18a11.78,11.78,0,0,0-1.56,3.71c0,.9.24,1.35.85,1.35a2.16,2.16,0,0,0,1.41-.87,15.77,15.77,0,0,0,1.82-2.6c.69-1.16,1.24-2.12,1.65-2.89s1-1.83,1.65-3.18c.14-.29.25-.49.32-.62a30.22,30.22,0,0,1,1.49-3.23l3.72-7.17.78.26a3.61,3.61,0,0,0,.82.1,1.64,1.64,0,0,0,1-.24,5.18,5.18,0,0,0,1-.92,8.78,8.78,0,0,0,1.1-1.7h.14l-10.25,18a9.68,9.68,0,0,0-1.53,3.71c-.07.9.2,1.35.82,1.35a2.23,2.23,0,0,0,1.43-.92,17.21,17.21,0,0,0,1.95-2.81c.75-1.27,1.31-2.27,1.69-3s.93-1.81,1.67-3.25C128.82,39.79,128.91,39.62,129,39.53Z" transform="translate(-0.21 -0.87)"/>
      <path class="b" d="M128.1,49.88h.11q1.53,0,6.53-8.38a3.74,3.74,0,0,1,0-.82,22.63,22.63,0,0,1,2.41-7.55q2.26-4.92,3.72-4.92c.47,0,.65.49.53,1.45q-.18,1.79-6.45,11.89c.14.71.47,1.06,1,1.06.92,0,2-1,3.16-3.08l.18.09q-1.92,3.29-3.34,3.28-.91,0-1.17-1.11-5,8.39-6.7,8.38h0c-.75,0-1.22-.69-1.38-2.07q-.47-3.9,2.69-10.5c.1-.22.2-.45.32-.67q7-14.05,13-21.57t10.23-7.51a1.78,1.78,0,0,1,1.51.82,3.63,3.63,0,0,1,.58,2.16,6.16,6.16,0,0,1-.18,1.5,10.17,10.17,0,0,1-.42,1.35,5.9,5.9,0,0,1-.75,1.3l-.86,1.15a8.23,8.23,0,0,1-1.07,1.08l-1.1,1a13.22,13.22,0,0,1-1.22.91c-.55.37-.93.64-1.15.8s-.61.4-1.16.74-.87.56-1,.65a79.6,79.6,0,0,0-8.23,6L134,34.52q-4,7.56-5.21,10.4a12,12,0,0,0-1.24,4C127.54,49.57,127.73,49.88,128.1,49.88ZM152.86,8.14c-1.77,0-3.86,1.62-6.24,4.86a126.06,126.06,0,0,0-8.41,13.67,70.64,70.64,0,0,1,7.95-5.73c1.32-.86,2.42-1.62,3.29-2.26a25,25,0,0,0,2.66-2.26,9.66,9.66,0,0,0,2-2.7,6.68,6.68,0,0,0,.67-2.89,3.33,3.33,0,0,0-.53-1.95,1.65,1.65,0,0,0-1.39-.74Z" transform="translate(-0.21 -0.87)"/>
      <path class="b" d="M154.84,39.48l.18.1-.32.57c-.14.26-.31.6-.49,1l-.52,1c-.15.31-.31.6-.46.89s-.32.6-.5.92l-.58,1.06a31,31,0,0,1-2.29,3.61c-.77,1-1.46,1.54-2.07,1.54s-1.07-.73-1.07-2.17q0-4.47,3.55-11.51l1.7-3.32a35.43,35.43,0,0,1-2.5,3.37,25.27,25.27,0,0,1-2.53,2.65,12.18,12.18,0,0,1-.93,4.14,11.76,11.76,0,0,1-2.09,3.49,9.85,9.85,0,0,1-2.32,1.93,7.32,7.32,0,0,1-2.17.84,8.85,8.85,0,0,1-1.61.19,1.06,1.06,0,0,1-.94-.46,2.67,2.67,0,0,1-.44-1.61,11.68,11.68,0,0,1,.09-2,21.2,21.2,0,0,1,.4-2.26A30.67,30.67,0,0,1,138,40c.45-1.22,1-2.53,1.63-3.95L143,29.42l.78.21a3.13,3.13,0,0,0,.82.08,2.23,2.23,0,0,0,1.49-.73,9.21,9.21,0,0,0,1.52-2.35h.15l-9.55,17.86a9.88,9.88,0,0,0-1.41,3.9,1.13,1.13,0,0,0,.35.91,1,1,0,0,0,.78.24,1.61,1.61,0,0,0,1.26-.31,7.08,7.08,0,0,0,1.51-1.37,14.94,14.94,0,0,0,1.52-2.17A21.94,21.94,0,0,0,143.53,43c.05-.09.18-.36.39-.79s.45-.92.71-1.47a1.63,1.63,0,0,1-1.47.07,1.29,1.29,0,0,1-.61-1,3,3,0,0,1,.27-1.52,4.88,4.88,0,0,1,1.1-1.57,2.5,2.5,0,0,1,1.1-.67,1.35,1.35,0,0,1,1.06.14,1.88,1.88,0,0,1,.66,1,5.84,5.84,0,0,1,.2,1.56,21.67,21.67,0,0,0,1.75-1.8c.6-.69,1.21-1.44,1.81-2.24s1.19-1.64,1.75-2.53,1.09-1.77,1.57-2.67l.14-.24a7.66,7.66,0,0,0,.78.26,4.83,4.83,0,0,0,.81.13,2.13,2.13,0,0,0,1.49-.63,10,10,0,0,0,1.6-2.26h.14l-10.21,18A9.5,9.5,0,0,0,147,48.72c0,.81.28,1.21.85,1.21s1.2-.6,2-1.78a34.76,34.76,0,0,0,2.42-3.78q1.09-2,2.2-4.22a1.43,1.43,0,0,1,.15-.33A1.53,1.53,0,0,0,154.84,39.48Zm-9-1.78c.19-.84.07-1.27-.35-1.3a1.35,1.35,0,0,0-.86.19,3.92,3.92,0,0,0-.71.58,4.34,4.34,0,0,0-.93,1.44,2.25,2.25,0,0,0-.16,1.26.91.91,0,0,0,.62.72,1.83,1.83,0,0,0,1.4-.24c.21-.45.4-.91.58-1.37A10.31,10.31,0,0,0,145.8,37.7Z" transform="translate(-0.21 -0.87)"/>
    </g>
  </g>
</svg>
