<svg xmlns="http://www.w3.org/2000/svg" viewBox="0 0 56.14 28.96">
  <defs>
    <style>
      .a {
        fill: #fe0404;
      }
    </style>
  </defs>
  <g>
    <path class="a" d="M64.06,21.93c.46-.09.73,0,.82.34s-.11.51-.58.62c-.24,0-.68.14-1.31.3l-2.36.64q-3.42,1-6,1.89a16.08,16.08,0,0,0-4,2.5l-.37.36-.36.34a1.18,1.18,0,0,1-.48.17,1.08,1.08,0,0,1-.62.19.58.58,0,0,1-.52-.21,15,15,0,0,1-1.93-3.33c-.09-.2,0-.39.32-.57a1.29,1.29,0,0,1,.84-.15,1.68,1.68,0,0,1,.66-.28q1.08-1.26,3.25-3.66l1.64-1.82,1.64-1.85a34.47,34.47,0,0,0,5.35-8.19c.05-.13.14-.31.24-.53l.13-.3.16-.32c.25-.56.44-1,.57-1.4a17.34,17.34,0,0,0-3.49,1.09,6.22,6.22,0,0,0-2,2.42.78.78,0,0,1-.38.3,2.29,2.29,0,0,1-.62.17,5.05,5.05,0,0,0-.3.77.75.75,0,0,1-.38.32,1,1,0,0,1-.71.4c-.35,0-.58,0-.7-.21a.41.41,0,0,1-.35-.3l-.07-.55-.09-.58C52.08,10,52,9.65,52,9.31A6,6,0,0,1,52.22,7l0,0a.55.55,0,0,1,.25-.45l.42-.32.47-.34c.39-.3.71-.55,1-.73a23.09,23.09,0,0,1,2.16-1.4,6.29,6.29,0,0,1,4.6-1c1.65.46,2.58,1.28,2.79,2.47a2.21,2.21,0,0,1,.74-.15c.23,0,.33.09.3.26a18.84,18.84,0,0,1-2.73,6.32c.12,0,.14.15,0,.3l-1.46,2.5c-.56,1-1.06,1.79-1.49,2.51-1.13,1.87-2.19,3.5-3.16,4.88a34.75,34.75,0,0,1,8.08-.57q.54,0,.39.27A1.4,1.4,0,0,1,64,22ZM50,26.28l0,.12,0,.09.2-.17.2-.17ZM51.47,25l-.13.23,1.29-.51.19-.25Zm2.3-1.75,0,0c-.27.1-.55.22-.83.34l.25-.06h0l0,0,.23-.12Zm.73-1Q56.14,20,57.94,17L57,18.05c-.84,1-1.7,2.05-2.57,3.07l-.69.81-.68.81C53.53,22.57,54,22.4,54.5,22.25Zm-1.27,3.34.9-.34,1.24-.55a18.41,18.41,0,0,0-1.94.68l-.09.11ZM55.84,6l.48-.37a5.41,5.41,0,0,0-1,.66C55.53,6.13,55.71,6,55.84,6ZM61,22.5l2.12-.38-2.19.3A.17.17,0,0,1,61,22.5Z" transform="translate(-46.39 -1.42)"/>
    <path class="a" d="M77.91,4.49c1.75.78,2.46,2.31,2.16,4.61a30.54,30.54,0,0,1-3.16,9.35,35.67,35.67,0,0,1-2.32,5.23A14.56,14.56,0,0,1,71,28a5.1,5.1,0,0,1-2.1,1c-2.42.65-4.11.19-5.06-1.4q-1.2-2-.73-6.12A35.11,35.11,0,0,1,64.93,14a24.87,24.87,0,0,1,2.44-5.46,1,1,0,0,1,.82-.4L68.26,8a.94.94,0,0,1,.56-.36,1.48,1.48,0,0,1,.69,0l.23-.22L70,7.22a.91.91,0,0,1,.8-.17c.31.07.46.21.46.41a11.66,11.66,0,0,1,3-2.69A3.85,3.85,0,0,1,77.91,4.49ZM67.48,19.12c0-.22,0-.5,0-.82a18.07,18.07,0,0,0-.86,4.86,2.45,2.45,0,0,0,1.07,2.26c.78.51,1.55.34,2.32-.53a15.1,15.1,0,0,0,2.19-3.37,62.81,62.81,0,0,0,3-7.31l.33-1,.36-1,0-.11.05-.13c0-.13.09-.24.12-.34.11-.29.2-.57.27-.83a5.31,5.31,0,0,0,.23-1.85,3.55,3.55,0,0,0-.58-1l-.06,0,0-.06c-.78-.44-1.78.07-3,1.51a17.07,17.07,0,0,0-1.41,1.9c-.37.58-.7,1.15-1,1.72A25,25,0,0,0,69,19c0,.35-.29.57-.78.64S67.49,19.53,67.48,19.12Z" transform="translate(-46.39 -1.42)"/>
    <path class="a" d="M89.46,6.41A1.31,1.31,0,0,1,90.3,6c.46-.09.67,0,.62.28a21,21,0,0,1-1.76,5.52c-.31.68-.74,1.55-1.28,2.61l-.66,1.28L86.56,17l-.72,1.45-.71,1.43c-.57,1.13-1,2.08-1.41,2.86a53.86,53.86,0,0,0-2.42,6c-.09.24-.37.39-.86.47a1.79,1.79,0,0,1-.73.13c-.25,0-.36-.11-.32-.26a86.39,86.39,0,0,1,3.94-11.87L84,15.23l.68-1.93a14.09,14.09,0,0,1-3.8,3c-1.63.92-2.51,1.15-2.64.7-.24,0-.39-.09-.45-.23l-.42-1.09c-.08-.2.06-.36.41-.47a.2.2,0,0,1,0-.11,10.61,10.61,0,0,1,1.8-1.57l.5-.32.48-.34a9.62,9.62,0,0,0,1-.71A49,49,0,0,0,86.63,7.2L86.68,7c0-.13.18-.25.43-.36l.82-.9L88,5.64a.81.81,0,0,1,.48-.31,1.48,1.48,0,0,1,.68-.11c.38,0,.52,0,.43.19l-.16.3-.14,1,0,0,0-.11Z" transform="translate(-46.39 -1.42)"/>
    <path class="a" d="M97.72,14.72a9,9,0,0,1,.27.86L98.43,17c.17.54.3,1,.41,1.45a17.52,17.52,0,0,1,.55,2.9A8.85,8.85,0,0,1,98.32,27a9.35,9.35,0,0,1-2.22,2.69A2.68,2.68,0,0,1,93,30a1,1,0,0,1-.17-.13,4.12,4.12,0,0,1-2.11-.41l-.25-.15-.09,0a8.59,8.59,0,0,1-3.12-4v0l-.08-.15c-.13-.31,0-.55.45-.74l0-.22c-.45.07-.66.05-.63-.08A14.91,14.91,0,0,1,89.18,20a44.44,44.44,0,0,1,3.9-5.86l-.16-1.22-.16-1.19c0-.1.1-.2.32-.3a13.87,13.87,0,0,1-.66-2.54A6.4,6.4,0,0,1,94,3.39a6.32,6.32,0,0,1,5.17-2A2.26,2.26,0,0,1,101,2.77a1,1,0,0,1,.44.68l0,.09q2,.56.23,4.56a30.81,30.81,0,0,1-1.9,3.47c-.63,1-1.33,2.07-2.09,3.11v0ZM90.66,26a11.06,11.06,0,0,0,1.69-.15l0,0a15.9,15.9,0,0,0,1.09-6.18A28.37,28.37,0,0,0,91.76,22l-.21.32-.21.32a7.92,7.92,0,0,0-1.06,2.16,2.56,2.56,0,0,0,0,.61A3.27,3.27,0,0,0,90.66,26Zm0-4.56h0Zm0,6.35a1.68,1.68,0,0,0,.47.17C91,28,90.84,27.89,90.69,27.83Zm.27.34,0,0a2.26,2.26,0,0,0,3.08.26,4.91,4.91,0,0,0,1-1.11l.06-.08a4.35,4.35,0,0,1-2.78.93,7.76,7.76,0,0,1-.77-.1A4.59,4.59,0,0,1,91,28.17Zm5.35-25a4.62,4.62,0,0,0-2.16,2.46,5.1,5.1,0,0,1,4.66-2.92l.26-.07C98.46,2.29,97.53,2.47,96.31,3.19Zm3.46,3.07a4.7,4.7,0,0,0,.18-.47,8.57,8.57,0,0,0,0-1.45L99.11,5l-.84.7a10,10,0,0,0-1.46,1.49,11.47,11.47,0,0,0-.43,2.24c0,.09-.11.18-.3.28,0,.28-.07.56-.09.83,0,.1-.15.2-.38.3a2.61,2.61,0,0,1-.67.21c.12.23.21.43.28.6l.18-.19.16-.16.57-.55.61-.57c.51-.47.91-.87,1.21-1.18A8.1,8.1,0,0,0,99.77,6.26ZM95.49,22a12.85,12.85,0,0,1-.3,2.28A3.52,3.52,0,0,0,95.49,22Zm1.41-7.65.32-.4-.43.42Z" transform="translate(-46.39 -1.42)"/>
  </g>
</svg>
