<svg xmlns="http://www.w3.org/2000/svg" viewBox="0 0 54.74 28.98">
  <defs>
    <style>
      .a {
        fill: #fe0404;
      }
    </style>
  </defs>
  <g>
    <path class="a" d="M64.06,21.93c.46-.09.73,0,.82.34s-.11.51-.58.62c-.24,0-.68.14-1.31.3l-2.36.64q-3.42,1-6,1.89a16.08,16.08,0,0,0-4,2.5l-.37.36-.36.34a1.18,1.18,0,0,1-.48.17,1.08,1.08,0,0,1-.62.19.58.58,0,0,1-.52-.21,15,15,0,0,1-1.93-3.33c-.09-.2,0-.39.32-.57a1.29,1.29,0,0,1,.84-.15,1.68,1.68,0,0,1,.66-.28q1.08-1.26,3.25-3.66l1.64-1.82,1.64-1.85a34.47,34.47,0,0,0,5.35-8.19c.05-.13.14-.31.24-.53l.13-.3.16-.32c.25-.56.44-1,.57-1.4a17.34,17.34,0,0,0-3.49,1.09,6.22,6.22,0,0,0-2,2.42.78.78,0,0,1-.38.3,2.29,2.29,0,0,1-.62.17,5.05,5.05,0,0,0-.3.77.75.75,0,0,1-.38.32,1,1,0,0,1-.71.4c-.35,0-.58,0-.7-.21a.41.41,0,0,1-.35-.3l-.07-.55-.09-.58C52.08,10,52,9.65,52,9.31A6,6,0,0,1,52.22,7l0,0a.55.55,0,0,1,.25-.45l.42-.32.47-.34c.39-.3.71-.55,1-.73a23.09,23.09,0,0,1,2.16-1.4,6.29,6.29,0,0,1,4.6-1c1.65.46,2.58,1.28,2.79,2.47a2.21,2.21,0,0,1,.74-.15c.23,0,.33.09.3.26a18.84,18.84,0,0,1-2.73,6.32c.12,0,.14.15,0,.3l-1.46,2.5c-.56,1-1.06,1.79-1.49,2.51-1.13,1.87-2.19,3.5-3.16,4.88a34.75,34.75,0,0,1,8.08-.57q.54,0,.39.27A1.4,1.4,0,0,1,64,22ZM50,26.28l0,.12,0,.09.2-.17.2-.17ZM51.47,25l-.13.23,1.29-.51.19-.25Zm2.3-1.75,0,0c-.27.1-.55.22-.83.34l.25-.06h0l0,0,.23-.12Zm.73-1Q56.14,20,57.94,17L57,18.05c-.84,1-1.7,2.05-2.57,3.07l-.69.81-.68.81C53.53,22.57,54,22.4,54.5,22.25Zm-1.27,3.34.9-.34,1.24-.55a18.41,18.41,0,0,0-1.94.68l-.09.11ZM55.84,6l.48-.37a5.41,5.41,0,0,0-1,.66C55.53,6.13,55.71,6,55.84,6ZM61,22.5l2.12-.38-2.19.3A.17.17,0,0,1,61,22.5Z" transform="translate(-46.39 -2.28)"/>
    <path class="a" d="M77.91,4.49c1.75.78,2.46,2.31,2.16,4.61a30.54,30.54,0,0,1-3.16,9.35,35.67,35.67,0,0,1-2.32,5.23A14.56,14.56,0,0,1,71,28a5.1,5.1,0,0,1-2.1,1c-2.42.65-4.11.19-5.06-1.4q-1.2-2-.73-6.12A35.11,35.11,0,0,1,64.93,14a24.87,24.87,0,0,1,2.44-5.46,1,1,0,0,1,.82-.4L68.26,8a.94.94,0,0,1,.56-.36,1.48,1.48,0,0,1,.69,0l.23-.22L70,7.22a.91.91,0,0,1,.8-.17c.31.07.46.21.46.41a11.66,11.66,0,0,1,3-2.69A3.85,3.85,0,0,1,77.91,4.49ZM67.48,19.12c0-.22,0-.5,0-.82a18.07,18.07,0,0,0-.86,4.86,2.45,2.45,0,0,0,1.07,2.26c.78.51,1.55.34,2.32-.53a15.1,15.1,0,0,0,2.19-3.37,62.81,62.81,0,0,0,3-7.31l.33-1,.36-1,0-.11.05-.13c0-.13.09-.24.12-.34.11-.29.2-.57.27-.83a5.31,5.31,0,0,0,.23-1.85,3.55,3.55,0,0,0-.58-1l-.06,0,0-.06c-.78-.44-1.78.07-3,1.51a17.07,17.07,0,0,0-1.41,1.9c-.37.58-.7,1.15-1,1.72A25,25,0,0,0,69,19c0,.35-.29.57-.78.64S67.49,19.53,67.48,19.12Z" transform="translate(-46.39 -2.28)"/>
    <path class="a" d="M89.46,6.41A1.31,1.31,0,0,1,90.3,6c.46-.09.67,0,.62.28a21,21,0,0,1-1.76,5.52c-.31.68-.74,1.55-1.28,2.61l-.66,1.28L86.56,17l-.72,1.45-.71,1.43c-.57,1.13-1,2.08-1.41,2.86a53.86,53.86,0,0,0-2.42,6c-.09.24-.37.39-.86.47a1.79,1.79,0,0,1-.73.13c-.25,0-.36-.11-.32-.26a86.39,86.39,0,0,1,3.94-11.87L84,15.23l.68-1.93a14.09,14.09,0,0,1-3.8,3c-1.63.92-2.51,1.15-2.64.7-.24,0-.39-.09-.45-.23l-.42-1.09c-.08-.2.06-.36.41-.47a.2.2,0,0,1,0-.11,10.61,10.61,0,0,1,1.8-1.57l.5-.32.48-.34a9.62,9.62,0,0,0,1-.71A49,49,0,0,0,86.63,7.2L86.68,7c0-.13.18-.25.43-.36l.82-.9L88,5.64a.81.81,0,0,1,.48-.31,1.48,1.48,0,0,1,.68-.11c.38,0,.52,0,.43.19l-.16.3-.14,1,0,0,0-.11Z" transform="translate(-46.39 -2.28)"/>
    <path class="a" d="M98.45,2.4Q101.3,3,101.12,8a24.67,24.67,0,0,1-.48,4c-.1.54-.23,1.12-.37,1.72,0,.21-.1.45-.16.71l-.07.31L100,15a39.47,39.47,0,0,1-3.08,9,19.36,19.36,0,0,1-6.15,7,1.16,1.16,0,0,1-.68.23.6.6,0,0,1-.59-.36,15.43,15.43,0,0,1-1-3.84c0-.28-.06-.59-.09-.95s.21-.61.72-.75.76,0,.8.34a17.26,17.26,0,0,0,.34,2.41.82.82,0,0,0,.32.38c.44-1.11,1.13-2.65,2.09-4.64l1.06-2.3c.41-.85.75-1.62,1-2.31q-3.14,2.22-4.8.64a6.16,6.16,0,0,1-1.9-4.77,11.79,11.79,0,0,1,1.42-5.22c.3-.57.57-1.09.82-1.54.36-.63.71-1.2,1-1.72A11.85,11.85,0,0,1,94,3.68,4.86,4.86,0,0,1,98.45,2.4Zm.37,6.42,0-.06,0,0A1.35,1.35,0,0,0,97.5,7.61a26.87,26.87,0,0,1-2.9,2.17l-.11.08a20.09,20.09,0,0,0-1,1.88A21.93,21.93,0,0,0,92,16.39a1.67,1.67,0,0,0,1.42.27,7.17,7.17,0,0,0,1-.7c.24-.4.51-.84.8-1.3s.43-.66.54-.81a1.23,1.23,0,0,1,.82-.34l.18-.07A36.29,36.29,0,0,0,98.82,8.82ZM95.7,5.65a7.72,7.72,0,0,1,1.48-.82q-2.28-.21-4.38,3l-.06.13-.24.64a13,13,0,0,1,.94-1A6,6,0,0,1,95.7,5.65Zm2.39-1.92a1.56,1.56,0,0,0-.66-.32,2.26,2.26,0,0,0-1.28.34A4.11,4.11,0,0,1,98.09,3.73Zm1,2.08a1.44,1.44,0,0,0-1.28-.34.74.74,0,0,1,.53.66,3.48,3.48,0,0,1,.84.16Z" transform="translate(-46.39 -2.28)"/>
  </g>
</svg>
