<svg xmlns="http://www.w3.org/2000/svg" viewBox="0 0 61.93 27.7">
  <defs>
    <style>
      .a {
        fill: #fe0404;
      }
    </style>
  </defs>
  <g>
    <path class="a" d="M64.06,21.93c.46-.09.73,0,.82.34s-.11.51-.58.62c-.24,0-.68.14-1.31.3l-2.36.64q-3.42,1-6,1.89a16.08,16.08,0,0,0-4,2.5l-.37.36-.36.34a1.18,1.18,0,0,1-.48.17,1.08,1.08,0,0,1-.62.19.58.58,0,0,1-.52-.21,15,15,0,0,1-1.93-3.33c-.09-.2,0-.39.32-.57a1.29,1.29,0,0,1,.84-.15,1.68,1.68,0,0,1,.66-.28q1.08-1.26,3.25-3.66l1.64-1.82,1.64-1.85a34.47,34.47,0,0,0,5.35-8.19c.05-.13.14-.31.24-.53l.13-.3.16-.32c.25-.56.44-1,.57-1.4a17.34,17.34,0,0,0-3.49,1.09,6.22,6.22,0,0,0-2,2.42.78.78,0,0,1-.38.3,2.29,2.29,0,0,1-.62.17,5.05,5.05,0,0,0-.3.77.75.75,0,0,1-.38.32,1,1,0,0,1-.71.4c-.35,0-.58,0-.7-.21a.41.41,0,0,1-.35-.3l-.07-.55-.09-.58C52.08,10,52,9.65,52,9.31A6,6,0,0,1,52.22,7l0,0a.55.55,0,0,1,.25-.45l.42-.32.47-.34c.39-.3.71-.55,1-.73a23.09,23.09,0,0,1,2.16-1.4,6.29,6.29,0,0,1,4.6-1c1.65.46,2.58,1.28,2.79,2.47a2.21,2.21,0,0,1,.74-.15c.23,0,.33.09.3.26a18.84,18.84,0,0,1-2.73,6.32c.12,0,.14.15,0,.3l-1.46,2.5c-.56,1-1.06,1.79-1.49,2.51-1.13,1.87-2.19,3.5-3.16,4.88a34.75,34.75,0,0,1,8.08-.57q.54,0,.39.27A1.4,1.4,0,0,1,64,22ZM50,26.28l0,.12,0,.09.2-.17.2-.17ZM51.47,25l-.13.23,1.29-.51.19-.25Zm2.3-1.75,0,0c-.27.1-.55.22-.83.34l.25-.06h0l0,0,.23-.12Zm.73-1Q56.14,20,57.94,17L57,18.05c-.84,1-1.7,2.05-2.57,3.07l-.69.81-.68.81C53.53,22.57,54,22.4,54.5,22.25Zm-1.27,3.34.9-.34,1.24-.55a18.41,18.41,0,0,0-1.94.68l-.09.11ZM55.84,6l.48-.37a5.41,5.41,0,0,0-1,.66C55.53,6.13,55.71,6,55.84,6ZM61,22.5l2.12-.38-2.19.3A.17.17,0,0,1,61,22.5Z" transform="translate(-46.39 -1.77)"/>
    <path class="a" d="M77.91,4.49c1.75.78,2.46,2.31,2.16,4.61a30.54,30.54,0,0,1-3.16,9.35,35.67,35.67,0,0,1-2.32,5.23A14.56,14.56,0,0,1,71,28a5.1,5.1,0,0,1-2.1,1c-2.42.65-4.11.19-5.06-1.4q-1.2-2-.73-6.12A35.11,35.11,0,0,1,64.93,14a24.87,24.87,0,0,1,2.44-5.46,1,1,0,0,1,.82-.4L68.26,8a.94.94,0,0,1,.56-.36,1.48,1.48,0,0,1,.69,0l.23-.22L70,7.22a.91.91,0,0,1,.8-.17c.31.07.46.21.46.41a11.66,11.66,0,0,1,3-2.69A3.85,3.85,0,0,1,77.91,4.49ZM67.48,19.12c0-.22,0-.5,0-.82a18.07,18.07,0,0,0-.86,4.86,2.45,2.45,0,0,0,1.07,2.26c.78.51,1.55.34,2.32-.53a15.1,15.1,0,0,0,2.19-3.37,62.81,62.81,0,0,0,3-7.31l.33-1,.36-1,0-.11.05-.13c0-.13.09-.24.12-.34.11-.29.2-.57.27-.83a5.31,5.31,0,0,0,.23-1.85,3.55,3.55,0,0,0-.58-1l-.06,0,0-.06c-.78-.44-1.78.07-3,1.51a17.07,17.07,0,0,0-1.41,1.9c-.37.58-.7,1.15-1,1.72A25,25,0,0,0,69,19c0,.35-.29.57-.78.64S67.49,19.53,67.48,19.12Z" transform="translate(-46.39 -1.77)"/>
    <path class="a" d="M94.31,21.93c.47-.09.74,0,.82.34s-.1.51-.57.62q-.37.06-1.32.3l-2.35.64q-3.42,1-6,1.89a16,16,0,0,0-4,2.5l-.38.36-.35.34a1.18,1.18,0,0,1-.48.17,1.09,1.09,0,0,1-.63.19.59.59,0,0,1-.52-.21,15.33,15.33,0,0,1-1.92-3.33c-.1-.2,0-.39.32-.57a1.29,1.29,0,0,1,.84-.15,1.56,1.56,0,0,1,.66-.28q1.06-1.26,3.24-3.66l1.64-1.82C84,18.58,84.55,18,85,17.41a33.86,33.86,0,0,0,5.35-8.19c.06-.13.14-.31.25-.53l.13-.3.16-.32c.25-.56.44-1,.57-1.4A17.68,17.68,0,0,0,88,7.76a6.4,6.4,0,0,0-2,2.42.74.74,0,0,1-.37.3,2.29,2.29,0,0,1-.62.17,5.16,5.16,0,0,0-.31.77c0,.1-.16.21-.37.32a1,1,0,0,1-.71.4c-.35,0-.58,0-.7-.21a.44.44,0,0,1-.36-.3l-.07-.55-.09-.58c-.07-.46-.12-.85-.14-1.19A6.06,6.06,0,0,1,82.47,7l0,0a.55.55,0,0,1,.25-.45l.43-.32.46-.34,1-.73a21.83,21.83,0,0,1,2.15-1.4,6.3,6.3,0,0,1,4.6-1C93,3.21,93.94,4,94.15,5.22a2.16,2.16,0,0,1,.73-.15c.24,0,.34.09.31.26a18.84,18.84,0,0,1-2.73,6.32c.12,0,.13.15.05.3l-1.46,2.5c-.56,1-1.06,1.79-1.5,2.51q-1.69,2.8-3.15,4.88a34.7,34.7,0,0,1,8.07-.57q.56,0,.39.27a1.27,1.27,0,0,1-.57.41Zm-14.1,4.35,0,.12,0,.09.2-.17.19-.17ZM81.73,25l-.13.23,1.28-.51.2-.25ZM84,23.27l0,0-.84.34.25-.06h0l0,0,.24-.12Zm.74-1Q86.39,20,88.2,17l-.91,1.07c-.85,1-1.7,2.05-2.57,3.07l-.7.81-.67.81C83.79,22.57,84.26,22.4,84.76,22.25Zm-1.27,3.34.89-.34,1.25-.55a18.41,18.41,0,0,0-1.94.68l-.09.11ZM86.09,6l.48-.37a5.33,5.33,0,0,0-1,.66C85.79,6.13,86,6,86.09,6ZM91.3,22.5l2.12-.38-2.19.3S91.29,22.47,91.3,22.5Z" transform="translate(-46.39 -1.77)"/>
    <path class="a" d="M108.29,6.78q-1,3.94-5.9,7.35A3,3,0,0,1,104.72,16a4.82,4.82,0,0,1,1.52,3.74,7.4,7.4,0,0,1-2,4.24A13.78,13.78,0,0,1,99,27.92a10.18,10.18,0,0,1-1.82.78,6.35,6.35,0,0,1-4.21.64.77.77,0,0,1-.3-.15l-.44,0c-.22,0-.41-.06-.58-.1a.73.73,0,0,1-.3-.11.29.29,0,0,1-.12-.13l0-.1,0-.07v-.15a.66.66,0,0,1,.59-.62l1.29-.27c.48-.11.9-.22,1.26-.32a8.79,8.79,0,0,0,2.3-1,13.56,13.56,0,0,0,3.67-3.73,7.76,7.76,0,0,0,1.06-2.16,5,5,0,0,0,.24-2.21c-.23-1.61-1.41-2-3.52-1.3a.72.72,0,0,1-.33,0,.77.77,0,0,1-.85-.06,1.06,1.06,0,0,1-.61.17.55.55,0,0,1-.51-.26l-1.09-1.66a.45.45,0,0,1,0-.51.78.78,0,0,1,.36-.36,14.12,14.12,0,0,0,1.62-1.09l.75-.6.43-.34A8,8,0,0,1,99.73,11l.16-.12.15-.13a.78.78,0,0,1,.6-.22c.42-.39.94-.84,1.57-1.34l.79-.66.8-.64.14-.12.16-.13.36-.28a7.9,7.9,0,0,0,.71-.7A1.56,1.56,0,0,0,105.62,5l-.16-.14-.17-.13a.59.59,0,0,0-.33-.15,1.15,1.15,0,0,0-.75.28l-.34.29-.34.3-.73.68-.2.2-.19.25a1,1,0,0,1-.54.26,1.22,1.22,0,0,1-.64,0,15.64,15.64,0,0,0-1.78,1.74,1.16,1.16,0,0,1-.66.34.7.7,0,0,1-.68-.19A2.51,2.51,0,0,1,97.67,6a4.31,4.31,0,0,1,2-2.11,2.92,2.92,0,0,1,2.44-1.53A6.93,6.93,0,0,1,104,1.79h.2a3.83,3.83,0,0,1,2.32.44A3.21,3.21,0,0,1,108.08,4a3.56,3.56,0,0,1,0,2.28A.34.34,0,0,1,108.29,6.78Zm-6.08,4.09-.46.25-.27.26-.11.13C101.69,11.28,102,11.06,102.21,10.87Z" transform="translate(-46.39 -1.77)"/>
  </g>
</svg>
