<svg xmlns="http://www.w3.org/2000/svg" viewBox="0 0 61.73 28.28">
  <defs>
    <style>
      .a {
        fill: #fe0404;
      }
    </style>
  </defs>
  <g>
    <path class="a" d="M64.06,21.93c.46-.09.73,0,.82.34s-.11.51-.58.62c-.24,0-.68.14-1.31.3l-2.36.64q-3.42,1-6,1.89a16.08,16.08,0,0,0-4,2.5l-.37.36-.36.34a1.18,1.18,0,0,1-.48.17,1.08,1.08,0,0,1-.62.19.58.58,0,0,1-.52-.21,15,15,0,0,1-1.93-3.33c-.09-.2,0-.39.32-.57a1.29,1.29,0,0,1,.84-.15,1.68,1.68,0,0,1,.66-.28q1.08-1.26,3.25-3.66l1.64-1.82,1.64-1.85a34.47,34.47,0,0,0,5.35-8.19c.05-.13.14-.31.24-.53l.13-.3.16-.32c.25-.56.44-1,.57-1.4a17.34,17.34,0,0,0-3.49,1.09,6.22,6.22,0,0,0-2,2.42.78.78,0,0,1-.38.3,2.29,2.29,0,0,1-.62.17,5.05,5.05,0,0,0-.3.77.75.75,0,0,1-.38.32,1,1,0,0,1-.71.4c-.35,0-.58,0-.7-.21a.41.41,0,0,1-.35-.3l-.07-.55-.09-.58C52.08,10,52,9.65,52,9.31A6,6,0,0,1,52.22,7l0,0a.55.55,0,0,1,.25-.45l.42-.32.47-.34c.39-.3.71-.55,1-.73a23.09,23.09,0,0,1,2.16-1.4,6.29,6.29,0,0,1,4.6-1c1.65.46,2.58,1.28,2.79,2.47a2.21,2.21,0,0,1,.74-.15c.23,0,.33.09.3.26a18.84,18.84,0,0,1-2.73,6.32c.12,0,.14.15,0,.3l-1.46,2.5c-.56,1-1.06,1.79-1.49,2.51-1.13,1.87-2.19,3.5-3.16,4.88a34.75,34.75,0,0,1,8.08-.57q.54,0,.39.27A1.4,1.4,0,0,1,64,22ZM50,26.28l0,.12,0,.09.2-.17.2-.17ZM51.47,25l-.13.23,1.29-.51.19-.25Zm2.3-1.75,0,0c-.27.1-.55.22-.83.34l.25-.06h0l0,0,.23-.12Zm.73-1Q56.14,20,57.94,17L57,18.05c-.84,1-1.7,2.05-2.57,3.07l-.69.81-.68.81C53.53,22.57,54,22.4,54.5,22.25Zm-1.27,3.34.9-.34,1.24-.55a18.41,18.41,0,0,0-1.94.68l-.09.11ZM55.84,6l.48-.37a5.41,5.41,0,0,0-1,.66C55.53,6.13,55.71,6,55.84,6ZM61,22.5l2.12-.38-2.19.3A.17.17,0,0,1,61,22.5Z" transform="translate(-46.39 -1.38)"/>
    <path class="a" d="M77.91,4.49c1.75.78,2.46,2.31,2.16,4.61a30.54,30.54,0,0,1-3.16,9.35,35.67,35.67,0,0,1-2.32,5.23A14.56,14.56,0,0,1,71,28a5.1,5.1,0,0,1-2.1,1c-2.42.65-4.11.19-5.06-1.4q-1.2-2-.73-6.12A35.11,35.11,0,0,1,64.93,14a24.87,24.87,0,0,1,2.44-5.46,1,1,0,0,1,.82-.4L68.26,8a.94.94,0,0,1,.56-.36,1.48,1.48,0,0,1,.69,0l.23-.22L70,7.22a.91.91,0,0,1,.8-.17c.31.07.46.21.46.41a11.66,11.66,0,0,1,3-2.69A3.85,3.85,0,0,1,77.91,4.49ZM67.48,19.12c0-.22,0-.5,0-.82a18.07,18.07,0,0,0-.86,4.86,2.45,2.45,0,0,0,1.07,2.26c.78.51,1.55.34,2.32-.53a15.1,15.1,0,0,0,2.19-3.37,62.81,62.81,0,0,0,3-7.31l.33-1,.36-1,0-.11.05-.13c0-.13.09-.24.12-.34.11-.29.2-.57.27-.83a5.31,5.31,0,0,0,.23-1.85,3.55,3.55,0,0,0-.58-1l-.06,0,0-.06c-.78-.44-1.78.07-3,1.51a17.07,17.07,0,0,0-1.41,1.9c-.37.58-.7,1.15-1,1.72A25,25,0,0,0,69,19c0,.35-.29.57-.78.64S67.49,19.53,67.48,19.12Z" transform="translate(-46.39 -1.38)"/>
    <path class="a" d="M94.31,21.93c.47-.09.74,0,.82.34s-.1.51-.57.62q-.37.06-1.32.3l-2.35.64q-3.42,1-6,1.89a16,16,0,0,0-4,2.5l-.38.36-.35.34a1.18,1.18,0,0,1-.48.17,1.09,1.09,0,0,1-.63.19.59.59,0,0,1-.52-.21,15.33,15.33,0,0,1-1.92-3.33c-.1-.2,0-.39.32-.57a1.29,1.29,0,0,1,.84-.15,1.56,1.56,0,0,1,.66-.28q1.06-1.26,3.24-3.66l1.64-1.82C84,18.58,84.55,18,85,17.41a33.86,33.86,0,0,0,5.35-8.19c.06-.13.14-.31.25-.53l.13-.3.16-.32c.25-.56.44-1,.57-1.4A17.68,17.68,0,0,0,88,7.76a6.4,6.4,0,0,0-2,2.42.74.74,0,0,1-.37.3,2.29,2.29,0,0,1-.62.17,5.16,5.16,0,0,0-.31.77c0,.1-.16.21-.37.32a1,1,0,0,1-.71.4c-.35,0-.58,0-.7-.21a.44.44,0,0,1-.36-.3l-.07-.55-.09-.58c-.07-.46-.12-.85-.14-1.19A6.06,6.06,0,0,1,82.47,7l0,0a.55.55,0,0,1,.25-.45l.43-.32.46-.34,1-.73a21.83,21.83,0,0,1,2.15-1.4,6.3,6.3,0,0,1,4.6-1C93,3.21,93.94,4,94.15,5.22a2.16,2.16,0,0,1,.73-.15c.24,0,.34.09.31.26a18.84,18.84,0,0,1-2.73,6.32c.12,0,.13.15.05.3l-1.46,2.5c-.56,1-1.06,1.79-1.5,2.51q-1.69,2.8-3.15,4.88a34.7,34.7,0,0,1,8.07-.57q.56,0,.39.27a1.27,1.27,0,0,1-.57.41Zm-14.1,4.35,0,.12,0,.09.2-.17.19-.17ZM81.73,25l-.13.23,1.28-.51.2-.25ZM84,23.27l0,0-.84.34.25-.06h0l0,0,.24-.12Zm.74-1Q86.39,20,88.2,17l-.91,1.07c-.85,1-1.7,2.05-2.57,3.07l-.7.81-.67.81C83.79,22.57,84.26,22.4,84.76,22.25Zm-1.27,3.34.89-.34,1.25-.55a18.41,18.41,0,0,0-1.94.68l-.09.11ZM86.09,6l.48-.37a5.33,5.33,0,0,0-1,.66C85.79,6.13,86,6,86.09,6ZM91.3,22.5l2.12-.38-2.19.3S91.29,22.47,91.3,22.5Z" transform="translate(-46.39 -1.38)"/>
    <path class="a" d="M107.27,9.72a43.73,43.73,0,0,1-1.15,4.34,36.13,36.13,0,0,1-1.34,4c-1.5,3-2.55,5.3-3.16,6.86-.44,1.33-.84,2.49-1.21,3.49-.06.18-.33.32-.8.41l-.06.21,0,.21c0,.2-.32.34-.82.43s-.72,0-.68-.15l.47-1.91a2.07,2.07,0,0,1-.7.14c-.22,0-.32-.06-.28-.17q.27-.91.6-2.07l.59-2.1c.51-1.79.92-3.18,1.21-4.16a12.73,12.73,0,0,1-3.44,1q-2.37.77-3.15-.12a.93.93,0,0,1-.15-.26,2.14,2.14,0,0,1-.32.08l-.32,0c-.22,0-.31-.06-.26-.19a13.65,13.65,0,0,1,1.69-3.5A52.53,52.53,0,0,1,99,5.84l.06-.13.07-.11a.56.56,0,0,1,.09-.17A2.93,2.93,0,0,1,99.45,5c.09-.18.19-.35.28-.51a14.33,14.33,0,0,1,1.36-2.09c0-.07.2-.14.46-.23a2.76,2.76,0,0,1,.7-.15,1.11,1.11,0,0,1,.32-.17V1.79a.64.64,0,0,1,.34-.26,3.57,3.57,0,0,1,.54-.13,1.28,1.28,0,0,1,.48,0c.13,0,.18.05.14.11a46.35,46.35,0,0,0-2,4.73L101,9.1c-.15.54-.27,1-.38,1.38a17.89,17.89,0,0,1-1.37,3.22c0,.1-.15.33-.3.7l-.2.43-.18.43a12,12,0,0,0-.48,1.21l0,0c.48-.17,1-.35,1.68-.55l.77-.24.58-.19a25.66,25.66,0,0,1,4.57-7.65,1.65,1.65,0,0,1,.78-.28q.64-.15.66,0c.29,0,.42,0,.39.19l0,.19c.43,0,.61,0,.55.09C107.86,8.55,107.58,9.1,107.27,9.72ZM95,18.86a12.06,12.06,0,0,0,2.41-.17l.32-.24.34-.23a7.83,7.83,0,0,1-3,.62Z" transform="translate(-46.39 -1.38)"/>
  </g>
</svg>
