<?xml version="1.0" encoding="utf-8"?>
<!-- Generator: Adobe Illustrator 25.2.0, SVG Export Plug-In . SVG Version: 6.00 Build 0)  -->
<svg version="1.1" id="_Слой_1" xmlns="http://www.w3.org/2000/svg" xmlns:xlink="http://www.w3.org/1999/xlink" x="0px"
	 y="0px" viewBox="0 0 214.1 231.9" style="enable-background:new 0 0 214.1 231.9;" xml:space="preserve">
<style type="text/css">
	.st0{fill:url(#SVGID_1_);stroke:#FFFFFF;stroke-width:0.9416;stroke-miterlimit:10;}
</style>
<g id="_Слой_1">
	<g>
		
			<linearGradient id="SVGID_1_" gradientUnits="userSpaceOnUse" x1="97.7947" y1="47.5131" x2="82.6489" y2="213.6027" gradientTransform="matrix(0.9529 9.642185e-02 0.1014 -1.0106 -16.8846 215.2332)">
			<stop  offset="0" style="stop-color:#3A1500"/>
			<stop  offset="0.2297" style="stop-color:#3C1600"/>
			<stop  offset="0.3141" style="stop-color:#431A00"/>
			<stop  offset="0.3746" style="stop-color:#4F2100"/>
			<stop  offset="0.4237" style="stop-color:#602B00"/>
			<stop  offset="0.4659" style="stop-color:#763900"/>
			<stop  offset="0.5032" style="stop-color:#914900"/>
			<stop  offset="0.5362" style="stop-color:#B15C00"/>
			<stop  offset="0.5555" style="stop-color:#C76900"/>
			<stop  offset="0.5781" style="stop-color:#AD5500"/>
			<stop  offset="0.6079" style="stop-color:#924100"/>
			<stop  offset="0.6421" style="stop-color:#7C3000"/>
			<stop  offset="0.682" style="stop-color:#6B2400"/>
			<stop  offset="0.7314" style="stop-color:#601B00"/>
			<stop  offset="0.8007" style="stop-color:#591500"/>
			<stop  offset="0.9931" style="stop-color:#571400"/>
			<stop  offset="1" style="stop-color:#551200"/>
		</linearGradient>
		<path class="st0" d="M104,130.8c3.1-8.4,5.9-16.7,8.2-24.5l7.9-25.1c2.2-7,4.8-13.3,7.6-18.8c2.9-5.6,5.9-10.5,9.1-14.7
			c3.3-4,6.6-7.1,9.9-9.4c3.3-1.9,6.5-2.7,9.6-2.5c2.5,0.3,4.5,1.4,6,3.4c1.4,2.2,2.1,4.9,1.8,8c-0.2,1.9-0.7,3.5-1.6,4.8
			c-1,1.5-2.2,2.2-3.3,2.1c-0.7-0.1-1.4-0.6-1.9-1.6c-0.5-0.9-0.7-1.9-0.6-3.1l0.6-4.4c0.4-4-0.8-6.1-3.5-6.3
			c-5.2-0.5-10.4,5.8-15.8,18.8c-2.2,4.9-4.2,10.6-6.4,17c-1.7,4.9-3.8,11.7-6.5,20.5c-2.8,9.8-5.4,19.7-8.1,29.8
			c-3.4,12.1-5.4,20.5-6.3,25c-0.9,4.2-1.6,8.1-2,11.7c-0.5,4.7-0.3,8.7,0.5,11.7c0.7,2.9,2.1,4.5,3.8,4.6c2.1,0.2,4-0.9,6-3.5
			c2.1-2.7,4-6.5,5.8-11.6l1.3,1.3c-2.2,6-4.4,10.3-6.6,13c-2.2,2.7-4.5,3.9-6.9,3.6c-2.4-0.2-4.5-1.9-6.3-4.9
			c-1.8-3.2-2.9-7.3-3.6-12.3c-0.7-5.2-0.7-10.8-0.2-16.9c0.2-2.1,0.7-5.8,1.8-11.1l-1,2.1c-3.2,7.7-5.9,14-8.3,19
			c-2.5,5-4.6,8.4-6.2,10.1c-1.9,1.9-3.7,2.7-5.5,2.6c-2.5-0.3-4.4-2.5-5.6-6.7c-1.2-4.3-1.6-9.5-1-15.6c0.4-4.1,1.2-8.2,2.4-12.4
			c-4.3,9-7.4,15.4-9.3,19.4c-2.5,5-4.6,8.4-6.2,10.1c-1.9,1.9-3.7,2.7-5.5,2.6c-2.5-0.3-4.4-2.5-5.6-6.7c-1.2-4.3-1.6-9.5-1-15.6
			c0.4-4.1,1.4-9.1,3.2-15c1.8-6.2,3.9-12.4,6.6-18.5l8.3-20C76.2,74.5,80.1,61.5,81,51.5c0.6-6.3,0.4-12.2-0.7-17.8
			c-1.2-5.9-2.9-10.7-5.2-14.6c-2.4-4.1-5.4-7.4-9-9.9c-3.6-2.4-7.6-3.8-12-4.3c-3.2-0.3-6.3-0.1-9.1,0.6c-3,0.7-5.7,1.8-8.2,3.5
			c-2.4,1.3-5.2,3.4-8.1,6.2c-2.7,2.7-5.2,6-7.8,9.6c-4.4,6.6-8,13.8-10.8,21.7s-4.6,16-5.3,24.3c-0.9,9.7-0.4,18.7,1.6,27.4
			c1.9,8.4,4.9,15.3,9.1,20.7c4.2,5.2,8.9,8,14.1,8.5s10.6-1.3,15.8-5.4c5.2-4,9.7-9.7,13.4-17.1l1.5,1.3c-3.7,7.8-8.3,13.9-14,18.3
			c-5.6,4.4-11.2,6.3-17,5.8c-5.8-0.6-11.1-3.6-15.6-9.2c-4.5-5.7-7.9-13-9.9-22c-2.2-9-2.8-18.6-1.9-28.9
			C3.3,51.5,9.6,35,20.5,20.9C31.1,7.3,42.3,1.1,54,2.1c5.2,0.5,9.8,2.3,14,5.4c4.3,3.1,8,7.5,11.1,13c6.1,10.6,8.4,24,6.9,39.9
			c-0.6,5.9-1.6,11.5-3.2,16.9c-0.7,2.5-2.2,7-4.5,13.4c-1.6,4.4-2.7,7.6-3.4,9.3l-1.4,4l-8.4,23.1l-6.4,16.9
			c-1.9,5.1-2.9,9.2-3.2,12.4c-0.2,2.1,0,3.8,0.6,5.1c0.7,1.5,1.5,2.3,2.5,2.4c3,0.3,6.6-4.7,11.1-15c1.8-3.5,3.9-8,6.4-13.3
			l1.6-2.9l5.3-10.5c1.1-2.3,2.3-5,3.7-8.2l7.9-20.3c6.6-16.3,10.7-29.3,12.1-39c1.7-5.9,1.9-11.9,0.4-18.2c-0.3-1.8-0.7-3.5-1-5.1
			l1.9-0.1C111,41,112,51.6,111,63.2c-0.6,5.9-1.6,11.5-3.2,16.9c-0.7,2.5-2.2,7-4.5,13.4c-1.6,4.4-2.7,7.6-3.4,9.3l-1.4,4
			l-8.4,23.1l-6.4,16.9c-1.9,5.1-2.9,9.2-3.2,12.4c-0.2,2.1,0,3.8,0.6,5.1c0.7,1.5,1.5,2.3,2.5,2.4c3,0.3,6.7-4.5,11.3-14.5
			c2.1-4.3,4.5-9.8,7.3-16.8L104,130.8L104,130.8z"/>
	</g>
</g>
</svg>
