<!-- icon666.com - MILLIONS vector ICONS FREE --><svg version="1.1" id="Layer_1" xmlns="http://www.w3.org/2000/svg" xmlns:xlink="http://www.w3.org/1999/xlink" x="0px" y="0px" viewBox="0 0 512.001 512.001" style="enable-background:new 0 0 512.001 512.001;" xml:space="preserve"><g><g><path d="M434.2,149.862c-3.335-1.926-7.123-2.943-10.96-2.943c-3.263,0-6.435,0.733-9.307,2.078l2.499-4.329 c26.593-46.06,10.755-105.168-35.305-131.761C366.503,4.462,349.879,0,333.047,0c-34.448,0-66.513,18.473-83.682,48.211 L82.408,337.39C50.31,392.984,69.426,464.327,125.02,496.424c17.649,10.191,37.716,15.577,58.029,15.577 c41.581,0,80.283-22.297,101.006-58.19l158.178-273.971C448.283,169.36,444.679,155.912,434.2,149.862z M428.412,171.861 L270.234,445.832c-17.88,30.971-51.287,50.21-87.184,50.21c-17.515,0-34.822-4.646-50.049-13.438 c-47.973-27.697-64.468-89.26-36.77-137.233L263.188,56.191c14.327-24.815,41.096-40.232,69.859-40.232 c14.033,0,27.899,3.724,40.1,10.768c38.44,22.193,51.657,71.521,29.464,109.96L261.869,380.459 c-10.863,18.816-31.163,30.506-52.978,30.507c-10.638,0.001-21.151-2.823-30.404-8.164c-29.147-16.828-39.17-54.234-22.342-83.383 L288.108,90.857c1.067-1.848,3.058-2.995,5.198-2.995c1.053,0,2.056,0.27,2.98,0.804c1.385,0.8,2.375,2.091,2.79,3.635 c0.414,1.545,0.201,3.158-0.598,4.543L166.516,325.406c-13.529,23.43-5.473,53.5,17.958,67.027 c7.439,4.295,15.899,6.565,24.463,6.565c17.52,0,33.828-9.398,42.563-24.526L392.242,130.7 c9.139-15.828,11.56-34.291,6.818-51.989s-16.07-32.476-31.899-41.615c-10.389-5.998-22.201-9.168-34.159-9.168 c-24.471,0-47.247,13.123-59.445,34.25L106.598,351.357c-24.396,42.255-9.866,96.48,32.389,120.877 c13.416,7.746,28.668,11.84,44.11,11.84c31.602,0,61.018-16.947,76.768-44.229l158.178-273.97 c1.066-1.848,3.058-2.995,5.197-2.995c1.053,0,2.056,0.27,2.98,0.804C429.079,165.333,430.062,169.002,428.412,171.861z M170.507,416.623c11.676,6.74,24.948,10.304,38.384,10.303c19.114-0.001,37.309-7.128,51.229-19.443l-14.077,24.381 c-12.908,22.359-37.029,36.249-62.947,36.249c-12.643,0-25.138-3.355-36.13-9.701c-34.634-19.997-46.544-64.442-26.548-99.075 l12.592-21.811C128.037,368.198,142.042,400.189,170.507,416.623z M314.49,88.17c-1.517-5.663-5.149-10.395-10.225-13.325 c-3.335-1.926-7.124-2.943-10.96-2.943c-2.687,0-5.309,0.496-7.754,1.422l1.827-3.165c9.356-16.205,26.837-26.27,45.623-26.27 c9.161,0,18.214,2.431,26.179,7.03c12.137,7.007,20.824,18.345,24.463,31.924c3.638,13.58,1.783,27.741-5.224,39.878 l-140.74,243.773c-5.892,10.207-16.906,16.546-28.742,16.546c-5.767,0-11.467-1.53-16.483-4.427 c-15.809-9.128-21.245-29.416-12.117-45.226l131.96-228.561C315.229,99.747,316.008,93.832,314.49,88.17z"></path></g></g></svg>