<!-- icon666.com - MILLIONS vector ICONS FREE --><svg id="svg28031" viewBox="0 0 16.933333 16.933334" xmlns="http://www.w3.org/2000/svg" xmlns:svg="http://www.w3.org/2000/svg"><g id="layer1" transform="translate(0 -280.067)"><path id="path11113" d="m5.8216095 284.82889c-.14693-.00056-.2661798.11869-.26562.26562v1.58594h1.58789v-1.58594c.0005557-.14693-.1186899-.26619-.26563-.26562z" fill="#2fa9da" font-variant-ligatures="normal" font-variant-position="normal" font-variant-caps="normal" font-variant-numeric="normal" font-variant-alternates="normal" font-feature-settings="normal" text-indent="0" text-align="start" text-decoration-line="none" text-decoration-style="solid" text-decoration-color="#000000" text-transform="none" text-orientation="mixed" white-space="normal" shape-padding="0" isolation="auto" mix-blend-mode="normal" solid-color="#000000" solid-opacity="1" vector-effect="none"></path><path id="path27210" d="m3.1751298 294.61795v1.05859c-.0005557.14617.1174998.26511.2636699.26563h1.5878898c.14693.00055.2661901-.11869.2656202-.26563v-1.05859z" fill="#2fa9da" font-variant-ligatures="normal" font-variant-position="normal" font-variant-caps="normal" font-variant-numeric="normal" font-variant-alternates="normal" font-feature-settings="normal" text-indent="0" text-align="start" text-decoration-line="none" text-decoration-style="solid" text-decoration-color="#000000" text-transform="none" text-orientation="mixed" white-space="normal" shape-padding="0" isolation="auto" mix-blend-mode="normal" solid-color="#000000" solid-opacity="1" vector-effect="none"></path><path id="path11119" d="m10.054029 284.82889c-.1461693.00053-.2642293.11945-.2636695.26562v1.58594h1.5859395v-1.58594c.000556-.14617-.1175-.2651-.26367-.26562z" fill="#2fa9da" font-variant-ligatures="normal" font-variant-position="normal" font-variant-caps="normal" font-variant-numeric="normal" font-variant-alternates="normal" font-feature-settings="normal" text-indent="0" text-align="start" text-decoration-line="none" text-decoration-style="solid" text-decoration-color="#000000" text-transform="none" text-orientation="mixed" white-space="normal" shape-padding="0" isolation="auto" mix-blend-mode="normal" solid-color="#000000" solid-opacity="1" vector-effect="none"></path><path id="path27234" d="m11.641919 294.61795v1.05859c-.000555.14618.11751.26512.26368.26563h1.58789c.14693.00055.26619-.11869.26562-.26563v-1.05859z" fill="#2fa9da" font-variant-ligatures="normal" font-variant-position="normal" font-variant-caps="normal" font-variant-numeric="normal" font-variant-alternates="normal" font-feature-settings="normal" text-indent="0" text-align="start" text-decoration-line="none" text-decoration-style="solid" text-decoration-color="#000000" text-transform="none" text-orientation="mixed" white-space="normal" shape-padding="0" isolation="auto" mix-blend-mode="normal" solid-color="#000000" solid-opacity="1" vector-effect="none"></path><path id="path27200" d="m8.4661395 281.12576c-2.02012-.002-3.8322298.39924-5.1542897.90821-.6610401.25448-1.1991402.53402-1.5859402.81445-.3868.28042-.66797.54709-.66797.92187v1.32422c-.00002.43517.35976.79297.79492.79297h2.3808601c.43516 0 .79291-.35782.7929698-.79297v-1.16015c.0528-.0369.1887-.14494.6796902-.3086.56743-.18914 1.4633099-.38476 2.7597598-.38476 1.2964502 0 2.2621895.19525 2.9003895.38672.55013.16504.73394.27853.80469.31836v1.14843c.00006.43515.35781.79297.79297.79297h2.11719c.43516 0 .79298-.3578.79297-.79297v-1.32422c-.00001-.37478-.27922-.64145-.66602-.92187s-.9249-.55998-1.58594-.81445c-1.32206-.50896-3.13613-.90994-5.1562495-.90821z" fill="#33b9ef" font-variant-ligatures="normal" font-variant-position="normal" font-variant-caps="normal" font-variant-numeric="normal" font-variant-alternates="normal" font-feature-settings="normal" text-indent="0" text-align="start" text-decoration-line="none" text-decoration-style="solid" text-decoration-color="#000000" text-transform="none" text-orientation="mixed" white-space="normal" shape-padding="0" isolation="auto" mix-blend-mode="normal" solid-color="#000000" solid-opacity="1" vector-effect="none"></path><path id="path27206" d="m4.4973897 286.41678c-.2213102 0-.4174201.10887-.5410102.25-.1235998.14112-.1917398.30507-.2402398.4668l-1.5878901 5.29296a.26460982.26460982 0 0 0 -.0117.0762v1.58594c-.00001.43517.35781.79492.79297.79492h11.1132804c.435159 0 .79297-.35976.79297-.79492v-1.58594a.26460982.26460982 0 0 0 -.01-.0762l-1.587889-5.29296a.26460982.26460982 0 0 0 -.008-.0215c-.057-.14241-.121369-.29747-.238279-.4375-.11691-.14004-.31322-.25782-.53711-.25782z" fill="#33b9ef" font-variant-ligatures="normal" font-variant-position="normal" font-variant-caps="normal" font-variant-numeric="normal" font-variant-alternates="normal" font-feature-settings="normal" text-indent="0" text-align="start" text-decoration-line="none" text-decoration-style="solid" text-decoration-color="#000000" text-transform="none" text-orientation="mixed" white-space="normal" shape-padding="0" isolation="auto" mix-blend-mode="normal" solid-color="#000000" solid-opacity="1" vector-effect="none"></path><path id="path27216" d="m8.4661395 287.47537c-1.7503698 0-3.1738298 1.42346-3.1738298 3.17383s1.42346 3.17578 3.1738298 3.17578c1.7503695 0 3.1757795-1.42541 3.1757795-3.17578s-1.42541-3.17383-3.1757795-3.17383z" fill="#dbe9ee" font-variant-ligatures="normal" font-variant-position="normal" font-variant-caps="normal" font-variant-numeric="normal" font-variant-alternates="normal" font-feature-settings="normal" text-indent="0" text-align="start" text-decoration-line="none" text-decoration-style="solid" text-decoration-color="#000000" text-transform="none" text-orientation="mixed" white-space="normal" shape-padding="0" isolation="auto" mix-blend-mode="normal" solid-color="#000000" solid-opacity="1" vector-effect="none"></path><g fill="#c8d4d9"><path id="path11123" d="m8.4622396 288.53006c-.14541.003-.2614301.12215-.2597701.26758v.52929c0 .35287.5293.35287.5293 0v-.52929c.00201-.14925-.1202999-.27037-.2695299-.26758z" font-variant-ligatures="normal" font-variant-position="normal" font-variant-caps="normal" font-variant-numeric="normal" font-variant-alternates="normal" font-feature-settings="normal" text-indent="0" text-align="start" text-decoration-line="none" text-decoration-style="solid" text-decoration-color="#000000" text-transform="none" text-orientation="mixed" white-space="normal" shape-padding="0" isolation="auto" mix-blend-mode="normal" solid-color="#000000" solid-opacity="1" vector-effect="none"></path><path id="path11125" d="m8.4622396 291.70389c-.14618.003-.2625101.12335-.2597701.26953v.5293c0 .35286.5293.35286.5293 0v-.5293c.003-.15001-.1195199-.27235-.2695299-.26953z" font-variant-ligatures="normal" font-variant-position="normal" font-variant-caps="normal" font-variant-numeric="normal" font-variant-alternates="normal" font-feature-settings="normal" text-indent="0" text-align="start" text-decoration-line="none" text-decoration-style="solid" text-decoration-color="#000000" text-transform="none" text-orientation="mixed" white-space="normal" shape-padding="0" isolation="auto" mix-blend-mode="normal" solid-color="#000000" solid-opacity="1" vector-effect="none"></path><path id="path11127" d="m9.7903196 290.91483h.5292994c.35286 0 .35286-.5293 0-.5293h-.5429495c-.3654799.0191-.3382799.54646.013599.5293z" font-variant-ligatures="normal" font-variant-position="normal" font-variant-caps="normal" font-variant-numeric="normal" font-variant-alternates="normal" font-feature-settings="normal" text-indent="0" text-align="start" text-decoration-line="none" text-decoration-style="solid" text-decoration-color="#000000" text-transform="none" text-orientation="mixed" white-space="normal" shape-padding="0" isolation="auto" mix-blend-mode="normal" solid-color="#000000" solid-opacity="1" vector-effect="none"></path><path id="path11129" d="m6.6145396 290.91483h.5293c.35286 0 .35286-.5293 0-.5293h-.5429499c-.3654801.0191-.3382801.54646.0136.5293z" font-variant-ligatures="normal" font-variant-position="normal" font-variant-caps="normal" font-variant-numeric="normal" font-variant-alternates="normal" font-feature-settings="normal" text-indent="0" text-align="start" text-decoration-line="none" text-decoration-style="solid" text-decoration-color="#000000" text-transform="none" text-orientation="mixed" white-space="normal" shape-padding="0" isolation="auto" mix-blend-mode="normal" solid-color="#000000" solid-opacity="1" vector-effect="none"></path><path id="path11131" d="m7.1536395 289.07303c-.23802.00008-.3549198.28985-.1835899.45508l.375.37304c.2478601.29046.66351-.12518.3730501-.37304l-.3730501-.375c-.0502-.0516-.1193699-.0806-.1914101-.0801z" font-variant-ligatures="normal" font-variant-position="normal" font-variant-caps="normal" font-variant-numeric="normal" font-variant-alternates="normal" font-feature-settings="normal" text-indent="0" text-align="start" text-decoration-line="none" text-decoration-style="solid" text-decoration-color="#000000" text-transform="none" text-orientation="mixed" white-space="normal" shape-padding="0" isolation="auto" mix-blend-mode="normal" solid-color="#000000" solid-opacity="1" vector-effect="none"></path><path id="path11133" d="m7.5266895 291.31912c-.0686.002-.1337799.0308-.1816399.0801l-.375.37305c-.25.25.125.625.375.375l.3730501-.375c.17072-.16805.0481-.45836-.1914102-.45313z" font-variant-ligatures="normal" font-variant-position="normal" font-variant-caps="normal" font-variant-numeric="normal" font-variant-alternates="normal" font-feature-settings="normal" text-indent="0" text-align="start" text-decoration-line="none" text-decoration-style="solid" text-decoration-color="#000000" text-transform="none" text-orientation="mixed" white-space="normal" shape-padding="0" isolation="auto" mix-blend-mode="normal" solid-color="#000000" solid-opacity="1" vector-effect="none"></path><path id="path11135" d="m9.7708296 289.07303c-.0686.002-.13378.0308-.1816399.0801l-.3750001.375c-.2649799.24991.1264801.63933.3750001.37305l.3749998-.37305c.1750895-.16852.049499-.46414-.1933599-.45508z" font-variant-ligatures="normal" font-variant-position="normal" font-variant-caps="normal" font-variant-numeric="normal" font-variant-alternates="normal" font-feature-settings="normal" text-indent="0" text-align="start" text-decoration-line="none" text-decoration-style="solid" text-decoration-color="#000000" text-transform="none" text-orientation="mixed" white-space="normal" shape-padding="0" isolation="auto" mix-blend-mode="normal" solid-color="#000000" solid-opacity="1" vector-effect="none"></path></g><path id="path27242" d="m5.0265657 284.56457h-3.96875v.5302c-.0000212.43516.3601402.79271.7953004.79271h2.3807314c.4351603 0 .7926573-.35757.7927182-.79271z" fill="#dbe9ee" font-variant-ligatures="normal" font-variant-position="normal" font-variant-caps="normal" font-variant-numeric="normal" font-variant-alternates="normal" font-feature-settings="normal" text-indent="0" text-align="start" text-decoration-line="none" text-decoration-style="solid" text-decoration-color="#000000" text-transform="none" text-orientation="mixed" white-space="normal" shape-padding="0" isolation="auto" mix-blend-mode="normal" solid-color="#000000" solid-opacity="1" vector-effect="none"></path><path id="path27240" d="m15.874482 284.56457h-3.703135v.5302c.000061.43514.357558.79271.792718.79271h2.117183c.43516 0 .793242-.35755.793234-.79271z" fill="#dbe9ee" font-variant-ligatures="normal" font-variant-position="normal" font-variant-caps="normal" font-variant-numeric="normal" font-variant-alternates="normal" font-feature-settings="normal" text-indent="0" text-align="start" text-decoration-line="none" text-decoration-style="solid" text-decoration-color="#000000" text-transform="none" text-orientation="mixed" white-space="normal" shape-padding="0" isolation="auto" mix-blend-mode="normal" solid-color="#000000" solid-opacity="1" vector-effect="none"></path></g></svg>