<svg xmlns="http://www.w3.org/2000/svg" viewBox="0 0 127.39 79.75">
  <g>
    <path d="M63.5,17.63c-.79,0-1.77.58-3,1.75a38,38,0,0,0-3.65,4.23Q55,26.1,53.32,28.85a54.33,54.33,0,0,0-2.7,4.85,3.35,3.35,0,0,0-.15.35,3.72,3.72,0,0,1-.2.44c-.73,2.85-1.63,5.81-2.71,8.86s-2.22,6.22-3.42,9.48q-2.32,6.38-4.77,12.71T34.62,77a75.61,75.61,0,0,1-4.32,8.39q-2,3.27-3.37,3.53c-.64,0-1-.52-1-1.57a13.69,13.69,0,0,1,.55-3.41c.37-1.33.83-2.75,1.4-4.23s1.21-3,1.91-4.63,1.4-3.19,2.1-4.76q2-4.36,3.74-8.17T39,55c1.1-2.24,2.16-4.38,3.2-6.42s2.06-4,3.08-5.94q.84-2.53,1.62-5.15t1.38-5.29c.4-1.77.71-3.53,1-5.28a39.44,39.44,0,0,0,.35-5.15,6.73,6.73,0,0,0-.24-1.93,3.91,3.91,0,0,0-.64-1.26,2.6,2.6,0,0,0-.85-.7,2.05,2.05,0,0,0-.9-.22c-.79,0-1.77.58-3,1.75a38,38,0,0,0-3.65,4.23q-1.89,2.49-3.57,5.24c-1.13,1.84-2,3.45-2.7,4.85,0,.12-.11.24-.15.35a3.72,3.72,0,0,1-.2.44c-.73,2.85-1.63,5.81-2.71,8.86s-2.22,6.22-3.42,9.48q-2.32,6.38-4.77,12.71T18.11,77a73.93,73.93,0,0,1-4.32,8.39q-2,3.27-3.37,3.53c-.64,0-1-.52-1-1.57A13.62,13.62,0,0,1,10,83.92c.37-1.33.83-2.75,1.4-4.23s1.21-3,1.91-4.63,1.4-3.19,2.1-4.76q2-4.45,3.81-8.3t3.48-7.25l3.24-6.51c1-2.06,2.08-4.09,3.13-6.07q1.62-4.8,2.87-9.91a41.84,41.84,0,0,0,1.25-9.91,20.85,20.85,0,0,0-.7-5.81,11.44,11.44,0,0,0-1.82-3.84,6.77,6.77,0,0,0-2.54-2.1,6.86,6.86,0,0,0-2.91-.66,9.84,9.84,0,0,0-4.69,1.31,25.54,25.54,0,0,0-4.62,3.28,36.63,36.63,0,0,0-4.11,4.32A32.67,32.67,0,0,0,8.63,23.4,64.89,64.89,0,0,0,3,36.1a46.22,46.22,0,0,0-2.12,14,24,24,0,0,0,1.73,10q1.73,3.72,4.93,3.72a6.24,6.24,0,0,0,2.54-.62,10.17,10.17,0,0,0,2.82-2,21.45,21.45,0,0,0,3-3.62,35,35,0,0,0,2.89-5.46,62.58,62.58,0,0,0,2.62-7.55,28.94,28.94,0,0,0,1.06-7.73,11.07,11.07,0,0,0-.9-5,2.65,2.65,0,0,0-2.3-1.75,3.81,3.81,0,0,0-2,.61,8.82,8.82,0,0,0-1.79,1.53,12.46,12.46,0,0,0-1.49,2,18.68,18.68,0,0,0-1.05,2l-.66,1.58,0-.09s-.05,0-.05-.09a5.93,5.93,0,0,1,.57-2,14.59,14.59,0,0,1,1.56-2.75,12.86,12.86,0,0,1,2.28-2.49,4.17,4.17,0,0,1,2.73-1.1,3.45,3.45,0,0,1,2.87,1.84q1.2,1.83,1.2,5.76a30,30,0,0,1-1.2,8.3,60.78,60.78,0,0,1-2.91,8,31.88,31.88,0,0,1-2.85,5.06,20.62,20.62,0,0,1-3.09,3.58A12.24,12.24,0,0,1,10.27,64a6.66,6.66,0,0,1-2.78.7c-2.19,0-3.94-1.22-5.23-3.67S.31,55.1.31,50.56a46.39,46.39,0,0,1,.57-7.21A52.41,52.41,0,0,1,2.5,36.23,63.18,63.18,0,0,1,5,29.38a68.24,68.24,0,0,1,3.27-6.51,39.84,39.84,0,0,1,3.08-4.63,32.16,32.16,0,0,1,4.1-4.45,23.71,23.71,0,0,1,4.68-3.32,10.36,10.36,0,0,1,4.95-1.31,7.7,7.7,0,0,1,3.59.92A9.14,9.14,0,0,1,31.9,13a16.49,16.49,0,0,1,2.32,4.93,24.21,24.21,0,0,1,.9,7,30.38,30.38,0,0,1-.24,3.76c-.16,1.28-.39,2.59-.68,3.93a.52.52,0,0,1,.09-.22,1,1,0,0,0,.13-.22,49.94,49.94,0,0,1,2.67-4.76,52.38,52.38,0,0,1,3.51-5,31.35,31.35,0,0,1,3.65-3.93,5.14,5.14,0,0,1,3.09-1.62,3.11,3.11,0,0,1,1.33.35A3.55,3.55,0,0,1,50,18.46a9,9,0,0,1,1.07,2.45,16,16,0,0,1,.55,4,30.38,30.38,0,0,1-.24,3.76c-.16,1.28-.39,2.59-.68,3.93a.52.52,0,0,1,.09-.22,1,1,0,0,0,.13-.22,49.94,49.94,0,0,1,2.67-4.76,54.2,54.2,0,0,1,3.5-5,32.15,32.15,0,0,1,3.66-3.93,5.14,5.14,0,0,1,3.09-1.62A2.78,2.78,0,0,1,66.1,18.2a7.6,7.6,0,0,1,1,4.41,36.08,36.08,0,0,1-.48,5.94,51.11,51.11,0,0,1-1.43,6.07c-.62,2.13-1.4,4.41-2.34,6.86s-2,5.18-3.2,8.21c-.46,1-1,2.34-1.68,4.06s-1.34,3.62-2.06,5.72S54.47,63.75,53.75,66s-1.35,4.47-1.9,6.59-1,4.11-1.36,5.94A24.81,24.81,0,0,0,50,83a8.89,8.89,0,0,0,.37,2.84c.25.73.62,1.09,1.12,1.09,1,0,2-.62,3.15-1.87a21.28,21.28,0,0,0,3.17-4.76A37,37,0,0,0,60.26,74a22.63,22.63,0,0,0,1-6.38A7.5,7.5,0,0,0,61,65.28c-.21-.61-.53-.92-1-.92a2,2,0,0,0-1.34.7,9.12,9.12,0,0,0-1.4,1.83A19.39,19.39,0,0,0,56,69.47a26.72,26.72,0,0,0-1,2.84c-.14.58-.24,1-.28,1.26s-.1.4-.16.4-.08-.06-.08-.18a4.65,4.65,0,0,1,.08-.7l.18-.87a21.21,21.21,0,0,1,1-3.19,19.58,19.58,0,0,1,1.38-2.75,8.76,8.76,0,0,1,1.55-2,2.41,2.41,0,0,1,1.6-.75,1.48,1.48,0,0,1,1.32.92,6.67,6.67,0,0,1,.48,2.93,21.24,21.24,0,0,1-1.05,6.2,40.38,40.38,0,0,1-2.61,6.46,26.57,26.57,0,0,1-3.39,5.2,6.3,6.3,0,0,1-3.42,2.4l0,.09a1.23,1.23,0,0,1-.53.09,2.83,2.83,0,0,1-2.28-1.49q-1-1.49-1-5.24A35.91,35.91,0,0,1,49.09,72,105.62,105.62,0,0,1,52.4,61.7q2-5.3,4.31-10.7T61,40.38q2-5.19,3.31-10a32.76,32.76,0,0,0,1.31-8.69A5.9,5.9,0,0,0,65,18.55,1.83,1.83,0,0,0,63.5,17.63ZM25.31,52.74c.35-1.05.74-2.17,1.16-3.36s.87-2.43,1.34-3.71l-.13.26L25.33,50.6q-1.59,3.19-3.57,7.21t-4,8.52q-2.07,4.5-3.77,8.6t-2.8,7.47a18.19,18.19,0,0,0-1.1,5.11c0,.46.15.7.44.7q.71,0,1.71-1.71a36.77,36.77,0,0,0,2.14-4.41q1.14-2.7,2.37-5.94c.82-2.15,1.6-4.25,2.36-6.29q1.89-4.89,3.35-9T25.31,52.74Zm16.51,0L43,49.51c.41-1.16.83-2.39,1.27-3.67l0,.09L41.84,50.6q-1.59,3.19-3.57,7.21t-4,8.52q-2.07,4.5-3.77,8.6t-2.8,7.47a18.19,18.19,0,0,0-1.1,5.11c0,.46.15.7.44.7q.7,0,1.71-1.71a36.77,36.77,0,0,0,2.14-4.41q1.14-2.7,2.37-5.94c.82-2.15,1.6-4.25,2.36-6.29q1.89-4.89,3.35-9T41.82,52.74Z" transform="translate(-0.31 -9.16)" style="fill: #fff"/>
    <path d="M73.57,79.38c0,.7-.55,1.75-1.66,3.15S70,84.62,69.59,84.62a1,1,0,0,1-.79-.26c-2,2.86-3.71,4.28-5,4.28-1.44,0-2.15-1.08-2.15-3.23a14.85,14.85,0,0,1,1.23-6V79.3c-.76,1.51-1.23,2.27-1.41,2.27,0,0,0,0,0-.09V81.3l0-.34a21.65,21.65,0,0,1,3.68-5.42q2.5-2.62,4.29-2.71l.27.44a4.13,4.13,0,0,1-.48.52,21.18,21.18,0,0,0-3.46,5.51c-1.49,3-2.24,5.44-2.24,7.24,0,.82.21,1.23.62,1.23q1.7,0,4.07-5.39.57-4.6,2.19-6a12.18,12.18,0,0,0,.13-2.21,2.18,2.18,0,0,0-.07-.49,2.68,2.68,0,0,1-.06-.48c0-.24.09-.36.26-.36s.49.37.68,1.11a8.12,8.12,0,0,1,.28,2q0,3.11-2.49,7.81a.45.45,0,0,0,.26.09q1,0,2.28-2.1a9.55,9.55,0,0,1,1.84-2.53A.59.59,0,0,1,73.57,79.38Z" transform="translate(-0.31 -9.16)" style="fill: #fff"/>
    <path d="M87.23,79.82a15.75,15.75,0,0,1-3,6.38c-1.17,1.51-2.14,2.27-2.89,2.27-1,0-1.49-.85-1.49-2.54a12.54,12.54,0,0,1,.87-4.28,3.69,3.69,0,0,1-2.89,1.93c-.76,0-1.3-.5-1.62-1.49q-.61,1.92-2,5.42a2.36,2.36,0,0,1-1.49.7c-.64,0-1-.24-1-.7q0-1.23,2-6c1.1-2.8,2-4.8,2.62-6v-.08q-2.88,4.71-3.24,4.71c-.06,0-.09-.06-.09-.17a11,11,0,0,1,2.37-4.15c1.31-1.6,2.29-2.4,2.93-2.4s.84.14.84.43-.69,2.13-2.06,5.68a1.78,1.78,0,0,1,.35,1.14,2.42,2.42,0,0,1-.2.91,2.25,2.25,0,0,0-.2.66q0,.78.57.78c1.14,0,2.21-.81,3.2-2.44q.09-.09,2.28-4.63c.81-1.69,1.54-2.53,2.19-2.53s.92.17.92.52q0,.18-2,5.11t-2,6.25a2.58,2.58,0,0,0,.13.91c.09.21.19.31.31.31q.78,0,4.29-6.73h.13A.14.14,0,0,1,87.23,79.82Z" transform="translate(-0.31 -9.16)" style="fill: #fff"/>
    <path d="M101.38,79.3c0,.7-1,2.58-3,5.64-1.55,2.35-2.8,3.53-3.77,3.53s-1.35-.71-1.35-2.12q0-2.64,2.4-7.49l-.08-.18c-3.92,6.53-6.51,9.79-7.8,9.79-1,0-1.44-.71-1.44-2.11q0-3.44,3.94-11v-.09c-.47.64-1.17,1.69-2.1,3.14-.35.64-.88,1.55-1.58,2.71-.18.23-.32.35-.44.35l0-.18A18.44,18.44,0,0,1,89,76q2.28-3.15,3.6-3.15c.29,0,.46.09.52.27s-.83,2.24-2.41,6.37c-1.31,3.4-2,5.53-2,6.36a3.67,3.67,0,0,1,.13.36c.06.18.16.27.31.27q1.05,0,8.71-12.65c.38-.65.81-1,1.27-1,.62,0,.92.15.92.44A46.71,46.71,0,0,1,97.85,79q-2.2,5.31-2.21,6.63a1.57,1.57,0,0,0,.09.58c.06.14.14.22.26.22q1.49,0,4.82-6.72l.57-.53Z" transform="translate(-0.31 -9.16)" style="fill: #fff"/>
    <path d="M113.2,75.28c0,1.74-.45,2.62-1.36,2.62-.67,0-1-.3-1-.89a5.32,5.32,0,0,1,.15-.85,5.14,5.14,0,0,0,.15-1c0-.83-.22-1.25-.65-1.25q-1.62,0-5.5,7.29t-4.8,7.3a.78.78,0,0,1-.7-.27v-.36q0-2.32,3.11-10.2v-.09c-1.08,2.15-1.73,3.23-2,3.23a.08.08,0,0,1-.09-.09,17.07,17.07,0,0,1,2.22-4.36c1.41-2.33,2.3-3.5,2.65-3.5.55,0,.83.35.83,1v.17q-1.14,3.24-3.51,9.61l.09.09q2.9-5.19,3.94-6.78,2.76-4.14,4.65-4.14C112.6,72.83,113.2,73.65,113.2,75.28Zm1.84,4a11.92,11.92,0,0,1-1.36,2.91C113,83.5,112.4,84.44,112,85q-2.28,3.43-3.77,3.44c-.64,0-1.08-.47-1.31-1.4a17.47,17.47,0,0,1-.18-3.06c0-2.15-.23-3.05-.7-2.71a1.42,1.42,0,0,1,1.32-.78c.78,0,1.27,1,1.46,2.92s.46,2.93.81,2.93q1,0,3-3.54A21.1,21.1,0,0,1,115,79.21Z" transform="translate(-0.31 -9.16)" style="fill: #fff"/>
    <path d="M124.67,84.94q-2.19,3.53-3.76,3.53c-.85,0-1.27-.71-1.27-2.14a6.93,6.93,0,0,1,.61-2.93h0q-2.76,5.07-4.95,5.07c-1.11,0-1.67-1-1.67-2.92a13.48,13.48,0,0,1,1.23-5.38h0c-.44.93-.72,1.4-.83,1.4a.15.15,0,0,1-.14-.09V81.3l0-.34a18.78,18.78,0,0,1,3.65-5.38q2.56-2.74,4.1-2.75c1,0,1.53.76,1.53,2.27a7.91,7.91,0,0,1-.09,1.14h0c1-2.27,1.9-3.41,2.71-3.41q.57,0,.57.27t-2.23,5.67q-2.24,5.4-2.23,7.16l.08.44a.54.54,0,0,0,.31.09c.61,0,1.63-1.21,3-3.63a40.07,40.07,0,0,1,2.3-3.71l0,.09Q127.7,80.1,124.67,84.94Zm-1.92-9.49c0-1-.28-1.57-.83-1.57-.76,0-2,1.69-3.79,5.07s-2.65,5.76-2.65,7.16q0,1,.57,1c.84,0,2.17-1.58,4-4.72S122.75,77,122.75,75.45Z" transform="translate(-0.31 -9.16)" style="fill: #fff"/>
  </g>
</svg>
