<svg xmlns="http://www.w3.org/2000/svg" viewBox="0 0 122.67 82.12">
  <g>
    <path d="M39.05,108.07a6.94,6.94,0,0,1-4-1.26,12.19,12.19,0,0,1-3.35-3.63,24.33,24.33,0,0,1-2.54-5.72,38.82,38.82,0,0,1-1.49-7.55,10.49,10.49,0,0,1-2,.48,18.46,18.46,0,0,1-2.13.13,9.85,9.85,0,0,1-4.73-1.27,12.53,12.53,0,0,1-4.14-3.8,20.79,20.79,0,0,1-2.93-6.37A33,33,0,0,1,10.62,70,44,44,0,0,1,12,58.81a32.89,32.89,0,0,1,3.7-9,19.29,19.29,0,0,1,5.5-5.94,11.76,11.76,0,0,1,6.74-2.14,9.58,9.58,0,0,1,4.21,1.09,12.55,12.55,0,0,1,4.11,3.36A64.59,64.59,0,0,1,41,38.29a42.36,42.36,0,0,1,5.54-6.55,24.77,24.77,0,0,1,6.13-4.37A12.88,12.88,0,0,1,59.1,26a8.56,8.56,0,0,1,3.18.79A8.18,8.18,0,0,1,65,28.85a10.7,10.7,0,0,1,1.46-1.35,12.64,12.64,0,0,1,1.65-1.09c.41-.18.61-.18.61,0s-.07.1-.2.13a1,1,0,0,0-.41.22,7.8,7.8,0,0,0-1.4,1.13,15.61,15.61,0,0,0-1.32,1.49A11.83,11.83,0,0,1,67.16,33a18.34,18.34,0,0,1,.75,4.89,20.15,20.15,0,0,1-.37,4.32A22.42,22.42,0,0,1,66.4,46a20.87,20.87,0,0,1-1.67,3.27,28.21,28.21,0,0,1-2,2.71A14.6,14.6,0,0,1,60,54.58,15.22,15.22,0,0,1,57.48,56a5.43,5.43,0,0,1,3.84,3.1,13.15,13.15,0,0,1,1.42,6.24,24.94,24.94,0,0,1-.22,3.15,4.86,4.86,0,0,1,2.28,0,1.58,1.58,0,0,1,.59.3.37.37,0,0,1,.07.31c0,.12-.09.14-.18.09a2,2,0,0,0-.61-.18,7.63,7.63,0,0,0-2.24,0,28.42,28.42,0,0,1-2,6.68,32.9,32.9,0,0,1-3.24,5.86,20.66,20.66,0,0,1-3.83,4.19,6.18,6.18,0,0,1-3.77,1.61,2.86,2.86,0,0,1-1.93-.78,4,4,0,0,1-.87-3,8.61,8.61,0,0,1,.66-3.28,14.11,14.11,0,0,1,1.75-3.1,20.87,20.87,0,0,1,2.54-2.84,33,33,0,0,1,3-2.49,20.5,20.5,0,0,1,2.49-1.57,17.08,17.08,0,0,1,2.67-1.13,28.78,28.78,0,0,0,.48-5,15,15,0,0,0-.85-5.42c-.57-1.45-1.47-2.15-2.69-2.09a2,2,0,0,0-1.29.48,4.8,4.8,0,0,1-1.3.74.56.56,0,0,1-.61,0c-.17-.12-.26-.38-.26-.79a1.11,1.11,0,0,1,.28-.91,2.73,2.73,0,0,1,.9-.4l2.89-.7a6.47,6.47,0,0,0,3-2,18.69,18.69,0,0,0,3.9-6.42,26.29,26.29,0,0,0,1.53-9.47,13.69,13.69,0,0,0-1.44-6.64,66.36,66.36,0,0,0-6.09,11q-2.94,6.51-6.26,14.89-2.37,5.94-5,11.31a81.74,81.74,0,0,1-5.43,9.7,45.74,45.74,0,0,1-6,7.42,20,20,0,0,1-6.64,4.5,48.14,48.14,0,0,0,1.27,7.43,23.44,23.44,0,0,0,2.19,5.59,11.34,11.34,0,0,0,3,3.49,5.92,5.92,0,0,0,3.59,1.22,7.88,7.88,0,0,0,2.89-.48,7.33,7.33,0,0,0,2.59-2,3.38,3.38,0,0,0,.52-.7q.13-.27.18-.09a.68.68,0,0,1-.07.44,4.78,4.78,0,0,1-.46.78,6.63,6.63,0,0,1-5.69,3ZM23.54,89.73a11.94,11.94,0,0,0,4.08-.7c-.06-.7-.11-1.5-.16-2.4s-.06-1.82-.06-2.75A86.44,86.44,0,0,1,28,73.22a84.09,84.09,0,0,1,1.75-9.6A79,79,0,0,1,32.41,55c1-2.71,2.1-5.25,3.26-7.64a11.13,11.13,0,0,0-3.74-2.58A10.75,10.75,0,0,0,27.88,44a11.69,11.69,0,0,0-6.4,1.93,18,18,0,0,0-5.3,5.37,29.2,29.2,0,0,0-3.61,8.21,38.18,38.18,0,0,0-1.33,10.35,33,33,0,0,0,1,8.73A20.41,20.41,0,0,0,15,84.8a11.73,11.73,0,0,0,3.92,3.71,9.41,9.41,0,0,0,4.58,1.22ZM29,88.51a17.44,17.44,0,0,0,5.89-4.67,50.3,50.3,0,0,0,5.17-7.56q2.46-4.36,4.88-9.69t5-11.18q3.59-8.13,7-14.77A51.62,51.62,0,0,1,64.05,29.9a6.13,6.13,0,0,0-4.9-3.14,12.53,12.53,0,0,0-6.37,1.39,24.58,24.58,0,0,0-6,4.33A40,40,0,0,0,41.35,39a61,61,0,0,0-4.58,8,17.77,17.77,0,0,1,2.69,5.37,24.63,24.63,0,0,1,1,7.56,33.58,33.58,0,0,1-.46,5.9,18,18,0,0,1-1.25,4.32,2.52,2.52,0,0,1-.28.57c-.1.14-.18.16-.24,0s0-.19.09-.39.16-.37.21-.48a22.42,22.42,0,0,0,1.12-4.46A37.52,37.52,0,0,0,40,60a21.15,21.15,0,0,0-1-7.11A16.31,16.31,0,0,0,36.24,48a83.15,83.15,0,0,0-5.43,16.16,87.7,87.7,0,0,0-2,19.39c0,.87,0,1.72.05,2.53S29,87.69,29,88.51Zm21.33-2.1a3.88,3.88,0,0,0,2.71-1.48,18.58,18.58,0,0,0,2.69-3.85,35.11,35.11,0,0,0,2.35-5.32,45.45,45.45,0,0,0,1.66-5.94,21.37,21.37,0,0,0-2.6,1.26,20,20,0,0,0-2.3,1.53,17.39,17.39,0,0,0-4.6,5.11,11.05,11.05,0,0,0-1.71,5.55c0,2.1.58,3.14,1.75,3.14Z" transform="translate(-10.62 -25.95)" style="fill: #fff"/>
    <path d="M76.18,78.2q0,.52-3,5.16-2.64,4.1-4.38,4.1c-1,0-1.45-.77-1.45-2.3a13.55,13.55,0,0,1,.7-4.08q-1.31,2.07-2.67,4c-1.14,1.55-2.15,2.33-3,2.33-1,0-1.53-.87-1.53-2.62,0-2.5.65-3.76,2-3.76.61,0,.92.36.92,1.08a7.26,7.26,0,0,1-.14,1.11,8.56,8.56,0,0,0-.13,1.11c0,.6.13.9.4.9.79,0,2.08-1.63,3.9-4.89a1.53,1.53,0,0,1-.62.17c-.52,0-1-.45-1.33-1.35a7.68,7.68,0,0,1-.55-2.93A6.6,6.6,0,0,1,66.77,72a3.53,3.53,0,0,1,2.58-1.66c1.4,0,2.24.82,2.5,2.45A2.42,2.42,0,0,1,74,71.56a.46.46,0,0,1,.4.18l0,.09a50.37,50.37,0,0,1-2.21,5.76Q70,82.92,70,84.49c0,.53.13.79.39.79q1,0,2.94-3.23,2.1-3.58,2.8-4A.38.38,0,0,1,76.18,78.2Zm-5.69-5.41q0-1.23-.66-1.23c-.67,0-1.41.73-2.23,2.19A8.66,8.66,0,0,0,66.37,78q0,1.74.66,1.74c.61,0,1.34-.87,2.19-2.62A10.46,10.46,0,0,0,70.49,72.79Z" transform="translate(-10.62 -25.95)" style="fill: #fff"/>
    <path d="M85.08,78.81q0,1.14-2.81,5T77.1,87.64c-1.54,0-2.32-1-2.32-3.15a15.86,15.86,0,0,1,1.27-5.85h0a7,7,0,0,1-1.23,1.83V80.3a1.49,1.49,0,0,1,0-.36,18.43,18.43,0,0,1,3.57-5.29q2.56-2.82,4-2.82c1,0,1.53.81,1.53,2.44a7.67,7.67,0,0,1-.46,2.58c-.31.84-.67,1.27-1.08,1.27s-.61-.41-.61-1.23a7.48,7.48,0,0,1,.35-1.74,7.61,7.61,0,0,0,.35-1.84c0-.41-.15-.61-.44-.61Q81,72.7,79,77.4a20.54,20.54,0,0,0-2,7.17c0,1.11.33,1.67,1,1.67q1.8,0,7-7.51h0Z" transform="translate(-10.62 -25.95)" style="fill: #fff"/>
    <path d="M94.62,78.29a3.27,3.27,0,0,1-.39,1,26,26,0,0,1-3.59,5.59c-1.55,1.8-3,2.71-4.3,2.71q-2.4,0-2.4-3.24a14.77,14.77,0,0,1,1-5.15h0c-.45.87-.75,1.31-.91,1.31s-.06,0-.09-.09V80.3l0-.36a21.16,21.16,0,0,1,3.63-5.38q2.56-2.73,4.2-2.73c.85,0,1.28.76,1.28,2.28q0,4-6.61,8.17a19.54,19.54,0,0,0-.27,2.38c0,1,.34,1.58,1,1.58.9,0,2-.7,3.2-2.1a32.2,32.2,0,0,0,2.76-3.93C94,78.76,94.46,78,94.49,78S94.62,78.12,94.62,78.29Zm-3.06-4.61c0-.54-.18-.81-.53-.81-.58,0-1.39,1.13-2.41,3.39a35.16,35.16,0,0,0-1.88,5.09v.08Q91.56,78.31,91.56,73.68Zm1.22-12.42a4.22,4.22,0,0,1-.85,2.44c-.57.82-1.07,1.23-1.51,1.23a4.28,4.28,0,0,1-.18-1.58c0-2,.64-3.05,1.93-3.05C92.58,60.3,92.78,60.62,92.78,61.26Zm4.38,0a4.22,4.22,0,0,1-.85,2.44c-.57.82-1.07,1.23-1.51,1.23a4.28,4.28,0,0,1-.18-1.58c0-2,.64-3.05,1.93-3.05C97,60.3,97.16,60.62,97.16,61.26Z" transform="translate(-10.62 -25.95)" style="fill: #fff"/>
    <path d="M106.93,78.38c-.09.81-1,2.62-2.85,5.41-1.46,2.27-2.68,3.41-3.68,3.41-.82,0-1.22-.73-1.22-2.18a20,20,0,0,1,1.53-5.68q-2.19,3.93-2.93,5c-1.32,1.92-2.41,2.88-3.29,2.88s-1.27-.67-1.27-2c0-.35,0-.7,0-1h0c.23-1.51.76-2.27,1.57-2.27q.75,0,.75.9a7,7,0,0,1-.09.89,7.44,7.44,0,0,0-.09,1c0,.06,0,.27.09.62a.5.5,0,0,0,.26.1q.84,0,4.16-5.63c1.38-2.4,2.76-4.81,4.16-7.21a1.6,1.6,0,0,1,1.41-.53.31.31,0,0,1,.35.35q0,.18-2.24,5.5t-2.23,6.73c.09.52.19.79.31.79.49,0,1.38-1.13,2.67-3.37S106.52,78.55,106.93,78.38Z" transform="translate(-10.62 -25.95)" style="fill: #fff"/>
    <path d="M118.8,74.27c0,1.75-.46,2.62-1.36,2.62-.67,0-1-.3-1-.89a5.51,5.51,0,0,1,.15-.85,4.55,4.55,0,0,0,.16-1c0-.83-.22-1.25-.66-1.25q-1.62,0-5.5,7.3t-4.79,7.29a.78.78,0,0,1-.7-.27v-.36q0-2.33,3.11-10.2v-.09c-1.08,2.16-1.74,3.23-2,3.23-.06,0-.09,0-.09-.08a16.86,16.86,0,0,1,2.21-4.37q2.13-3.5,2.65-3.49c.55,0,.83.35.83,1v.18q-1.14,3.23-3.5,9.61l.09.08c1.92-3.46,3.24-5.72,3.94-6.78q2.76-4.12,4.64-4.13C118.2,71.83,118.8,72.64,118.8,74.27Zm1.84,4a12.19,12.19,0,0,1-1.36,2.91c-.73,1.3-1.29,2.23-1.67,2.82-1.51,2.29-2.77,3.44-3.76,3.44-.64,0-1.08-.47-1.32-1.4a18.81,18.81,0,0,1-.17-3c0-2.16-.24-3.06-.7-2.71a1.41,1.41,0,0,1,1.31-.79c.79,0,1.28,1,1.47,2.93s.46,2.93.81,2.93c.64,0,1.66-1.18,3-3.54a21.32,21.32,0,0,1,2.35-3.63Z" transform="translate(-10.62 -25.95)" style="fill: #fff"/>
    <path d="M130.27,83.93c-1.46,2.36-2.71,3.53-3.77,3.53-.84,0-1.27-.71-1.27-2.13a6.9,6.9,0,0,1,.62-2.93h0q-2.76,5.05-5,5.06c-1.1,0-1.66-1-1.66-2.91a13.53,13.53,0,0,1,1.23-5.39h0c-.44.94-.71,1.4-.83,1.4a.14.14,0,0,1-.13-.09V80.3l0-.35a18.46,18.46,0,0,1,3.66-5.37c1.71-1.84,3.07-2.75,4.1-2.75s1.53.75,1.53,2.27a7.67,7.67,0,0,1-.09,1.13h0c1-2.27,1.9-3.4,2.72-3.4.38,0,.57.09.57.26s-.75,2.07-2.23,5.67-2.24,6-2.24,7.17l.09.44a.62.62,0,0,0,.31.08q.92,0,3-3.62a34.69,34.69,0,0,1,2.3-3.71l0,.08C133.29,78.79,132.29,80.7,130.27,83.93Zm-1.93-9.48c0-1-.27-1.58-.83-1.58q-1.14,0-3.79,5.07c-1.76,3.38-2.65,5.77-2.65,7.16q0,1.05.57,1.05,1.27,0,4-4.72T128.34,74.45Z" transform="translate(-10.62 -25.95)" style="fill: #fff"/>
  </g>
</svg>
