<svg xmlns="http://www.w3.org/2000/svg" viewBox="0 0 142.58 98.18">
  <g>
    <path d="M16.12,97.73a11.75,11.75,0,0,1-5.86-1.66,14.65,14.65,0,0,1-5.17-5.55A35.13,35.13,0,0,1,1.46,80.34,70.9,70.9,0,0,1,.2,64.8a78,78,0,0,1,.91-11.23,65.8,65.8,0,0,1,2.25-9.69A46.21,46.21,0,0,1,6.65,36,30.84,30.84,0,0,1,10.71,30a17,17,0,0,1,4.55-3.71,10.1,10.1,0,0,1,4.79-1.27,6.85,6.85,0,0,1,3.76,1.23A11.19,11.19,0,0,1,27.18,30a22.29,22.29,0,0,1,2.44,6.11,34.64,34.64,0,0,1,.94,8.47A49.24,49.24,0,0,1,29.33,56a40,40,0,0,1-3.12,8.87A18.72,18.72,0,0,1,22,70.56a7,7,0,0,1-4.5,2,4.09,4.09,0,0,1-2.23-.74,6.78,6.78,0,0,1-2-2.23,13.8,13.8,0,0,1-1.46-3.71,20.65,20.65,0,0,1-.58-5.2,26.92,26.92,0,0,1,.59-6.07,17.21,17.21,0,0,1,1.26-3.8c.29-.58.46-.81.51-.7s0,.19-.12.4-.2.42-.29.65a24.67,24.67,0,0,0-1.09,4.06,29.67,29.67,0,0,0-.38,5.2A16.9,16.9,0,0,0,12.22,65a10.73,10.73,0,0,0,1.38,3.15A6,6,0,0,0,15.5,70a4.17,4.17,0,0,0,2.13.61A7,7,0,0,0,22,68.73a17.8,17.8,0,0,0,4.08-5.24,34.92,34.92,0,0,0,3-8.21,45.57,45.57,0,0,0,1.17-10.75,33.19,33.19,0,0,0-.9-8.21A20.92,20.92,0,0,0,27,30.51,11.29,11.29,0,0,0,23.71,27a6.59,6.59,0,0,0-3.63-1.18,10.39,10.39,0,0,0-6.8,2.84,25.21,25.21,0,0,0-5.88,8A54,54,0,0,0,3.24,49,76.05,76.05,0,0,0,1.58,64.88,73.14,73.14,0,0,0,2.69,79.34a36.8,36.8,0,0,0,3.19,10,15.61,15.61,0,0,0,4.68,5.76,9.58,9.58,0,0,0,5.59,1.88,12.32,12.32,0,0,0,6.35-1.79A24.29,24.29,0,0,0,28.37,90,50.48,50.48,0,0,0,33.93,82q2.7-4.75,5.39-10.7,2.45-5.51,4.77-11.57T48.6,47.76q2.2-5.85,4.25-11a80.22,80.22,0,0,1,4-8.69,8.84,8.84,0,0,1,1-1.53c.33-.37.63-.51.92-.39.47.17.74.8.79,1.88a16.93,16.93,0,0,1-.21,3.54c-.14.87-.44,2.18-.91,3.93s-1,3.71-1.66,5.89-1.32,4.52-2,7-1.42,4.88-2.09,7.21Q51.41,60.16,50,65c-.92,3.24-1.77,6.29-2.57,9.18S46,79.66,45.4,82s-1,4-1.14,5.2c-.07.46-.12,1-.16,1.48s0,.85.22,1,.32,0,.49-.3a11.66,11.66,0,0,0,.52-1.18q2.49-6.37,5-14.41t5.72-17.12c1.06-3,2-5.88,3-8.56s1.81-5.24,2.69-7.69,1.75-4.77,2.65-7,1.85-4.36,2.85-6.46a5.44,5.44,0,0,1,.84-1.35c.29-.32.58-.4.88-.22s.51.64.6,1.39a10.87,10.87,0,0,1,0,2.54,44.56,44.56,0,0,1-.86,4.89c-.41,1.8-.91,3.74-1.48,5.81s-1.19,4.23-1.86,6.5l-2,6.9c-.65,2.28-1.31,4.63-2,7.08s-1.34,4.86-2,7.25-1.21,4.7-1.76,6.94-1,4.27-1.43,6.07c-.31,1.34-.56,2.55-.74,3.63A25.69,25.69,0,0,0,55.07,87c-.09,2,.2,3.2.87,3.5.47.17,1.06-.08,1.76-.75A8.78,8.78,0,0,0,59.57,87a6.44,6.44,0,0,0,.43-1c.07-.23.13-.29.17-.17s-.08.67-.44,1.48a11.41,11.41,0,0,1-1.71,3,2.86,2.86,0,0,1-2.21,1.31c-.79,0-1.37-.52-1.75-1.57a11,11,0,0,1-.5-4,46,46,0,0,1,1.07-8q.91-4.45,2.35-10T60,57.11q1.2-4,2.6-8.56t2.6-8.6q1.22-4.06,2.07-7.12t1-4a3.62,3.62,0,0,0,0-1.92q-.19-.34-.54.09a5.55,5.55,0,0,0-.63,1.13q-1.41,3.06-2.72,6.38c-.88,2.21-1.75,4.53-2.61,6.94s-1.74,5-2.63,7.6-1.85,5.4-2.86,8.25q-1.58,4.55-3.14,9.26t-3,9q-1.41,4.33-2.63,7.86t-2.14,5.73A11.26,11.26,0,0,1,44.59,91q-.41.66-.84.57c-.33-.06-.6-.39-.8-1A7.49,7.49,0,0,1,42.71,88c0-.93.17-2.07.37-3.41s.44-2.65.71-3.93q.7-3.22,1.42-6t1.5-5.46q.76-2.67,1.61-5.46t1.78-6.12c.74-2.67,1.42-5.08,2.06-7.2L54,44.18l1.86-6.29q1-3.22,2.07-7.33c.17-.64.3-1.21.38-1.71a2,2,0,0,0-.05-1.09c-.25-.4-.66-.05-1.24,1a53.48,53.48,0,0,0-2.65,5.55c-.92,2.18-1.87,4.53-2.84,7s-2,5.12-3,7.86l-3,8.17q-1.48,4-2.94,7.86t-2.82,6.94a104.64,104.64,0,0,1-5.44,11,46.08,46.08,0,0,1-5.67,8,22.57,22.57,0,0,1-6,4.9,13.82,13.82,0,0,1-6.52,1.66Z" transform="translate(-0.19 -25.05)" style="fill: #fff"/>
    <path d="M72.12,79.3q0,1-2.28,5.64Q68.06,88.47,67,88.47c-.69,0-1-.71-1-2.12a23.08,23.08,0,0,1,1.85-7.49l-.07-.18q-4.5,9.79-6,9.79c-.74,0-1.11-.71-1.11-2.11q0-3.44,3-11v-.09c-.36.64-.9,1.69-1.61,3.14-.27.64-.67,1.55-1.21,2.71-.14.23-.25.35-.34.35l0-.18A21.14,21.14,0,0,1,62.62,76c1.17-2.1,2.08-3.15,2.76-3.15a.36.36,0,0,1,.4.27q0,.18-1.85,6.37a33.1,33.1,0,0,0-1.51,6.36,3.41,3.41,0,0,1,.1.36c0,.18.12.27.24.27q.8,0,6.68-12.65c.29-.65.61-1,1-1s.71.15.71.44A59,59,0,0,1,69.42,79a32.24,32.24,0,0,0-1.69,6.63,2.29,2.29,0,0,0,.06.58c0,.14.11.22.2.22q1.16,0,3.7-6.72l.43-.53Z" transform="translate(-0.19 -25.05)" style="fill: #fff"/>
    <path d="M79.11,79.82q0,1.14-2.15,5t-4,3.84c-1.19,0-1.78-1-1.78-3.14a19.75,19.75,0,0,1,1-5.85h0a8,8,0,0,1-.94,1.83V81.3a2.16,2.16,0,0,1,0-.35A19.58,19.58,0,0,1,74,75.66c1.32-1.89,2.34-2.83,3.08-2.83s1.17.82,1.17,2.45a9.33,9.33,0,0,1-.36,2.57c-.23.85-.51,1.27-.82,1.27s-.47-.41-.47-1.22a9.43,9.43,0,0,1,.27-1.75,9.27,9.27,0,0,0,.27-1.83c0-.41-.11-.61-.34-.61-.56,0-1.34,1.56-2.35,4.7a25.59,25.59,0,0,0-1.51,7.16c0,1.12.26,1.67.77,1.67q1.38,0,5.38-7.51h0Z" transform="translate(-0.19 -25.05)" style="fill: #fff"/>
    <path d="M96.47,79.3q0,1-2.32,5.64c-1.21,2.35-2.21,3.53-3,3.53-.65,0-1-.68-1-2a25.27,25.27,0,0,1,1.47-6.63,44.78,44.78,0,0,0,1.48-5c0-.3-.08-.44-.23-.44-.68,0-2.06,2.36-4.17,7.07s-3.38,7.08-3.83,7.08a.47.47,0,0,1-.53-.54A32.21,32.21,0,0,1,86,80.63c1.13-3.67,1.7-5.59,1.7-5.78,0-.35-.09-.53-.27-.53q-.9,0-4.16,7.07c-2.18,4.72-3.44,7.08-3.8,7.08s-.57-.18-.57-.54A40,40,0,0,1,80.55,81q1.62-5.66,1.65-5.74c0-.36-.11-.54-.2-.54-.38,0-1.07,1.14-2,3.41s-1.49,3.41-1.51,3.41-.14-.12-.14-.36a35.45,35.45,0,0,1,2.19-5.38c.89-2,1.67-3,2.35-3s.84.68.84,2q0,1.5-2.15,8.8l.1.09q4.94-10.92,6.51-10.92c.72,0,1.08.68,1.08,2a17.46,17.46,0,0,1-.91,4.49c-.47,1.41-.94,2.85-1.41,4.31l.1.09q4.94-10.92,6.55-10.92c.69,0,1,.65,1,1.94a25,25,0,0,1-1.31,5.76A26.45,26.45,0,0,0,92,85.93l0,.35a.36.36,0,0,0,.24.09c.47,0,1.18-1,2.15-3.06q1.81-3.75,2.08-4.1Z" transform="translate(-0.19 -25.05)" style="fill: #fff"/>
    <path d="M103.65,79.3a3.82,3.82,0,0,1-.3,1,27.21,27.21,0,0,1-2.75,5.59q-1.78,2.71-3.29,2.71c-1.23,0-1.85-1.08-1.85-3.23a18.59,18.59,0,0,1,.81-5.15h0c-.34.87-.57,1.31-.7,1.31s0,0-.07-.09V81.3l0-.35a22,22,0,0,1,2.77-5.38c1.31-1.83,2.39-2.74,3.23-2.74.65,0,1,.76,1,2.29q0,3.94-5.07,8.17a23.49,23.49,0,0,0-.2,2.37c0,1.06.25,1.58.77,1.58.69,0,1.51-.7,2.45-2.09a33.2,33.2,0,0,0,2.12-3.93c.64-1.46,1-2.19,1-2.19S103.65,79.12,103.65,79.3Zm-2.35-4.62c0-.53-.13-.8-.4-.8-.45,0-1.06,1.13-1.85,3.39a43.34,43.34,0,0,0-1.44,5.08v.09A9.77,9.77,0,0,0,101.3,74.68Z" transform="translate(-0.19 -25.05)" style="fill: #fff"/>
    <path d="M114.57,79.21q-.07,1.32-2.32,5.73c-1.19,2.35-2.19,3.53-3,3.53s-1.11-.68-1.11-2a21.91,21.91,0,0,1,1.53-6.63,30.83,30.83,0,0,0,1.52-5c0-.3-.09-.45-.26-.45q-1.75,0-6.79,16.28-2,6.48-6.41,22.4c-.42,1.63-.85,3.27-1.28,4.9a34,34,0,0,1-1.37,4.24c-.32.67-.58,1-.81,1-.51,0-.77-.73-.77-2.18a28.26,28.26,0,0,1,1.11-6.45q6.64-25.2,12-41.77l0-.08q-3.57,8.64-3.86,8.64.16-1,5.81-14.32c.49-1.17.92-1.75,1.3-1.75s.51.12.51.35a14.89,14.89,0,0,1-.54,1.83q-1.85,5.59-6.18,20.44-4,13.45-6.55,23.32a82.41,82.41,0,0,0-2.14,9.09v.26q0,.09.06.09.38,0,3.73-12.43,4.23-15.66,6.72-23,4.13-12.44,6.34-12.43c.7,0,1,.59,1,1.77a20.61,20.61,0,0,1-1.39,5.8A21.53,21.53,0,0,0,110,85.66c0,.53.11.8.33.8.49,0,1.3-1.19,2.42-3.58A28.47,28.47,0,0,1,114.57,79.21Z" transform="translate(-0.19 -25.05)" style="fill: #fff"/>
    <path d="M125.28,79.3q0,1-2.29,5.64c-1.18,2.35-2.15,3.53-2.88,3.53s-1-.71-1-2.12a23.08,23.08,0,0,1,1.85-7.49l-.07-.18q-4.5,9.79-6,9.79c-.74,0-1.11-.71-1.11-2.11q0-3.44,3-11v-.09c-.36.64-.89,1.69-1.61,3.14-.27.64-.67,1.55-1.21,2.71-.13.23-.25.35-.34.35l0-.18A21.14,21.14,0,0,1,115.77,76q1.76-3.15,2.76-3.15a.36.36,0,0,1,.4.27q0,.18-1.85,6.37a34,34,0,0,0-1.51,6.36,3.41,3.41,0,0,1,.1.36q.08.27.24.27.81,0,6.68-12.65c.29-.65.62-1,1-1s.71.15.71.44a59,59,0,0,1-1.7,5.76,32.24,32.24,0,0,0-1.69,6.63,1.87,1.87,0,0,0,.07.58c0,.14.11.22.2.22q1.14,0,3.69-6.72l.44-.53Z" transform="translate(-0.19 -25.05)" style="fill: #fff"/>
    <path d="M135.85,79.38a3.5,3.5,0,0,1-.33,1.05q-2.6,6.38-4.1,11-2.79,8.46-6.14,21-1.11,4.19-1.38,5.06a41.19,41.19,0,0,1-1.46,4.5c-.35.79-.68,1.18-1,1.18s-.64-.64-.64-1.92q0-3.24,4.37-18.87l6.71-24.11-.1-.08q-4.9,10.22-6.31,10.22-.87,0-.87-2.1,0-3.93,2.92-11v-.09c-.36.64-.9,1.69-1.61,3.14-.27.64-.68,1.55-1.21,2.71-.14.23-.25.35-.34.35l0-.18q0-.9,2.51-6c.81-1.62,1.62-2.43,2.42-2.43a.49.49,0,0,1,.41.27v.18q0,.09-1.68,5.7a37.58,37.58,0,0,0-1.68,6.86c0,.35.06.53.2.53q.7,0,3.39-5.45c1.14-2.34,2.27-4.72,3.39-7.12.32-.64.64-1,1-1s.67.15.67.44q-12.73,44.9-12.73,47.08a1,1,0,0,0,0,.22c0,.08,0,.13.07.13q.27,0,.84-2,2.82-10.22,5.68-20.44a141.45,141.45,0,0,1,6.54-18.52c.18-.4.31-.61.37-.61S135.85,79.21,135.85,79.38Z" transform="translate(-0.19 -25.05)" style="fill: #fff"/>
    <path d="M142.77,79.82q0,1.14-2.15,5t-4,3.84c-1.19,0-1.78-1-1.78-3.14a20.08,20.08,0,0,1,1-5.85h0a7.59,7.59,0,0,1-.94,1.83V81.3a2.16,2.16,0,0,1,0-.35,19.87,19.87,0,0,1,2.74-5.29c1.32-1.89,2.34-2.83,3.08-2.83s1.17.82,1.17,2.45a9.33,9.33,0,0,1-.36,2.57c-.23.85-.5,1.27-.82,1.27s-.47-.41-.47-1.22a9.43,9.43,0,0,1,.27-1.75,9.27,9.27,0,0,0,.27-1.83c0-.41-.11-.61-.34-.61-.56,0-1.34,1.56-2.35,4.7a26,26,0,0,0-1.51,7.16c0,1.12.26,1.67.77,1.67q1.38,0,5.38-7.51h0Z" transform="translate(-0.19 -25.05)" style="fill: #fff"/>
  </g>
</svg>
