<svg xmlns="http://www.w3.org/2000/svg" viewBox="0 0 139.04 114.07">
  <g>
    <path d="M43,49.2c-.47,1-1,2.39-1.67,4.19s-1.31,3.8-2,6-1.38,4.47-2.06,6.86S36,70.9,35.46,73.09s-.93,4.16-1.22,5.94a18.07,18.07,0,0,0-.3,4.14,11.12,11.12,0,0,0,.45,2.45.94.94,0,0,0,1.19.7,6.13,6.13,0,0,0,3.29-2.66A29.81,29.81,0,0,0,42,78a30.86,30.86,0,0,0,1.89-5.76,22.86,22.86,0,0,0,.62-5.77,5.6,5.6,0,0,0-.39-2c-.23-.52-.56-.73-1-.61a2.29,2.29,0,0,0-1.23.83,10.06,10.06,0,0,0-1.27,1.88,19.21,19.21,0,0,0-1.14,2.53c-.34.93-.63,1.84-.88,2.71-.14.64-.23,1.11-.29,1.4s-.11.38-.16.26-.06-.28,0-.66.12-.74.2-1.09a30.6,30.6,0,0,1,.91-3,19.38,19.38,0,0,1,1.19-2.71,10,10,0,0,1,1.38-2,3,3,0,0,1,1.42-1,1.3,1.3,0,0,1,1.39.57,5.45,5.45,0,0,1,.62,2.75,20.74,20.74,0,0,1-.74,5.9,38.93,38.93,0,0,1-2.22,6.16,34.29,34.29,0,0,1-3.33,6,6.11,6.11,0,0,1-3.53,2.75l-.05.09a2.38,2.38,0,0,1-2.38-1Q32,85,31.84,81.17a31.41,31.41,0,0,1,.62-6.86,69.81,69.81,0,0,1,1.91-7.56c.8-2.62,1.72-5.29,2.75-8s2.08-5.49,3.15-8.26,2.11-5.5,3.14-8.21,1.93-5.32,2.71-7.86A72.54,72.54,0,0,0,48,27.1a29,29,0,0,0,.62-6.46,4.92,4.92,0,0,0-.76-2.89,1.52,1.52,0,0,0-1.5-.61,6.46,6.46,0,0,0-2.8,2,38.58,38.58,0,0,0-3.35,4.19C39.07,25,38,26.69,37,28.5s-1.85,3.37-2.45,4.71l-.33.7c-.66,2.86-1.49,5.83-2.51,8.91s-2.09,6.26-3.24,9.52c-.28.82-.54,1.6-.81,2.36s-.51,1.51-.76,2.27q-2.05,5.76-4.15,11.36t-4,10a62.13,62.13,0,0,1-3.58,7.12c-1.11,1.84-2.06,2.84-2.86,3-.57.11-.89-.41-.94-1.58a12.18,12.18,0,0,1,.47-3.36c.34-1.31.79-2.72,1.34-4.24s1.15-3.08,1.82-4.71l2-4.72q3.69-8.73,7-15.81T30,41.07c.52-1.68,1-3.42,1.48-5.19s.87-3.54,1.21-5.29.6-3.49.78-5.24a31.23,31.23,0,0,0,.14-5,18.65,18.65,0,0,0-1.15-6,9,9,0,0,0-2.3-3.49,5.63,5.63,0,0,0-3-1.4A7,7,0,0,0,24,9.8a12.27,12.27,0,0,0-3.89,1.93A25.64,25.64,0,0,0,16.34,15a37.79,37.79,0,0,0-3.27,4,34.13,34.13,0,0,0-2.48,3.93q-1.73,3.32-3.15,6.77a57.56,57.56,0,0,0-2.38,7.07,50.79,50.79,0,0,0-1.4,7.47,48.76,48.76,0,0,0-.23,7.86c.2,3.9,1,6.89,2.29,9S8.79,63.81,11,63.17a10.48,10.48,0,0,0,4.52-3.32,28.21,28.21,0,0,0,4.64-8.21,60,60,0,0,0,2.61-8.16,29.5,29.5,0,0,0,.81-8.35,8.93,8.93,0,0,0-1.2-4.45,2,2,0,0,0-2.42-1,6.35,6.35,0,0,0-3.19,2.36,14.24,14.24,0,0,0-2.11,3.67,6,6,0,0,0-.52,1.31c0,.23-.09.29-.14.17s0-.22.08-.65a9.17,9.17,0,0,1,.37-1.18,16.39,16.39,0,0,1,.88-1.92,13.76,13.76,0,0,1,1.26-2,10.22,10.22,0,0,1,1.52-1.62,4.81,4.81,0,0,1,1.77-1,2.85,2.85,0,0,1,3,1.09c.86,1,1.37,2.76,1.54,5.2a30.16,30.16,0,0,1-.95,8.91,60.07,60.07,0,0,1-2.87,8.65,32.33,32.33,0,0,1-2.22,4.37,25.16,25.16,0,0,1-2.43,3.31,14.28,14.28,0,0,1-2.47,2.28A8.51,8.51,0,0,1,11.12,64a4.94,4.94,0,0,1-5.75-2.14q-2.22-3.1-2.55-9.65a43,43,0,0,1,.27-7.69,59.41,59.41,0,0,1,1.45-7.64A61.52,61.52,0,0,1,7,29.41a72.48,72.48,0,0,1,3.27-7,32.34,32.34,0,0,1,2.51-4.1,36.1,36.1,0,0,1,3.24-4A24.41,24.41,0,0,1,19.77,11a14.17,14.17,0,0,1,4.05-2,7.14,7.14,0,0,1,3.91-.13A7.39,7.39,0,0,1,31.24,11a13.29,13.29,0,0,1,2.7,4.46,25.14,25.14,0,0,1,1.43,7,37.28,37.28,0,0,1-.78,9.61l.21-.44q.9-1.92,2.36-4.5a50.37,50.37,0,0,1,3.13-4.85,40.14,40.14,0,0,1,3.3-4,6.31,6.31,0,0,1,2.88-2,2.75,2.75,0,0,1,1.3.13,2.25,2.25,0,0,1,1.13,1,5.91,5.91,0,0,1,.78,1.92A12.66,12.66,0,0,1,50,22.29a41.53,41.53,0,0,1-.5,5.9,52.19,52.19,0,0,1-1.33,6Q47.26,37.32,46,41T43,49.2ZM27.32,49c.22-.64.46-1.32.72-2.05s.51-1.47.76-2.23l-.33.7q-1.81,3.84-4.69,10.13T17.37,70.25c-.69,1.57-1.36,3.22-2,4.93S14.07,78.52,13.57,80s-.91,2.88-1.22,4.11a10.94,10.94,0,0,0-.41,2.7c0,.7.11,1,.5.88s1-.69,1.62-1.88,1.28-2.68,2-4.46,1.44-3.72,2.18-5.85,1.47-4.18,2.18-6.16q1.77-4.89,3.15-9t2.69-8.17c.16-.52.28-.88.35-1.09s.12-.36.16-.48.1-.27.17-.48S27.12,49.6,27.32,49Z" transform="translate(-2.76 -8.68)" style="fill: #fff"/>
    <path d="M54.9,84.45Q52.85,88,51.36,88c-.79,0-1.19-.71-1.19-2.13a7.24,7.24,0,0,1,.58-2.94h0Q48.11,88,46.06,88q-1.56,0-1.56-2.91a14.22,14.22,0,0,1,1.15-5.39h0c-.41.93-.67,1.4-.78,1.4A.14.14,0,0,1,44.7,81v-.17l0-.35a18.33,18.33,0,0,1,3.43-5.37q2.4-2.76,3.84-2.76t1.44,2.28a9.51,9.51,0,0,1-.08,1.13h0c.93-2.27,1.78-3.41,2.55-3.41.35,0,.53.09.53.27s-.7,2.06-2.1,5.67-2.09,6-2.09,7.16l.08.44a.48.48,0,0,0,.29.09c.57,0,1.53-1.21,2.86-3.63a36.74,36.74,0,0,1,2.15-3.71l0,.09Q57.73,79.61,54.9,84.45ZM53.09,75c0-1-.26-1.57-.78-1.57q-1.06,0-3.56,5.07c-1.66,3.38-2.48,5.76-2.48,7.16,0,.7.17,1,.53,1q1.19,0,3.74-4.72T53.09,75Z" transform="translate(-2.76 -8.68)" style="fill: #fff"/>
    <path d="M66.24,79.33c0,.76-.87,2.42-2.63,5s-3.37,3.84-4.85,3.84-2.18-1-2.18-3.14a16.47,16.47,0,0,1,1.2-5.85h0A7.36,7.36,0,0,1,56.58,81v-.17a2.2,2.2,0,0,1,0-.36A18.73,18.73,0,0,1,60,75.17c1.61-1.88,2.86-2.83,3.76-2.83s1.43.82,1.43,2.45a7.94,7.94,0,0,1-.43,2.58c-.28.84-.62,1.26-1,1.26s-.58-.4-.58-1.22a7.85,7.85,0,0,1,.33-1.75,7.71,7.71,0,0,0,.33-1.83c0-.41-.14-.61-.41-.61q-1,0-2.88,4.7a21.86,21.86,0,0,0-1.85,7.16c0,1.12.31,1.68.94,1.68q1.7,0,6.58-7.52h0Z" transform="translate(-2.76 -8.68)" style="fill: #fff"/>
    <path d="M87.49,78.81q0,1.05-2.83,5.64Q82.44,88,81,88c-.8,0-1.19-.68-1.19-2a21.32,21.32,0,0,1,1.8-6.64,38.24,38.24,0,0,0,1.81-5c0-.29-.09-.44-.28-.44q-1.25,0-5.1,7.07T73.31,88q-.66,0-.66-.54c0-1.19.7-3.63,2.08-7.3s2.08-5.59,2.08-5.77q0-.54-.33-.54-1.11,0-5.1,7.07T66.74,88c-.47,0-.7-.18-.7-.53,0-.84.65-3.14,2-6.91l2-5.74c0-.36-.13-.53-.24-.53-.47,0-1.3,1.13-2.51,3.4s-1.82,3.41-1.85,3.41-.16-.12-.16-.36.89-2.14,2.67-5.38q1.63-3,2.88-3c.68,0,1,.68,1,2,0,1-.87,3.93-2.63,8.8l.13.09q6-10.92,8-10.92c.88,0,1.32.68,1.32,2a14.49,14.49,0,0,1-1.11,4.49q-.87,2.11-1.73,4.31l.12.09q6-10.92,8-10.92c.85,0,1.27.65,1.27,1.94A20.94,20.94,0,0,1,83.59,80a22.13,22.13,0,0,0-1.6,5.4l0,.35a.47.47,0,0,0,.28.09c.58,0,1.46-1,2.64-3,1.48-2.51,2.32-3.88,2.54-4.11Z" transform="translate(-2.76 -8.68)" style="fill: #fff"/>
    <path d="M97.69,78.89A6.4,6.4,0,0,1,96.13,82c-1,1.4-1.77,2.1-2.18,2.1a.86.86,0,0,1-.74-.27c-1.92,2.86-3.48,4.28-4.69,4.28s-2-1.07-2-3.23a15.68,15.68,0,0,1,1.15-6v-.08c-.71,1.51-1.15,2.27-1.32,2.27s0,0,0-.09v-.17l0-.35a21.78,21.78,0,0,1,3.45-5.42q2.35-2.62,4-2.71l.25.44a4.43,4.43,0,0,1-.45.52,21.46,21.46,0,0,0-3.25,5.51,18.58,18.58,0,0,0-2.09,7.25c0,.81.19,1.22.57,1.22q1.61,0,3.82-5.39c.36-3.06,1-5.07,2.06-6a13.53,13.53,0,0,0,.12-2.21,2.77,2.77,0,0,0-.06-.49,2.58,2.58,0,0,1-.06-.48q0-.36.24-.36c.25,0,.46.37.64,1.11a8.57,8.57,0,0,1,.27,2,18.55,18.55,0,0,1-2.34,7.81.4.4,0,0,0,.24.09c.63,0,1.34-.7,2.14-2.1a9.55,9.55,0,0,1,1.73-2.53A.59.59,0,0,1,97.69,78.89Z" transform="translate(-2.76 -8.68)" style="fill: #fff"/>
    <path d="M111.13,78.72c-.06.88-1,2.79-2.84,5.73Q106.12,88,104.59,88q-1.35,0-1.35-2a18.52,18.52,0,0,1,1.87-6.63,28,28,0,0,0,1.87-5c0-.3-.11-.44-.33-.44q-2.15,0-8.3,16.27-2.47,6.48-7.86,22.4l-1.56,4.9a31.27,31.27,0,0,1-1.68,4.25c-.39.67-.71,1-1,1-.63,0-1-.73-1-2.18a23.83,23.83,0,0,1,1.36-6.45q8.14-25.2,14.63-41.77l0-.08q-4.35,8.64-4.72,8.64.19-1,7.11-14.32c.6-1.16,1.14-1.75,1.6-1.75s.62.12.62.35a13.22,13.22,0,0,1-.66,1.84q-2.26,5.58-7.56,20.43-4.86,13.45-8,23.33Q87,118.9,87,119.86v.26c0,.06,0,.09.08.09q.45,0,4.56-12.43,5.19-15.66,8.23-23,5.05-12.42,7.76-12.43c.85,0,1.28.59,1.28,1.77a17.48,17.48,0,0,1-1.71,5.8,18.68,18.68,0,0,0-1.7,5.26c0,.54.13.8.41.8q.9,0,3-3.58A28.12,28.12,0,0,1,111.13,78.72Z" transform="translate(-2.76 -8.68)" style="fill: #fff"/>
    <path d="M120.13,84.45Q118.08,88,116.6,88q-1.2,0-1.2-2.13a7.41,7.41,0,0,1,.58-2.94h0Q113.35,88,111.29,88q-1.56,0-1.56-2.91a14.41,14.41,0,0,1,1.15-5.39h0c-.41.93-.67,1.4-.78,1.4a.13.13,0,0,1-.12-.09v-.17l0-.35a18.54,18.54,0,0,1,3.43-5.37q2.4-2.76,3.84-2.76t1.44,2.28a9.51,9.51,0,0,1-.08,1.13h0c.93-2.27,1.78-3.41,2.55-3.41.35,0,.53.09.53.27s-.69,2.06-2.09,5.67-2.1,6-2.1,7.16l.08.44a.5.5,0,0,0,.29.09q.87,0,2.86-3.63a37.76,37.76,0,0,1,2.16-3.71l0,.09Q123,79.61,120.13,84.45ZM118.32,75c0-1-.26-1.57-.78-1.57-.71,0-1.9,1.69-3.55,5.07s-2.49,5.76-2.49,7.16c0,.7.18,1,.53,1,.8,0,2-1.57,3.74-4.72S118.32,76.48,118.32,75Z" transform="translate(-2.76 -8.68)" style="fill: #fff"/>
    <path d="M134.52,78.89c-.08.82-1,2.62-2.67,5.42q-2.07,3.41-3.46,3.41c-.77,0-1.15-.73-1.15-2.19a20.92,20.92,0,0,1,1.44-5.67q-2.06,3.93-2.75,5c-1.24,1.93-2.26,2.89-3.09,2.89s-1.19-.67-1.19-2c0-.35,0-.7,0-1h0c.22-1.51.72-2.27,1.48-2.27.47,0,.7.3.7.89,0,.18,0,.48-.08.9a9.13,9.13,0,0,0-.08,1c0,.06,0,.26.08.62a.4.4,0,0,0,.25.09q.78,0,3.9-5.62,1.94-3.62,3.91-7.21a1.4,1.4,0,0,1,1.31-.53c.22,0,.33.12.33.35s-.7,1.95-2.1,5.5-2.09,5.8-2.09,6.73c.08.52.18.78.28.78.47,0,1.31-1.12,2.51-3.36S134.13,79.07,134.52,78.89Z" transform="translate(-2.76 -8.68)" style="fill: #fff"/>
    <path d="M141.79,78.81a8.08,8.08,0,0,1-1.23,2.73c-.58.88-1.48,2.24-2.71,4.06l-.33.17c-1.26,1.47-2.21,2.21-2.84,2.21-.93,0-1.4-.71-1.4-2.12a18.44,18.44,0,0,1,.66-3.61,19.8,19.8,0,0,1,1.39-4l.21-.62C134,79.86,133.22,81,133.16,81l0-.26c0-.3,1.2-2.22,3.62-5.75a8.83,8.83,0,0,1,.49-.89c.71-1.16,1.3-1.75,1.77-1.75s.65.09.74.27q-1.2,3.17-2.35,6.33-1.84,5-1.85,6.24a1.81,1.81,0,0,0,.13.4q.12.3.33.3c.35,0,.89-.7,1.6-2.09.19-1.81.64-2.91,1.36-3.32V78.63l0-.09c0-.05.05-.08.08-.08q.66,0,.66,1.83a7.82,7.82,0,0,1-.91,3.23c.28-.52.71-1.31,1.32-2.35a12.94,12.94,0,0,1,1.6-2.54A.39.39,0,0,1,141.79,78.81Z" transform="translate(-2.76 -8.68)" style="fill: #fff"/>
  </g>
</svg>
