<svg xmlns="http://www.w3.org/2000/svg" viewBox="0 0 142.07 99.66">
  <g>
    <path d="M20.42,94.49a2.89,2.89,0,0,1-1.2-.26,2.69,2.69,0,0,1-1.12-1,6.5,6.5,0,0,1-.85-1.83,10.77,10.77,0,0,1-.38-2.89,17.68,17.68,0,0,1,.54-4.93A23.54,23.54,0,0,1,19.09,79a27.09,27.09,0,0,1,2.51-4.1,42.59,42.59,0,0,1,2.95-3.58A46.46,46.46,0,0,1,30,66.24a55.1,55.1,0,0,1,5.34-3.71l2-6.64q1-3.31,2-6.29c1-3.09,2.06-5.88,3.13-8.39s2.07-4.63,3-6.37A10.83,10.83,0,0,1,42.31,37a11.49,11.49,0,0,1-3.7.87,11.7,11.7,0,0,1-3.06-.21,10.85,10.85,0,0,1-2.77-1,15.87,15.87,0,0,1-2.64-1.75c-.87-.69-1.77-1.48-2.7-2.35q-1.77-1.66-3.23-3.06a22.57,22.57,0,0,0-2.89-2.36,14.22,14.22,0,0,0-2.94-1.53A9.57,9.57,0,0,0,15,25.05a9.42,9.42,0,0,0-3,.53,11.18,11.18,0,0,0-3.13,1.66,15.72,15.72,0,0,0-3,2.92,19.48,19.48,0,0,0-2.52,4.28,27.69,27.69,0,0,0-1.74,5.77A38.35,38.35,0,0,0,1,47.59a33.54,33.54,0,0,0,1.11,9.3A19.19,19.19,0,0,0,5,63.05a10.55,10.55,0,0,0,4,3.36,10.22,10.22,0,0,0,4.33,1,9.34,9.34,0,0,0,4.19-1,12,12,0,0,0,3.79-3.06A16.3,16.3,0,0,0,24,58.38a19.44,19.44,0,0,0,1.06-6.6,19.85,19.85,0,0,0-.7-5.68,11.16,11.16,0,0,0-1.79-3.66,6.16,6.16,0,0,0-2.47-2,7.18,7.18,0,0,0-2.76-.57,6.09,6.09,0,0,0-3.12.88,8.42,8.42,0,0,0-2.59,2.44,2.83,2.83,0,0,0-.4.66c-.08.2-.13.25-.16.13a1,1,0,0,1,.13-.53c.1-.23.2-.43.29-.61a10.45,10.45,0,0,1,2.56-3.32,5.07,5.07,0,0,1,3.32-1.31,6.16,6.16,0,0,1,2.89.75,7.35,7.35,0,0,1,2.57,2.35,13,13,0,0,1,1.84,4.2,24,24,0,0,1,.7,6.24,22.37,22.37,0,0,1-1.06,7.12,18.91,18.91,0,0,1-2.77,5.46,12.44,12.44,0,0,1-3.87,3.49,8.86,8.86,0,0,1-4.4,1.23,9.21,9.21,0,0,1-4.44-1.23,12.05,12.05,0,0,1-4-3.8,21.85,21.85,0,0,1-3-6.63A36.82,36.82,0,0,1,.7,47.59,36.42,36.42,0,0,1,2.12,36.76,25.47,25.47,0,0,1,5.7,29.29,14.94,14.94,0,0,1,10.38,25a9.82,9.82,0,0,1,4.71-1.4,14.87,14.87,0,0,1,3.76.44A12.71,12.71,0,0,1,22,25.32a25.14,25.14,0,0,1,3,2.05C26,28.16,27,29,28.17,30c.91.75,1.76,1.54,2.58,2.35a32.81,32.81,0,0,0,2.43,2.23,13.52,13.52,0,0,0,2.52,1.66,7,7,0,0,0,2.84.74,8.88,8.88,0,0,0,3.39-.48,9.32,9.32,0,0,0,3.46-2.4A15.16,15.16,0,0,0,47.13,32c.46-.7,1-1.58,1.6-2.63a4.33,4.33,0,0,1,.57-.83.69.69,0,0,1,.47-.21c.09,0,.18.1.26.3a1.38,1.38,0,0,1,0,.74,2.52,2.52,0,0,1-.43,1.23,14.47,14.47,0,0,1-1,1.22l-1.12,1.31c-.34.41-.7.87-1.07,1.4a39.55,39.55,0,0,0-1.92,4.58q-.9,2.58-2,6.42c-.83,2.8-1.61,5.46-2.33,8s-1.41,5-2.09,7.46c.68-.35,1.36-.7,2.06-1s1.41-.73,2.15-1.14l2.51-1.4a26.79,26.79,0,0,0,2.47-1.57c1-3,1.93-5.79,2.88-8.3S52,42.84,52.73,41s1.64-3.67,2.57-5.42,1.86-3.3,2.78-4.67a17,17,0,0,1,2.72-3.23,3.77,3.77,0,0,1,2.36-1.18q.77,0,1.32,1.05A7.11,7.11,0,0,1,65,30.91a14.56,14.56,0,0,1-.78,4.36,31.16,31.16,0,0,1-1.89,4.5,43.93,43.93,0,0,1-2.56,4.33c-.94,1.39-1.86,2.65-2.77,3.75a41.64,41.64,0,0,1-7.58,7.25c-.6,2-1.19,4-1.75,6.2s-1.18,4.54-1.83,7.16q-1.35,5.6-2.24,9.79a40.13,40.13,0,0,0-1,7A7.4,7.4,0,0,0,43,88.12a1.69,1.69,0,0,0,1,1q.63.17,1.53-.75A15.14,15.14,0,0,0,47.72,85a14.21,14.21,0,0,0,.66-1.26c.23-.5.46-1,.68-1.44s.43-.92.62-1.36.36-.8.47-1.09.21-.47.33-.7.22-.29.26-.17a2.35,2.35,0,0,1-.27,1.13L50,81.17c-.2.5-.44,1-.69,1.62s-.51,1.13-.77,1.66-.46,1-.62,1.31q-2.66,5.07-4.39,5.07a2.28,2.28,0,0,1-2.06-1.45,9.92,9.92,0,0,1-.68-4.58c0-1,.08-2.08.19-3.1s.26-2.14.49-3.37.49-2.56.81-4,.71-3.12,1.15-5c.53-2.21,1.1-4.37,1.69-6.46s1.19-4.11,1.79-6c-.74.46-1.51.92-2.3,1.35l-2.29,1.27c-.81.47-1.59.87-2.33,1.22s-1.46.73-2.16,1.14c-.81,2.79-1.61,5.49-2.4,8.08S33.79,75,32.87,77.46s-1.81,4.53-2.79,6.6a40.63,40.63,0,0,1-3,5.41,17,17,0,0,1-3.22,3.67,5.32,5.32,0,0,1-3.39,1.35Zm.48-.87a4.1,4.1,0,0,0,2.79-1.22,13.75,13.75,0,0,0,2.46-3.19,34.88,34.88,0,0,0,2.14-4.37q1-2.4,1.83-4.85t2.16-7q1.28-4.45,2.78-9.52a48.23,48.23,0,0,0-5.15,3.67,52.89,52.89,0,0,0-5.18,4.89,25,25,0,0,0-4.89,7.42,22,22,0,0,0-1.68,9.08c.06,3.38,1,5.07,2.71,5.07ZM49.77,54a39.24,39.24,0,0,0,7.13-6.9q1.24-1.57,2.49-3.45a31.67,31.67,0,0,0,2.22-4,29.49,29.49,0,0,0,1.62-4.37,16.41,16.41,0,0,0,.63-4.5,5.91,5.91,0,0,0-.33-2.09c-.22-.59-.54-.88-1-.88a2.78,2.78,0,0,0-1.91.88A10.74,10.74,0,0,0,58.81,31,34.69,34.69,0,0,0,57,34.66c-.62,1.4-1.25,2.92-1.9,4.54q-1.67,4.2-2.94,7.65C51.31,49.15,50.51,51.52,49.77,54Z" transform="translate(-0.7 -23.57)" style="fill: #fff"/>
    <path d="M58.33,84.94q-1.74,3.53-3,3.53c-.67,0-1-.71-1-2.14a8.62,8.62,0,0,1,.48-2.93h0q-2.19,5.07-3.93,5.07c-.88,0-1.32-1-1.32-2.92a16.48,16.48,0,0,1,1-5.38h0c-.35.93-.57,1.4-.67,1.4a.11.11,0,0,1-.1-.09V81.3l0-.34a19.14,19.14,0,0,1,2.9-5.38c1.36-1.83,2.44-2.75,3.25-2.75s1.22.76,1.22,2.27A9.4,9.4,0,0,1,57,76.24h0c.79-2.27,1.51-3.41,2.16-3.41q.45,0,.45.27t-1.77,5.67c-1.18,3.6-1.78,6-1.78,7.16l.07.44a.37.37,0,0,0,.25.09c.49,0,1.29-1.21,2.42-3.63a40.48,40.48,0,0,1,1.82-3.71l0,.09Q60.73,80.1,58.33,84.94ZM56.8,75.45c0-1-.22-1.57-.67-1.57q-.9,0-3,5.07T51,86.11q0,1,.45,1c.68,0,1.73-1.58,3.17-4.72S56.8,77,56.8,75.45Z" transform="translate(-0.7 -23.57)" style="fill: #fff"/>
    <path d="M67.93,79.82c0,.76-.75,2.42-2.23,5s-2.85,3.84-4.1,3.84-1.85-1-1.85-3.14a19.25,19.25,0,0,1,1-5.85h0a7.85,7.85,0,0,1-1,1.83V81.3a1.45,1.45,0,0,1,0-.35,19.26,19.26,0,0,1,2.83-5.29q2.06-2.84,3.19-2.83c.81,0,1.21.82,1.21,2.45a9.33,9.33,0,0,1-.36,2.57c-.25.85-.53,1.27-.86,1.27s-.48-.41-.48-1.22a8.86,8.86,0,0,1,.28-1.75,9.27,9.27,0,0,0,.27-1.83c0-.41-.11-.61-.34-.61-.58,0-1.4,1.56-2.44,4.7a25,25,0,0,0-1.56,7.16c0,1.12.26,1.67.8,1.67q1.43,0,5.56-7.51h0Z" transform="translate(-0.7 -23.57)" style="fill: #fff"/>
    <path d="M85.91,79.3q0,1-2.4,5.64-1.89,3.53-3.13,3.53c-.68,0-1-.68-1-2A24.42,24.42,0,0,1,80.9,79.8a44.5,44.5,0,0,0,1.53-5c0-.3-.08-.44-.24-.44q-1.05,0-4.32,7.07t-4,7.08a.49.49,0,0,1-.56-.54c0-1.19.59-3.63,1.76-7.3s1.75-5.59,1.75-5.78c0-.35-.09-.53-.27-.53q-.95,0-4.32,7.07t-3.93,7.08c-.39,0-.59-.18-.59-.54A38.76,38.76,0,0,1,69.42,81q1.67-5.66,1.7-5.74c0-.36-.11-.54-.2-.54-.4,0-1.11,1.14-2.13,3.41s-1.54,3.41-1.56,3.41-.14-.12-.14-.36a34.41,34.41,0,0,1,2.26-5.38c.93-2,1.74-3,2.44-3s.87.68.87,2c0,1-.75,3.93-2.23,8.8l.1.09q5.11-10.92,6.75-10.92c.74,0,1.11.68,1.11,2a16.85,16.85,0,0,1-.93,4.49c-.49,1.41-1,2.85-1.47,4.31l.11.09q5.12-10.92,6.78-10.92c.72,0,1.08.65,1.08,1.94a23.91,23.91,0,0,1-1.36,5.76,25.55,25.55,0,0,0-1.35,5.4l0,.35a.36.36,0,0,0,.24.09c.49,0,1.23-1,2.23-3.06q1.88-3.75,2.16-4.1Z" transform="translate(-0.7 -23.57)" style="fill: #fff"/>
    <path d="M97.28,79.21q-.07,1.32-2.4,5.73Q93,88.47,91.75,88.47c-.77,0-1.15-.68-1.15-2a21.42,21.42,0,0,1,1.58-6.63,30.6,30.6,0,0,0,1.59-5c0-.3-.1-.45-.28-.45q-1.81,0-7,16.28-2.08,6.48-6.64,22.4L78.5,118a32.6,32.6,0,0,1-1.43,4.24c-.32.67-.6,1-.83,1-.54,0-.8-.73-.8-2.18a27.59,27.59,0,0,1,1.14-6.45Q83.48,89.4,89,72.83l0-.08q-3.69,8.64-4,8.64.18-1,6-14.32c.51-1.17,1-1.75,1.36-1.75s.52.12.52.35a15.17,15.17,0,0,1-.56,1.83q-1.9,5.59-6.4,20.44-4.09,13.45-6.78,23.32a82.23,82.23,0,0,0-2.23,9.09v.26c0,.06,0,.09.07.09q.39,0,3.86-12.43,4.38-15.66,7-23Q92,72.82,94.32,72.83q1.08,0,1.08,1.77A20.13,20.13,0,0,1,94,80.4a21.28,21.28,0,0,0-1.45,5.26c0,.53.12.8.35.8q.77,0,2.51-3.58A29.36,29.36,0,0,1,97.28,79.21Z" transform="translate(-0.7 -23.57)" style="fill: #fff"/>
    <path d="M105.87,79.38a7,7,0,0,1-1.32,3.15c-.88,1.39-1.5,2.09-1.85,2.09a.67.67,0,0,1-.62-.26c-1.62,2.86-3,4.28-4,4.28s-1.7-1.08-1.7-3.23a18.24,18.24,0,0,1,1-6V79.3c-.6,1.51-1,2.27-1.11,2.27s0,0,0-.09V81.3l0-.34a22.55,22.55,0,0,1,2.92-5.42q2-2.62,3.41-2.71l.21.44a3.56,3.56,0,0,1-.38.52,22.29,22.29,0,0,0-2.75,5.51,21.38,21.38,0,0,0-1.78,7.24c0,.82.17,1.23.49,1.23.91,0,2-1.8,3.24-5.39q.45-4.6,1.74-6a17.4,17.4,0,0,0,.1-2.21,3.83,3.83,0,0,0,0-.49,2.5,2.5,0,0,1,0-.48c0-.24.06-.36.2-.36s.39.37.54,1.11a10.23,10.23,0,0,1,.23,2,21.14,21.14,0,0,1-2,7.81.32.32,0,0,0,.21.09q.8,0,1.8-2.1a10.44,10.44,0,0,1,1.46-2.53A.38.38,0,0,1,105.87,79.38Z" transform="translate(-0.7 -23.57)" style="fill: #fff"/>
    <path d="M113.31,79.3a3.61,3.61,0,0,1-.31,1,27.15,27.15,0,0,1-2.85,5.59q-1.84,2.71-3.41,2.71c-1.28,0-1.91-1.08-1.91-3.23a17.94,17.94,0,0,1,.83-5.15h0c-.35.87-.59,1.31-.72,1.31s-.05,0-.07-.09V81.3l0-.35a22.18,22.18,0,0,1,2.88-5.38q2-2.75,3.34-2.74c.67,0,1,.76,1,2.29q0,3.94-5.25,8.17-.21,1.75-.21,2.37c0,1.06.27,1.58.8,1.58.72,0,1.57-.7,2.54-2.09a29.83,29.83,0,0,0,2.19-3.93c.68-1.46,1-2.19,1-2.19S113.31,79.12,113.31,79.3Zm-2.43-4.62c0-.53-.14-.8-.42-.8-.46,0-1.1,1.13-1.91,3.39a40.28,40.28,0,0,0-1.5,5.08v.09A9.64,9.64,0,0,0,110.88,74.68Z" transform="translate(-0.7 -23.57)" style="fill: #fff"/>
    <path d="M124.09,79.82a17.85,17.85,0,0,1-2.36,6.38c-.93,1.51-1.69,2.27-2.3,2.27-.79,0-1.18-.85-1.18-2.54a15.11,15.11,0,0,1,.7-4.28c-.72,1.29-1.49,1.93-2.3,1.93-.6,0-1-.5-1.29-1.49-.32,1.28-.86,3.09-1.6,5.42a1.71,1.71,0,0,1-1.18.7c-.51,0-.76-.24-.76-.7a28.57,28.57,0,0,1,1.56-6c.88-2.8,1.58-4.8,2.09-6v-.08q-2.3,4.71-2.58,4.71s-.07-.06-.07-.17a11.9,11.9,0,0,1,1.88-4.15c1-1.6,1.82-2.4,2.33-2.4s.66.14.66.43-.54,2.13-1.63,5.68a2.14,2.14,0,0,1,.28,1.14,2.77,2.77,0,0,1-.16.91,2.9,2.9,0,0,0-.16.66c0,.52.15.78.46.78.9,0,1.75-.81,2.54-2.44q.06-.09,1.8-4.63c.65-1.69,1.23-2.53,1.74-2.53s.73.17.73.52c0,.12-.52,1.82-1.58,5.11a29.56,29.56,0,0,0-1.58,6.25,3,3,0,0,0,.1.91c.07.21.15.31.25.31.41,0,1.55-2.24,3.4-6.73H124C124,79.73,124.07,79.76,124.09,79.82Z" transform="translate(-0.7 -23.57)" style="fill: #fff"/>
    <path d="M135.33,79.3q0,1-2.37,5.64c-1.23,2.35-2.22,3.53-3,3.53s-1.08-.71-1.08-2.12a22.3,22.3,0,0,1,1.92-7.49l-.07-.18q-4.67,9.79-6.19,9.79c-.77,0-1.15-.71-1.15-2.11q0-3.44,3.13-11v-.09c-.37.64-.93,1.69-1.67,3.14-.28.64-.7,1.55-1.25,2.71-.14.23-.26.35-.35.35l0-.18A20.91,20.91,0,0,1,125.48,76q1.81-3.15,2.86-3.15c.23,0,.37.09.41.27s-.66,2.24-1.91,6.37a32.47,32.47,0,0,0-1.56,6.36c0,.06,0,.18.1.36s.13.27.24.27q.84,0,6.92-12.65c.31-.65.64-1,1-1s.73.15.73.44A55.57,55.57,0,0,1,132.53,79a31.64,31.64,0,0,0-1.76,6.63,1.87,1.87,0,0,0,.07.58c0,.14.12.22.21.22.79,0,2.06-2.24,3.83-6.72l.45-.53Z" transform="translate(-0.7 -23.57)" style="fill: #fff"/>
    <path d="M142.77,79.3a3.61,3.61,0,0,1-.31,1,26.66,26.66,0,0,1-2.86,5.59c-1.22,1.81-2.36,2.71-3.4,2.71-1.28,0-1.92-1.08-1.92-3.23a18,18,0,0,1,.84-5.15h0c-.35.87-.59,1.31-.72,1.31s-.05,0-.08-.09V81.3l0-.35a21.51,21.51,0,0,1,2.88-5.38q2-2.75,3.33-2.74c.68,0,1,.76,1,2.29q0,3.94-5.25,8.17-.21,1.75-.21,2.37c0,1.06.27,1.58.8,1.58.72,0,1.57-.7,2.54-2.09a32.33,32.33,0,0,0,2.19-3.93q1-2.19,1-2.19C142.74,79,142.77,79.12,142.77,79.3Zm-2.44-4.62c0-.53-.13-.8-.41-.8-.47,0-1.1,1.13-1.92,3.39a41.92,41.92,0,0,0-1.49,5.08v.09A9.63,9.63,0,0,0,140.33,74.68Z" transform="translate(-0.7 -23.57)" style="fill: #fff"/>
  </g>
</svg>
