<svg xmlns="http://www.w3.org/2000/svg" viewBox="0 0 108.48 81.49">
  <g>
    <path d="M40.28,85.9a17.9,17.9,0,0,1-4.69,3.76,16.32,16.32,0,0,1-3.05,1.26,11.14,11.14,0,0,1-3.2.48c-.31,0-.62,0-.93,0s-.62-.08-.93-.13a11,11,0,0,1-6.3,2.09,6.72,6.72,0,0,1-3.25-.87A9.45,9.45,0,0,1,15.06,90a12.6,12.6,0,0,1-2-3.84A15.79,15.79,0,0,1,12.25,81a13.87,13.87,0,0,1,2.17-7.43,4.71,4.71,0,0,0,.33-.43c.12-.18.22-.21.28-.09s0,.15-.1.26a2.24,2.24,0,0,0-.31.61,18.84,18.84,0,0,0-.95,3.19A18.32,18.32,0,0,0,13.28,81a17.09,17.09,0,0,0,.64,4.93,12,12,0,0,0,1.73,3.63,7.89,7.89,0,0,0,2.51,2.27,6.26,6.26,0,0,0,3.07.78A9.91,9.91,0,0,0,26.7,91a9.85,9.85,0,0,1-2.84-1.57,10.42,10.42,0,0,1-2.34-2.62,12.81,12.81,0,0,1-1.58-3.71,18.88,18.88,0,0,1-.57-4.85,15.56,15.56,0,0,1,.75-4.89,13.69,13.69,0,0,1,2-3.93,9.74,9.74,0,0,1,2.81-2.58,6.26,6.26,0,0,1,3.18-.91,5.33,5.33,0,0,1,4.54,2.49q1.76,2.49,1.76,7.2a21.33,21.33,0,0,1-1.71,8.91,16.52,16.52,0,0,1-4.28,5.94,1.46,1.46,0,0,0,.49.09h.49a7.37,7.37,0,0,0,3.36-.87A16.64,16.64,0,0,0,36,87.43a23.46,23.46,0,0,0,2.84-3,33.43,33.43,0,0,0,2.17-3,110.43,110.43,0,0,0,9.55-18.21,90.56,90.56,0,0,0,5-16.16,42.29,42.29,0,0,0,.85-12.49c-.38-3.46-1.3-5.86-2.78-7.2,0,.52.06,1.05.07,1.57s0,1.08,0,1.66a39.87,39.87,0,0,1-1.19,9.61,30,30,0,0,1-3.3,8,18.9,18.9,0,0,1-4.42,5.15,8.9,8.9,0,0,1-5.7,2.1,6.11,6.11,0,0,1-2.77-.66,6.8,6.8,0,0,1-2.32-2,10.48,10.48,0,0,1-1.6-3.19,13.46,13.46,0,0,1-.54-4.41,21.18,21.18,0,0,1,1.86-8.69,27.22,27.22,0,0,1,4.54-6.77A18.06,18.06,0,0,1,43,26,11.48,11.48,0,0,1,48.6,24.5a9.74,9.74,0,0,1,4.33,1,27.38,27.38,0,0,0-1.08-4.41,18.43,18.43,0,0,0-1.55-3.45A9.57,9.57,0,0,0,46.87,14a8.84,8.84,0,0,0-4.42-1.13,7.48,7.48,0,0,0-2.37.35,6.82,6.82,0,0,0-2.17,1.31,1.33,1.33,0,0,0-.41.44c-.11.17-.18.2-.21.08s.08-.46.46-.87a8.62,8.62,0,0,1,2.12-1.66,5.35,5.35,0,0,1,2.69-.7h0q4.85,0,8,5.33a20.23,20.23,0,0,1,1.7,3.8,28.38,28.38,0,0,1,1.14,4.85,9.56,9.56,0,0,1,2.74,3.84,27,27,0,0,1,2,7.25,48.31,48.31,0,0,1,.3,10,52.89,52.89,0,0,1-2.24,12A66.38,66.38,0,0,1,50.48,72.1,72.77,72.77,0,0,1,40.28,85.9ZM28,66.68a5.37,5.37,0,0,0-3,.92,8.69,8.69,0,0,0-2.45,2.49A12.48,12.48,0,0,0,20.9,73.8a17,17,0,0,0-.6,4.59,19.19,19.19,0,0,0,.57,4.93,11.47,11.47,0,0,0,1.55,3.58,8.26,8.26,0,0,0,2.32,2.32,7.56,7.56,0,0,0,2.89,1.13,15.38,15.38,0,0,0,4.5-5.76,20.64,20.64,0,0,0,1.8-9A11.45,11.45,0,0,0,32.31,69a5,5,0,0,0-4.26-2.36ZM48.49,25.37A11.12,11.12,0,0,0,43,26.9a17.53,17.53,0,0,0-4.54,3.54A22.13,22.13,0,0,0,34.4,37a23.25,23.25,0,0,0-1.55,8.17,14.55,14.55,0,0,0,.41,4.1,9.2,9.2,0,0,0,1.29,2.93,5.73,5.73,0,0,0,2,1.79,5.38,5.38,0,0,0,2.56.61A6.33,6.33,0,0,0,41.88,54a10.53,10.53,0,0,0,2.53-1.75,18.1,18.1,0,0,0,2.23-2.45C47.32,48.88,48,48,48.55,47a33.71,33.71,0,0,0,3.27-7.42,32.52,32.52,0,0,0,1.42-9.09,14,14,0,0,0,0-1.83c0-.58-.08-1.17-.15-1.75a7.72,7.72,0,0,0-2-1.13,7.06,7.06,0,0,0-2.5-.44ZM46.58,64.15a2.77,2.77,0,0,1,1.58.44,2.09,2.09,0,0,1,.75,1.66.6.6,0,0,1,0,.26c-.45-.93-.94-1.44-1.48-1.53s-.81,0-.85.22a6.87,6.87,0,0,0-1.86.57c-.55.26-1.09.54-1.62.83l-1.58.87a8.35,8.35,0,0,1-1.65.7c-1.45.46-2.63-.1-3.56-1.71s-1.5-4.06-1.71-7.38c0-.58,0-1.33,0-2.27a4.89,4.89,0,0,1,.16-1.48h0l.05.09c0,.35,0,.69-.05,1s-.06.6-.08.92a4.64,4.64,0,0,0,0,.92,13.11,13.11,0,0,0,.95,4.63,4.85,4.85,0,0,0,1.78,2.18,3.78,3.78,0,0,0,2.22.53A16.15,16.15,0,0,0,42,65.29c.79-.18,1.58-.38,2.37-.62A20.54,20.54,0,0,1,46.58,64.15Z" transform="translate(-12.25 -11.83)" style="fill: #fff"/>
    <path d="M66.56,78c-.1.81-1.22,2.62-3.35,5.41q-2.58,3.4-4.34,3.41c-1,0-1.44-.73-1.44-2.18q0-1.58,1.8-5.68-2.58,3.93-3.46,5-2.33,2.88-3.87,2.88t-1.5-2a9.24,9.24,0,0,1,.06-1h0c.27-1.51.89-2.27,1.86-2.27a.78.78,0,0,1,.87.9,5.86,5.86,0,0,1-.1.89,6.29,6.29,0,0,0-.1,1,5.34,5.34,0,0,0,.1.63.61.61,0,0,0,.31.09c.65,0,2.29-1.88,4.9-5.63q2.43-3.6,4.91-7.21a2,2,0,0,1,1.65-.53c.28,0,.42.12.42.35s-.88,1.95-2.64,5.5-2.63,5.8-2.63,6.73c.1.52.22.79.36.79q.88,0,3.15-3.37T66.56,78Z" transform="translate(-12.25 -11.83)" style="fill: #fff"/>
    <path d="M77.67,78a2.92,2.92,0,0,1-.47,1A25.45,25.45,0,0,1,73,84.59c-1.83,1.8-3.51,2.71-5.06,2.71-1.9,0-2.84-1.08-2.84-3.23a12.78,12.78,0,0,1,1.24-5.16h-.06c-.52.88-.88,1.31-1.07,1.31s-.07,0-.11-.09V80l.05-.36a21.44,21.44,0,0,1,4.27-5.38q3-2.73,5-2.73c1,0,1.51.76,1.51,2.28q0,4-7.8,8.17a18.26,18.26,0,0,0-.31,2.38c0,1.05.4,1.58,1.19,1.58,1.07,0,2.32-.7,3.77-2.1A31.12,31.12,0,0,0,76,79.87c1-1.45,1.52-2.18,1.55-2.18S77.67,77.78,77.67,78Zm-3.62-4.61c0-.54-.2-.8-.62-.8-.69,0-1.63,1.13-2.84,3.38A31.73,31.73,0,0,0,68.37,81v.09Q74.05,78,74.05,73.34Z" transform="translate(-12.25 -11.83)" style="fill: #fff"/>
    <path d="M88,77.78A12.75,12.75,0,0,1,85.57,82a34.29,34.29,0,0,1-3.13,3.75,3.88,3.88,0,0,1-2.66,1.36c-1,0-1.55-.61-1.55-1.84q0-2.11,2.3-6.86t2.3-4.83c0-.41-.12-.62-.36-.62q-.89,0-3.28,3a35,35,0,0,1-2.51,3s-.08-.06-.15-.18a1.17,1.17,0,0,1,0-.43q4.76-6.9,6.92-6.9c1.07,0,1.6.64,1.6,1.92q0,1.49-2,5.68c-1.34,2.79-2,4.6-2,5.41l.05.35a.65.65,0,0,0,.42.18c.62,0,1.68-1,3.2-3q1.5-2.19,3-4.28H88Z" transform="translate(-12.25 -11.83)" style="fill: #fff"/>
    <path d="M104.67,78q0,1.06-3.51,5.65-2.75,3.53-4.44,3.52c-1.07,0-1.6-.7-1.6-2.11,0-1.76.94-4.26,2.84-7.49l-.11-.18q-6.91,9.78-9.19,9.78c-1.13,0-1.7-.7-1.7-2.11q0-3.42,4.65-11v-.09c-.56.64-1.38,1.69-2.48,3.15-.42.64-1,1.54-1.86,2.71-.21.23-.38.34-.52.34l0-.18a17.87,17.87,0,0,1,3.36-5.31q2.68-3.15,4.23-3.15c.34,0,.55.09.62.27s-1,2.24-2.84,6.36q-2.32,5.11-2.32,6.37c0,.06.08.18.15.35a.37.37,0,0,0,.36.27q1.24,0,10.28-12.65a1.87,1.87,0,0,1,1.5-1c.72,0,1.08.14,1.08.44a44.67,44.67,0,0,1-2.61,5.75c-1.74,3.54-2.6,5.75-2.6,6.64a1.32,1.32,0,0,0,.1.57.33.33,0,0,0,.31.22q1.75,0,5.68-6.72l.67-.53Z" transform="translate(-12.25 -11.83)" style="fill: #fff"/>
    <path d="M120.73,77.86q0,.52-3.51,5.16-3.1,4.1-5.17,4.1c-1.13,0-1.7-.76-1.7-2.3a11.69,11.69,0,0,1,.82-4.07q-1.55,2.06-3.14,4c-1.35,1.55-2.53,2.33-3.57,2.33-1.2,0-1.8-.87-1.8-2.62q0-3.75,2.32-3.75a1,1,0,0,1,1.08,1.07,6.42,6.42,0,0,1-.15,1.11,5.84,5.84,0,0,0-.16,1.12c0,.59.16.89.47.89q1.4,0,4.59-4.89a1.78,1.78,0,0,1-.72.17c-.62,0-1.14-.45-1.57-1.35a6.58,6.58,0,0,1-.65-2.93,6,6,0,0,1,1.76-4.28,4.33,4.33,0,0,1,3-1.66,2.71,2.71,0,0,1,3,2.45,3,3,0,0,1,2.53-1.22.57.57,0,0,1,.46.17l0,.09a45.1,45.1,0,0,1-2.61,5.76q-2.6,5.32-2.6,6.9c0,.53.15.79.46.79q1.25,0,3.46-3.23,2.47-3.58,3.31-4A.41.41,0,0,1,120.73,77.86ZM114,72.45c0-.82-.25-1.22-.77-1.22-.79,0-1.67.72-2.63,2.18a7.71,7.71,0,0,0-1.45,4.28c0,1.16.26,1.75.78,1.75.72,0,1.58-.88,2.58-2.62A9.35,9.35,0,0,0,114,72.45Z" transform="translate(-12.25 -11.83)" style="fill: #fff"/>
  </g>
</svg>
