<svg xmlns="http://www.w3.org/2000/svg" viewBox="0 0 94.54 109.05">
  <g>
    <path d="M41.42,110.14c-.1.17-.21-.18-.31-1a24.91,24.91,0,0,1-.16-3.58c0-1.22.11-2.48.21-3.76a5.06,5.06,0,0,1-2.24-.57,6.5,6.5,0,0,1-2.17-1.79,9.78,9.78,0,0,1-1.66-3.14,15.28,15.28,0,0,1-.64-4.8,43.16,43.16,0,0,1,.59-7,60.62,60.62,0,0,1,1.58-6.9A63.43,63.43,0,0,1,38.92,71c.87-2.12,1.81-4.15,2.81-6.07h-1.4a29,29,0,0,1-6.79-.83,27.87,27.87,0,0,1-6.73-2.57,29.81,29.81,0,0,1-6.12-4.41,28.89,28.89,0,0,1-5-6.29,32.23,32.23,0,0,1-3.4-8.3A40.23,40.23,0,0,1,11,32.14a37,37,0,0,1,2.27-13.58,30.35,30.35,0,0,1,5.86-9.7,23.8,23.8,0,0,1,8-5.81,21.63,21.63,0,0,1,8.65-1.92,18.66,18.66,0,0,1,6.33,1.14A16.35,16.35,0,0,1,47.85,5.8a18.19,18.19,0,0,1,4.13,6,21.51,21.51,0,0,1,1.57,8.6,25.12,25.12,0,0,1-1.44,8.83,21.14,21.14,0,0,1-3.69,6.42,15.65,15.65,0,0,1-5,3.88,12,12,0,0,1-5.29,1.31,7,7,0,0,1-2.35-.39,4.51,4.51,0,0,1-1.94-1.35,8.54,8.54,0,0,0,4.23,1,11.61,11.61,0,0,0,5.17-1.31A15.34,15.34,0,0,0,48.05,35a19.76,19.76,0,0,0,3.49-6.2,25.14,25.14,0,0,0,1.34-8.52,19.56,19.56,0,0,0-1.57-8.17,17.83,17.83,0,0,0-4-5.72A16.1,16.1,0,0,0,41.78,3a17.63,17.63,0,0,0-6-1.09,18.24,18.24,0,0,0-5.5.87A19.92,19.92,0,0,0,25,5.41a25.09,25.09,0,0,0-4.73,4.32,27.78,27.78,0,0,0-3.82,6,35.5,35.5,0,0,0-2.55,7.6A42.31,42.31,0,0,0,13,32.49,39.3,39.3,0,0,0,15.4,47.16a27.32,27.32,0,0,0,6.35,9.78A23.82,23.82,0,0,0,30.6,62.4a30.32,30.32,0,0,0,10,1.71h1.55q1.19-2.19,3-5c1.22-1.86,2.58-3.76,4.08-5.68s3.09-3.8,4.78-5.63a50.39,50.39,0,0,1,5.11-4.89,29.56,29.56,0,0,1,5.06-3.45,9.92,9.92,0,0,1,4.65-1.31,2.78,2.78,0,0,1,2.48,1.39A6.35,6.35,0,0,1,72.19,43a10.61,10.61,0,0,1-.87,4.1A20.94,20.94,0,0,1,69,51.14a30.88,30.88,0,0,1-3.18,3.71,34.26,34.26,0,0,1-3.51,3.06,31.49,31.49,0,0,1-8.18,4.41,43.93,43.93,0,0,1-8.81,2.22c-1,2-2.05,4-3,6.21a65.62,65.62,0,0,0-2.69,6.76,57.65,57.65,0,0,0-1.93,7.34,40.27,40.27,0,0,0-.75,7.82c0,2.79.42,4.85,1.26,6.16A4.17,4.17,0,0,0,41.26,101c.14-1.23.35-2.54.62-3.93s.61-2.8,1-4.2.83-2.78,1.29-4.15a36.22,36.22,0,0,1,1.53-3.8,38.26,38.26,0,0,1,2.47-4.54,27.78,27.78,0,0,1,2.69-3.58,12.72,12.72,0,0,1,2.66-2.31,4.67,4.67,0,0,1,2.5-.83,3.24,3.24,0,0,1,2.25,1c.7.67,1.06,1.94,1.06,3.8a17.16,17.16,0,0,1-.52,4.15,25.41,25.41,0,0,1-1.37,4,30.58,30.58,0,0,1-2,3.84c-.78,1.25-1.59,2.49-2.45,3.71a23.29,23.29,0,0,1-5.53,5.51,10.42,10.42,0,0,1-5.83,2.09,32.26,32.26,0,0,0-.31,3.67c0,1.16,0,2.33,0,3.49a6.81,6.81,0,0,0,.1,1A.24.24,0,0,1,41.42,110.14Zm.31-9.17a7.09,7.09,0,0,0,2.61-.57,14.13,14.13,0,0,0,2.84-1.57A21.62,21.62,0,0,0,50,96.42a19.2,19.2,0,0,0,2.53-3.14,42.08,42.08,0,0,0,2.38-4,40.46,40.46,0,0,0,1.85-4.1A28.79,28.79,0,0,0,58,81.27a15.07,15.07,0,0,0,.44-3.36,4.68,4.68,0,0,0-.67-2.75,2.11,2.11,0,0,0-1.81-.92,4.32,4.32,0,0,0-2.27.78,12,12,0,0,0-2.53,2.28,31.46,31.46,0,0,0-2.61,3.53,34,34,0,0,0-2.45,4.59A36.61,36.61,0,0,0,44.65,89q-.7,2-1.29,4.11c-.4,1.39-.74,2.78-1,4.14S41.87,99.86,41.73,101Zm4.08-37.21a48.65,48.65,0,0,0,8.13-2.19,28.25,28.25,0,0,0,7.56-4.1,24.63,24.63,0,0,0,6.82-7.29,15.57,15.57,0,0,0,2.32-7.91,4.69,4.69,0,0,0-.54-2.4A1.77,1.77,0,0,0,68.48,39a7.11,7.11,0,0,0-3.75,1.31,28.14,28.14,0,0,0-4.21,3.41,54,54,0,0,0-4.33,4.76Q54,51.1,52.06,53.84t-3.59,5.38C47.38,61,46.5,62.48,45.81,63.76Z" transform="translate(-11.01 -1.13)" style="fill: #fff"/>
    <path d="M70.54,89.79a2.81,2.81,0,0,1-.46,1,25.55,25.55,0,0,1-4.24,5.59q-2.73,2.72-5.06,2.71-2.84,0-2.84-3.23a12.9,12.9,0,0,1,1.24-5.15h-.06c-.52.87-.88,1.31-1.06,1.31S58,92,57.94,92v-.18l.05-.35a21.32,21.32,0,0,1,4.28-5.38c2-1.83,3.67-2.74,4.95-2.74,1,0,1.51.76,1.51,2.29q0,3.94-7.79,8.17a16.35,16.35,0,0,0-.31,2.37c0,1.06.39,1.58,1.18,1.58,1.07,0,2.33-.69,3.77-2.09a31.1,31.1,0,0,0,3.26-3.93c1-1.46,1.51-2.19,1.55-2.19S70.54,89.61,70.54,89.79Zm-3.61-4.62c0-.53-.21-.8-.62-.8q-1,0-2.84,3.39a31.64,31.64,0,0,0-2.22,5.08v.09Q66.92,89.81,66.93,85.17Z" transform="translate(-11.01 -1.13)" style="fill: #fff"/>
    <path d="M96.93,51q0,3.24-3.54,8.87T76.12,84.54a29.61,29.61,0,0,0-2.35,5.6,25.86,25.86,0,0,0-1.68,5.94l.1.43c.14.24.28.35.42.35q1.76,0,5.73-6.64L79,89.7v.18q0,.87-3.51,5.55Q72.82,99,70.85,99c-1.07,0-1.6-.68-1.6-2q0-2.64,2.84-9.24h0q-2.28,3.59-2.58,3.58l-.06-.09a9.68,9.68,0,0,1,1.71-3.05l2.06-3c.59-1.28,1.48-3.2,2.69-5.77Q90.51,48.66,95.33,48.65C96.39,48.65,96.93,49.43,96.93,51Zm-1.3.35c0-1.1-.29-1.66-.87-1.66q-1.92,0-9.35,14.73Q80,75,76.94,82.27v.09q5.32-7.67,10.64-15.42Q95.64,54.75,95.63,51.35Z" transform="translate(-11.01 -1.13)" style="fill: #fff"/>
    <path d="M105.55,51q0,3.24-3.54,8.87T84.74,84.54a29.61,29.61,0,0,0-2.35,5.6,25.86,25.86,0,0,0-1.68,5.94l.11.43c.13.24.27.35.41.35q1.76,0,5.73-6.64l.67-.52v.18q0,.87-3.51,5.55Q81.44,99,79.47,99c-1.06,0-1.6-.68-1.6-2q0-2.64,2.84-9.24h0q-2.26,3.59-2.58,3.58l0-.09a9.34,9.34,0,0,1,1.7-3.05l2.07-3c.58-1.28,1.48-3.2,2.68-5.77Q99.15,48.66,104,48.65C105,48.65,105.55,49.43,105.55,51Zm-1.29.35c0-1.1-.3-1.66-.88-1.66q-1.91,0-9.35,14.73Q88.62,75,85.57,82.27v.09q5.31-7.67,10.63-15.42Q104.26,54.75,104.26,51.35Z" transform="translate(-11.01 -1.13)" style="fill: #fff"/>
    <path d="M100.49,89.87c0,.7-.66,1.75-2,3.15s-2.22,2.09-2.74,2.09a1.26,1.26,0,0,1-.93-.26c-2.41,2.86-4.37,4.28-5.89,4.28-1.68,0-2.53-1.08-2.53-3.23a13,13,0,0,1,1.45-6v-.08c-.9,1.51-1.45,2.27-1.65,2.27,0,0,0,0,0-.09v-.18l0-.34A21.69,21.69,0,0,1,90.57,86c2-1.75,3.65-2.65,5.06-2.71l.31.44a4,4,0,0,1-.56.52,21.22,21.22,0,0,0-4.08,5.51Q88.66,94.32,88.66,97c0,.81.24,1.22.73,1.22q2,0,4.8-5.39.68-4.61,2.58-6a10.87,10.87,0,0,0,.15-2.21,2.18,2.18,0,0,0-.07-.49,2.24,2.24,0,0,1-.08-.48c0-.24.1-.36.31-.36s.58.37.8,1.11a7.16,7.16,0,0,1,.34,2q0,3.1-3,7.81a.64.64,0,0,0,.31.09c.79,0,1.69-.7,2.69-2.1a10,10,0,0,1,2.17-2.53A.41.41,0,0,1,100.49,89.87Z" transform="translate(-11.01 -1.13)" style="fill: #fff"/>
  </g>
</svg>
