<svg xmlns="http://www.w3.org/2000/svg" viewBox="0 0 143.19 81.32">
  <g>
    <path d="M12.13,96A8.78,8.78,0,0,1,7,94.49a12.74,12.74,0,0,1-4.15-4.76,26.6,26.6,0,0,1-2.58-8A47.24,47.24,0,0,1-.22,70.56,50.91,50.91,0,0,1,1.66,59.12,38.06,38.06,0,0,1,5.35,50.3a19.76,19.76,0,0,1,4.81-5.68,8.62,8.62,0,0,1,5.25-2,5.94,5.94,0,0,1,3.2,1,8.06,8.06,0,0,1,2.64,2.88A16.05,16.05,0,0,1,23,51.21a27.21,27.21,0,0,1,.4,6.6,25.55,25.55,0,0,1-1.21,6.73,23.09,23.09,0,0,1-2.47,5.28,13.25,13.25,0,0,1-3.12,3.45,6,6,0,0,1-3.11,1.31,4.43,4.43,0,0,1-2.91-.83A5.56,5.56,0,0,1,8.6,70.82a7.22,7.22,0,0,1-.37-1.61,1.78,1.78,0,0,1,0-.92c.05-.06.09.13.13.57a4.61,4.61,0,0,0,.38,1.44,5.22,5.22,0,0,0,2.13,2.84,5.32,5.32,0,0,0,2.67.48,4.14,4.14,0,0,0,2.75-1.27A12.4,12.4,0,0,0,18.9,68.9a25.26,25.26,0,0,0,2-5,28.45,28.45,0,0,0,1-6.16,34.14,34.14,0,0,0-.18-6.2A15.7,15.7,0,0,0,20.45,47a6.86,6.86,0,0,0-2.13-2.75,4.87,4.87,0,0,0-2.91-.92,7.92,7.92,0,0,0-5.05,2A19.2,19.2,0,0,0,5.9,51a37.72,37.72,0,0,0-3.33,8.61A53.58,53.58,0,0,0,.91,70.47a54.81,54.81,0,0,0,.4,11A26.92,26.92,0,0,0,3.59,89.3a11.21,11.21,0,0,0,3.77,4.54,8.17,8.17,0,0,0,4.84,1.35,10.74,10.74,0,0,0,6.57-2.49A26.32,26.32,0,0,0,24.47,86a70.46,70.46,0,0,0,5.19-10.17q2.5-5.89,5.05-13.06c.65-1.87,1.32-3.74,2-5.64s1.32-3.72,1.93-5.5,1.21-3.43,1.77-5,1.06-2.89,1.49-4.06a6.57,6.57,0,0,1-2.16,2.14,4.54,4.54,0,0,1-2.13.57,3.28,3.28,0,0,1-2.28-1,7.24,7.24,0,0,1-1.73-2.71,16.66,16.66,0,0,1-1-4.15,27,27,0,0,1-.08-5.28,34.65,34.65,0,0,1,1.11-6.38,35.38,35.38,0,0,1,2-5.63,17,17,0,0,1,2.49-4,3.61,3.61,0,0,1,2.53-1.53c.85,0,1.53.55,2,1.66A10,10,0,0,1,43.3,21a28.1,28.1,0,0,1-.74,5.19A39.51,39.51,0,0,1,41.12,31a40.53,40.53,0,0,1-1.8,4.11c-.65,1.25-1.26,2.34-1.84,3.27-.12.18-.27.38-.44.61s-.27.29-.29.18a.52.52,0,0,1,.09-.4l.49-.83A31.85,31.85,0,0,0,39,34.66a39.13,39.13,0,0,0,1.54-4A42.78,42.78,0,0,0,41.77,26a38.94,38.94,0,0,0,.7-5.16,9.73,9.73,0,0,0-.37-4c-.36-1-.86-1.53-1.49-1.53a3,3,0,0,0-2.28,1.48,16.43,16.43,0,0,0-2,3.93,39.44,39.44,0,0,0-1.58,5.46,43.31,43.31,0,0,0-.88,6.07,25.92,25.92,0,0,0,.55,9c.66,2.24,1.76,3.36,3.32,3.36a4,4,0,0,0,2.55-.92,10.52,10.52,0,0,0,2.33-3.19,32.37,32.37,0,0,0,1.78-3.88q.95-2.4,1.82-4.41A23.46,23.46,0,0,1,47.27,30c.34-.58.7-.87,1.06-.87s.47.35.47,1.05a3.39,3.39,0,0,1-.25,1.31c-.17.41-.39.87-.66,1.4l-1.42,2.62c-.53,1-1,2-1.56,3.14s-1.15,2.74-1.77,4.54S41.9,47,41.26,49.07,40,53.33,39.35,55.54s-1.28,4.31-1.91,6.29a142.49,142.49,0,0,1-5.59,14.93,59.09,59.09,0,0,1-6,10.62,24.67,24.67,0,0,1-6.52,6.37A14,14,0,0,1,12.13,96Zm29-5a2.24,2.24,0,0,1-1.48-.57,4.47,4.47,0,0,1-1.15-1.66A10.78,10.78,0,0,1,37.84,86a19.41,19.41,0,0,1,0-3.93,26.89,26.89,0,0,1,.77-4.76c.39-1.48.83-3,1.31-4.5s.93-2.78,1.4-4.15a17.36,17.36,0,0,0,.9-4.32,8,8,0,0,0-.33-3.23,3.94,3.94,0,0,1-1.93.52c-.76,0-1.11-.46-1.06-1.4a1.36,1.36,0,0,1,.46-1,1.45,1.45,0,0,1,1.14-.27A2.5,2.5,0,0,1,42,60.08a9,9,0,0,0,2-2.75q.95-1.87,1.84-4.19C46.43,51.59,47,50,47.6,48.29s1.18-3.26,1.79-4.72c1.06-2.62,2.16-5.11,3.27-7.47A48.42,48.42,0,0,1,56.09,30a20.06,20.06,0,0,1,3.6-4.2,5.94,5.94,0,0,1,3.83-1.57,3.28,3.28,0,0,1,1.86.61,4.84,4.84,0,0,1,1.47,1.79,10.14,10.14,0,0,1,.89,2.93,16.34,16.34,0,0,1,.11,4,17.43,17.43,0,0,1-1.25,5.54,17.8,17.8,0,0,1-2.43,4.24A11.61,11.61,0,0,1,61.26,46a5.3,5.3,0,0,1-2.73,1,5.24,5.24,0,0,1-1.39-.18A2.88,2.88,0,0,1,56,46.19a2,2,0,0,1-.31-.35.39.39,0,0,1-.09-.35c0-.11.08-.11.16,0a.88.88,0,0,0,.31.27,3.6,3.6,0,0,0,1.24.43,8.83,8.83,0,0,0,1.27.09,4.91,4.91,0,0,0,2.59-.92,10.53,10.53,0,0,0,2.7-2.62,16.85,16.85,0,0,0,2.2-4.15,19.23,19.23,0,0,0,1.15-5.41c.19-2.8,0-4.86-.73-6.2a3.23,3.23,0,0,0-3-2,5.06,5.06,0,0,0-3.64,1.7A19.52,19.52,0,0,0,56.74,31a50.89,50.89,0,0,0-2.6,5.55L51.94,42q-1.21,3-2.35,5.9c-.77,2-1.53,3.75-2.3,5.41a42.63,42.63,0,0,1-2.35,4.46,11.53,11.53,0,0,1-2.51,3,8.52,8.52,0,0,1,.77,2.49,14.19,14.19,0,0,1,.1,3.36A29.83,29.83,0,0,1,42.63,71c-.33,1.43-.72,3-1.18,4.67s-.8,3-1.08,4.2a26.67,26.67,0,0,0-.6,4.28,12.19,12.19,0,0,0,.29,4.15c.32,1.07.86,1.61,1.64,1.61a2.93,2.93,0,0,0,1.59-.61,9.55,9.55,0,0,0,1.87-1.79,27.3,27.3,0,0,0,2-2.8,40.88,40.88,0,0,0,2-3.62,43.19,43.19,0,0,0,2.64-6.94,35.66,35.66,0,0,0,1.29-6.42A9,9,0,0,0,52.85,64c-.32-.81-.79-1.22-1.42-1.22a3,3,0,0,0-2.17,1.26,16,16,0,0,0-2.13,3.28A29.81,29.81,0,0,0,45.58,71c-.52,1.49-.92,2.75-1.18,3.8q-.26,1.14-.33,1a3,3,0,0,1,.14-1.31,35.53,35.53,0,0,1,1.08-3.67c.5-1.45,1-2.82,1.62-4.1a16.34,16.34,0,0,1,2.19-3.63,3.32,3.32,0,0,1,2.44-1.53,2.12,2.12,0,0,1,1.89,1.49,9.83,9.83,0,0,1,.4,4.71,29.36,29.36,0,0,1-1.55,6.73,70.76,70.76,0,0,1-2.82,7,41.11,41.11,0,0,1-2,3.75,24.65,24.65,0,0,1-2.13,3,10.79,10.79,0,0,1-2.13,2,3.67,3.67,0,0,1-2,.7Zm-.81-30.13a2.25,2.25,0,0,0,1.21-.44,1.44,1.44,0,0,0-1.17-.79,1.48,1.48,0,0,0-.45.09c-.19.06-.28.23-.28.52a.52.52,0,0,0,.2.48.83.83,0,0,0,.46.14Z" transform="translate(0.35 -14.66)" style="fill: #fff"/>
    <path d="M61.66,84.94c-1.21,2.35-2.26,3.53-3.13,3.53-.71,0-1.06-.71-1.06-2.14A8.16,8.16,0,0,1,58,83.4h0c-1.53,3.38-2.91,5.07-4.12,5.07-.92,0-1.38-1-1.38-2.92a15.84,15.84,0,0,1,1-5.38h0c-.36.93-.6,1.4-.69,1.4a.11.11,0,0,1-.11-.09V81.3l0-.34a19.37,19.37,0,0,1,3.05-5.38q2.13-2.74,3.4-2.75c.85,0,1.28.76,1.28,2.27a9.52,9.52,0,0,1-.08,1.14h0c.82-2.27,1.58-3.41,2.26-3.41.31,0,.47.09.47.27s-.62,2.06-1.86,5.67-1.85,6-1.85,7.16l.07.44a.38.38,0,0,0,.25.09q.77,0,2.54-3.63a36.69,36.69,0,0,1,1.91-3.71l0,.09C64.17,79.8,63.34,81.71,61.66,84.94Zm-1.6-9.49c0-1-.23-1.57-.69-1.57q-1,0-3.15,5.07T54,86.11q0,1,.48,1c.7,0,1.8-1.58,3.31-4.72S60.06,77,60.06,75.45Z" transform="translate(0.35 -14.66)" style="fill: #fff"/>
    <path d="M75.5,79.82A17.38,17.38,0,0,1,73,86.2c-1,1.51-1.77,2.27-2.4,2.27-.83,0-1.24-.85-1.24-2.54a14.55,14.55,0,0,1,.73-4.28c-.75,1.29-1.55,1.93-2.4,1.93-.64,0-1.08-.5-1.35-1.49q-.51,1.92-1.68,5.42a1.81,1.81,0,0,1-1.24.7c-.53,0-.8-.24-.8-.7a27.64,27.64,0,0,1,1.64-6c.93-2.8,1.65-4.8,2.19-6v-.08q-2.4,4.71-2.7,4.71c-.05,0-.07-.06-.07-.17a11.46,11.46,0,0,1,2-4.15c1.09-1.6,1.9-2.4,2.44-2.4s.69.14.69.43-.57,2.13-1.71,5.68a2,2,0,0,1,.29,1.14,2.8,2.8,0,0,1-.17.91,2.43,2.43,0,0,0-.16.66c0,.52.16.78.47.78,1,0,1.84-.81,2.66-2.44q.07-.09,1.9-4.63c.68-1.69,1.28-2.53,1.82-2.53s.76.17.76.52q0,.18-1.66,5.11a28.31,28.31,0,0,0-1.65,6.25,2.66,2.66,0,0,0,.11.91c.07.21.16.31.25.31q.66,0,3.57-6.73h.11A.11.11,0,0,1,75.5,79.82Z" transform="translate(0.35 -14.66)" style="fill: #fff"/>
    <path d="M94.26,79.3q0,1-2.52,5.64-2,3.53-3.28,3.53-1,0-1-2A23.4,23.4,0,0,1,89,79.8a42.28,42.28,0,0,0,1.6-5c0-.3-.08-.44-.25-.44q-1.1,0-4.52,7.07t-4.15,7.08c-.39,0-.58-.18-.58-.54,0-1.19.61-3.63,1.84-7.3s1.84-5.59,1.84-5.78c0-.35-.1-.53-.29-.53q-1,0-4.52,7.07t-4.12,7.08c-.41,0-.62-.18-.62-.54A37.56,37.56,0,0,1,77,81c1.17-3.77,1.76-5.68,1.79-5.74,0-.36-.12-.54-.22-.54-.41,0-1.15,1.14-2.22,3.41s-1.62,3.41-1.64,3.41-.15-.12-.15-.36a33.9,33.9,0,0,1,2.37-5.38q1.45-3,2.55-3c.61,0,.91.68.91,2q0,1.5-2.33,8.8l.11.09q5.36-10.92,7.06-10.92c.78,0,1.17.68,1.17,2a16.22,16.22,0,0,1-1,4.49c-.51,1.41-1,2.85-1.53,4.31l.11.09q5.34-10.92,7.1-10.92c.75,0,1.13.65,1.13,1.94a23.54,23.54,0,0,1-1.42,5.76,24.31,24.31,0,0,0-1.42,5.4l0,.35a.41.41,0,0,0,.26.09c.51,0,1.28-1,2.33-3.06q2-3.75,2.26-4.1Z" transform="translate(0.35 -14.66)" style="fill: #fff"/>
    <path d="M102.27,84.94q-1.83,3.53-3.13,3.53c-.71,0-1.06-.71-1.06-2.14a8.16,8.16,0,0,1,.51-2.93h0q-2.3,5.07-4.11,5.07c-.92,0-1.39-1-1.39-2.92a15.84,15.84,0,0,1,1-5.38h0c-.37.93-.6,1.4-.69,1.4a.11.11,0,0,1-.11-.09V81.3l0-.34a19.32,19.32,0,0,1,3-5.38q2.13-2.74,3.41-2.75c.85,0,1.27.76,1.27,2.27a9.4,9.4,0,0,1-.07,1.14h0c.82-2.27,1.58-3.41,2.26-3.41.31,0,.47.09.47.27s-.62,2.06-1.86,5.67-1.86,6-1.86,7.16l.08.44a.37.37,0,0,0,.25.09c.51,0,1.36-1.21,2.53-3.63a37.79,37.79,0,0,1,1.92-3.71l0,.09Q104.78,80.1,102.27,84.94Zm-1.6-9.49c0-1-.24-1.57-.7-1.57q-.94,0-3.15,5.07t-2.2,7.16c0,.7.16,1,.47,1,.71,0,1.81-1.58,3.32-4.72S100.67,77,100.67,75.45Z" transform="translate(0.35 -14.66)" style="fill: #fff"/>
    <path d="M108.61,61.22a16.25,16.25,0,0,1,.71-4.24,10.32,10.32,0,0,1,1.58-3.15A6.34,6.34,0,0,1,113.14,52a5.35,5.35,0,0,1,2.68-.53,11,11,0,0,1,3,.66c1.07.38,2.09.77,3.06,1.18s1.8.7,2.84,1a19.17,19.17,0,0,0,3.32.79A4.94,4.94,0,0,0,132,54a6.34,6.34,0,0,0,1.8-4.46,8.83,8.83,0,0,0-.95-5,3.64,3.64,0,0,0-6.08-.87,8.9,8.9,0,0,0-1.89,3.18,8.46,8.46,0,0,0-.55,2.36c0,.41-.08.72-.09.92s0,.3-.09.3-.1-.37-.08-1.13a11,11,0,0,1,.55-3,10.36,10.36,0,0,1,1.93-3.63,3.81,3.81,0,0,1,3-1.44,3.88,3.88,0,0,1,2.11.61,4.66,4.66,0,0,1,1.58,1.84,9.7,9.7,0,0,1,.93,3,16.34,16.34,0,0,1,.11,4,10.59,10.59,0,0,1-.71,3.23,6.51,6.51,0,0,1-1.44,2.27,5.29,5.29,0,0,1-2,1.27,6.32,6.32,0,0,1-2.47.3,8.3,8.3,0,0,1-3.08-.57,34.18,34.18,0,0,1-3.3-1.52c-1-.47-1.95-.91-2.93-1.32a11.48,11.48,0,0,0-2.93-.78,4.43,4.43,0,0,0-2.31.26,5.15,5.15,0,0,0-2,1.44,7.91,7.91,0,0,0-1.42,2.58,13.38,13.38,0,0,0-.65,3.67,37.8,37.8,0,0,0,.18,4.93,14.29,14.29,0,0,0,1.35,4.85c.34.7.66,1.32,1,1.88a5.56,5.56,0,0,1,.62,2,12.43,12.43,0,0,1-.47,4.54,19.93,19.93,0,0,1-2,4.72q-2.37,4.18-4,4.19c-1.19,0-1.79-1.08-1.79-3.23a17,17,0,0,1,1-6V79.3c-.63,1.51-1,2.27-1.16,2.27l0-.09V81.3l0-.34a22,22,0,0,1,3.13-5.51c1.33-1.74,2.5-2.62,3.49-2.62.1,0,.17.15.22.44a3.66,3.66,0,0,1-.4.52,12.67,12.67,0,0,0-1.31,2.1c-.48.93-1,2.07-1.57,3.41a21.25,21.25,0,0,0-1.85,7.24q0,1.23.51,1.23c.89,0,2-1.66,3.31-5a30.82,30.82,0,0,0,1.46-4.41,16.06,16.06,0,0,0,.44-3.63,3.94,3.94,0,0,0-.44-1.87,20.12,20.12,0,0,1-1-2.19,19.75,19.75,0,0,1-.89-3.53A30,30,0,0,1,108.61,61.22Z" transform="translate(0.35 -14.66)" style="fill: #fff"/>
    <path d="M124.74,79.3q0,1-2.48,5.64c-1.28,2.35-2.33,3.53-3.13,3.53S118,87.76,118,86.35a21.65,21.65,0,0,1,2-7.49l-.07-.18q-4.87,9.79-6.48,9.79c-.8,0-1.2-.71-1.2-2.11q0-3.44,3.28-11v-.09c-.39.64-1,1.69-1.75,3.14-.29.64-.73,1.55-1.31,2.71-.15.23-.27.35-.37.35l0-.18A20.16,20.16,0,0,1,114.43,76c1.27-2.1,2.26-3.15,3-3.15.24,0,.39.09.44.27s-.7,2.24-2,6.37a31.39,31.39,0,0,0-1.64,6.36,2.8,2.8,0,0,1,.11.36c.05.18.14.27.26.27q.87,0,7.25-12.65c.31-.65.66-1,1-1s.77.15.77.44A56.49,56.49,0,0,1,121.81,79Q120,84.34,120,85.66a1.87,1.87,0,0,0,.07.58c0,.14.12.22.22.22q1.23,0,4-6.72l.47-.53Z" transform="translate(0.35 -14.66)" style="fill: #fff"/>
    <path d="M135,79.38c-.07.82-.86,2.62-2.37,5.42q-1.81,3.4-3.06,3.41-1,0-1-2.19a23.41,23.41,0,0,1,1.28-5.68q-1.83,3.93-2.44,5c-1.09,1.92-2,2.89-2.73,2.89s-1.06-.67-1.06-2c0-.35,0-.7,0-1h0c.2-1.52.63-2.27,1.31-2.27.42,0,.62.3.62.89a8.35,8.35,0,0,1-.07.9,8.67,8.67,0,0,0-.07,1c0,.06,0,.27.07.63a.35.35,0,0,0,.22.09c.46,0,1.61-1.87,3.46-5.63q1.71-3.6,3.46-7.2a1.19,1.19,0,0,1,1.16-.53c.2,0,.3.11.3.35s-.62,2-1.86,5.5-1.86,5.79-1.86,6.72c.07.53.16.79.26.79q.62,0,2.22-3.36C134,80.77,134.67,79.56,135,79.38Z" transform="translate(0.35 -14.66)" style="fill: #fff"/>
    <path d="M142.84,79.3a3.56,3.56,0,0,1-.33,1,26.65,26.65,0,0,1-3,5.59q-1.93,2.71-3.57,2.71c-1.34,0-2-1.08-2-3.23a17.45,17.45,0,0,1,.88-5.15h0c-.37.87-.62,1.31-.76,1.31s-.05,0-.08-.09V81.3l0-.35a21.78,21.78,0,0,1,3-5.38c1.43-1.83,2.59-2.74,3.5-2.74.71,0,1.07.76,1.07,2.29q0,3.94-5.5,8.17a22.48,22.48,0,0,0-.22,2.37c0,1.06.28,1.58.83,1.58.76,0,1.64-.7,2.66-2.09a31.18,31.18,0,0,0,2.3-3.93c.7-1.46,1.07-2.19,1.09-2.19S142.84,79.12,142.84,79.3Zm-2.55-4.62c0-.53-.15-.8-.44-.8-.48,0-1.15,1.13-2,3.39a40.88,40.88,0,0,0-1.57,5.08v.09A9.47,9.47,0,0,0,140.29,74.68Z" transform="translate(0.35 -14.66)" style="fill: #fff"/>
  </g>
</svg>
