<svg xmlns="http://www.w3.org/2000/svg" viewBox="0 0 139.3 108.57">
  <g>
    <path d="M11.82,95.49A6.18,6.18,0,0,1,7.63,94a12.17,12.17,0,0,1-3.36-4.75,30.8,30.8,0,0,1-2.1-8A58.25,58.25,0,0,1,1.8,70.07,62.25,62.25,0,0,1,3.32,58.63a43.79,43.79,0,0,1,3-8.82,19.17,19.17,0,0,1,3.9-5.68,6.28,6.28,0,0,1,4.26-2,4.21,4.21,0,0,1,2.6,1A7.87,7.87,0,0,1,19.22,46a18.14,18.14,0,0,1,1.37,4.76,32.19,32.19,0,0,1,.33,6.59,30.62,30.62,0,0,1-1,6.73,25.33,25.33,0,0,1-2,5.28,12.63,12.63,0,0,1-2.52,3.45,4.39,4.39,0,0,1-2.53,1.31,3.12,3.12,0,0,1-2.36-.83A5.77,5.77,0,0,1,9,70.33a8.81,8.81,0,0,1-.3-1.61,2.3,2.3,0,0,1,0-.92s.08.13.11.57a5.58,5.58,0,0,0,.31,1.44,5.16,5.16,0,0,0,1.73,2.84,3.62,3.62,0,0,0,2.17.48,3.12,3.12,0,0,0,2.23-1.27,12.53,12.53,0,0,0,2.08-3.45,29.39,29.39,0,0,0,1.6-5,34.81,34.81,0,0,0,.8-6.16,43.76,43.76,0,0,0-.15-6.2,19,19,0,0,0-1-4.54,6.92,6.92,0,0,0-1.73-2.75,3.47,3.47,0,0,0-2.36-.92,5.82,5.82,0,0,0-4.1,2,19.14,19.14,0,0,0-3.62,5.63,44.23,44.23,0,0,0-2.7,8.61A65.7,65.7,0,0,0,2.71,70,68.36,68.36,0,0,0,3,81a31.24,31.24,0,0,0,1.85,7.77,10.84,10.84,0,0,0,3.05,4.54,5.79,5.79,0,0,0,3.94,1.35,7.76,7.76,0,0,0,5.33-2.49,25.64,25.64,0,0,0,4.62-6.68A78.22,78.22,0,0,0,26,75.36q2-5.89,4.1-13.06c.53-1.86,1.06-3.74,1.61-5.63s1.06-3.73,1.56-5.51,1-3.43,1.44-5,.85-2.89,1.21-4.06a6.08,6.08,0,0,1-1.76,2.14,3.15,3.15,0,0,1-1.73.57,2.46,2.46,0,0,1-1.85-1,7.54,7.54,0,0,1-1.4-2.71,20.39,20.39,0,0,1-.8-4.15,34,34,0,0,1-.06-5.28,42.79,42.79,0,0,1,.9-6.38,41.81,41.81,0,0,1,1.64-5.63,18.26,18.26,0,0,1,2-4c.72-1,1.4-1.53,2-1.53s1.24.56,1.66,1.66a12.38,12.38,0,0,1,.47,4.72,34.57,34.57,0,0,1-.61,5.2,46.34,46.34,0,0,1-1.16,4.71,43.26,43.26,0,0,1-1.47,4.11c-.52,1.25-1,2.34-1.49,3.27-.1.18-.21.38-.35.61s-.22.3-.24.18a.71.71,0,0,1,.07-.39l.4-.83a32.75,32.75,0,0,0,1.36-3.24c.46-1.22.87-2.56,1.26-4s.71-3,1-4.63a47.67,47.67,0,0,0,.56-5.16,11.82,11.82,0,0,0-.3-4c-.29-1-.69-1.53-1.21-1.53s-1.24.5-1.84,1.49a17.68,17.68,0,0,0-1.66,3.93,45,45,0,0,0-1.28,5.46,49.26,49.26,0,0,0-.71,6.07,31.5,31.5,0,0,0,.44,9q.79,3.36,2.69,3.36a2.82,2.82,0,0,0,2.07-.92A10.53,10.53,0,0,0,36.52,40,38.53,38.53,0,0,0,38,36.14q.77-2.4,1.47-4.41c.32-.87.61-1.6.89-2.19s.56-.87.86-.87.38.35.38,1A4,4,0,0,1,41.36,31c-.13.41-.31.87-.53,1.4-.33.76-.72,1.63-1.15,2.62s-.86,2-1.27,3.14-.93,2.74-1.43,4.54-1,3.76-1.52,5.86-1,4.25-1.56,6.46-1,4.31-1.55,6.29q-2.21,8.56-4.53,14.93A63.51,63.51,0,0,1,23,86.89a22.62,22.62,0,0,1-5.29,6.37A9.89,9.89,0,0,1,11.82,95.49Zm23.55-5a1.63,1.63,0,0,1-1.2-.57,4.39,4.39,0,0,1-.93-1.66,12.14,12.14,0,0,1-.56-2.75,23,23,0,0,1,0-3.93,31.5,31.5,0,0,1,.62-4.76c.31-1.48.67-3,1.06-4.5s.76-2.78,1.14-4.14a21.4,21.4,0,0,0,.72-4.33,9.67,9.67,0,0,0-.26-3.23,2.75,2.75,0,0,1-1.57.52c-.61,0-.9-.46-.86-1.39a1.57,1.57,0,0,1,.37-1.05,1,1,0,0,1,.93-.26,2.05,2.05,0,0,1,1.28,1.13,9,9,0,0,0,1.59-2.75c.51-1.25,1-2.65,1.49-4.19s1-3.16,1.44-4.85.95-3.26,1.44-4.72q1.3-3.93,2.66-7.46a53.77,53.77,0,0,1,2.78-6.16,19.07,19.07,0,0,1,2.93-4.19,4.34,4.34,0,0,1,3.1-1.58A2.34,2.34,0,0,1,55,24.3a4.67,4.67,0,0,1,1.19,1.8A11.72,11.72,0,0,1,56.94,29,21.73,21.73,0,0,1,57,33a21.23,21.23,0,0,1-1,5.55,19.62,19.62,0,0,1-2,4.23,10.76,10.76,0,0,1-2.36,2.71,3.82,3.82,0,0,1-2.22,1,3.75,3.75,0,0,1-1.12-.17,2.24,2.24,0,0,1-1-.62,2,2,0,0,1-.25-.35.49.49,0,0,1-.07-.35c0-.11.06-.11.13,0a.73.73,0,0,0,.25.27,2.45,2.45,0,0,0,1,.43,5.8,5.8,0,0,0,1,.09,3.47,3.47,0,0,0,2.1-.92,9.7,9.7,0,0,0,2.19-2.62,18.54,18.54,0,0,0,1.78-4.15,22.12,22.12,0,0,0,.93-5.41,15,15,0,0,0-.59-6.2c-.55-1.34-1.36-2-2.42-2a3.85,3.85,0,0,0-3,1.7A20.48,20.48,0,0,0,48,30.46,57.45,57.45,0,0,0,45.9,36q-1,3-1.79,5.5-1,3-1.9,5.9t-1.86,5.41c-.63,1.66-1.26,3.15-1.91,4.46a11.21,11.21,0,0,1-2,3A9.59,9.59,0,0,1,37,62.78a16.73,16.73,0,0,1,.09,3.36,36.39,36.39,0,0,1-.55,4.41q-.39,2.15-1,4.68c-.35,1.63-.64,3-.87,4.19a32.43,32.43,0,0,0-.49,4.28,14.51,14.51,0,0,0,.24,4.15c.26,1.07.7,1.61,1.33,1.61a2.1,2.1,0,0,0,1.28-.61,8.8,8.8,0,0,0,1.53-1.79,27,27,0,0,0,1.62-2.79c.55-1.08,1.09-2.29,1.63-3.63A50.5,50.5,0,0,0,44,73.7a43.36,43.36,0,0,0,1.05-6.42,10.82,10.82,0,0,0-.21-3.76c-.25-.81-.64-1.22-1.15-1.22s-1.16.42-1.76,1.27a16.34,16.34,0,0,0-1.73,3.27A34.51,34.51,0,0,0,39,70.55c-.43,1.49-.75,2.75-1,3.8q-.21,1.14-.27,1.05a3.57,3.57,0,0,1,.12-1.31c.18-1,.47-2.21.87-3.67s.84-2.82,1.32-4.1a17.53,17.53,0,0,1,1.77-3.63q1-1.53,2-1.53c.65,0,1.16.5,1.53,1.49a11.77,11.77,0,0,1,.33,4.72,35.75,35.75,0,0,1-1.26,6.72q-1,3.68-2.29,7-.76,2-1.62,3.75a24,24,0,0,1-1.73,3,9.32,9.32,0,0,1-1.73,2,2.6,2.6,0,0,1-1.62.7Zm-.65-30.13a1.6,1.6,0,0,0,1-.44c-.27-.52-.59-.79-.94-.79a1.23,1.23,0,0,0-.37.09c-.15.06-.23.24-.23.53a.59.59,0,0,0,.17.48.62.62,0,0,0,.37.13Z" transform="translate(-1.7 -14.17)" style="fill: #fff"/>
    <path d="M55.16,78.72q-.06,1.32-2,5.73c-1,2.35-1.93,3.53-2.65,3.53s-1-.68-1-2a24.71,24.71,0,0,1,1.34-6.63,34.72,34.72,0,0,0,1.35-5c0-.3-.08-.44-.24-.44q-1.53,0-6,16.27-1.77,6.48-5.64,22.4c-.37,1.63-.75,3.27-1.12,4.9A39.27,39.27,0,0,1,38,121.74c-.28.67-.52,1-.71,1-.46,0-.68-.73-.68-2.18a31.77,31.77,0,0,1,1-6.45q5.85-25.2,10.52-41.77l0-.08q-3.14,8.64-3.4,8.64.15-1,5.12-14.32c.43-1.16.81-1.75,1.15-1.75s.44.12.44.35A18.1,18.1,0,0,1,50.91,67q-1.62,5.58-5.44,20.43Q42,100.91,39.71,110.78a92.3,92.3,0,0,0-1.89,9.08v.26q0,.09.06.09.33,0,3.28-12.43,3.72-15.66,5.91-23,3.63-12.42,5.58-12.43c.61,0,.92.59.92,1.77a22.94,22.94,0,0,1-1.23,5.8,23.78,23.78,0,0,0-1.22,5.26c0,.54.09.8.29.8.43,0,1.14-1.19,2.13-3.58A33.19,33.19,0,0,1,55.16,78.72Z" transform="translate(-1.7 -14.17)" style="fill: #fff"/>
    <path d="M64.44,78.89a4,4,0,0,1-.29,1q-2.28,6.38-3.61,11-2.45,8.47-5.41,21-1,4.19-1.21,5.06a45,45,0,0,1-1.28,4.5c-.31.79-.6,1.18-.87,1.18s-.57-.64-.57-1.92q0-3.22,3.85-18.87L61,77.85l-.09-.09Q56.55,88,55.31,88c-.51,0-.77-.7-.77-2.1q0-3.93,2.57-11v-.09c-.31.64-.78,1.69-1.41,3.14-.24.65-.6,1.55-1.07,2.71-.12.24-.21.35-.29.35l0-.18q0-.9,2.21-6c.71-1.63,1.42-2.44,2.13-2.44a.4.4,0,0,1,.35.27v.18q0,.09-1.47,5.7a41.51,41.51,0,0,0-1.48,6.86c0,.36.06.53.18.53.41,0,1.41-1.81,3-5.45,1-2.34,2-4.72,3-7.12.27-.64.56-1,.85-1s.59.15.59.44q-11.19,44.89-11.2,47.08c0,.06,0,.13,0,.22s0,.13.06.13.41-.67.74-2q2.49-10.22,5-20.44A155,155,0,0,1,64,79.24c.16-.4.26-.61.32-.61S64.44,78.72,64.44,78.89Z" transform="translate(-1.7 -14.17)" style="fill: #fff"/>
    <path d="M79.51,78.81q0,1.05-2,5.64Q75.88,88,74.81,88c-.57,0-.85-.68-.85-2a27.94,27.94,0,0,1,1.3-6.64c.86-3.06,1.3-4.74,1.3-5s-.07-.44-.21-.44q-.88,0-3.66,7.07T69.32,88q-.48,0-.48-.54a35.94,35.94,0,0,1,1.5-7.3q1.48-5.51,1.49-5.77,0-.54-.24-.54-.8,0-3.66,7.07C66,85.62,64.9,88,64.59,88s-.5-.18-.5-.53a43.6,43.6,0,0,1,1.42-6.91Q66.92,74.88,67,74.8c0-.36-.1-.53-.17-.53-.34,0-.94,1.13-1.81,3.4s-1.31,3.41-1.33,3.41-.11-.12-.11-.36a38.56,38.56,0,0,1,1.92-5.38c.78-2,1.47-3,2.06-3s.74.68.74,2q0,1.5-1.89,8.8l.09.09q4.35-10.92,5.73-10.92c.63,0,.95.68.95,2a19.46,19.46,0,0,1-.8,4.49c-.41,1.41-.83,2.85-1.24,4.31l.09.09C74.07,76,76,72.34,76.94,72.34c.61,0,.92.65.92,1.94A27.88,27.88,0,0,1,76.7,80a29.93,29.93,0,0,0-1.15,5.4l0,.35a.29.29,0,0,0,.21.09c.41,0,1-1,1.89-3q1.59-3.77,1.83-4.11Z" transform="translate(-1.7 -14.17)" style="fill: #fff"/>
    <path d="M86.84,78.89A7.81,7.81,0,0,1,85.72,82c-.75,1.4-1.27,2.1-1.57,2.1a.55.55,0,0,1-.53-.27c-1.38,2.86-2.5,4.28-3.37,4.28s-1.45-1.07-1.45-3.23a21.28,21.28,0,0,1,.83-6v-.08a7.11,7.11,0,0,1-.95,2.27s0,0,0-.09v-.17l0-.35a23.81,23.81,0,0,1,2.49-5.42c1.12-1.75,2.08-2.65,2.89-2.71l.18.44a3.86,3.86,0,0,1-.33.52,24.68,24.68,0,0,0-2.33,5.51,24.67,24.67,0,0,0-1.51,7.25c0,.81.14,1.22.42,1.22.76,0,1.68-1.8,2.74-5.39.26-3.06.75-5.07,1.48-6a18,18,0,0,0,.09-2.21,3.5,3.5,0,0,0,0-.49,3.55,3.55,0,0,1-.05-.48q0-.36.18-.36c.18,0,.33.37.46,1.11a11.65,11.65,0,0,1,.19,2,24.27,24.27,0,0,1-1.68,7.81.22.22,0,0,0,.17.09c.46,0,1-.7,1.54-2.1a10.33,10.33,0,0,1,1.24-2.53A.55.55,0,0,1,86.84,78.89Z" transform="translate(-1.7 -14.17)" style="fill: #fff"/>
    <path d="M92.84,78.63a17.1,17.1,0,0,1-1.42,4.24,36.71,36.71,0,0,1-1.79,3.74c-.52.91-1,1.37-1.52,1.37s-.89-.62-.89-1.85a29.39,29.39,0,0,1,1.32-6.85c.88-3.16,1.31-4.78,1.31-4.84,0-.4-.07-.61-.2-.61-.34,0-1,1-1.88,3s-1.39,3-1.43,3,0-.06-.09-.18a1.9,1.9,0,0,1,0-.44q2.72-6.9,4-6.9c.61,0,.91.65.91,1.93A26.46,26.46,0,0,1,90,79.94a27.56,27.56,0,0,0-1.15,5.42l0,.35c.08.12.16.17.23.17.36,0,1-1,1.84-3,.57-1.45,1.14-2.88,1.71-4.28h.18Z" transform="translate(-1.7 -14.17)" style="fill: #fff"/>
    <path d="M100.22,78.89A7.66,7.66,0,0,1,99.1,82q-1.12,2.1-1.56,2.1a.56.56,0,0,1-.54-.27c-1.38,2.86-2.5,4.28-3.37,4.28s-1.44-1.07-1.44-3.23a21.28,21.28,0,0,1,.82-6v-.08a7.26,7.26,0,0,1-.94,2.27s0,0,0-.09v-.17l0-.35a24.22,24.22,0,0,1,2.48-5.42c1.12-1.75,2.09-2.65,2.9-2.71l.17.44a3.32,3.32,0,0,1-.32.52A24.57,24.57,0,0,0,95,78.81a24.6,24.6,0,0,0-1.5,7.25c0,.81.13,1.22.41,1.22q1.16,0,2.75-5.39c.26-3.06.75-5.07,1.48-6a18,18,0,0,0,.09-2.21,3.83,3.83,0,0,0,0-.49,3.28,3.28,0,0,1,0-.48c0-.24.06-.36.17-.36s.33.37.46,1.11a11.65,11.65,0,0,1,.19,2,24.27,24.27,0,0,1-1.68,7.81.26.26,0,0,0,.18.09q.67,0,1.53-2.1a10.76,10.76,0,0,1,1.24-2.53A.55.55,0,0,1,100.22,78.89Z" transform="translate(-1.7 -14.17)" style="fill: #fff"/>
    <path d="M109.89,78.72q-.06,1.32-2,5.73c-1,2.35-1.93,3.53-2.66,3.53s-1-.68-1-2a24.41,24.41,0,0,1,1.35-6.63,35.46,35.46,0,0,0,1.34-5c0-.3-.08-.44-.23-.44q-1.55,0-6,16.27-1.78,6.48-5.65,22.4c-.37,1.63-.75,3.27-1.12,4.9a37,37,0,0,1-1.21,4.25c-.28.67-.51,1-.71,1-.45,0-.68-.73-.68-2.18a32.51,32.51,0,0,1,1-6.45q5.86-25.2,10.52-41.77l0-.08C100.71,78,99.57,80.9,99.4,80.9q.15-1,5.11-14.32c.43-1.16.82-1.75,1.15-1.75s.44.12.44.35a15.39,15.39,0,0,1-.47,1.84Q104,72.6,100.19,87.45q-3.48,13.45-5.76,23.33a92.3,92.3,0,0,0-1.89,9.08v.26q0,.09.06.09.33,0,3.28-12.43,3.72-15.66,5.91-23,3.63-12.42,5.59-12.43c.61,0,.91.59.91,1.77a22.94,22.94,0,0,1-1.23,5.8,24.41,24.41,0,0,0-1.22,5.26c0,.54.1.8.29.8.44,0,1.15-1.19,2.13-3.58A31.86,31.86,0,0,1,109.89,78.72Z" transform="translate(-1.7 -14.17)" style="fill: #fff"/>
    <path d="M117.18,78.89A7.66,7.66,0,0,1,116.06,82q-1.12,2.1-1.56,2.1a.56.56,0,0,1-.54-.27c-1.38,2.86-2.5,4.28-3.37,4.28s-1.44-1.07-1.44-3.23a21.28,21.28,0,0,1,.82-6v-.08a7.26,7.26,0,0,1-.94,2.27s0,0,0-.09v-.17l0-.35a24.22,24.22,0,0,1,2.48-5.42c1.12-1.75,2.09-2.65,2.9-2.71l.17.44a3.32,3.32,0,0,1-.32.52,24.57,24.57,0,0,0-2.34,5.51,24.6,24.6,0,0,0-1.5,7.25c0,.81.13,1.22.41,1.22q1.15,0,2.75-5.39c.25-3.06.75-5.07,1.48-6a18,18,0,0,0,.09-2.21,3.83,3.83,0,0,0-.05-.49,3.28,3.28,0,0,1,0-.48c0-.24.06-.36.17-.36s.33.37.46,1.11a11.65,11.65,0,0,1,.19,2,24.27,24.27,0,0,1-1.68,7.81.26.26,0,0,0,.18.09q.68,0,1.53-2.1a10.76,10.76,0,0,1,1.24-2.53A.55.55,0,0,1,117.18,78.89Z" transform="translate(-1.7 -14.17)" style="fill: #fff"/>
    <path d="M123.27,78.81c0,.76-.68,2.65-2,5.64Q119.64,88,118.6,88c-.61,0-.91-.7-.91-2.09a20.83,20.83,0,0,1,1.67-7Q121,74.53,121,74.44c0-.41-.26-.61-.77-.61h-.7a1.61,1.61,0,0,1-.41-.26c-.12.52-.59,1.89-1.4,4.1A23.42,23.42,0,0,1,116.42,81c-.06,0-.09-.09-.09-.26a3.29,3.29,0,0,1,.23-.79q.51-1.22,2.37-6.72a2.55,2.55,0,0,1-.21-1.23,4.87,4.87,0,0,1,.43-2.18c.28-.58.59-.87.9-.87s.45.29.53.87c-.16.35-.3.7-.44,1a4,4,0,0,0-.3,1.4c0,.41.34.68,1,.83s1,.71,1,1.7a28.11,28.11,0,0,1-1.24,4.85,23.09,23.09,0,0,0-1.24,5.63,1.54,1.54,0,0,0,.09.52h.15c.35.06,1-1.13,2.07-3.58s1.52-3.67,1.5-3.67S123.27,78.63,123.27,78.81Z" transform="translate(-1.7 -14.17)" style="fill: #fff"/>
    <path d="M131.22,74.79c0,1.75-.31,2.62-.92,2.62-.45,0-.68-.3-.68-.89a8.27,8.27,0,0,1,.11-.85,7.06,7.06,0,0,0,.1-1c0-.83-.15-1.25-.44-1.25q-1.09,0-3.71,7.3T122.44,88a.47.47,0,0,1-.47-.27v-.36q0-2.32,2.1-10.2v-.09c-.73,2.16-1.17,3.23-1.33,3.23s-.06,0-.06-.08a21.42,21.42,0,0,1,1.49-4.37c1-2.33,1.55-3.5,1.79-3.5s.56.35.56,1v.18q-.76,3.23-2.36,9.6l.06.09c1.3-3.46,2.18-5.72,2.66-6.78q1.86-4.14,3.13-4.14C130.82,72.34,131.22,73.16,131.22,74.79Zm1.24,4a15.73,15.73,0,0,1-.92,2.91c-.49,1.29-.86,2.23-1.12,2.82-1,2.29-1.87,3.44-2.54,3.44-.43,0-.73-.47-.89-1.4a29.37,29.37,0,0,1-.11-3.06q0-3.22-.48-2.7c.2-.53.49-.79.89-.79s.86,1,1,2.93.31,2.92.55,2.92c.43,0,1.11-1.18,2-3.53a23.54,23.54,0,0,1,1.58-3.63Z" transform="translate(-1.7 -14.17)" style="fill: #fff"/>
    <path d="M139,84.45Q137.49,88,136.42,88c-.57,0-.86-.71-.86-2.13a9.76,9.76,0,0,1,.42-2.94h0c-1.24,3.38-2.36,5.07-3.34,5.07-.75,0-1.12-1-1.12-2.91a19.2,19.2,0,0,1,.82-5.39h0c-.29.93-.48,1.4-.56,1.4s-.07,0-.09-.09v-.17l0-.35a21,21,0,0,1,2.47-5.37q1.73-2.76,2.76-2.76c.69,0,1,.76,1,2.28,0,.34,0,.72-.06,1.13h0c.67-2.27,1.28-3.41,1.83-3.41.26,0,.38.09.38.27s-.5,2.06-1.5,5.67a34.19,34.19,0,0,0-1.51,7.16l.06.44a.29.29,0,0,0,.21.09c.41,0,1.09-1.21,2-3.63s1.47-3.65,1.55-3.71l0,.09Q141,79.61,139,84.45ZM137.66,75c0-1-.19-1.57-.56-1.57s-1.36,1.69-2.56,5.07a25.59,25.59,0,0,0-1.78,7.16c0,.7.12,1,.38,1q.86,0,2.69-4.72A21.9,21.9,0,0,0,137.66,75Z" transform="translate(-1.7 -14.17)" style="fill: #fff"/>
  </g>
</svg>
